G04 #@! TF.GenerationSoftware,KiCad,Pcbnew,(5.1.0)-1*
G04 #@! TF.CreationDate,2021-03-18T21:34:57+01:00*
G04 #@! TF.ProjectId,Atari OSS Cartridge internal,41746172-6920-44f5-9353-204361727472,rev?*
G04 #@! TF.SameCoordinates,Original*
G04 #@! TF.FileFunction,Copper,L1,Top*
G04 #@! TF.FilePolarity,Positive*
%FSLAX46Y46*%
G04 Gerber Fmt 4.6, Leading zero omitted, Abs format (unit mm)*
G04 Created by KiCad (PCBNEW (5.1.0)-1) date 2021-03-18 21:34:57*
%MOMM*%
%LPD*%
G04 APERTURE LIST*
%ADD10C,0.100000*%
%ADD11C,1.425000*%
%ADD12O,1.700000X1.700000*%
%ADD13R,1.700000X1.700000*%
%ADD14C,0.950000*%
%ADD15C,1.500000*%
%ADD16R,1.500000X0.600000*%
%ADD17C,1.422400*%
%ADD18R,1.422400X1.422400*%
%ADD19C,0.900000*%
%ADD20C,0.800000*%
%ADD21C,0.812800*%
%ADD22C,0.254000*%
%ADD23C,0.406400*%
%ADD24C,0.304800*%
%ADD25C,0.609600*%
G04 APERTURE END LIST*
D10*
G36*
X138445504Y-85232204D02*
G01*
X138469773Y-85235804D01*
X138493571Y-85241765D01*
X138516671Y-85250030D01*
X138538849Y-85260520D01*
X138559893Y-85273133D01*
X138579598Y-85287747D01*
X138597777Y-85304223D01*
X138614253Y-85322402D01*
X138628867Y-85342107D01*
X138641480Y-85363151D01*
X138651970Y-85385329D01*
X138660235Y-85408429D01*
X138666196Y-85432227D01*
X138669796Y-85456496D01*
X138671000Y-85481000D01*
X138671000Y-86731000D01*
X138669796Y-86755504D01*
X138666196Y-86779773D01*
X138660235Y-86803571D01*
X138651970Y-86826671D01*
X138641480Y-86848849D01*
X138628867Y-86869893D01*
X138614253Y-86889598D01*
X138597777Y-86907777D01*
X138579598Y-86924253D01*
X138559893Y-86938867D01*
X138538849Y-86951480D01*
X138516671Y-86961970D01*
X138493571Y-86970235D01*
X138469773Y-86976196D01*
X138445504Y-86979796D01*
X138421000Y-86981000D01*
X137496000Y-86981000D01*
X137471496Y-86979796D01*
X137447227Y-86976196D01*
X137423429Y-86970235D01*
X137400329Y-86961970D01*
X137378151Y-86951480D01*
X137357107Y-86938867D01*
X137337402Y-86924253D01*
X137319223Y-86907777D01*
X137302747Y-86889598D01*
X137288133Y-86869893D01*
X137275520Y-86848849D01*
X137265030Y-86826671D01*
X137256765Y-86803571D01*
X137250804Y-86779773D01*
X137247204Y-86755504D01*
X137246000Y-86731000D01*
X137246000Y-85481000D01*
X137247204Y-85456496D01*
X137250804Y-85432227D01*
X137256765Y-85408429D01*
X137265030Y-85385329D01*
X137275520Y-85363151D01*
X137288133Y-85342107D01*
X137302747Y-85322402D01*
X137319223Y-85304223D01*
X137337402Y-85287747D01*
X137357107Y-85273133D01*
X137378151Y-85260520D01*
X137400329Y-85250030D01*
X137423429Y-85241765D01*
X137447227Y-85235804D01*
X137471496Y-85232204D01*
X137496000Y-85231000D01*
X138421000Y-85231000D01*
X138445504Y-85232204D01*
X138445504Y-85232204D01*
G37*
D11*
X137958500Y-86106000D03*
D10*
G36*
X141420504Y-85232204D02*
G01*
X141444773Y-85235804D01*
X141468571Y-85241765D01*
X141491671Y-85250030D01*
X141513849Y-85260520D01*
X141534893Y-85273133D01*
X141554598Y-85287747D01*
X141572777Y-85304223D01*
X141589253Y-85322402D01*
X141603867Y-85342107D01*
X141616480Y-85363151D01*
X141626970Y-85385329D01*
X141635235Y-85408429D01*
X141641196Y-85432227D01*
X141644796Y-85456496D01*
X141646000Y-85481000D01*
X141646000Y-86731000D01*
X141644796Y-86755504D01*
X141641196Y-86779773D01*
X141635235Y-86803571D01*
X141626970Y-86826671D01*
X141616480Y-86848849D01*
X141603867Y-86869893D01*
X141589253Y-86889598D01*
X141572777Y-86907777D01*
X141554598Y-86924253D01*
X141534893Y-86938867D01*
X141513849Y-86951480D01*
X141491671Y-86961970D01*
X141468571Y-86970235D01*
X141444773Y-86976196D01*
X141420504Y-86979796D01*
X141396000Y-86981000D01*
X140471000Y-86981000D01*
X140446496Y-86979796D01*
X140422227Y-86976196D01*
X140398429Y-86970235D01*
X140375329Y-86961970D01*
X140353151Y-86951480D01*
X140332107Y-86938867D01*
X140312402Y-86924253D01*
X140294223Y-86907777D01*
X140277747Y-86889598D01*
X140263133Y-86869893D01*
X140250520Y-86848849D01*
X140240030Y-86826671D01*
X140231765Y-86803571D01*
X140225804Y-86779773D01*
X140222204Y-86755504D01*
X140221000Y-86731000D01*
X140221000Y-85481000D01*
X140222204Y-85456496D01*
X140225804Y-85432227D01*
X140231765Y-85408429D01*
X140240030Y-85385329D01*
X140250520Y-85363151D01*
X140263133Y-85342107D01*
X140277747Y-85322402D01*
X140294223Y-85304223D01*
X140312402Y-85287747D01*
X140332107Y-85273133D01*
X140353151Y-85260520D01*
X140375329Y-85250030D01*
X140398429Y-85241765D01*
X140422227Y-85235804D01*
X140446496Y-85232204D01*
X140471000Y-85231000D01*
X141396000Y-85231000D01*
X141420504Y-85232204D01*
X141420504Y-85232204D01*
G37*
D11*
X140933500Y-86106000D03*
D10*
G36*
X136086504Y-85232204D02*
G01*
X136110773Y-85235804D01*
X136134571Y-85241765D01*
X136157671Y-85250030D01*
X136179849Y-85260520D01*
X136200893Y-85273133D01*
X136220598Y-85287747D01*
X136238777Y-85304223D01*
X136255253Y-85322402D01*
X136269867Y-85342107D01*
X136282480Y-85363151D01*
X136292970Y-85385329D01*
X136301235Y-85408429D01*
X136307196Y-85432227D01*
X136310796Y-85456496D01*
X136312000Y-85481000D01*
X136312000Y-86731000D01*
X136310796Y-86755504D01*
X136307196Y-86779773D01*
X136301235Y-86803571D01*
X136292970Y-86826671D01*
X136282480Y-86848849D01*
X136269867Y-86869893D01*
X136255253Y-86889598D01*
X136238777Y-86907777D01*
X136220598Y-86924253D01*
X136200893Y-86938867D01*
X136179849Y-86951480D01*
X136157671Y-86961970D01*
X136134571Y-86970235D01*
X136110773Y-86976196D01*
X136086504Y-86979796D01*
X136062000Y-86981000D01*
X135137000Y-86981000D01*
X135112496Y-86979796D01*
X135088227Y-86976196D01*
X135064429Y-86970235D01*
X135041329Y-86961970D01*
X135019151Y-86951480D01*
X134998107Y-86938867D01*
X134978402Y-86924253D01*
X134960223Y-86907777D01*
X134943747Y-86889598D01*
X134929133Y-86869893D01*
X134916520Y-86848849D01*
X134906030Y-86826671D01*
X134897765Y-86803571D01*
X134891804Y-86779773D01*
X134888204Y-86755504D01*
X134887000Y-86731000D01*
X134887000Y-85481000D01*
X134888204Y-85456496D01*
X134891804Y-85432227D01*
X134897765Y-85408429D01*
X134906030Y-85385329D01*
X134916520Y-85363151D01*
X134929133Y-85342107D01*
X134943747Y-85322402D01*
X134960223Y-85304223D01*
X134978402Y-85287747D01*
X134998107Y-85273133D01*
X135019151Y-85260520D01*
X135041329Y-85250030D01*
X135064429Y-85241765D01*
X135088227Y-85235804D01*
X135112496Y-85232204D01*
X135137000Y-85231000D01*
X136062000Y-85231000D01*
X136086504Y-85232204D01*
X136086504Y-85232204D01*
G37*
D11*
X135599500Y-86106000D03*
D10*
G36*
X133111504Y-85232204D02*
G01*
X133135773Y-85235804D01*
X133159571Y-85241765D01*
X133182671Y-85250030D01*
X133204849Y-85260520D01*
X133225893Y-85273133D01*
X133245598Y-85287747D01*
X133263777Y-85304223D01*
X133280253Y-85322402D01*
X133294867Y-85342107D01*
X133307480Y-85363151D01*
X133317970Y-85385329D01*
X133326235Y-85408429D01*
X133332196Y-85432227D01*
X133335796Y-85456496D01*
X133337000Y-85481000D01*
X133337000Y-86731000D01*
X133335796Y-86755504D01*
X133332196Y-86779773D01*
X133326235Y-86803571D01*
X133317970Y-86826671D01*
X133307480Y-86848849D01*
X133294867Y-86869893D01*
X133280253Y-86889598D01*
X133263777Y-86907777D01*
X133245598Y-86924253D01*
X133225893Y-86938867D01*
X133204849Y-86951480D01*
X133182671Y-86961970D01*
X133159571Y-86970235D01*
X133135773Y-86976196D01*
X133111504Y-86979796D01*
X133087000Y-86981000D01*
X132162000Y-86981000D01*
X132137496Y-86979796D01*
X132113227Y-86976196D01*
X132089429Y-86970235D01*
X132066329Y-86961970D01*
X132044151Y-86951480D01*
X132023107Y-86938867D01*
X132003402Y-86924253D01*
X131985223Y-86907777D01*
X131968747Y-86889598D01*
X131954133Y-86869893D01*
X131941520Y-86848849D01*
X131931030Y-86826671D01*
X131922765Y-86803571D01*
X131916804Y-86779773D01*
X131913204Y-86755504D01*
X131912000Y-86731000D01*
X131912000Y-85481000D01*
X131913204Y-85456496D01*
X131916804Y-85432227D01*
X131922765Y-85408429D01*
X131931030Y-85385329D01*
X131941520Y-85363151D01*
X131954133Y-85342107D01*
X131968747Y-85322402D01*
X131985223Y-85304223D01*
X132003402Y-85287747D01*
X132023107Y-85273133D01*
X132044151Y-85260520D01*
X132066329Y-85250030D01*
X132089429Y-85241765D01*
X132113227Y-85235804D01*
X132137496Y-85232204D01*
X132162000Y-85231000D01*
X133087000Y-85231000D01*
X133111504Y-85232204D01*
X133111504Y-85232204D01*
G37*
D11*
X132624500Y-86106000D03*
D10*
G36*
X123180104Y-88610404D02*
G01*
X123204373Y-88614004D01*
X123228171Y-88619965D01*
X123251271Y-88628230D01*
X123273449Y-88638720D01*
X123294493Y-88651333D01*
X123314198Y-88665947D01*
X123332377Y-88682423D01*
X123348853Y-88700602D01*
X123363467Y-88720307D01*
X123376080Y-88741351D01*
X123386570Y-88763529D01*
X123394835Y-88786629D01*
X123400796Y-88810427D01*
X123404396Y-88834696D01*
X123405600Y-88859200D01*
X123405600Y-90109200D01*
X123404396Y-90133704D01*
X123400796Y-90157973D01*
X123394835Y-90181771D01*
X123386570Y-90204871D01*
X123376080Y-90227049D01*
X123363467Y-90248093D01*
X123348853Y-90267798D01*
X123332377Y-90285977D01*
X123314198Y-90302453D01*
X123294493Y-90317067D01*
X123273449Y-90329680D01*
X123251271Y-90340170D01*
X123228171Y-90348435D01*
X123204373Y-90354396D01*
X123180104Y-90357996D01*
X123155600Y-90359200D01*
X122230600Y-90359200D01*
X122206096Y-90357996D01*
X122181827Y-90354396D01*
X122158029Y-90348435D01*
X122134929Y-90340170D01*
X122112751Y-90329680D01*
X122091707Y-90317067D01*
X122072002Y-90302453D01*
X122053823Y-90285977D01*
X122037347Y-90267798D01*
X122022733Y-90248093D01*
X122010120Y-90227049D01*
X121999630Y-90204871D01*
X121991365Y-90181771D01*
X121985404Y-90157973D01*
X121981804Y-90133704D01*
X121980600Y-90109200D01*
X121980600Y-88859200D01*
X121981804Y-88834696D01*
X121985404Y-88810427D01*
X121991365Y-88786629D01*
X121999630Y-88763529D01*
X122010120Y-88741351D01*
X122022733Y-88720307D01*
X122037347Y-88700602D01*
X122053823Y-88682423D01*
X122072002Y-88665947D01*
X122091707Y-88651333D01*
X122112751Y-88638720D01*
X122134929Y-88628230D01*
X122158029Y-88619965D01*
X122181827Y-88614004D01*
X122206096Y-88610404D01*
X122230600Y-88609200D01*
X123155600Y-88609200D01*
X123180104Y-88610404D01*
X123180104Y-88610404D01*
G37*
D11*
X122693100Y-89484200D03*
D10*
G36*
X126155104Y-88610404D02*
G01*
X126179373Y-88614004D01*
X126203171Y-88619965D01*
X126226271Y-88628230D01*
X126248449Y-88638720D01*
X126269493Y-88651333D01*
X126289198Y-88665947D01*
X126307377Y-88682423D01*
X126323853Y-88700602D01*
X126338467Y-88720307D01*
X126351080Y-88741351D01*
X126361570Y-88763529D01*
X126369835Y-88786629D01*
X126375796Y-88810427D01*
X126379396Y-88834696D01*
X126380600Y-88859200D01*
X126380600Y-90109200D01*
X126379396Y-90133704D01*
X126375796Y-90157973D01*
X126369835Y-90181771D01*
X126361570Y-90204871D01*
X126351080Y-90227049D01*
X126338467Y-90248093D01*
X126323853Y-90267798D01*
X126307377Y-90285977D01*
X126289198Y-90302453D01*
X126269493Y-90317067D01*
X126248449Y-90329680D01*
X126226271Y-90340170D01*
X126203171Y-90348435D01*
X126179373Y-90354396D01*
X126155104Y-90357996D01*
X126130600Y-90359200D01*
X125205600Y-90359200D01*
X125181096Y-90357996D01*
X125156827Y-90354396D01*
X125133029Y-90348435D01*
X125109929Y-90340170D01*
X125087751Y-90329680D01*
X125066707Y-90317067D01*
X125047002Y-90302453D01*
X125028823Y-90285977D01*
X125012347Y-90267798D01*
X124997733Y-90248093D01*
X124985120Y-90227049D01*
X124974630Y-90204871D01*
X124966365Y-90181771D01*
X124960404Y-90157973D01*
X124956804Y-90133704D01*
X124955600Y-90109200D01*
X124955600Y-88859200D01*
X124956804Y-88834696D01*
X124960404Y-88810427D01*
X124966365Y-88786629D01*
X124974630Y-88763529D01*
X124985120Y-88741351D01*
X124997733Y-88720307D01*
X125012347Y-88700602D01*
X125028823Y-88682423D01*
X125047002Y-88665947D01*
X125066707Y-88651333D01*
X125087751Y-88638720D01*
X125109929Y-88628230D01*
X125133029Y-88619965D01*
X125156827Y-88614004D01*
X125181096Y-88610404D01*
X125205600Y-88609200D01*
X126130600Y-88609200D01*
X126155104Y-88610404D01*
X126155104Y-88610404D01*
G37*
D11*
X125668100Y-89484200D03*
D10*
G36*
X118696004Y-86269404D02*
G01*
X118720273Y-86273004D01*
X118744071Y-86278965D01*
X118767171Y-86287230D01*
X118789349Y-86297720D01*
X118810393Y-86310333D01*
X118830098Y-86324947D01*
X118848277Y-86341423D01*
X118864753Y-86359602D01*
X118879367Y-86379307D01*
X118891980Y-86400351D01*
X118902470Y-86422529D01*
X118910735Y-86445629D01*
X118916696Y-86469427D01*
X118920296Y-86493696D01*
X118921500Y-86518200D01*
X118921500Y-87443200D01*
X118920296Y-87467704D01*
X118916696Y-87491973D01*
X118910735Y-87515771D01*
X118902470Y-87538871D01*
X118891980Y-87561049D01*
X118879367Y-87582093D01*
X118864753Y-87601798D01*
X118848277Y-87619977D01*
X118830098Y-87636453D01*
X118810393Y-87651067D01*
X118789349Y-87663680D01*
X118767171Y-87674170D01*
X118744071Y-87682435D01*
X118720273Y-87688396D01*
X118696004Y-87691996D01*
X118671500Y-87693200D01*
X117421500Y-87693200D01*
X117396996Y-87691996D01*
X117372727Y-87688396D01*
X117348929Y-87682435D01*
X117325829Y-87674170D01*
X117303651Y-87663680D01*
X117282607Y-87651067D01*
X117262902Y-87636453D01*
X117244723Y-87619977D01*
X117228247Y-87601798D01*
X117213633Y-87582093D01*
X117201020Y-87561049D01*
X117190530Y-87538871D01*
X117182265Y-87515771D01*
X117176304Y-87491973D01*
X117172704Y-87467704D01*
X117171500Y-87443200D01*
X117171500Y-86518200D01*
X117172704Y-86493696D01*
X117176304Y-86469427D01*
X117182265Y-86445629D01*
X117190530Y-86422529D01*
X117201020Y-86400351D01*
X117213633Y-86379307D01*
X117228247Y-86359602D01*
X117244723Y-86341423D01*
X117262902Y-86324947D01*
X117282607Y-86310333D01*
X117303651Y-86297720D01*
X117325829Y-86287230D01*
X117348929Y-86278965D01*
X117372727Y-86273004D01*
X117396996Y-86269404D01*
X117421500Y-86268200D01*
X118671500Y-86268200D01*
X118696004Y-86269404D01*
X118696004Y-86269404D01*
G37*
D11*
X118046500Y-86980700D03*
D10*
G36*
X118696004Y-89244404D02*
G01*
X118720273Y-89248004D01*
X118744071Y-89253965D01*
X118767171Y-89262230D01*
X118789349Y-89272720D01*
X118810393Y-89285333D01*
X118830098Y-89299947D01*
X118848277Y-89316423D01*
X118864753Y-89334602D01*
X118879367Y-89354307D01*
X118891980Y-89375351D01*
X118902470Y-89397529D01*
X118910735Y-89420629D01*
X118916696Y-89444427D01*
X118920296Y-89468696D01*
X118921500Y-89493200D01*
X118921500Y-90418200D01*
X118920296Y-90442704D01*
X118916696Y-90466973D01*
X118910735Y-90490771D01*
X118902470Y-90513871D01*
X118891980Y-90536049D01*
X118879367Y-90557093D01*
X118864753Y-90576798D01*
X118848277Y-90594977D01*
X118830098Y-90611453D01*
X118810393Y-90626067D01*
X118789349Y-90638680D01*
X118767171Y-90649170D01*
X118744071Y-90657435D01*
X118720273Y-90663396D01*
X118696004Y-90666996D01*
X118671500Y-90668200D01*
X117421500Y-90668200D01*
X117396996Y-90666996D01*
X117372727Y-90663396D01*
X117348929Y-90657435D01*
X117325829Y-90649170D01*
X117303651Y-90638680D01*
X117282607Y-90626067D01*
X117262902Y-90611453D01*
X117244723Y-90594977D01*
X117228247Y-90576798D01*
X117213633Y-90557093D01*
X117201020Y-90536049D01*
X117190530Y-90513871D01*
X117182265Y-90490771D01*
X117176304Y-90466973D01*
X117172704Y-90442704D01*
X117171500Y-90418200D01*
X117171500Y-89493200D01*
X117172704Y-89468696D01*
X117176304Y-89444427D01*
X117182265Y-89420629D01*
X117190530Y-89397529D01*
X117201020Y-89375351D01*
X117213633Y-89354307D01*
X117228247Y-89334602D01*
X117244723Y-89316423D01*
X117262902Y-89299947D01*
X117282607Y-89285333D01*
X117303651Y-89272720D01*
X117325829Y-89262230D01*
X117348929Y-89253965D01*
X117372727Y-89248004D01*
X117396996Y-89244404D01*
X117421500Y-89243200D01*
X118671500Y-89243200D01*
X118696004Y-89244404D01*
X118696004Y-89244404D01*
G37*
D11*
X118046500Y-89955700D03*
D12*
X135382000Y-89408000D03*
X137922000Y-89408000D03*
X135382000Y-91948000D03*
D13*
X137922000Y-91948000D03*
D10*
G36*
X115183579Y-101989744D02*
G01*
X115206634Y-101993163D01*
X115229243Y-101998827D01*
X115251187Y-102006679D01*
X115272257Y-102016644D01*
X115292248Y-102028626D01*
X115310968Y-102042510D01*
X115328238Y-102058162D01*
X115343890Y-102075432D01*
X115357774Y-102094152D01*
X115369756Y-102114143D01*
X115379721Y-102135213D01*
X115387573Y-102157157D01*
X115393237Y-102179766D01*
X115396656Y-102202821D01*
X115397800Y-102226100D01*
X115397800Y-102701100D01*
X115396656Y-102724379D01*
X115393237Y-102747434D01*
X115387573Y-102770043D01*
X115379721Y-102791987D01*
X115369756Y-102813057D01*
X115357774Y-102833048D01*
X115343890Y-102851768D01*
X115328238Y-102869038D01*
X115310968Y-102884690D01*
X115292248Y-102898574D01*
X115272257Y-102910556D01*
X115251187Y-102920521D01*
X115229243Y-102928373D01*
X115206634Y-102934037D01*
X115183579Y-102937456D01*
X115160300Y-102938600D01*
X114585300Y-102938600D01*
X114562021Y-102937456D01*
X114538966Y-102934037D01*
X114516357Y-102928373D01*
X114494413Y-102920521D01*
X114473343Y-102910556D01*
X114453352Y-102898574D01*
X114434632Y-102884690D01*
X114417362Y-102869038D01*
X114401710Y-102851768D01*
X114387826Y-102833048D01*
X114375844Y-102813057D01*
X114365879Y-102791987D01*
X114358027Y-102770043D01*
X114352363Y-102747434D01*
X114348944Y-102724379D01*
X114347800Y-102701100D01*
X114347800Y-102226100D01*
X114348944Y-102202821D01*
X114352363Y-102179766D01*
X114358027Y-102157157D01*
X114365879Y-102135213D01*
X114375844Y-102114143D01*
X114387826Y-102094152D01*
X114401710Y-102075432D01*
X114417362Y-102058162D01*
X114434632Y-102042510D01*
X114453352Y-102028626D01*
X114473343Y-102016644D01*
X114494413Y-102006679D01*
X114516357Y-101998827D01*
X114538966Y-101993163D01*
X114562021Y-101989744D01*
X114585300Y-101988600D01*
X115160300Y-101988600D01*
X115183579Y-101989744D01*
X115183579Y-101989744D01*
G37*
D14*
X114872800Y-102463600D03*
D10*
G36*
X116933579Y-101989744D02*
G01*
X116956634Y-101993163D01*
X116979243Y-101998827D01*
X117001187Y-102006679D01*
X117022257Y-102016644D01*
X117042248Y-102028626D01*
X117060968Y-102042510D01*
X117078238Y-102058162D01*
X117093890Y-102075432D01*
X117107774Y-102094152D01*
X117119756Y-102114143D01*
X117129721Y-102135213D01*
X117137573Y-102157157D01*
X117143237Y-102179766D01*
X117146656Y-102202821D01*
X117147800Y-102226100D01*
X117147800Y-102701100D01*
X117146656Y-102724379D01*
X117143237Y-102747434D01*
X117137573Y-102770043D01*
X117129721Y-102791987D01*
X117119756Y-102813057D01*
X117107774Y-102833048D01*
X117093890Y-102851768D01*
X117078238Y-102869038D01*
X117060968Y-102884690D01*
X117042248Y-102898574D01*
X117022257Y-102910556D01*
X117001187Y-102920521D01*
X116979243Y-102928373D01*
X116956634Y-102934037D01*
X116933579Y-102937456D01*
X116910300Y-102938600D01*
X116335300Y-102938600D01*
X116312021Y-102937456D01*
X116288966Y-102934037D01*
X116266357Y-102928373D01*
X116244413Y-102920521D01*
X116223343Y-102910556D01*
X116203352Y-102898574D01*
X116184632Y-102884690D01*
X116167362Y-102869038D01*
X116151710Y-102851768D01*
X116137826Y-102833048D01*
X116125844Y-102813057D01*
X116115879Y-102791987D01*
X116108027Y-102770043D01*
X116102363Y-102747434D01*
X116098944Y-102724379D01*
X116097800Y-102701100D01*
X116097800Y-102226100D01*
X116098944Y-102202821D01*
X116102363Y-102179766D01*
X116108027Y-102157157D01*
X116115879Y-102135213D01*
X116125844Y-102114143D01*
X116137826Y-102094152D01*
X116151710Y-102075432D01*
X116167362Y-102058162D01*
X116184632Y-102042510D01*
X116203352Y-102028626D01*
X116223343Y-102016644D01*
X116244413Y-102006679D01*
X116266357Y-101998827D01*
X116288966Y-101993163D01*
X116312021Y-101989744D01*
X116335300Y-101988600D01*
X116910300Y-101988600D01*
X116933579Y-101989744D01*
X116933579Y-101989744D01*
G37*
D14*
X116622800Y-102463600D03*
D10*
G36*
X115973404Y-85942004D02*
G01*
X115997673Y-85945604D01*
X116021471Y-85951565D01*
X116044571Y-85959830D01*
X116066749Y-85970320D01*
X116087793Y-85982933D01*
X116107498Y-85997547D01*
X116125677Y-86014023D01*
X116142153Y-86032202D01*
X116156767Y-86051907D01*
X116169380Y-86072951D01*
X116179870Y-86095129D01*
X116188135Y-86118229D01*
X116194096Y-86142027D01*
X116197696Y-86166296D01*
X116198900Y-86190800D01*
X116198900Y-87190800D01*
X116197696Y-87215304D01*
X116194096Y-87239573D01*
X116188135Y-87263371D01*
X116179870Y-87286471D01*
X116169380Y-87308649D01*
X116156767Y-87329693D01*
X116142153Y-87349398D01*
X116125677Y-87367577D01*
X116107498Y-87384053D01*
X116087793Y-87398667D01*
X116066749Y-87411280D01*
X116044571Y-87421770D01*
X116021471Y-87430035D01*
X115997673Y-87435996D01*
X115973404Y-87439596D01*
X115948900Y-87440800D01*
X114098900Y-87440800D01*
X114074396Y-87439596D01*
X114050127Y-87435996D01*
X114026329Y-87430035D01*
X114003229Y-87421770D01*
X113981051Y-87411280D01*
X113960007Y-87398667D01*
X113940302Y-87384053D01*
X113922123Y-87367577D01*
X113905647Y-87349398D01*
X113891033Y-87329693D01*
X113878420Y-87308649D01*
X113867930Y-87286471D01*
X113859665Y-87263371D01*
X113853704Y-87239573D01*
X113850104Y-87215304D01*
X113848900Y-87190800D01*
X113848900Y-86190800D01*
X113850104Y-86166296D01*
X113853704Y-86142027D01*
X113859665Y-86118229D01*
X113867930Y-86095129D01*
X113878420Y-86072951D01*
X113891033Y-86051907D01*
X113905647Y-86032202D01*
X113922123Y-86014023D01*
X113940302Y-85997547D01*
X113960007Y-85982933D01*
X113981051Y-85970320D01*
X114003229Y-85959830D01*
X114026329Y-85951565D01*
X114050127Y-85945604D01*
X114074396Y-85942004D01*
X114098900Y-85940800D01*
X115948900Y-85940800D01*
X115973404Y-85942004D01*
X115973404Y-85942004D01*
G37*
D15*
X115023900Y-86690800D03*
D10*
G36*
X115973404Y-89192004D02*
G01*
X115997673Y-89195604D01*
X116021471Y-89201565D01*
X116044571Y-89209830D01*
X116066749Y-89220320D01*
X116087793Y-89232933D01*
X116107498Y-89247547D01*
X116125677Y-89264023D01*
X116142153Y-89282202D01*
X116156767Y-89301907D01*
X116169380Y-89322951D01*
X116179870Y-89345129D01*
X116188135Y-89368229D01*
X116194096Y-89392027D01*
X116197696Y-89416296D01*
X116198900Y-89440800D01*
X116198900Y-90440800D01*
X116197696Y-90465304D01*
X116194096Y-90489573D01*
X116188135Y-90513371D01*
X116179870Y-90536471D01*
X116169380Y-90558649D01*
X116156767Y-90579693D01*
X116142153Y-90599398D01*
X116125677Y-90617577D01*
X116107498Y-90634053D01*
X116087793Y-90648667D01*
X116066749Y-90661280D01*
X116044571Y-90671770D01*
X116021471Y-90680035D01*
X115997673Y-90685996D01*
X115973404Y-90689596D01*
X115948900Y-90690800D01*
X114098900Y-90690800D01*
X114074396Y-90689596D01*
X114050127Y-90685996D01*
X114026329Y-90680035D01*
X114003229Y-90671770D01*
X113981051Y-90661280D01*
X113960007Y-90648667D01*
X113940302Y-90634053D01*
X113922123Y-90617577D01*
X113905647Y-90599398D01*
X113891033Y-90579693D01*
X113878420Y-90558649D01*
X113867930Y-90536471D01*
X113859665Y-90513371D01*
X113853704Y-90489573D01*
X113850104Y-90465304D01*
X113848900Y-90440800D01*
X113848900Y-89440800D01*
X113850104Y-89416296D01*
X113853704Y-89392027D01*
X113859665Y-89368229D01*
X113867930Y-89345129D01*
X113878420Y-89322951D01*
X113891033Y-89301907D01*
X113905647Y-89282202D01*
X113922123Y-89264023D01*
X113940302Y-89247547D01*
X113960007Y-89232933D01*
X113981051Y-89220320D01*
X114003229Y-89209830D01*
X114026329Y-89201565D01*
X114050127Y-89195604D01*
X114074396Y-89192004D01*
X114098900Y-89190800D01*
X115948900Y-89190800D01*
X115973404Y-89192004D01*
X115973404Y-89192004D01*
G37*
D15*
X115023900Y-89940800D03*
D16*
X125636000Y-92252800D03*
X125636000Y-93522800D03*
X125636000Y-94792800D03*
X125636000Y-96062800D03*
X125636000Y-97332800D03*
X125636000Y-98602800D03*
X125636000Y-99872800D03*
X120236000Y-99872800D03*
X120236000Y-98602800D03*
X120236000Y-97332800D03*
X120236000Y-96062800D03*
X120236000Y-94792800D03*
X120236000Y-93522800D03*
X120236000Y-92252800D03*
X116390400Y-104190800D03*
X116390400Y-105460800D03*
X116390400Y-106730800D03*
X116390400Y-108000800D03*
X116390400Y-109270800D03*
X116390400Y-110540800D03*
X116390400Y-111810800D03*
X110990400Y-111810800D03*
X110990400Y-110540800D03*
X110990400Y-109270800D03*
X110990400Y-108000800D03*
X110990400Y-106730800D03*
X110990400Y-105460800D03*
X110990400Y-104190800D03*
D17*
X141046200Y-103327200D03*
X141046200Y-105867200D03*
X141046200Y-108407200D03*
X141046200Y-110947200D03*
X143586200Y-103327200D03*
X143586200Y-105867200D03*
X143586200Y-108407200D03*
X143586200Y-110947200D03*
X138506200Y-110947200D03*
X135966200Y-110947200D03*
X141046200Y-113487200D03*
X138506200Y-113487200D03*
X135966200Y-113487200D03*
X133426200Y-113487200D03*
X133426200Y-110947200D03*
X133426200Y-108407200D03*
X133426200Y-105867200D03*
X133426200Y-103327200D03*
X130886200Y-110947200D03*
X130886200Y-108407200D03*
X130886200Y-105867200D03*
X130886200Y-103327200D03*
X130886200Y-100787200D03*
X141046200Y-98247200D03*
X138506200Y-98247200D03*
X133426200Y-98247200D03*
X135966200Y-98247200D03*
X143586200Y-100787200D03*
X141046200Y-100787200D03*
X133426200Y-100787200D03*
X135966200Y-100787200D03*
D18*
X138506200Y-100787200D03*
D12*
X121031000Y-104063800D03*
X121031000Y-106603800D03*
X121031000Y-109143800D03*
D13*
X121031000Y-111683800D03*
D10*
G36*
X112493604Y-85942004D02*
G01*
X112517873Y-85945604D01*
X112541671Y-85951565D01*
X112564771Y-85959830D01*
X112586949Y-85970320D01*
X112607993Y-85982933D01*
X112627698Y-85997547D01*
X112645877Y-86014023D01*
X112662353Y-86032202D01*
X112676967Y-86051907D01*
X112689580Y-86072951D01*
X112700070Y-86095129D01*
X112708335Y-86118229D01*
X112714296Y-86142027D01*
X112717896Y-86166296D01*
X112719100Y-86190800D01*
X112719100Y-87190800D01*
X112717896Y-87215304D01*
X112714296Y-87239573D01*
X112708335Y-87263371D01*
X112700070Y-87286471D01*
X112689580Y-87308649D01*
X112676967Y-87329693D01*
X112662353Y-87349398D01*
X112645877Y-87367577D01*
X112627698Y-87384053D01*
X112607993Y-87398667D01*
X112586949Y-87411280D01*
X112564771Y-87421770D01*
X112541671Y-87430035D01*
X112517873Y-87435996D01*
X112493604Y-87439596D01*
X112469100Y-87440800D01*
X110619100Y-87440800D01*
X110594596Y-87439596D01*
X110570327Y-87435996D01*
X110546529Y-87430035D01*
X110523429Y-87421770D01*
X110501251Y-87411280D01*
X110480207Y-87398667D01*
X110460502Y-87384053D01*
X110442323Y-87367577D01*
X110425847Y-87349398D01*
X110411233Y-87329693D01*
X110398620Y-87308649D01*
X110388130Y-87286471D01*
X110379865Y-87263371D01*
X110373904Y-87239573D01*
X110370304Y-87215304D01*
X110369100Y-87190800D01*
X110369100Y-86190800D01*
X110370304Y-86166296D01*
X110373904Y-86142027D01*
X110379865Y-86118229D01*
X110388130Y-86095129D01*
X110398620Y-86072951D01*
X110411233Y-86051907D01*
X110425847Y-86032202D01*
X110442323Y-86014023D01*
X110460502Y-85997547D01*
X110480207Y-85982933D01*
X110501251Y-85970320D01*
X110523429Y-85959830D01*
X110546529Y-85951565D01*
X110570327Y-85945604D01*
X110594596Y-85942004D01*
X110619100Y-85940800D01*
X112469100Y-85940800D01*
X112493604Y-85942004D01*
X112493604Y-85942004D01*
G37*
D15*
X111544100Y-86690800D03*
D10*
G36*
X112493604Y-89192004D02*
G01*
X112517873Y-89195604D01*
X112541671Y-89201565D01*
X112564771Y-89209830D01*
X112586949Y-89220320D01*
X112607993Y-89232933D01*
X112627698Y-89247547D01*
X112645877Y-89264023D01*
X112662353Y-89282202D01*
X112676967Y-89301907D01*
X112689580Y-89322951D01*
X112700070Y-89345129D01*
X112708335Y-89368229D01*
X112714296Y-89392027D01*
X112717896Y-89416296D01*
X112719100Y-89440800D01*
X112719100Y-90440800D01*
X112717896Y-90465304D01*
X112714296Y-90489573D01*
X112708335Y-90513371D01*
X112700070Y-90536471D01*
X112689580Y-90558649D01*
X112676967Y-90579693D01*
X112662353Y-90599398D01*
X112645877Y-90617577D01*
X112627698Y-90634053D01*
X112607993Y-90648667D01*
X112586949Y-90661280D01*
X112564771Y-90671770D01*
X112541671Y-90680035D01*
X112517873Y-90685996D01*
X112493604Y-90689596D01*
X112469100Y-90690800D01*
X110619100Y-90690800D01*
X110594596Y-90689596D01*
X110570327Y-90685996D01*
X110546529Y-90680035D01*
X110523429Y-90671770D01*
X110501251Y-90661280D01*
X110480207Y-90648667D01*
X110460502Y-90634053D01*
X110442323Y-90617577D01*
X110425847Y-90599398D01*
X110411233Y-90579693D01*
X110398620Y-90558649D01*
X110388130Y-90536471D01*
X110379865Y-90513371D01*
X110373904Y-90489573D01*
X110370304Y-90465304D01*
X110369100Y-90440800D01*
X110369100Y-89440800D01*
X110370304Y-89416296D01*
X110373904Y-89392027D01*
X110379865Y-89368229D01*
X110388130Y-89345129D01*
X110398620Y-89322951D01*
X110411233Y-89301907D01*
X110425847Y-89282202D01*
X110442323Y-89264023D01*
X110460502Y-89247547D01*
X110480207Y-89232933D01*
X110501251Y-89220320D01*
X110523429Y-89209830D01*
X110546529Y-89201565D01*
X110570327Y-89195604D01*
X110594596Y-89192004D01*
X110619100Y-89190800D01*
X112469100Y-89190800D01*
X112493604Y-89192004D01*
X112493604Y-89192004D01*
G37*
D15*
X111544100Y-89940800D03*
D16*
X116390400Y-92252800D03*
X116390400Y-93522800D03*
X116390400Y-94792800D03*
X116390400Y-96062800D03*
X116390400Y-97332800D03*
X116390400Y-98602800D03*
X116390400Y-99872800D03*
X110990400Y-99872800D03*
X110990400Y-98602800D03*
X110990400Y-97332800D03*
X110990400Y-96062800D03*
X110990400Y-94792800D03*
X110990400Y-93522800D03*
X110990400Y-92252800D03*
D10*
G36*
X123180104Y-86121204D02*
G01*
X123204373Y-86124804D01*
X123228171Y-86130765D01*
X123251271Y-86139030D01*
X123273449Y-86149520D01*
X123294493Y-86162133D01*
X123314198Y-86176747D01*
X123332377Y-86193223D01*
X123348853Y-86211402D01*
X123363467Y-86231107D01*
X123376080Y-86252151D01*
X123386570Y-86274329D01*
X123394835Y-86297429D01*
X123400796Y-86321227D01*
X123404396Y-86345496D01*
X123405600Y-86370000D01*
X123405600Y-87620000D01*
X123404396Y-87644504D01*
X123400796Y-87668773D01*
X123394835Y-87692571D01*
X123386570Y-87715671D01*
X123376080Y-87737849D01*
X123363467Y-87758893D01*
X123348853Y-87778598D01*
X123332377Y-87796777D01*
X123314198Y-87813253D01*
X123294493Y-87827867D01*
X123273449Y-87840480D01*
X123251271Y-87850970D01*
X123228171Y-87859235D01*
X123204373Y-87865196D01*
X123180104Y-87868796D01*
X123155600Y-87870000D01*
X122230600Y-87870000D01*
X122206096Y-87868796D01*
X122181827Y-87865196D01*
X122158029Y-87859235D01*
X122134929Y-87850970D01*
X122112751Y-87840480D01*
X122091707Y-87827867D01*
X122072002Y-87813253D01*
X122053823Y-87796777D01*
X122037347Y-87778598D01*
X122022733Y-87758893D01*
X122010120Y-87737849D01*
X121999630Y-87715671D01*
X121991365Y-87692571D01*
X121985404Y-87668773D01*
X121981804Y-87644504D01*
X121980600Y-87620000D01*
X121980600Y-86370000D01*
X121981804Y-86345496D01*
X121985404Y-86321227D01*
X121991365Y-86297429D01*
X121999630Y-86274329D01*
X122010120Y-86252151D01*
X122022733Y-86231107D01*
X122037347Y-86211402D01*
X122053823Y-86193223D01*
X122072002Y-86176747D01*
X122091707Y-86162133D01*
X122112751Y-86149520D01*
X122134929Y-86139030D01*
X122158029Y-86130765D01*
X122181827Y-86124804D01*
X122206096Y-86121204D01*
X122230600Y-86120000D01*
X123155600Y-86120000D01*
X123180104Y-86121204D01*
X123180104Y-86121204D01*
G37*
D11*
X122693100Y-86995000D03*
D10*
G36*
X126155104Y-86121204D02*
G01*
X126179373Y-86124804D01*
X126203171Y-86130765D01*
X126226271Y-86139030D01*
X126248449Y-86149520D01*
X126269493Y-86162133D01*
X126289198Y-86176747D01*
X126307377Y-86193223D01*
X126323853Y-86211402D01*
X126338467Y-86231107D01*
X126351080Y-86252151D01*
X126361570Y-86274329D01*
X126369835Y-86297429D01*
X126375796Y-86321227D01*
X126379396Y-86345496D01*
X126380600Y-86370000D01*
X126380600Y-87620000D01*
X126379396Y-87644504D01*
X126375796Y-87668773D01*
X126369835Y-87692571D01*
X126361570Y-87715671D01*
X126351080Y-87737849D01*
X126338467Y-87758893D01*
X126323853Y-87778598D01*
X126307377Y-87796777D01*
X126289198Y-87813253D01*
X126269493Y-87827867D01*
X126248449Y-87840480D01*
X126226271Y-87850970D01*
X126203171Y-87859235D01*
X126179373Y-87865196D01*
X126155104Y-87868796D01*
X126130600Y-87870000D01*
X125205600Y-87870000D01*
X125181096Y-87868796D01*
X125156827Y-87865196D01*
X125133029Y-87859235D01*
X125109929Y-87850970D01*
X125087751Y-87840480D01*
X125066707Y-87827867D01*
X125047002Y-87813253D01*
X125028823Y-87796777D01*
X125012347Y-87778598D01*
X124997733Y-87758893D01*
X124985120Y-87737849D01*
X124974630Y-87715671D01*
X124966365Y-87692571D01*
X124960404Y-87668773D01*
X124956804Y-87644504D01*
X124955600Y-87620000D01*
X124955600Y-86370000D01*
X124956804Y-86345496D01*
X124960404Y-86321227D01*
X124966365Y-86297429D01*
X124974630Y-86274329D01*
X124985120Y-86252151D01*
X124997733Y-86231107D01*
X125012347Y-86211402D01*
X125028823Y-86193223D01*
X125047002Y-86176747D01*
X125066707Y-86162133D01*
X125087751Y-86149520D01*
X125109929Y-86139030D01*
X125133029Y-86130765D01*
X125156827Y-86124804D01*
X125181096Y-86121204D01*
X125205600Y-86120000D01*
X126130600Y-86120000D01*
X126155104Y-86121204D01*
X126155104Y-86121204D01*
G37*
D11*
X125668100Y-86995000D03*
D17*
X129616200Y-114757200D03*
X129616200Y-112217200D03*
X129616200Y-109677200D03*
X129616200Y-107137200D03*
X129616200Y-104597200D03*
X129616200Y-102057200D03*
X129616200Y-99517200D03*
X129616200Y-96977200D03*
X129616200Y-94437200D03*
X129616200Y-91897200D03*
X129616200Y-89357200D03*
D18*
X129616200Y-86817200D03*
D17*
X144856200Y-114757200D03*
X144856200Y-112217200D03*
X144856200Y-109677200D03*
X144856200Y-107137200D03*
X144856200Y-104597200D03*
X144856200Y-102057200D03*
X144856200Y-99517200D03*
X144856200Y-96977200D03*
X144856200Y-94437200D03*
X144856200Y-91897200D03*
X144856200Y-89357200D03*
D18*
X144856200Y-86817200D03*
D19*
X135940800Y-103403400D03*
X135940800Y-105765600D03*
X138176000Y-105740200D03*
X138226800Y-103403400D03*
D20*
X120459500Y-88455500D03*
D19*
X120459500Y-89598500D03*
X113284000Y-88328500D03*
X109474000Y-88328500D03*
X109474000Y-91122500D03*
X109410500Y-85598000D03*
X109537500Y-101981000D03*
X109474000Y-114554000D03*
X111760000Y-114554000D03*
X114046000Y-114554000D03*
X116586000Y-114554000D03*
X122682000Y-114554000D03*
X125222000Y-114554000D03*
X125222000Y-109296200D03*
X118364000Y-101092000D03*
X118364000Y-104648000D03*
X125222000Y-107213400D03*
X135890000Y-107950000D03*
X138176000Y-107950000D03*
X143002000Y-91719400D03*
X139852400Y-90728800D03*
X139852400Y-88442800D03*
X142976600Y-89839800D03*
X118364000Y-106781600D03*
D20*
X112598200Y-93522800D03*
X127076200Y-113512600D03*
X114884200Y-94792800D03*
D19*
X131775200Y-89357200D03*
X134594600Y-94462600D03*
X134594600Y-96850200D03*
D20*
X128447800Y-90627200D03*
X121869200Y-95453200D03*
X114554000Y-92265500D03*
X120967500Y-86995000D03*
X113080800Y-104190800D03*
X114884200Y-96062800D03*
X124180600Y-93522800D03*
X112598200Y-99847400D03*
X112522000Y-110540800D03*
X118643400Y-97332800D03*
X114681000Y-98272600D03*
X112496600Y-97332800D03*
X112496602Y-109270800D03*
X114909600Y-110540800D03*
X114909600Y-105460800D03*
X139776200Y-112344200D03*
X118618000Y-96062800D03*
X131775200Y-113995200D03*
X127203200Y-91033600D03*
X118541800Y-92252800D03*
D21*
X129616200Y-114757200D02*
X129844800Y-114985800D01*
D22*
X135940800Y-103403400D02*
X135940800Y-105765600D01*
X138150600Y-105765600D02*
X138176000Y-105740200D01*
X135940800Y-105765600D02*
X138150600Y-105765600D01*
X138176000Y-103454200D02*
X138226800Y-103403400D01*
X138176000Y-105740200D02*
X138176000Y-103454200D01*
X138226800Y-103403400D02*
X135940800Y-103403400D01*
X136677399Y-112776001D02*
X135966200Y-113487200D01*
X137261600Y-112191800D02*
X136677399Y-112776001D01*
X138176000Y-105740200D02*
X137261600Y-106654600D01*
D23*
X137261600Y-106654600D02*
X137261600Y-112191800D01*
D24*
X136677399Y-98958399D02*
X135966200Y-98247200D01*
X137236200Y-99517200D02*
X136677399Y-98958399D01*
X135940800Y-103403400D02*
X137236200Y-102108000D01*
D23*
X110998000Y-102463600D02*
X110990400Y-102456000D01*
X114884200Y-101066600D02*
X114872800Y-101078000D01*
X120236000Y-101048800D02*
X120218200Y-101066600D01*
X125425200Y-114757200D02*
X125222000Y-114554000D01*
X129616200Y-114757200D02*
X125425200Y-114757200D01*
X135440001Y-108399999D02*
X135890000Y-107950000D01*
X134696200Y-109143800D02*
X135440001Y-108399999D01*
X135966200Y-113487200D02*
X134696200Y-112217200D01*
X134696200Y-112217200D02*
X134696200Y-109143800D01*
D24*
X128905001Y-107848399D02*
X129616200Y-107137200D01*
X128397000Y-108356400D02*
X128905001Y-107848399D01*
X128397000Y-110426500D02*
X128397000Y-108356400D01*
X130886200Y-110947200D02*
X128917700Y-110947200D01*
X128917700Y-110947200D02*
X128397000Y-110426500D01*
X110990400Y-93522800D02*
X112598200Y-93522800D01*
X132715001Y-109118399D02*
X133426200Y-108407200D01*
X132156200Y-109677200D02*
X132715001Y-109118399D01*
X132156200Y-111963200D02*
X132156200Y-109677200D01*
X127076200Y-113512600D02*
X130606800Y-113512600D01*
X130606800Y-113512600D02*
X132156200Y-111963200D01*
X130621988Y-102057200D02*
X129616200Y-102057200D01*
X131576208Y-102057200D02*
X130621988Y-102057200D01*
X132156200Y-102637192D02*
X131576208Y-102057200D01*
X132156200Y-107721400D02*
X132156200Y-102637192D01*
X130886200Y-108407200D02*
X131470400Y-108407200D01*
X131470400Y-108407200D02*
X132156200Y-107721400D01*
D22*
X130886200Y-105867200D02*
X128879600Y-105867200D01*
X128879600Y-105867200D02*
X128371600Y-105359200D01*
X128371600Y-99568000D02*
X128371600Y-98221800D01*
X128371600Y-105359200D02*
X128371600Y-99974400D01*
X128371600Y-99974400D02*
X128371600Y-99568000D01*
D24*
X128371600Y-99974400D02*
X128371600Y-100177600D01*
X116390400Y-94792800D02*
X114884200Y-94792800D01*
D22*
X128397000Y-96977200D02*
X129616200Y-96977200D01*
X128371600Y-97002600D02*
X128397000Y-96977200D01*
X128371600Y-98221800D02*
X128371600Y-97002600D01*
D24*
X129616200Y-94843600D02*
X129616200Y-94437200D01*
X133426200Y-102844600D02*
X132156200Y-101574600D01*
X133426200Y-103327200D02*
X133426200Y-102844600D01*
X132156200Y-101574600D02*
X132156200Y-100101400D01*
X132156200Y-100101400D02*
X131140200Y-99085400D01*
X131140200Y-99085400D02*
X131140200Y-96367600D01*
X131140200Y-96367600D02*
X129616200Y-94843600D01*
X130733800Y-89357200D02*
X129616200Y-89357200D01*
X131775200Y-89357200D02*
X130733800Y-89357200D01*
X139776200Y-109677200D02*
X144856200Y-109677200D01*
X138506200Y-110947200D02*
X139776200Y-109677200D01*
D22*
X145567399Y-100228399D02*
X144856200Y-99517200D01*
X146100800Y-100761800D02*
X145567399Y-100228399D01*
X146100800Y-107873800D02*
X146100800Y-100761800D01*
X143586200Y-108407200D02*
X145567400Y-108407200D01*
X145567400Y-108407200D02*
X146100800Y-107873800D01*
D24*
X144856200Y-94437200D02*
X134620000Y-94437200D01*
X134620000Y-94437200D02*
X134594600Y-94462600D01*
X121869200Y-94887515D02*
X121869200Y-95453200D01*
X121869200Y-94081600D02*
X121869200Y-94887515D01*
X120236000Y-93522800D02*
X121310400Y-93522800D01*
X121310400Y-93522800D02*
X121869200Y-94081600D01*
X121869200Y-96018885D02*
X121869200Y-95453200D01*
X121869200Y-97993200D02*
X121869200Y-96018885D01*
X120236000Y-98602800D02*
X121259600Y-98602800D01*
X121259600Y-98602800D02*
X121869200Y-97993200D01*
X130835400Y-90627200D02*
X128447800Y-90627200D01*
X131622800Y-91414600D02*
X130835400Y-90627200D01*
X131622800Y-94843600D02*
X131622800Y-91414600D01*
X134594600Y-96850200D02*
X133629400Y-96850200D01*
X133629400Y-96850200D02*
X131622800Y-94843600D01*
D21*
X138506200Y-98247200D02*
X138506200Y-100787200D01*
X138506200Y-100787200D02*
X141046200Y-100787200D01*
D25*
X116622800Y-103958400D02*
X116390400Y-104190800D01*
D21*
X116622800Y-102463600D02*
X116622800Y-103958400D01*
D25*
X132765800Y-85750400D02*
X132807001Y-85791601D01*
X118031600Y-89940800D02*
X118046500Y-89955700D01*
D21*
X116420300Y-89940800D02*
X118031600Y-89940800D01*
X115023900Y-89940800D02*
X116420300Y-89940800D01*
X119200600Y-91109800D02*
X118046500Y-89955700D01*
X121386600Y-91109800D02*
X119200600Y-91109800D01*
D23*
X140958900Y-86131400D02*
X140933500Y-86106000D01*
X144856200Y-86817200D02*
X144170400Y-86131400D01*
X144170400Y-86131400D02*
X140958900Y-86131400D01*
D21*
X131773803Y-85255303D02*
X132624500Y-86106000D01*
X126428297Y-85255303D02*
X131773803Y-85255303D01*
X125668100Y-86015500D02*
X126428297Y-85255303D01*
X125668100Y-86995000D02*
X125668100Y-89484200D01*
X125668100Y-86015500D02*
X125668100Y-86995000D01*
D25*
X125668100Y-92220700D02*
X125636000Y-92252800D01*
D21*
X125668100Y-89484200D02*
X125668100Y-92220700D01*
X122529600Y-92252800D02*
X121386600Y-91109800D01*
X123063000Y-92252800D02*
X122529600Y-92252800D01*
X125636000Y-92252800D02*
X123063000Y-92252800D01*
D25*
X116673600Y-102412800D02*
X116622800Y-102463600D01*
D21*
X121107200Y-102412800D02*
X116673600Y-102412800D01*
X123088400Y-100431600D02*
X121107200Y-102412800D01*
D25*
X123063000Y-92252800D02*
X123088400Y-92278200D01*
D21*
X123088400Y-92278200D02*
X123088400Y-100431600D01*
D25*
X132807001Y-86288501D02*
X132624500Y-86106000D01*
D21*
X132807001Y-94478401D02*
X132807001Y-86288501D01*
X133959600Y-95631000D02*
X132807001Y-94478401D01*
X136260634Y-95631000D02*
X133959600Y-95631000D01*
D25*
X138506200Y-98247200D02*
X138506200Y-97876566D01*
D21*
X138506200Y-97876566D02*
X136260634Y-95631000D01*
X116390400Y-91904800D02*
X116390400Y-92252800D01*
X115023900Y-89940800D02*
X115023900Y-90538300D01*
X115023900Y-90538300D02*
X116390400Y-91904800D01*
D24*
X115335600Y-93522800D02*
X116390400Y-93522800D01*
X114350800Y-93522800D02*
X115335600Y-93522800D01*
X110990400Y-92252800D02*
X113080800Y-92252800D01*
X114154001Y-92665499D02*
X113823750Y-92995750D01*
X114554000Y-92265500D02*
X114154001Y-92665499D01*
X113080800Y-92252800D02*
X113823750Y-92995750D01*
X113823750Y-92995750D02*
X114350800Y-93522800D01*
X110990400Y-90494500D02*
X111544100Y-89940800D01*
X110990400Y-92252800D02*
X110990400Y-90494500D01*
X120967500Y-86995000D02*
X122693100Y-86995000D01*
X137859800Y-88657400D02*
X137668000Y-88849200D01*
X137958500Y-89371500D02*
X137922000Y-89408000D01*
X137958500Y-86106000D02*
X137958500Y-89371500D01*
X137668000Y-91694000D02*
X137668000Y-91389200D01*
X145897600Y-93141800D02*
X139115800Y-93141800D01*
X143586200Y-96291400D02*
X144145000Y-95732600D01*
X143586200Y-100787200D02*
X143586200Y-96291400D01*
X139115800Y-93141800D02*
X137668000Y-91694000D01*
X145973800Y-95732600D02*
X146177000Y-95529400D01*
X144145000Y-95732600D02*
X145973800Y-95732600D01*
X146177000Y-95529400D02*
X146177000Y-93421200D01*
X146177000Y-93421200D02*
X145897600Y-93141800D01*
X136370847Y-86877347D02*
X135599500Y-86106000D01*
X136652000Y-87158500D02*
X136370847Y-86877347D01*
X136652000Y-90779600D02*
X136652000Y-87158500D01*
X137922000Y-91948000D02*
X137820400Y-91948000D01*
X137820400Y-91948000D02*
X136652000Y-90779600D01*
X119888000Y-108000800D02*
X121031000Y-109143800D01*
X116390400Y-108000800D02*
X119888000Y-108000800D01*
X113080800Y-104190800D02*
X110990400Y-104190800D01*
X124581200Y-96062800D02*
X124053600Y-96590400D01*
X125636000Y-96062800D02*
X124581200Y-96062800D01*
X124053600Y-96590400D02*
X124053600Y-103733600D01*
X123723400Y-104063800D02*
X121031000Y-104063800D01*
X124053600Y-103733600D02*
X123723400Y-104063800D01*
X125636000Y-98602800D02*
X125636000Y-99872800D01*
X125636000Y-99872800D02*
X125636000Y-105046800D01*
X124079000Y-106603800D02*
X121031000Y-106603800D01*
X125636000Y-105046800D02*
X124079000Y-106603800D01*
D22*
X115386400Y-96062800D02*
X116390400Y-96062800D01*
D24*
X113893600Y-96062800D02*
X114884200Y-96062800D01*
X110990400Y-94792800D02*
X112623600Y-94792800D01*
X112623600Y-94792800D02*
X113893600Y-96062800D01*
D22*
X114884200Y-96062800D02*
X115386400Y-96062800D01*
D24*
X125636000Y-93522800D02*
X124180600Y-93522800D01*
X115386400Y-97332800D02*
X116390400Y-97332800D01*
X113766600Y-97332800D02*
X115386400Y-97332800D01*
X110990400Y-96062800D02*
X112496600Y-96062800D01*
X112496600Y-96062800D02*
X113766600Y-97332800D01*
X117445200Y-98602800D02*
X117805200Y-98242800D01*
X116390400Y-98602800D02*
X117445200Y-98602800D01*
X117805200Y-98242800D02*
X117805200Y-95250000D01*
X118262400Y-94792800D02*
X120236000Y-94792800D01*
X117805200Y-95250000D02*
X118262400Y-94792800D01*
D22*
X112522000Y-110540800D02*
X110990400Y-110540800D01*
D24*
X112623600Y-99872800D02*
X112598200Y-99847400D01*
X116390400Y-99872800D02*
X112623600Y-99872800D01*
X110990400Y-98602800D02*
X112572800Y-98602800D01*
X118643400Y-97332800D02*
X120236000Y-97332800D01*
X112572800Y-98602800D02*
X114350800Y-98602800D01*
X114350800Y-98602800D02*
X114681000Y-98272600D01*
D22*
X110990400Y-97332800D02*
X112496600Y-97332800D01*
X110990400Y-109270800D02*
X112496602Y-109270800D01*
D24*
X126644400Y-97332800D02*
X125636000Y-97332800D01*
X126923800Y-97053400D02*
X126644400Y-97332800D01*
X126923800Y-95123000D02*
X126923800Y-97053400D01*
X125636000Y-94792800D02*
X126593600Y-94792800D01*
X126593600Y-94792800D02*
X126923800Y-95123000D01*
D22*
X116390400Y-111810800D02*
X116390400Y-110540800D01*
D24*
X116390400Y-110540800D02*
X114909600Y-110540800D01*
X114909600Y-105460800D02*
X116390400Y-105460800D01*
X110990400Y-106730800D02*
X116390400Y-106730800D01*
X110990400Y-105460800D02*
X110990400Y-106730800D01*
X110990400Y-106730800D02*
X110990400Y-108000800D01*
X120236000Y-96062800D02*
X118618000Y-96062800D01*
X139776200Y-112344200D02*
X139776200Y-114630200D01*
X139776200Y-114630200D02*
X139468210Y-114938190D01*
X139468210Y-114938190D02*
X132718190Y-114938190D01*
X132718190Y-114938190D02*
X132175199Y-114395199D01*
X132175199Y-114395199D02*
X131775200Y-113995200D01*
X117754400Y-109270800D02*
X116390400Y-109270800D01*
X118973600Y-110490000D02*
X117754400Y-109270800D01*
X142570200Y-112471200D02*
X142570200Y-114274600D01*
X141046200Y-110947200D02*
X142570200Y-112471200D01*
X142570200Y-114274600D02*
X140893800Y-115951000D01*
X140893800Y-115951000D02*
X122021600Y-115951000D01*
X122021600Y-115951000D02*
X118973600Y-112903000D01*
X118973600Y-112903000D02*
X118973600Y-110490000D01*
X118541800Y-92252800D02*
X120236000Y-92252800D01*
X133426200Y-97637600D02*
X133426200Y-98247200D01*
X127203200Y-91643200D02*
X128727200Y-93167200D01*
X127203200Y-91033600D02*
X127203200Y-91643200D01*
X128727200Y-93167200D02*
X130429000Y-93167200D01*
X130429000Y-93167200D02*
X130962400Y-93700600D01*
X130962400Y-93700600D02*
X130962400Y-95173800D01*
X130962400Y-95173800D02*
X133426200Y-97637600D01*
D22*
G36*
X124967890Y-85242949D02*
G01*
X124928157Y-85275557D01*
X124798019Y-85434130D01*
X124751116Y-85521879D01*
X124705422Y-85607368D01*
X124701317Y-85615047D01*
X124691021Y-85648987D01*
X124577638Y-85742038D01*
X124467195Y-85876614D01*
X124385128Y-86030150D01*
X124334592Y-86196746D01*
X124317528Y-86370000D01*
X124317528Y-87620000D01*
X124334592Y-87793254D01*
X124385128Y-87959850D01*
X124467195Y-88113386D01*
X124570776Y-88239600D01*
X124467195Y-88365814D01*
X124385128Y-88519350D01*
X124334592Y-88685946D01*
X124317528Y-88859200D01*
X124317528Y-90109200D01*
X124334592Y-90282454D01*
X124385128Y-90449050D01*
X124467195Y-90602586D01*
X124577638Y-90737162D01*
X124626700Y-90777426D01*
X124626701Y-91211400D01*
X122960962Y-91211400D01*
X122743761Y-90994200D01*
X122820102Y-90994200D01*
X122820102Y-90835452D01*
X122978850Y-90994200D01*
X123405600Y-90997272D01*
X123530082Y-90985012D01*
X123649780Y-90948702D01*
X123760094Y-90889737D01*
X123856785Y-90810385D01*
X123936137Y-90713694D01*
X123995102Y-90603380D01*
X124031412Y-90483682D01*
X124043672Y-90359200D01*
X124040600Y-89769950D01*
X123881850Y-89611200D01*
X122820100Y-89611200D01*
X122820100Y-89631200D01*
X122566100Y-89631200D01*
X122566100Y-89611200D01*
X121504350Y-89611200D01*
X121345600Y-89769950D01*
X121344048Y-90067554D01*
X121335459Y-90068400D01*
X119631962Y-90068400D01*
X119559572Y-89996010D01*
X119559572Y-89493200D01*
X119542508Y-89319946D01*
X119491972Y-89153350D01*
X119409905Y-88999814D01*
X119299462Y-88865238D01*
X119164886Y-88754795D01*
X119011350Y-88672728D01*
X118844754Y-88622192D01*
X118671500Y-88605128D01*
X117421500Y-88605128D01*
X117248246Y-88622192D01*
X117081650Y-88672728D01*
X116928114Y-88754795D01*
X116793538Y-88865238D01*
X116765502Y-88899400D01*
X116647901Y-88899400D01*
X116576862Y-88812838D01*
X116442286Y-88702395D01*
X116288750Y-88620328D01*
X116122154Y-88569792D01*
X115948900Y-88552728D01*
X114098900Y-88552728D01*
X113925646Y-88569792D01*
X113759050Y-88620328D01*
X113605514Y-88702395D01*
X113470938Y-88812838D01*
X113360495Y-88947414D01*
X113284000Y-89090526D01*
X113207505Y-88947414D01*
X113097062Y-88812838D01*
X112962486Y-88702395D01*
X112808950Y-88620328D01*
X112642354Y-88569792D01*
X112469100Y-88552728D01*
X110619100Y-88552728D01*
X110445846Y-88569792D01*
X110279250Y-88620328D01*
X110125714Y-88702395D01*
X109991138Y-88812838D01*
X109880695Y-88947414D01*
X109798628Y-89100950D01*
X109748092Y-89267546D01*
X109731028Y-89440800D01*
X109731028Y-90440800D01*
X109748092Y-90614054D01*
X109798628Y-90780650D01*
X109880695Y-90934186D01*
X109991138Y-91068762D01*
X110125714Y-91179205D01*
X110203001Y-91220516D01*
X110203001Y-91318411D01*
X110115918Y-91326988D01*
X109996220Y-91363298D01*
X109885906Y-91422263D01*
X109789215Y-91501615D01*
X109709863Y-91598306D01*
X109650898Y-91708620D01*
X109614588Y-91828318D01*
X109602328Y-91952800D01*
X109602328Y-92552800D01*
X109614588Y-92677282D01*
X109650898Y-92796980D01*
X109699443Y-92887800D01*
X109650898Y-92978620D01*
X109614588Y-93098318D01*
X109602328Y-93222800D01*
X109602328Y-93822800D01*
X109614588Y-93947282D01*
X109650898Y-94066980D01*
X109699443Y-94157800D01*
X109650898Y-94248620D01*
X109614588Y-94368318D01*
X109602328Y-94492800D01*
X109602328Y-95092800D01*
X109614588Y-95217282D01*
X109650898Y-95336980D01*
X109699443Y-95427800D01*
X109650898Y-95518620D01*
X109614588Y-95638318D01*
X109602328Y-95762800D01*
X109602328Y-96362800D01*
X109614588Y-96487282D01*
X109650898Y-96606980D01*
X109699443Y-96697800D01*
X109650898Y-96788620D01*
X109614588Y-96908318D01*
X109602328Y-97032800D01*
X109602328Y-97632800D01*
X109614588Y-97757282D01*
X109650898Y-97876980D01*
X109699443Y-97967800D01*
X109650898Y-98058620D01*
X109614588Y-98178318D01*
X109602328Y-98302800D01*
X109602328Y-98902800D01*
X109614588Y-99027282D01*
X109650898Y-99146980D01*
X109699443Y-99237800D01*
X109650898Y-99328620D01*
X109614588Y-99448318D01*
X109602328Y-99572800D01*
X109605400Y-99587050D01*
X109764150Y-99745800D01*
X110863400Y-99745800D01*
X110863400Y-99725800D01*
X111117400Y-99725800D01*
X111117400Y-99745800D01*
X111137400Y-99745800D01*
X111137400Y-99999800D01*
X111117400Y-99999800D01*
X111117400Y-100649050D01*
X111276150Y-100807800D01*
X111740400Y-100810872D01*
X111864882Y-100798612D01*
X111984580Y-100762302D01*
X112051202Y-100726691D01*
X112107944Y-100764605D01*
X112296302Y-100842626D01*
X112496261Y-100882400D01*
X112700139Y-100882400D01*
X112900098Y-100842626D01*
X113088456Y-100764605D01*
X113244710Y-100660200D01*
X115233343Y-100660200D01*
X115285906Y-100703337D01*
X115396220Y-100762302D01*
X115515918Y-100798612D01*
X115640400Y-100810872D01*
X117140400Y-100810872D01*
X117264882Y-100798612D01*
X117384580Y-100762302D01*
X117494894Y-100703337D01*
X117591585Y-100623985D01*
X117670937Y-100527294D01*
X117729902Y-100416980D01*
X117766212Y-100297282D01*
X117778472Y-100172800D01*
X118847928Y-100172800D01*
X118860188Y-100297282D01*
X118896498Y-100416980D01*
X118955463Y-100527294D01*
X119034815Y-100623985D01*
X119131506Y-100703337D01*
X119241820Y-100762302D01*
X119361518Y-100798612D01*
X119486000Y-100810872D01*
X119950250Y-100807800D01*
X120109000Y-100649050D01*
X120109000Y-99999800D01*
X119009750Y-99999800D01*
X118851000Y-100158550D01*
X118847928Y-100172800D01*
X117778472Y-100172800D01*
X117778472Y-99572800D01*
X117766212Y-99448318D01*
X117732860Y-99338370D01*
X117747983Y-99333782D01*
X117884772Y-99260666D01*
X118004669Y-99162269D01*
X118029328Y-99132222D01*
X118334623Y-98826927D01*
X118364669Y-98802269D01*
X118463066Y-98682372D01*
X118536182Y-98545583D01*
X118581206Y-98397157D01*
X118584097Y-98367800D01*
X118745339Y-98367800D01*
X118847928Y-98347394D01*
X118847928Y-98902800D01*
X118860188Y-99027282D01*
X118896498Y-99146980D01*
X118945043Y-99237800D01*
X118896498Y-99328620D01*
X118860188Y-99448318D01*
X118847928Y-99572800D01*
X118851000Y-99587050D01*
X119009750Y-99745800D01*
X120109000Y-99745800D01*
X120109000Y-99725800D01*
X120363000Y-99725800D01*
X120363000Y-99745800D01*
X121462250Y-99745800D01*
X121621000Y-99587050D01*
X121624072Y-99572800D01*
X121611812Y-99448318D01*
X121575502Y-99328620D01*
X121574733Y-99327181D01*
X121699172Y-99260666D01*
X121819069Y-99162269D01*
X121843727Y-99132223D01*
X122047001Y-98928950D01*
X122047001Y-100000237D01*
X121500943Y-100546296D01*
X121516537Y-100527294D01*
X121575502Y-100416980D01*
X121611812Y-100297282D01*
X121624072Y-100172800D01*
X121621000Y-100158550D01*
X121462250Y-99999800D01*
X120363000Y-99999800D01*
X120363000Y-100649050D01*
X120521750Y-100807800D01*
X120986000Y-100810872D01*
X121110482Y-100798612D01*
X121230180Y-100762302D01*
X121340494Y-100703337D01*
X121359496Y-100687743D01*
X120675839Y-101371400D01*
X117094460Y-101371400D01*
X117081116Y-101367352D01*
X116910300Y-101350528D01*
X116335300Y-101350528D01*
X116164484Y-101367352D01*
X116000233Y-101417177D01*
X115848858Y-101498088D01*
X115824961Y-101517699D01*
X115752294Y-101458063D01*
X115641980Y-101399098D01*
X115522282Y-101362788D01*
X115397800Y-101350528D01*
X115158550Y-101353600D01*
X114999800Y-101512350D01*
X114999800Y-102336600D01*
X115019800Y-102336600D01*
X115019800Y-102590600D01*
X114999800Y-102590600D01*
X114999800Y-103414850D01*
X115114998Y-103530048D01*
X115109863Y-103536306D01*
X115050898Y-103646620D01*
X115014588Y-103766318D01*
X115002328Y-103890800D01*
X115002328Y-104425800D01*
X114807661Y-104425800D01*
X114607702Y-104465574D01*
X114419344Y-104543595D01*
X114249826Y-104656863D01*
X114105663Y-104801026D01*
X113992395Y-104970544D01*
X113914374Y-105158902D01*
X113874600Y-105358861D01*
X113874600Y-105562739D01*
X113914374Y-105762698D01*
X113989224Y-105943400D01*
X112348582Y-105943400D01*
X112366212Y-105885282D01*
X112378472Y-105760800D01*
X112378472Y-105160800D01*
X112366212Y-105036318D01*
X112348582Y-104978200D01*
X112404489Y-104978200D01*
X112421026Y-104994737D01*
X112590544Y-105108005D01*
X112778902Y-105186026D01*
X112978861Y-105225800D01*
X113182739Y-105225800D01*
X113382698Y-105186026D01*
X113571056Y-105108005D01*
X113740574Y-104994737D01*
X113884737Y-104850574D01*
X113998005Y-104681056D01*
X114076026Y-104492698D01*
X114115800Y-104292739D01*
X114115800Y-104088861D01*
X114076026Y-103888902D01*
X113998005Y-103700544D01*
X113884737Y-103531026D01*
X113740574Y-103386863D01*
X113571056Y-103273595D01*
X113382698Y-103195574D01*
X113182739Y-103155800D01*
X112978861Y-103155800D01*
X112778902Y-103195574D01*
X112590544Y-103273595D01*
X112421026Y-103386863D01*
X112404489Y-103403400D01*
X112147457Y-103403400D01*
X112094894Y-103360263D01*
X111984580Y-103301298D01*
X111864882Y-103264988D01*
X111740400Y-103252728D01*
X110240400Y-103252728D01*
X110115918Y-103264988D01*
X109996220Y-103301298D01*
X109885906Y-103360263D01*
X109789215Y-103439615D01*
X109709863Y-103536306D01*
X109650898Y-103646620D01*
X109614588Y-103766318D01*
X109602328Y-103890800D01*
X109602328Y-104490800D01*
X109614588Y-104615282D01*
X109650898Y-104734980D01*
X109699443Y-104825800D01*
X109650898Y-104916620D01*
X109614588Y-105036318D01*
X109602328Y-105160800D01*
X109602328Y-105760800D01*
X109614588Y-105885282D01*
X109650898Y-106004980D01*
X109699443Y-106095800D01*
X109650898Y-106186620D01*
X109614588Y-106306318D01*
X109602328Y-106430800D01*
X109602328Y-107030800D01*
X109614588Y-107155282D01*
X109650898Y-107274980D01*
X109699443Y-107365800D01*
X109650898Y-107456620D01*
X109614588Y-107576318D01*
X109602328Y-107700800D01*
X109602328Y-108300800D01*
X109614588Y-108425282D01*
X109650898Y-108544980D01*
X109699443Y-108635800D01*
X109650898Y-108726620D01*
X109614588Y-108846318D01*
X109602328Y-108970800D01*
X109602328Y-109570800D01*
X109614588Y-109695282D01*
X109650898Y-109814980D01*
X109699443Y-109905800D01*
X109650898Y-109996620D01*
X109614588Y-110116318D01*
X109602328Y-110240800D01*
X109602328Y-110840800D01*
X109614588Y-110965282D01*
X109650898Y-111084980D01*
X109699443Y-111175800D01*
X109650898Y-111266620D01*
X109614588Y-111386318D01*
X109602328Y-111510800D01*
X109605400Y-111525050D01*
X109764150Y-111683800D01*
X110863400Y-111683800D01*
X110863400Y-111663800D01*
X111117400Y-111663800D01*
X111117400Y-111683800D01*
X112216650Y-111683800D01*
X112340480Y-111559970D01*
X112420061Y-111575800D01*
X112623939Y-111575800D01*
X112823898Y-111536026D01*
X113012256Y-111458005D01*
X113181774Y-111344737D01*
X113325937Y-111200574D01*
X113439205Y-111031056D01*
X113517226Y-110842698D01*
X113557000Y-110642739D01*
X113557000Y-110438861D01*
X113517226Y-110238902D01*
X113439205Y-110050544D01*
X113329791Y-109886795D01*
X113413807Y-109761056D01*
X113491828Y-109572698D01*
X113531602Y-109372739D01*
X113531602Y-109168861D01*
X113491828Y-108968902D01*
X113413807Y-108780544D01*
X113300539Y-108611026D01*
X113156376Y-108466863D01*
X112986858Y-108353595D01*
X112798500Y-108275574D01*
X112598541Y-108235800D01*
X112394663Y-108235800D01*
X112378472Y-108239021D01*
X112378472Y-107700800D01*
X112366212Y-107576318D01*
X112348582Y-107518200D01*
X115032218Y-107518200D01*
X115014588Y-107576318D01*
X115002328Y-107700800D01*
X115002328Y-108300800D01*
X115014588Y-108425282D01*
X115050898Y-108544980D01*
X115099443Y-108635800D01*
X115050898Y-108726620D01*
X115014588Y-108846318D01*
X115002328Y-108970800D01*
X115002328Y-109505800D01*
X114807661Y-109505800D01*
X114607702Y-109545574D01*
X114419344Y-109623595D01*
X114249826Y-109736863D01*
X114105663Y-109881026D01*
X113992395Y-110050544D01*
X113914374Y-110238902D01*
X113874600Y-110438861D01*
X113874600Y-110642739D01*
X113914374Y-110842698D01*
X113992395Y-111031056D01*
X114105663Y-111200574D01*
X114249826Y-111344737D01*
X114419344Y-111458005D01*
X114607702Y-111536026D01*
X114807661Y-111575800D01*
X115002328Y-111575800D01*
X115002328Y-112110800D01*
X115014588Y-112235282D01*
X115050898Y-112354980D01*
X115109863Y-112465294D01*
X115189215Y-112561985D01*
X115285906Y-112641337D01*
X115396220Y-112700302D01*
X115515918Y-112736612D01*
X115640400Y-112748872D01*
X117140400Y-112748872D01*
X117264882Y-112736612D01*
X117384580Y-112700302D01*
X117494894Y-112641337D01*
X117591585Y-112561985D01*
X117670937Y-112465294D01*
X117729902Y-112354980D01*
X117766212Y-112235282D01*
X117778472Y-112110800D01*
X117778472Y-111510800D01*
X117766212Y-111386318D01*
X117729902Y-111266620D01*
X117681357Y-111175800D01*
X117729902Y-111084980D01*
X117766212Y-110965282D01*
X117778472Y-110840800D01*
X117778472Y-110408423D01*
X118186201Y-110816152D01*
X118186200Y-112864337D01*
X118182392Y-112903000D01*
X118186200Y-112941663D01*
X118186200Y-112941672D01*
X118197594Y-113057356D01*
X118242618Y-113205782D01*
X118315734Y-113342571D01*
X118414131Y-113462469D01*
X118444178Y-113487128D01*
X121060849Y-116103800D01*
X108914800Y-116103800D01*
X108914800Y-112110800D01*
X109602328Y-112110800D01*
X109614588Y-112235282D01*
X109650898Y-112354980D01*
X109709863Y-112465294D01*
X109789215Y-112561985D01*
X109885906Y-112641337D01*
X109996220Y-112700302D01*
X110115918Y-112736612D01*
X110240400Y-112748872D01*
X110704650Y-112745800D01*
X110863400Y-112587050D01*
X110863400Y-111937800D01*
X111117400Y-111937800D01*
X111117400Y-112587050D01*
X111276150Y-112745800D01*
X111740400Y-112748872D01*
X111864882Y-112736612D01*
X111984580Y-112700302D01*
X112094894Y-112641337D01*
X112191585Y-112561985D01*
X112270937Y-112465294D01*
X112329902Y-112354980D01*
X112366212Y-112235282D01*
X112378472Y-112110800D01*
X112375400Y-112096550D01*
X112216650Y-111937800D01*
X111117400Y-111937800D01*
X110863400Y-111937800D01*
X109764150Y-111937800D01*
X109605400Y-112096550D01*
X109602328Y-112110800D01*
X108914800Y-112110800D01*
X108914800Y-102938600D01*
X113709728Y-102938600D01*
X113721988Y-103063082D01*
X113758298Y-103182780D01*
X113817263Y-103293094D01*
X113896615Y-103389785D01*
X113993306Y-103469137D01*
X114103620Y-103528102D01*
X114223318Y-103564412D01*
X114347800Y-103576672D01*
X114587050Y-103573600D01*
X114745800Y-103414850D01*
X114745800Y-102590600D01*
X113871550Y-102590600D01*
X113712800Y-102749350D01*
X113709728Y-102938600D01*
X108914800Y-102938600D01*
X108914800Y-101988600D01*
X113709728Y-101988600D01*
X113712800Y-102177850D01*
X113871550Y-102336600D01*
X114745800Y-102336600D01*
X114745800Y-101512350D01*
X114587050Y-101353600D01*
X114347800Y-101350528D01*
X114223318Y-101362788D01*
X114103620Y-101399098D01*
X113993306Y-101458063D01*
X113896615Y-101537415D01*
X113817263Y-101634106D01*
X113758298Y-101744420D01*
X113721988Y-101864118D01*
X113709728Y-101988600D01*
X108914800Y-101988600D01*
X108914800Y-100172800D01*
X109602328Y-100172800D01*
X109614588Y-100297282D01*
X109650898Y-100416980D01*
X109709863Y-100527294D01*
X109789215Y-100623985D01*
X109885906Y-100703337D01*
X109996220Y-100762302D01*
X110115918Y-100798612D01*
X110240400Y-100810872D01*
X110704650Y-100807800D01*
X110863400Y-100649050D01*
X110863400Y-99999800D01*
X109764150Y-99999800D01*
X109605400Y-100158550D01*
X109602328Y-100172800D01*
X108914800Y-100172800D01*
X108914800Y-87440800D01*
X109731028Y-87440800D01*
X109743288Y-87565282D01*
X109779598Y-87684980D01*
X109838563Y-87795294D01*
X109917915Y-87891985D01*
X110014606Y-87971337D01*
X110124920Y-88030302D01*
X110244618Y-88066612D01*
X110369100Y-88078872D01*
X111258350Y-88075800D01*
X111417100Y-87917050D01*
X111417100Y-86817800D01*
X111671100Y-86817800D01*
X111671100Y-87917050D01*
X111829850Y-88075800D01*
X112719100Y-88078872D01*
X112843582Y-88066612D01*
X112963280Y-88030302D01*
X113073594Y-87971337D01*
X113170285Y-87891985D01*
X113249637Y-87795294D01*
X113284000Y-87731006D01*
X113318363Y-87795294D01*
X113397715Y-87891985D01*
X113494406Y-87971337D01*
X113604720Y-88030302D01*
X113724418Y-88066612D01*
X113848900Y-88078872D01*
X114738150Y-88075800D01*
X114896900Y-87917050D01*
X114896900Y-86817800D01*
X113372650Y-86817800D01*
X113284000Y-86906450D01*
X113195350Y-86817800D01*
X111671100Y-86817800D01*
X111417100Y-86817800D01*
X109892850Y-86817800D01*
X109734100Y-86976550D01*
X109731028Y-87440800D01*
X108914800Y-87440800D01*
X108914800Y-85940800D01*
X109731028Y-85940800D01*
X109734100Y-86405050D01*
X109892850Y-86563800D01*
X111417100Y-86563800D01*
X111417100Y-85464550D01*
X111671100Y-85464550D01*
X111671100Y-86563800D01*
X113195350Y-86563800D01*
X113284000Y-86475150D01*
X113372650Y-86563800D01*
X114896900Y-86563800D01*
X114896900Y-85464550D01*
X115150900Y-85464550D01*
X115150900Y-86563800D01*
X115170900Y-86563800D01*
X115170900Y-86817800D01*
X115150900Y-86817800D01*
X115150900Y-87917050D01*
X115309650Y-88075800D01*
X116198900Y-88078872D01*
X116323382Y-88066612D01*
X116443080Y-88030302D01*
X116553394Y-87971337D01*
X116585893Y-87944666D01*
X116640963Y-88047694D01*
X116720315Y-88144385D01*
X116817006Y-88223737D01*
X116927320Y-88282702D01*
X117047018Y-88319012D01*
X117171500Y-88331272D01*
X117760750Y-88328200D01*
X117919500Y-88169450D01*
X117919500Y-87107700D01*
X118173500Y-87107700D01*
X118173500Y-88169450D01*
X118332250Y-88328200D01*
X118921500Y-88331272D01*
X119045982Y-88319012D01*
X119165680Y-88282702D01*
X119275994Y-88223737D01*
X119372685Y-88144385D01*
X119452037Y-88047694D01*
X119511002Y-87937380D01*
X119547312Y-87817682D01*
X119559572Y-87693200D01*
X119556500Y-87266450D01*
X119397750Y-87107700D01*
X118173500Y-87107700D01*
X117919500Y-87107700D01*
X117899500Y-87107700D01*
X117899500Y-86893061D01*
X119932500Y-86893061D01*
X119932500Y-87096939D01*
X119972274Y-87296898D01*
X120050295Y-87485256D01*
X120163563Y-87654774D01*
X120307726Y-87798937D01*
X120477244Y-87912205D01*
X120665602Y-87990226D01*
X120865561Y-88030000D01*
X121069439Y-88030000D01*
X121269398Y-87990226D01*
X121402605Y-87935049D01*
X121410128Y-87959850D01*
X121492195Y-88113386D01*
X121529118Y-88158377D01*
X121450063Y-88254706D01*
X121391098Y-88365020D01*
X121354788Y-88484718D01*
X121342528Y-88609200D01*
X121345600Y-89198450D01*
X121504350Y-89357200D01*
X122566100Y-89357200D01*
X122566100Y-89337200D01*
X122820100Y-89337200D01*
X122820100Y-89357200D01*
X123881850Y-89357200D01*
X124040600Y-89198450D01*
X124043672Y-88609200D01*
X124031412Y-88484718D01*
X123995102Y-88365020D01*
X123936137Y-88254706D01*
X123857082Y-88158377D01*
X123894005Y-88113386D01*
X123976072Y-87959850D01*
X124026608Y-87793254D01*
X124043672Y-87620000D01*
X124043672Y-86370000D01*
X124026608Y-86196746D01*
X123976072Y-86030150D01*
X123894005Y-85876614D01*
X123783562Y-85742038D01*
X123648986Y-85631595D01*
X123495450Y-85549528D01*
X123328854Y-85498992D01*
X123155600Y-85481928D01*
X122230600Y-85481928D01*
X122057346Y-85498992D01*
X121890750Y-85549528D01*
X121737214Y-85631595D01*
X121602638Y-85742038D01*
X121492195Y-85876614D01*
X121410128Y-86030150D01*
X121402605Y-86054951D01*
X121269398Y-85999774D01*
X121069439Y-85960000D01*
X120865561Y-85960000D01*
X120665602Y-85999774D01*
X120477244Y-86077795D01*
X120307726Y-86191063D01*
X120163563Y-86335226D01*
X120050295Y-86504744D01*
X119972274Y-86693102D01*
X119932500Y-86893061D01*
X117899500Y-86893061D01*
X117899500Y-86853700D01*
X117919500Y-86853700D01*
X117919500Y-85791950D01*
X118173500Y-85791950D01*
X118173500Y-86853700D01*
X119397750Y-86853700D01*
X119556500Y-86694950D01*
X119559572Y-86268200D01*
X119547312Y-86143718D01*
X119511002Y-86024020D01*
X119452037Y-85913706D01*
X119372685Y-85817015D01*
X119275994Y-85737663D01*
X119165680Y-85678698D01*
X119045982Y-85642388D01*
X118921500Y-85630128D01*
X118332250Y-85633200D01*
X118173500Y-85791950D01*
X117919500Y-85791950D01*
X117760750Y-85633200D01*
X117171500Y-85630128D01*
X117047018Y-85642388D01*
X116927320Y-85678698D01*
X116817006Y-85737663D01*
X116804072Y-85748278D01*
X116788402Y-85696620D01*
X116729437Y-85586306D01*
X116650085Y-85489615D01*
X116553394Y-85410263D01*
X116443080Y-85351298D01*
X116323382Y-85314988D01*
X116198900Y-85302728D01*
X115309650Y-85305800D01*
X115150900Y-85464550D01*
X114896900Y-85464550D01*
X114738150Y-85305800D01*
X113848900Y-85302728D01*
X113724418Y-85314988D01*
X113604720Y-85351298D01*
X113494406Y-85410263D01*
X113397715Y-85489615D01*
X113318363Y-85586306D01*
X113284000Y-85650594D01*
X113249637Y-85586306D01*
X113170285Y-85489615D01*
X113073594Y-85410263D01*
X112963280Y-85351298D01*
X112843582Y-85314988D01*
X112719100Y-85302728D01*
X111829850Y-85305800D01*
X111671100Y-85464550D01*
X111417100Y-85464550D01*
X111258350Y-85305800D01*
X110369100Y-85302728D01*
X110244618Y-85314988D01*
X110124920Y-85351298D01*
X110014606Y-85410263D01*
X109917915Y-85489615D01*
X109838563Y-85586306D01*
X109779598Y-85696620D01*
X109743288Y-85816318D01*
X109731028Y-85940800D01*
X108914800Y-85940800D01*
X108914800Y-85191200D01*
X125019639Y-85191200D01*
X124967890Y-85242949D01*
X124967890Y-85242949D01*
G37*
X124967890Y-85242949D02*
X124928157Y-85275557D01*
X124798019Y-85434130D01*
X124751116Y-85521879D01*
X124705422Y-85607368D01*
X124701317Y-85615047D01*
X124691021Y-85648987D01*
X124577638Y-85742038D01*
X124467195Y-85876614D01*
X124385128Y-86030150D01*
X124334592Y-86196746D01*
X124317528Y-86370000D01*
X124317528Y-87620000D01*
X124334592Y-87793254D01*
X124385128Y-87959850D01*
X124467195Y-88113386D01*
X124570776Y-88239600D01*
X124467195Y-88365814D01*
X124385128Y-88519350D01*
X124334592Y-88685946D01*
X124317528Y-88859200D01*
X124317528Y-90109200D01*
X124334592Y-90282454D01*
X124385128Y-90449050D01*
X124467195Y-90602586D01*
X124577638Y-90737162D01*
X124626700Y-90777426D01*
X124626701Y-91211400D01*
X122960962Y-91211400D01*
X122743761Y-90994200D01*
X122820102Y-90994200D01*
X122820102Y-90835452D01*
X122978850Y-90994200D01*
X123405600Y-90997272D01*
X123530082Y-90985012D01*
X123649780Y-90948702D01*
X123760094Y-90889737D01*
X123856785Y-90810385D01*
X123936137Y-90713694D01*
X123995102Y-90603380D01*
X124031412Y-90483682D01*
X124043672Y-90359200D01*
X124040600Y-89769950D01*
X123881850Y-89611200D01*
X122820100Y-89611200D01*
X122820100Y-89631200D01*
X122566100Y-89631200D01*
X122566100Y-89611200D01*
X121504350Y-89611200D01*
X121345600Y-89769950D01*
X121344048Y-90067554D01*
X121335459Y-90068400D01*
X119631962Y-90068400D01*
X119559572Y-89996010D01*
X119559572Y-89493200D01*
X119542508Y-89319946D01*
X119491972Y-89153350D01*
X119409905Y-88999814D01*
X119299462Y-88865238D01*
X119164886Y-88754795D01*
X119011350Y-88672728D01*
X118844754Y-88622192D01*
X118671500Y-88605128D01*
X117421500Y-88605128D01*
X117248246Y-88622192D01*
X117081650Y-88672728D01*
X116928114Y-88754795D01*
X116793538Y-88865238D01*
X116765502Y-88899400D01*
X116647901Y-88899400D01*
X116576862Y-88812838D01*
X116442286Y-88702395D01*
X116288750Y-88620328D01*
X116122154Y-88569792D01*
X115948900Y-88552728D01*
X114098900Y-88552728D01*
X113925646Y-88569792D01*
X113759050Y-88620328D01*
X113605514Y-88702395D01*
X113470938Y-88812838D01*
X113360495Y-88947414D01*
X113284000Y-89090526D01*
X113207505Y-88947414D01*
X113097062Y-88812838D01*
X112962486Y-88702395D01*
X112808950Y-88620328D01*
X112642354Y-88569792D01*
X112469100Y-88552728D01*
X110619100Y-88552728D01*
X110445846Y-88569792D01*
X110279250Y-88620328D01*
X110125714Y-88702395D01*
X109991138Y-88812838D01*
X109880695Y-88947414D01*
X109798628Y-89100950D01*
X109748092Y-89267546D01*
X109731028Y-89440800D01*
X109731028Y-90440800D01*
X109748092Y-90614054D01*
X109798628Y-90780650D01*
X109880695Y-90934186D01*
X109991138Y-91068762D01*
X110125714Y-91179205D01*
X110203001Y-91220516D01*
X110203001Y-91318411D01*
X110115918Y-91326988D01*
X109996220Y-91363298D01*
X109885906Y-91422263D01*
X109789215Y-91501615D01*
X109709863Y-91598306D01*
X109650898Y-91708620D01*
X109614588Y-91828318D01*
X109602328Y-91952800D01*
X109602328Y-92552800D01*
X109614588Y-92677282D01*
X109650898Y-92796980D01*
X109699443Y-92887800D01*
X109650898Y-92978620D01*
X109614588Y-93098318D01*
X109602328Y-93222800D01*
X109602328Y-93822800D01*
X109614588Y-93947282D01*
X109650898Y-94066980D01*
X109699443Y-94157800D01*
X109650898Y-94248620D01*
X109614588Y-94368318D01*
X109602328Y-94492800D01*
X109602328Y-95092800D01*
X109614588Y-95217282D01*
X109650898Y-95336980D01*
X109699443Y-95427800D01*
X109650898Y-95518620D01*
X109614588Y-95638318D01*
X109602328Y-95762800D01*
X109602328Y-96362800D01*
X109614588Y-96487282D01*
X109650898Y-96606980D01*
X109699443Y-96697800D01*
X109650898Y-96788620D01*
X109614588Y-96908318D01*
X109602328Y-97032800D01*
X109602328Y-97632800D01*
X109614588Y-97757282D01*
X109650898Y-97876980D01*
X109699443Y-97967800D01*
X109650898Y-98058620D01*
X109614588Y-98178318D01*
X109602328Y-98302800D01*
X109602328Y-98902800D01*
X109614588Y-99027282D01*
X109650898Y-99146980D01*
X109699443Y-99237800D01*
X109650898Y-99328620D01*
X109614588Y-99448318D01*
X109602328Y-99572800D01*
X109605400Y-99587050D01*
X109764150Y-99745800D01*
X110863400Y-99745800D01*
X110863400Y-99725800D01*
X111117400Y-99725800D01*
X111117400Y-99745800D01*
X111137400Y-99745800D01*
X111137400Y-99999800D01*
X111117400Y-99999800D01*
X111117400Y-100649050D01*
X111276150Y-100807800D01*
X111740400Y-100810872D01*
X111864882Y-100798612D01*
X111984580Y-100762302D01*
X112051202Y-100726691D01*
X112107944Y-100764605D01*
X112296302Y-100842626D01*
X112496261Y-100882400D01*
X112700139Y-100882400D01*
X112900098Y-100842626D01*
X113088456Y-100764605D01*
X113244710Y-100660200D01*
X115233343Y-100660200D01*
X115285906Y-100703337D01*
X115396220Y-100762302D01*
X115515918Y-100798612D01*
X115640400Y-100810872D01*
X117140400Y-100810872D01*
X117264882Y-100798612D01*
X117384580Y-100762302D01*
X117494894Y-100703337D01*
X117591585Y-100623985D01*
X117670937Y-100527294D01*
X117729902Y-100416980D01*
X117766212Y-100297282D01*
X117778472Y-100172800D01*
X118847928Y-100172800D01*
X118860188Y-100297282D01*
X118896498Y-100416980D01*
X118955463Y-100527294D01*
X119034815Y-100623985D01*
X119131506Y-100703337D01*
X119241820Y-100762302D01*
X119361518Y-100798612D01*
X119486000Y-100810872D01*
X119950250Y-100807800D01*
X120109000Y-100649050D01*
X120109000Y-99999800D01*
X119009750Y-99999800D01*
X118851000Y-100158550D01*
X118847928Y-100172800D01*
X117778472Y-100172800D01*
X117778472Y-99572800D01*
X117766212Y-99448318D01*
X117732860Y-99338370D01*
X117747983Y-99333782D01*
X117884772Y-99260666D01*
X118004669Y-99162269D01*
X118029328Y-99132222D01*
X118334623Y-98826927D01*
X118364669Y-98802269D01*
X118463066Y-98682372D01*
X118536182Y-98545583D01*
X118581206Y-98397157D01*
X118584097Y-98367800D01*
X118745339Y-98367800D01*
X118847928Y-98347394D01*
X118847928Y-98902800D01*
X118860188Y-99027282D01*
X118896498Y-99146980D01*
X118945043Y-99237800D01*
X118896498Y-99328620D01*
X118860188Y-99448318D01*
X118847928Y-99572800D01*
X118851000Y-99587050D01*
X119009750Y-99745800D01*
X120109000Y-99745800D01*
X120109000Y-99725800D01*
X120363000Y-99725800D01*
X120363000Y-99745800D01*
X121462250Y-99745800D01*
X121621000Y-99587050D01*
X121624072Y-99572800D01*
X121611812Y-99448318D01*
X121575502Y-99328620D01*
X121574733Y-99327181D01*
X121699172Y-99260666D01*
X121819069Y-99162269D01*
X121843727Y-99132223D01*
X122047001Y-98928950D01*
X122047001Y-100000237D01*
X121500943Y-100546296D01*
X121516537Y-100527294D01*
X121575502Y-100416980D01*
X121611812Y-100297282D01*
X121624072Y-100172800D01*
X121621000Y-100158550D01*
X121462250Y-99999800D01*
X120363000Y-99999800D01*
X120363000Y-100649050D01*
X120521750Y-100807800D01*
X120986000Y-100810872D01*
X121110482Y-100798612D01*
X121230180Y-100762302D01*
X121340494Y-100703337D01*
X121359496Y-100687743D01*
X120675839Y-101371400D01*
X117094460Y-101371400D01*
X117081116Y-101367352D01*
X116910300Y-101350528D01*
X116335300Y-101350528D01*
X116164484Y-101367352D01*
X116000233Y-101417177D01*
X115848858Y-101498088D01*
X115824961Y-101517699D01*
X115752294Y-101458063D01*
X115641980Y-101399098D01*
X115522282Y-101362788D01*
X115397800Y-101350528D01*
X115158550Y-101353600D01*
X114999800Y-101512350D01*
X114999800Y-102336600D01*
X115019800Y-102336600D01*
X115019800Y-102590600D01*
X114999800Y-102590600D01*
X114999800Y-103414850D01*
X115114998Y-103530048D01*
X115109863Y-103536306D01*
X115050898Y-103646620D01*
X115014588Y-103766318D01*
X115002328Y-103890800D01*
X115002328Y-104425800D01*
X114807661Y-104425800D01*
X114607702Y-104465574D01*
X114419344Y-104543595D01*
X114249826Y-104656863D01*
X114105663Y-104801026D01*
X113992395Y-104970544D01*
X113914374Y-105158902D01*
X113874600Y-105358861D01*
X113874600Y-105562739D01*
X113914374Y-105762698D01*
X113989224Y-105943400D01*
X112348582Y-105943400D01*
X112366212Y-105885282D01*
X112378472Y-105760800D01*
X112378472Y-105160800D01*
X112366212Y-105036318D01*
X112348582Y-104978200D01*
X112404489Y-104978200D01*
X112421026Y-104994737D01*
X112590544Y-105108005D01*
X112778902Y-105186026D01*
X112978861Y-105225800D01*
X113182739Y-105225800D01*
X113382698Y-105186026D01*
X113571056Y-105108005D01*
X113740574Y-104994737D01*
X113884737Y-104850574D01*
X113998005Y-104681056D01*
X114076026Y-104492698D01*
X114115800Y-104292739D01*
X114115800Y-104088861D01*
X114076026Y-103888902D01*
X113998005Y-103700544D01*
X113884737Y-103531026D01*
X113740574Y-103386863D01*
X113571056Y-103273595D01*
X113382698Y-103195574D01*
X113182739Y-103155800D01*
X112978861Y-103155800D01*
X112778902Y-103195574D01*
X112590544Y-103273595D01*
X112421026Y-103386863D01*
X112404489Y-103403400D01*
X112147457Y-103403400D01*
X112094894Y-103360263D01*
X111984580Y-103301298D01*
X111864882Y-103264988D01*
X111740400Y-103252728D01*
X110240400Y-103252728D01*
X110115918Y-103264988D01*
X109996220Y-103301298D01*
X109885906Y-103360263D01*
X109789215Y-103439615D01*
X109709863Y-103536306D01*
X109650898Y-103646620D01*
X109614588Y-103766318D01*
X109602328Y-103890800D01*
X109602328Y-104490800D01*
X109614588Y-104615282D01*
X109650898Y-104734980D01*
X109699443Y-104825800D01*
X109650898Y-104916620D01*
X109614588Y-105036318D01*
X109602328Y-105160800D01*
X109602328Y-105760800D01*
X109614588Y-105885282D01*
X109650898Y-106004980D01*
X109699443Y-106095800D01*
X109650898Y-106186620D01*
X109614588Y-106306318D01*
X109602328Y-106430800D01*
X109602328Y-107030800D01*
X109614588Y-107155282D01*
X109650898Y-107274980D01*
X109699443Y-107365800D01*
X109650898Y-107456620D01*
X109614588Y-107576318D01*
X109602328Y-107700800D01*
X109602328Y-108300800D01*
X109614588Y-108425282D01*
X109650898Y-108544980D01*
X109699443Y-108635800D01*
X109650898Y-108726620D01*
X109614588Y-108846318D01*
X109602328Y-108970800D01*
X109602328Y-109570800D01*
X109614588Y-109695282D01*
X109650898Y-109814980D01*
X109699443Y-109905800D01*
X109650898Y-109996620D01*
X109614588Y-110116318D01*
X109602328Y-110240800D01*
X109602328Y-110840800D01*
X109614588Y-110965282D01*
X109650898Y-111084980D01*
X109699443Y-111175800D01*
X109650898Y-111266620D01*
X109614588Y-111386318D01*
X109602328Y-111510800D01*
X109605400Y-111525050D01*
X109764150Y-111683800D01*
X110863400Y-111683800D01*
X110863400Y-111663800D01*
X111117400Y-111663800D01*
X111117400Y-111683800D01*
X112216650Y-111683800D01*
X112340480Y-111559970D01*
X112420061Y-111575800D01*
X112623939Y-111575800D01*
X112823898Y-111536026D01*
X113012256Y-111458005D01*
X113181774Y-111344737D01*
X113325937Y-111200574D01*
X113439205Y-111031056D01*
X113517226Y-110842698D01*
X113557000Y-110642739D01*
X113557000Y-110438861D01*
X113517226Y-110238902D01*
X113439205Y-110050544D01*
X113329791Y-109886795D01*
X113413807Y-109761056D01*
X113491828Y-109572698D01*
X113531602Y-109372739D01*
X113531602Y-109168861D01*
X113491828Y-108968902D01*
X113413807Y-108780544D01*
X113300539Y-108611026D01*
X113156376Y-108466863D01*
X112986858Y-108353595D01*
X112798500Y-108275574D01*
X112598541Y-108235800D01*
X112394663Y-108235800D01*
X112378472Y-108239021D01*
X112378472Y-107700800D01*
X112366212Y-107576318D01*
X112348582Y-107518200D01*
X115032218Y-107518200D01*
X115014588Y-107576318D01*
X115002328Y-107700800D01*
X115002328Y-108300800D01*
X115014588Y-108425282D01*
X115050898Y-108544980D01*
X115099443Y-108635800D01*
X115050898Y-108726620D01*
X115014588Y-108846318D01*
X115002328Y-108970800D01*
X115002328Y-109505800D01*
X114807661Y-109505800D01*
X114607702Y-109545574D01*
X114419344Y-109623595D01*
X114249826Y-109736863D01*
X114105663Y-109881026D01*
X113992395Y-110050544D01*
X113914374Y-110238902D01*
X113874600Y-110438861D01*
X113874600Y-110642739D01*
X113914374Y-110842698D01*
X113992395Y-111031056D01*
X114105663Y-111200574D01*
X114249826Y-111344737D01*
X114419344Y-111458005D01*
X114607702Y-111536026D01*
X114807661Y-111575800D01*
X115002328Y-111575800D01*
X115002328Y-112110800D01*
X115014588Y-112235282D01*
X115050898Y-112354980D01*
X115109863Y-112465294D01*
X115189215Y-112561985D01*
X115285906Y-112641337D01*
X115396220Y-112700302D01*
X115515918Y-112736612D01*
X115640400Y-112748872D01*
X117140400Y-112748872D01*
X117264882Y-112736612D01*
X117384580Y-112700302D01*
X117494894Y-112641337D01*
X117591585Y-112561985D01*
X117670937Y-112465294D01*
X117729902Y-112354980D01*
X117766212Y-112235282D01*
X117778472Y-112110800D01*
X117778472Y-111510800D01*
X117766212Y-111386318D01*
X117729902Y-111266620D01*
X117681357Y-111175800D01*
X117729902Y-111084980D01*
X117766212Y-110965282D01*
X117778472Y-110840800D01*
X117778472Y-110408423D01*
X118186201Y-110816152D01*
X118186200Y-112864337D01*
X118182392Y-112903000D01*
X118186200Y-112941663D01*
X118186200Y-112941672D01*
X118197594Y-113057356D01*
X118242618Y-113205782D01*
X118315734Y-113342571D01*
X118414131Y-113462469D01*
X118444178Y-113487128D01*
X121060849Y-116103800D01*
X108914800Y-116103800D01*
X108914800Y-112110800D01*
X109602328Y-112110800D01*
X109614588Y-112235282D01*
X109650898Y-112354980D01*
X109709863Y-112465294D01*
X109789215Y-112561985D01*
X109885906Y-112641337D01*
X109996220Y-112700302D01*
X110115918Y-112736612D01*
X110240400Y-112748872D01*
X110704650Y-112745800D01*
X110863400Y-112587050D01*
X110863400Y-111937800D01*
X111117400Y-111937800D01*
X111117400Y-112587050D01*
X111276150Y-112745800D01*
X111740400Y-112748872D01*
X111864882Y-112736612D01*
X111984580Y-112700302D01*
X112094894Y-112641337D01*
X112191585Y-112561985D01*
X112270937Y-112465294D01*
X112329902Y-112354980D01*
X112366212Y-112235282D01*
X112378472Y-112110800D01*
X112375400Y-112096550D01*
X112216650Y-111937800D01*
X111117400Y-111937800D01*
X110863400Y-111937800D01*
X109764150Y-111937800D01*
X109605400Y-112096550D01*
X109602328Y-112110800D01*
X108914800Y-112110800D01*
X108914800Y-102938600D01*
X113709728Y-102938600D01*
X113721988Y-103063082D01*
X113758298Y-103182780D01*
X113817263Y-103293094D01*
X113896615Y-103389785D01*
X113993306Y-103469137D01*
X114103620Y-103528102D01*
X114223318Y-103564412D01*
X114347800Y-103576672D01*
X114587050Y-103573600D01*
X114745800Y-103414850D01*
X114745800Y-102590600D01*
X113871550Y-102590600D01*
X113712800Y-102749350D01*
X113709728Y-102938600D01*
X108914800Y-102938600D01*
X108914800Y-101988600D01*
X113709728Y-101988600D01*
X113712800Y-102177850D01*
X113871550Y-102336600D01*
X114745800Y-102336600D01*
X114745800Y-101512350D01*
X114587050Y-101353600D01*
X114347800Y-101350528D01*
X114223318Y-101362788D01*
X114103620Y-101399098D01*
X113993306Y-101458063D01*
X113896615Y-101537415D01*
X113817263Y-101634106D01*
X113758298Y-101744420D01*
X113721988Y-101864118D01*
X113709728Y-101988600D01*
X108914800Y-101988600D01*
X108914800Y-100172800D01*
X109602328Y-100172800D01*
X109614588Y-100297282D01*
X109650898Y-100416980D01*
X109709863Y-100527294D01*
X109789215Y-100623985D01*
X109885906Y-100703337D01*
X109996220Y-100762302D01*
X110115918Y-100798612D01*
X110240400Y-100810872D01*
X110704650Y-100807800D01*
X110863400Y-100649050D01*
X110863400Y-99999800D01*
X109764150Y-99999800D01*
X109605400Y-100158550D01*
X109602328Y-100172800D01*
X108914800Y-100172800D01*
X108914800Y-87440800D01*
X109731028Y-87440800D01*
X109743288Y-87565282D01*
X109779598Y-87684980D01*
X109838563Y-87795294D01*
X109917915Y-87891985D01*
X110014606Y-87971337D01*
X110124920Y-88030302D01*
X110244618Y-88066612D01*
X110369100Y-88078872D01*
X111258350Y-88075800D01*
X111417100Y-87917050D01*
X111417100Y-86817800D01*
X111671100Y-86817800D01*
X111671100Y-87917050D01*
X111829850Y-88075800D01*
X112719100Y-88078872D01*
X112843582Y-88066612D01*
X112963280Y-88030302D01*
X113073594Y-87971337D01*
X113170285Y-87891985D01*
X113249637Y-87795294D01*
X113284000Y-87731006D01*
X113318363Y-87795294D01*
X113397715Y-87891985D01*
X113494406Y-87971337D01*
X113604720Y-88030302D01*
X113724418Y-88066612D01*
X113848900Y-88078872D01*
X114738150Y-88075800D01*
X114896900Y-87917050D01*
X114896900Y-86817800D01*
X113372650Y-86817800D01*
X113284000Y-86906450D01*
X113195350Y-86817800D01*
X111671100Y-86817800D01*
X111417100Y-86817800D01*
X109892850Y-86817800D01*
X109734100Y-86976550D01*
X109731028Y-87440800D01*
X108914800Y-87440800D01*
X108914800Y-85940800D01*
X109731028Y-85940800D01*
X109734100Y-86405050D01*
X109892850Y-86563800D01*
X111417100Y-86563800D01*
X111417100Y-85464550D01*
X111671100Y-85464550D01*
X111671100Y-86563800D01*
X113195350Y-86563800D01*
X113284000Y-86475150D01*
X113372650Y-86563800D01*
X114896900Y-86563800D01*
X114896900Y-85464550D01*
X115150900Y-85464550D01*
X115150900Y-86563800D01*
X115170900Y-86563800D01*
X115170900Y-86817800D01*
X115150900Y-86817800D01*
X115150900Y-87917050D01*
X115309650Y-88075800D01*
X116198900Y-88078872D01*
X116323382Y-88066612D01*
X116443080Y-88030302D01*
X116553394Y-87971337D01*
X116585893Y-87944666D01*
X116640963Y-88047694D01*
X116720315Y-88144385D01*
X116817006Y-88223737D01*
X116927320Y-88282702D01*
X117047018Y-88319012D01*
X117171500Y-88331272D01*
X117760750Y-88328200D01*
X117919500Y-88169450D01*
X117919500Y-87107700D01*
X118173500Y-87107700D01*
X118173500Y-88169450D01*
X118332250Y-88328200D01*
X118921500Y-88331272D01*
X119045982Y-88319012D01*
X119165680Y-88282702D01*
X119275994Y-88223737D01*
X119372685Y-88144385D01*
X119452037Y-88047694D01*
X119511002Y-87937380D01*
X119547312Y-87817682D01*
X119559572Y-87693200D01*
X119556500Y-87266450D01*
X119397750Y-87107700D01*
X118173500Y-87107700D01*
X117919500Y-87107700D01*
X117899500Y-87107700D01*
X117899500Y-86893061D01*
X119932500Y-86893061D01*
X119932500Y-87096939D01*
X119972274Y-87296898D01*
X120050295Y-87485256D01*
X120163563Y-87654774D01*
X120307726Y-87798937D01*
X120477244Y-87912205D01*
X120665602Y-87990226D01*
X120865561Y-88030000D01*
X121069439Y-88030000D01*
X121269398Y-87990226D01*
X121402605Y-87935049D01*
X121410128Y-87959850D01*
X121492195Y-88113386D01*
X121529118Y-88158377D01*
X121450063Y-88254706D01*
X121391098Y-88365020D01*
X121354788Y-88484718D01*
X121342528Y-88609200D01*
X121345600Y-89198450D01*
X121504350Y-89357200D01*
X122566100Y-89357200D01*
X122566100Y-89337200D01*
X122820100Y-89337200D01*
X122820100Y-89357200D01*
X123881850Y-89357200D01*
X124040600Y-89198450D01*
X124043672Y-88609200D01*
X124031412Y-88484718D01*
X123995102Y-88365020D01*
X123936137Y-88254706D01*
X123857082Y-88158377D01*
X123894005Y-88113386D01*
X123976072Y-87959850D01*
X124026608Y-87793254D01*
X124043672Y-87620000D01*
X124043672Y-86370000D01*
X124026608Y-86196746D01*
X123976072Y-86030150D01*
X123894005Y-85876614D01*
X123783562Y-85742038D01*
X123648986Y-85631595D01*
X123495450Y-85549528D01*
X123328854Y-85498992D01*
X123155600Y-85481928D01*
X122230600Y-85481928D01*
X122057346Y-85498992D01*
X121890750Y-85549528D01*
X121737214Y-85631595D01*
X121602638Y-85742038D01*
X121492195Y-85876614D01*
X121410128Y-86030150D01*
X121402605Y-86054951D01*
X121269398Y-85999774D01*
X121069439Y-85960000D01*
X120865561Y-85960000D01*
X120665602Y-85999774D01*
X120477244Y-86077795D01*
X120307726Y-86191063D01*
X120163563Y-86335226D01*
X120050295Y-86504744D01*
X119972274Y-86693102D01*
X119932500Y-86893061D01*
X117899500Y-86893061D01*
X117899500Y-86853700D01*
X117919500Y-86853700D01*
X117919500Y-85791950D01*
X118173500Y-85791950D01*
X118173500Y-86853700D01*
X119397750Y-86853700D01*
X119556500Y-86694950D01*
X119559572Y-86268200D01*
X119547312Y-86143718D01*
X119511002Y-86024020D01*
X119452037Y-85913706D01*
X119372685Y-85817015D01*
X119275994Y-85737663D01*
X119165680Y-85678698D01*
X119045982Y-85642388D01*
X118921500Y-85630128D01*
X118332250Y-85633200D01*
X118173500Y-85791950D01*
X117919500Y-85791950D01*
X117760750Y-85633200D01*
X117171500Y-85630128D01*
X117047018Y-85642388D01*
X116927320Y-85678698D01*
X116817006Y-85737663D01*
X116804072Y-85748278D01*
X116788402Y-85696620D01*
X116729437Y-85586306D01*
X116650085Y-85489615D01*
X116553394Y-85410263D01*
X116443080Y-85351298D01*
X116323382Y-85314988D01*
X116198900Y-85302728D01*
X115309650Y-85305800D01*
X115150900Y-85464550D01*
X114896900Y-85464550D01*
X114738150Y-85305800D01*
X113848900Y-85302728D01*
X113724418Y-85314988D01*
X113604720Y-85351298D01*
X113494406Y-85410263D01*
X113397715Y-85489615D01*
X113318363Y-85586306D01*
X113284000Y-85650594D01*
X113249637Y-85586306D01*
X113170285Y-85489615D01*
X113073594Y-85410263D01*
X112963280Y-85351298D01*
X112843582Y-85314988D01*
X112719100Y-85302728D01*
X111829850Y-85305800D01*
X111671100Y-85464550D01*
X111417100Y-85464550D01*
X111258350Y-85305800D01*
X110369100Y-85302728D01*
X110244618Y-85314988D01*
X110124920Y-85351298D01*
X110014606Y-85410263D01*
X109917915Y-85489615D01*
X109838563Y-85586306D01*
X109779598Y-85696620D01*
X109743288Y-85816318D01*
X109731028Y-85940800D01*
X108914800Y-85940800D01*
X108914800Y-85191200D01*
X125019639Y-85191200D01*
X124967890Y-85242949D01*
G36*
X127609600Y-98259225D02*
G01*
X127609601Y-98259235D01*
X127609600Y-99530573D01*
X127609600Y-99773872D01*
X127595594Y-99820044D01*
X127584200Y-99935728D01*
X127584200Y-100216273D01*
X127595594Y-100331957D01*
X127609601Y-100378132D01*
X127609600Y-105321777D01*
X127605914Y-105359200D01*
X127609600Y-105396623D01*
X127609600Y-105396625D01*
X127620626Y-105508577D01*
X127664198Y-105652214D01*
X127664199Y-105652215D01*
X127734955Y-105784592D01*
X127766317Y-105822806D01*
X127830178Y-105900622D01*
X127859254Y-105924484D01*
X128314316Y-106379546D01*
X128338178Y-106408622D01*
X128432330Y-106485890D01*
X128423213Y-106499535D01*
X128321733Y-106744528D01*
X128270000Y-107004611D01*
X128270000Y-107269789D01*
X128286601Y-107353249D01*
X127867573Y-107772277D01*
X127837532Y-107796931D01*
X127795293Y-107848399D01*
X127739135Y-107916828D01*
X127666018Y-108053618D01*
X127620995Y-108202043D01*
X127605792Y-108356400D01*
X127609601Y-108395073D01*
X127609600Y-110387837D01*
X127605792Y-110426500D01*
X127609600Y-110465163D01*
X127609600Y-110465172D01*
X127620994Y-110580856D01*
X127666018Y-110729282D01*
X127739134Y-110866071D01*
X127837531Y-110985969D01*
X127867578Y-111010628D01*
X128333572Y-111476622D01*
X128358231Y-111506669D01*
X128431644Y-111566917D01*
X128423213Y-111579535D01*
X128321733Y-111824528D01*
X128270000Y-112084611D01*
X128270000Y-112349789D01*
X128321733Y-112609872D01*
X128369504Y-112725200D01*
X127752511Y-112725200D01*
X127735974Y-112708663D01*
X127566456Y-112595395D01*
X127378098Y-112517374D01*
X127178139Y-112477600D01*
X126974261Y-112477600D01*
X126774302Y-112517374D01*
X126585944Y-112595395D01*
X126416426Y-112708663D01*
X126272263Y-112852826D01*
X126158995Y-113022344D01*
X126080974Y-113210702D01*
X126041200Y-113410661D01*
X126041200Y-113614539D01*
X126080974Y-113814498D01*
X126158995Y-114002856D01*
X126272263Y-114172374D01*
X126416426Y-114316537D01*
X126585944Y-114429805D01*
X126774302Y-114507826D01*
X126974261Y-114547600D01*
X127178139Y-114547600D01*
X127378098Y-114507826D01*
X127566456Y-114429805D01*
X127735974Y-114316537D01*
X127752511Y-114300000D01*
X128344057Y-114300000D01*
X128339998Y-114308709D01*
X128277024Y-114566302D01*
X128265513Y-114831230D01*
X128305909Y-115093313D01*
X128331508Y-115163600D01*
X122347751Y-115163600D01*
X120356022Y-113171872D01*
X121881000Y-113171872D01*
X122005482Y-113159612D01*
X122125180Y-113123302D01*
X122235494Y-113064337D01*
X122332185Y-112984985D01*
X122411537Y-112888294D01*
X122470502Y-112777980D01*
X122506812Y-112658282D01*
X122519072Y-112533800D01*
X122519072Y-110833800D01*
X122506812Y-110709318D01*
X122470502Y-110589620D01*
X122411537Y-110479306D01*
X122332185Y-110382615D01*
X122235494Y-110303263D01*
X122125180Y-110244298D01*
X122056313Y-110223407D01*
X122086134Y-110198934D01*
X122271706Y-109972814D01*
X122409599Y-109714834D01*
X122494513Y-109434911D01*
X122523185Y-109143800D01*
X122494513Y-108852689D01*
X122409599Y-108572766D01*
X122271706Y-108314786D01*
X122086134Y-108088666D01*
X121860014Y-107903094D01*
X121805209Y-107873800D01*
X121860014Y-107844506D01*
X122086134Y-107658934D01*
X122271706Y-107432814D01*
X122293949Y-107391200D01*
X124040337Y-107391200D01*
X124079000Y-107395008D01*
X124117663Y-107391200D01*
X124117673Y-107391200D01*
X124233357Y-107379806D01*
X124381783Y-107334782D01*
X124518572Y-107261666D01*
X124638469Y-107163269D01*
X124663127Y-107133223D01*
X126165433Y-105630919D01*
X126195469Y-105606269D01*
X126220119Y-105576233D01*
X126220122Y-105576230D01*
X126293866Y-105486372D01*
X126366982Y-105349583D01*
X126412006Y-105201157D01*
X126415981Y-105160800D01*
X126423400Y-105085473D01*
X126423400Y-105085465D01*
X126427208Y-105046800D01*
X126423400Y-105008135D01*
X126423400Y-100807189D01*
X126510482Y-100798612D01*
X126630180Y-100762302D01*
X126740494Y-100703337D01*
X126837185Y-100623985D01*
X126916537Y-100527294D01*
X126975502Y-100416980D01*
X127011812Y-100297282D01*
X127024072Y-100172800D01*
X127024072Y-99572800D01*
X127011812Y-99448318D01*
X126975502Y-99328620D01*
X126926957Y-99237800D01*
X126975502Y-99146980D01*
X127011812Y-99027282D01*
X127024072Y-98902800D01*
X127024072Y-98302800D01*
X127011812Y-98178318D01*
X126975502Y-98058620D01*
X126971355Y-98050862D01*
X127083972Y-97990666D01*
X127203869Y-97892269D01*
X127228527Y-97862223D01*
X127453227Y-97637524D01*
X127483269Y-97612869D01*
X127581666Y-97492972D01*
X127609601Y-97440711D01*
X127609600Y-98259225D01*
X127609600Y-98259225D01*
G37*
X127609600Y-98259225D02*
X127609601Y-98259235D01*
X127609600Y-99530573D01*
X127609600Y-99773872D01*
X127595594Y-99820044D01*
X127584200Y-99935728D01*
X127584200Y-100216273D01*
X127595594Y-100331957D01*
X127609601Y-100378132D01*
X127609600Y-105321777D01*
X127605914Y-105359200D01*
X127609600Y-105396623D01*
X127609600Y-105396625D01*
X127620626Y-105508577D01*
X127664198Y-105652214D01*
X127664199Y-105652215D01*
X127734955Y-105784592D01*
X127766317Y-105822806D01*
X127830178Y-105900622D01*
X127859254Y-105924484D01*
X128314316Y-106379546D01*
X128338178Y-106408622D01*
X128432330Y-106485890D01*
X128423213Y-106499535D01*
X128321733Y-106744528D01*
X128270000Y-107004611D01*
X128270000Y-107269789D01*
X128286601Y-107353249D01*
X127867573Y-107772277D01*
X127837532Y-107796931D01*
X127795293Y-107848399D01*
X127739135Y-107916828D01*
X127666018Y-108053618D01*
X127620995Y-108202043D01*
X127605792Y-108356400D01*
X127609601Y-108395073D01*
X127609600Y-110387837D01*
X127605792Y-110426500D01*
X127609600Y-110465163D01*
X127609600Y-110465172D01*
X127620994Y-110580856D01*
X127666018Y-110729282D01*
X127739134Y-110866071D01*
X127837531Y-110985969D01*
X127867578Y-111010628D01*
X128333572Y-111476622D01*
X128358231Y-111506669D01*
X128431644Y-111566917D01*
X128423213Y-111579535D01*
X128321733Y-111824528D01*
X128270000Y-112084611D01*
X128270000Y-112349789D01*
X128321733Y-112609872D01*
X128369504Y-112725200D01*
X127752511Y-112725200D01*
X127735974Y-112708663D01*
X127566456Y-112595395D01*
X127378098Y-112517374D01*
X127178139Y-112477600D01*
X126974261Y-112477600D01*
X126774302Y-112517374D01*
X126585944Y-112595395D01*
X126416426Y-112708663D01*
X126272263Y-112852826D01*
X126158995Y-113022344D01*
X126080974Y-113210702D01*
X126041200Y-113410661D01*
X126041200Y-113614539D01*
X126080974Y-113814498D01*
X126158995Y-114002856D01*
X126272263Y-114172374D01*
X126416426Y-114316537D01*
X126585944Y-114429805D01*
X126774302Y-114507826D01*
X126974261Y-114547600D01*
X127178139Y-114547600D01*
X127378098Y-114507826D01*
X127566456Y-114429805D01*
X127735974Y-114316537D01*
X127752511Y-114300000D01*
X128344057Y-114300000D01*
X128339998Y-114308709D01*
X128277024Y-114566302D01*
X128265513Y-114831230D01*
X128305909Y-115093313D01*
X128331508Y-115163600D01*
X122347751Y-115163600D01*
X120356022Y-113171872D01*
X121881000Y-113171872D01*
X122005482Y-113159612D01*
X122125180Y-113123302D01*
X122235494Y-113064337D01*
X122332185Y-112984985D01*
X122411537Y-112888294D01*
X122470502Y-112777980D01*
X122506812Y-112658282D01*
X122519072Y-112533800D01*
X122519072Y-110833800D01*
X122506812Y-110709318D01*
X122470502Y-110589620D01*
X122411537Y-110479306D01*
X122332185Y-110382615D01*
X122235494Y-110303263D01*
X122125180Y-110244298D01*
X122056313Y-110223407D01*
X122086134Y-110198934D01*
X122271706Y-109972814D01*
X122409599Y-109714834D01*
X122494513Y-109434911D01*
X122523185Y-109143800D01*
X122494513Y-108852689D01*
X122409599Y-108572766D01*
X122271706Y-108314786D01*
X122086134Y-108088666D01*
X121860014Y-107903094D01*
X121805209Y-107873800D01*
X121860014Y-107844506D01*
X122086134Y-107658934D01*
X122271706Y-107432814D01*
X122293949Y-107391200D01*
X124040337Y-107391200D01*
X124079000Y-107395008D01*
X124117663Y-107391200D01*
X124117673Y-107391200D01*
X124233357Y-107379806D01*
X124381783Y-107334782D01*
X124518572Y-107261666D01*
X124638469Y-107163269D01*
X124663127Y-107133223D01*
X126165433Y-105630919D01*
X126195469Y-105606269D01*
X126220119Y-105576233D01*
X126220122Y-105576230D01*
X126293866Y-105486372D01*
X126366982Y-105349583D01*
X126412006Y-105201157D01*
X126415981Y-105160800D01*
X126423400Y-105085473D01*
X126423400Y-105085465D01*
X126427208Y-105046800D01*
X126423400Y-105008135D01*
X126423400Y-100807189D01*
X126510482Y-100798612D01*
X126630180Y-100762302D01*
X126740494Y-100703337D01*
X126837185Y-100623985D01*
X126916537Y-100527294D01*
X126975502Y-100416980D01*
X127011812Y-100297282D01*
X127024072Y-100172800D01*
X127024072Y-99572800D01*
X127011812Y-99448318D01*
X126975502Y-99328620D01*
X126926957Y-99237800D01*
X126975502Y-99146980D01*
X127011812Y-99027282D01*
X127024072Y-98902800D01*
X127024072Y-98302800D01*
X127011812Y-98178318D01*
X126975502Y-98058620D01*
X126971355Y-98050862D01*
X127083972Y-97990666D01*
X127203869Y-97892269D01*
X127228527Y-97862223D01*
X127453227Y-97637524D01*
X127483269Y-97612869D01*
X127581666Y-97492972D01*
X127609601Y-97440711D01*
X127609600Y-98259225D01*
G36*
X129809948Y-114743058D02*
G01*
X129795805Y-114757200D01*
X129809948Y-114771343D01*
X129630343Y-114950948D01*
X129616200Y-114936805D01*
X129602058Y-114950948D01*
X129422453Y-114771343D01*
X129436595Y-114757200D01*
X129422453Y-114743058D01*
X129602058Y-114563453D01*
X129616200Y-114577595D01*
X129630343Y-114563453D01*
X129809948Y-114743058D01*
X129809948Y-114743058D01*
G37*
X129809948Y-114743058D02*
X129795805Y-114757200D01*
X129809948Y-114771343D01*
X129630343Y-114950948D01*
X129616200Y-114936805D01*
X129602058Y-114950948D01*
X129422453Y-114771343D01*
X129436595Y-114757200D01*
X129422453Y-114743058D01*
X129602058Y-114563453D01*
X129616200Y-114577595D01*
X129630343Y-114563453D01*
X129809948Y-114743058D01*
G36*
X137313213Y-111584865D02*
G01*
X137460538Y-111805353D01*
X137648047Y-111992862D01*
X137868535Y-112140187D01*
X138054460Y-112217200D01*
X137868535Y-112294213D01*
X137648047Y-112441538D01*
X137460538Y-112629047D01*
X137313213Y-112849535D01*
X137235231Y-113037800D01*
X137185742Y-112901920D01*
X137130383Y-112798352D01*
X136895473Y-112737532D01*
X136145805Y-113487200D01*
X136159948Y-113501343D01*
X135980343Y-113680948D01*
X135966200Y-113666805D01*
X135952058Y-113680948D01*
X135772453Y-113501343D01*
X135786595Y-113487200D01*
X135036927Y-112737532D01*
X134802017Y-112798352D01*
X134693994Y-113030134D01*
X134619187Y-112849535D01*
X134471862Y-112629047D01*
X134284353Y-112441538D01*
X134063865Y-112294213D01*
X133877940Y-112217200D01*
X134063865Y-112140187D01*
X134284353Y-111992862D01*
X134471862Y-111805353D01*
X134619187Y-111584865D01*
X134696200Y-111398940D01*
X134773213Y-111584865D01*
X134920538Y-111805353D01*
X135108047Y-111992862D01*
X135328535Y-112140187D01*
X135516800Y-112218169D01*
X135380920Y-112267658D01*
X135277352Y-112323017D01*
X135216532Y-112557927D01*
X135966200Y-113307595D01*
X136715868Y-112557927D01*
X136655048Y-112323017D01*
X136423266Y-112214994D01*
X136603865Y-112140187D01*
X136824353Y-111992862D01*
X137011862Y-111805353D01*
X137159187Y-111584865D01*
X137236200Y-111398940D01*
X137313213Y-111584865D01*
X137313213Y-111584865D01*
G37*
X137313213Y-111584865D02*
X137460538Y-111805353D01*
X137648047Y-111992862D01*
X137868535Y-112140187D01*
X138054460Y-112217200D01*
X137868535Y-112294213D01*
X137648047Y-112441538D01*
X137460538Y-112629047D01*
X137313213Y-112849535D01*
X137235231Y-113037800D01*
X137185742Y-112901920D01*
X137130383Y-112798352D01*
X136895473Y-112737532D01*
X136145805Y-113487200D01*
X136159948Y-113501343D01*
X135980343Y-113680948D01*
X135966200Y-113666805D01*
X135952058Y-113680948D01*
X135772453Y-113501343D01*
X135786595Y-113487200D01*
X135036927Y-112737532D01*
X134802017Y-112798352D01*
X134693994Y-113030134D01*
X134619187Y-112849535D01*
X134471862Y-112629047D01*
X134284353Y-112441538D01*
X134063865Y-112294213D01*
X133877940Y-112217200D01*
X134063865Y-112140187D01*
X134284353Y-111992862D01*
X134471862Y-111805353D01*
X134619187Y-111584865D01*
X134696200Y-111398940D01*
X134773213Y-111584865D01*
X134920538Y-111805353D01*
X135108047Y-111992862D01*
X135328535Y-112140187D01*
X135516800Y-112218169D01*
X135380920Y-112267658D01*
X135277352Y-112323017D01*
X135216532Y-112557927D01*
X135966200Y-113307595D01*
X136715868Y-112557927D01*
X136655048Y-112323017D01*
X136423266Y-112214994D01*
X136603865Y-112140187D01*
X136824353Y-111992862D01*
X137011862Y-111805353D01*
X137159187Y-111584865D01*
X137236200Y-111398940D01*
X137313213Y-111584865D01*
G36*
X134773213Y-101424865D02*
G01*
X134920538Y-101645353D01*
X135108047Y-101832862D01*
X135328535Y-101980187D01*
X135573528Y-102081667D01*
X135833611Y-102133400D01*
X136098789Y-102133400D01*
X136358872Y-102081667D01*
X136603865Y-101980187D01*
X136824353Y-101832862D01*
X137011862Y-101645353D01*
X137156928Y-101428246D01*
X137156928Y-101498400D01*
X137169188Y-101622882D01*
X137205498Y-101742580D01*
X137264463Y-101852894D01*
X137343815Y-101949585D01*
X137440506Y-102028937D01*
X137550820Y-102087902D01*
X137670518Y-102124212D01*
X137795000Y-102136472D01*
X139217400Y-102136472D01*
X139341882Y-102124212D01*
X139461580Y-102087902D01*
X139571894Y-102028937D01*
X139668585Y-101949585D01*
X139747937Y-101852894D01*
X139760923Y-101828600D01*
X140183785Y-101828600D01*
X140188047Y-101832862D01*
X140408535Y-101980187D01*
X140594460Y-102057200D01*
X140408535Y-102134213D01*
X140188047Y-102281538D01*
X140000538Y-102469047D01*
X139853213Y-102689535D01*
X139751733Y-102934528D01*
X139700000Y-103194611D01*
X139700000Y-103459789D01*
X139751733Y-103719872D01*
X139853213Y-103964865D01*
X140000538Y-104185353D01*
X140188047Y-104372862D01*
X140408535Y-104520187D01*
X140594460Y-104597200D01*
X140408535Y-104674213D01*
X140188047Y-104821538D01*
X140000538Y-105009047D01*
X139853213Y-105229535D01*
X139751733Y-105474528D01*
X139700000Y-105734611D01*
X139700000Y-105999789D01*
X139751733Y-106259872D01*
X139853213Y-106504865D01*
X140000538Y-106725353D01*
X140188047Y-106912862D01*
X140408535Y-107060187D01*
X140594460Y-107137200D01*
X140408535Y-107214213D01*
X140188047Y-107361538D01*
X140000538Y-107549047D01*
X139853213Y-107769535D01*
X139751733Y-108014528D01*
X139700000Y-108274611D01*
X139700000Y-108539789D01*
X139751733Y-108799872D01*
X139787882Y-108887143D01*
X139776199Y-108885992D01*
X139737536Y-108889800D01*
X139737527Y-108889800D01*
X139621843Y-108901194D01*
X139473417Y-108946218D01*
X139336628Y-109019334D01*
X139336626Y-109019335D01*
X139336627Y-109019335D01*
X139246769Y-109093079D01*
X139246767Y-109093081D01*
X139216731Y-109117731D01*
X139192081Y-109147767D01*
X138722248Y-109617601D01*
X138638789Y-109601000D01*
X138373611Y-109601000D01*
X138113528Y-109652733D01*
X137868535Y-109754213D01*
X137648047Y-109901538D01*
X137460538Y-110089047D01*
X137313213Y-110309535D01*
X137236200Y-110495460D01*
X137159187Y-110309535D01*
X137011862Y-110089047D01*
X136824353Y-109901538D01*
X136603865Y-109754213D01*
X136358872Y-109652733D01*
X136098789Y-109601000D01*
X135833611Y-109601000D01*
X135573528Y-109652733D01*
X135328535Y-109754213D01*
X135108047Y-109901538D01*
X134920538Y-110089047D01*
X134773213Y-110309535D01*
X134696200Y-110495460D01*
X134619187Y-110309535D01*
X134471862Y-110089047D01*
X134284353Y-109901538D01*
X134063865Y-109754213D01*
X133877940Y-109677200D01*
X134063865Y-109600187D01*
X134284353Y-109452862D01*
X134471862Y-109265353D01*
X134619187Y-109044865D01*
X134720667Y-108799872D01*
X134772400Y-108539789D01*
X134772400Y-108274611D01*
X134720667Y-108014528D01*
X134619187Y-107769535D01*
X134471862Y-107549047D01*
X134284353Y-107361538D01*
X134063865Y-107214213D01*
X133877940Y-107137200D01*
X134063865Y-107060187D01*
X134284353Y-106912862D01*
X134471862Y-106725353D01*
X134619187Y-106504865D01*
X134720667Y-106259872D01*
X134772400Y-105999789D01*
X134772400Y-105734611D01*
X134720667Y-105474528D01*
X134619187Y-105229535D01*
X134471862Y-105009047D01*
X134284353Y-104821538D01*
X134063865Y-104674213D01*
X133877940Y-104597200D01*
X134063865Y-104520187D01*
X134284353Y-104372862D01*
X134471862Y-104185353D01*
X134619187Y-103964865D01*
X134720667Y-103719872D01*
X134772400Y-103459789D01*
X134772400Y-103194611D01*
X134720667Y-102934528D01*
X134619187Y-102689535D01*
X134471862Y-102469047D01*
X134284353Y-102281538D01*
X134063865Y-102134213D01*
X133877940Y-102057200D01*
X134063865Y-101980187D01*
X134284353Y-101832862D01*
X134471862Y-101645353D01*
X134619187Y-101424865D01*
X134696200Y-101238940D01*
X134773213Y-101424865D01*
X134773213Y-101424865D01*
G37*
X134773213Y-101424865D02*
X134920538Y-101645353D01*
X135108047Y-101832862D01*
X135328535Y-101980187D01*
X135573528Y-102081667D01*
X135833611Y-102133400D01*
X136098789Y-102133400D01*
X136358872Y-102081667D01*
X136603865Y-101980187D01*
X136824353Y-101832862D01*
X137011862Y-101645353D01*
X137156928Y-101428246D01*
X137156928Y-101498400D01*
X137169188Y-101622882D01*
X137205498Y-101742580D01*
X137264463Y-101852894D01*
X137343815Y-101949585D01*
X137440506Y-102028937D01*
X137550820Y-102087902D01*
X137670518Y-102124212D01*
X137795000Y-102136472D01*
X139217400Y-102136472D01*
X139341882Y-102124212D01*
X139461580Y-102087902D01*
X139571894Y-102028937D01*
X139668585Y-101949585D01*
X139747937Y-101852894D01*
X139760923Y-101828600D01*
X140183785Y-101828600D01*
X140188047Y-101832862D01*
X140408535Y-101980187D01*
X140594460Y-102057200D01*
X140408535Y-102134213D01*
X140188047Y-102281538D01*
X140000538Y-102469047D01*
X139853213Y-102689535D01*
X139751733Y-102934528D01*
X139700000Y-103194611D01*
X139700000Y-103459789D01*
X139751733Y-103719872D01*
X139853213Y-103964865D01*
X140000538Y-104185353D01*
X140188047Y-104372862D01*
X140408535Y-104520187D01*
X140594460Y-104597200D01*
X140408535Y-104674213D01*
X140188047Y-104821538D01*
X140000538Y-105009047D01*
X139853213Y-105229535D01*
X139751733Y-105474528D01*
X139700000Y-105734611D01*
X139700000Y-105999789D01*
X139751733Y-106259872D01*
X139853213Y-106504865D01*
X140000538Y-106725353D01*
X140188047Y-106912862D01*
X140408535Y-107060187D01*
X140594460Y-107137200D01*
X140408535Y-107214213D01*
X140188047Y-107361538D01*
X140000538Y-107549047D01*
X139853213Y-107769535D01*
X139751733Y-108014528D01*
X139700000Y-108274611D01*
X139700000Y-108539789D01*
X139751733Y-108799872D01*
X139787882Y-108887143D01*
X139776199Y-108885992D01*
X139737536Y-108889800D01*
X139737527Y-108889800D01*
X139621843Y-108901194D01*
X139473417Y-108946218D01*
X139336628Y-109019334D01*
X139336626Y-109019335D01*
X139336627Y-109019335D01*
X139246769Y-109093079D01*
X139246767Y-109093081D01*
X139216731Y-109117731D01*
X139192081Y-109147767D01*
X138722248Y-109617601D01*
X138638789Y-109601000D01*
X138373611Y-109601000D01*
X138113528Y-109652733D01*
X137868535Y-109754213D01*
X137648047Y-109901538D01*
X137460538Y-110089047D01*
X137313213Y-110309535D01*
X137236200Y-110495460D01*
X137159187Y-110309535D01*
X137011862Y-110089047D01*
X136824353Y-109901538D01*
X136603865Y-109754213D01*
X136358872Y-109652733D01*
X136098789Y-109601000D01*
X135833611Y-109601000D01*
X135573528Y-109652733D01*
X135328535Y-109754213D01*
X135108047Y-109901538D01*
X134920538Y-110089047D01*
X134773213Y-110309535D01*
X134696200Y-110495460D01*
X134619187Y-110309535D01*
X134471862Y-110089047D01*
X134284353Y-109901538D01*
X134063865Y-109754213D01*
X133877940Y-109677200D01*
X134063865Y-109600187D01*
X134284353Y-109452862D01*
X134471862Y-109265353D01*
X134619187Y-109044865D01*
X134720667Y-108799872D01*
X134772400Y-108539789D01*
X134772400Y-108274611D01*
X134720667Y-108014528D01*
X134619187Y-107769535D01*
X134471862Y-107549047D01*
X134284353Y-107361538D01*
X134063865Y-107214213D01*
X133877940Y-107137200D01*
X134063865Y-107060187D01*
X134284353Y-106912862D01*
X134471862Y-106725353D01*
X134619187Y-106504865D01*
X134720667Y-106259872D01*
X134772400Y-105999789D01*
X134772400Y-105734611D01*
X134720667Y-105474528D01*
X134619187Y-105229535D01*
X134471862Y-105009047D01*
X134284353Y-104821538D01*
X134063865Y-104674213D01*
X133877940Y-104597200D01*
X134063865Y-104520187D01*
X134284353Y-104372862D01*
X134471862Y-104185353D01*
X134619187Y-103964865D01*
X134720667Y-103719872D01*
X134772400Y-103459789D01*
X134772400Y-103194611D01*
X134720667Y-102934528D01*
X134619187Y-102689535D01*
X134471862Y-102469047D01*
X134284353Y-102281538D01*
X134063865Y-102134213D01*
X133877940Y-102057200D01*
X134063865Y-101980187D01*
X134284353Y-101832862D01*
X134471862Y-101645353D01*
X134619187Y-101424865D01*
X134696200Y-101238940D01*
X134773213Y-101424865D01*
G36*
X119652401Y-103492766D02*
G01*
X119567487Y-103772689D01*
X119538815Y-104063800D01*
X119567487Y-104354911D01*
X119652401Y-104634834D01*
X119790294Y-104892814D01*
X119975866Y-105118934D01*
X120201986Y-105304506D01*
X120256791Y-105333800D01*
X120201986Y-105363094D01*
X119975866Y-105548666D01*
X119790294Y-105774786D01*
X119652401Y-106032766D01*
X119567487Y-106312689D01*
X119538815Y-106603800D01*
X119567487Y-106894911D01*
X119652401Y-107174834D01*
X119673015Y-107213400D01*
X117748582Y-107213400D01*
X117766212Y-107155282D01*
X117778472Y-107030800D01*
X117778472Y-106430800D01*
X117766212Y-106306318D01*
X117729902Y-106186620D01*
X117681357Y-106095800D01*
X117729902Y-106004980D01*
X117766212Y-105885282D01*
X117778472Y-105760800D01*
X117778472Y-105160800D01*
X117766212Y-105036318D01*
X117729902Y-104916620D01*
X117681357Y-104825800D01*
X117729902Y-104734980D01*
X117766212Y-104615282D01*
X117778472Y-104490800D01*
X117778472Y-103890800D01*
X117766212Y-103766318D01*
X117729902Y-103646620D01*
X117670937Y-103536306D01*
X117664200Y-103528097D01*
X117664200Y-103454200D01*
X119673015Y-103454200D01*
X119652401Y-103492766D01*
X119652401Y-103492766D01*
G37*
X119652401Y-103492766D02*
X119567487Y-103772689D01*
X119538815Y-104063800D01*
X119567487Y-104354911D01*
X119652401Y-104634834D01*
X119790294Y-104892814D01*
X119975866Y-105118934D01*
X120201986Y-105304506D01*
X120256791Y-105333800D01*
X120201986Y-105363094D01*
X119975866Y-105548666D01*
X119790294Y-105774786D01*
X119652401Y-106032766D01*
X119567487Y-106312689D01*
X119538815Y-106603800D01*
X119567487Y-106894911D01*
X119652401Y-107174834D01*
X119673015Y-107213400D01*
X117748582Y-107213400D01*
X117766212Y-107155282D01*
X117778472Y-107030800D01*
X117778472Y-106430800D01*
X117766212Y-106306318D01*
X117729902Y-106186620D01*
X117681357Y-106095800D01*
X117729902Y-106004980D01*
X117766212Y-105885282D01*
X117778472Y-105760800D01*
X117778472Y-105160800D01*
X117766212Y-105036318D01*
X117729902Y-104916620D01*
X117681357Y-104825800D01*
X117729902Y-104734980D01*
X117766212Y-104615282D01*
X117778472Y-104490800D01*
X117778472Y-103890800D01*
X117766212Y-103766318D01*
X117729902Y-103646620D01*
X117670937Y-103536306D01*
X117664200Y-103528097D01*
X117664200Y-103454200D01*
X119673015Y-103454200D01*
X119652401Y-103492766D01*
G36*
X136159948Y-98233058D02*
G01*
X136145805Y-98247200D01*
X136895473Y-98996868D01*
X137130383Y-98936048D01*
X137238406Y-98704266D01*
X137313213Y-98884865D01*
X137460538Y-99105353D01*
X137464800Y-99109615D01*
X137464801Y-99532477D01*
X137440506Y-99545463D01*
X137343815Y-99624815D01*
X137264463Y-99721506D01*
X137205498Y-99831820D01*
X137169188Y-99951518D01*
X137156928Y-100076000D01*
X137156928Y-100146154D01*
X137011862Y-99929047D01*
X136824353Y-99741538D01*
X136603865Y-99594213D01*
X136415600Y-99516231D01*
X136551480Y-99466742D01*
X136655048Y-99411383D01*
X136715868Y-99176473D01*
X135966200Y-98426805D01*
X135216532Y-99176473D01*
X135277352Y-99411383D01*
X135509134Y-99519406D01*
X135328535Y-99594213D01*
X135108047Y-99741538D01*
X134920538Y-99929047D01*
X134773213Y-100149535D01*
X134696200Y-100335460D01*
X134619187Y-100149535D01*
X134471862Y-99929047D01*
X134284353Y-99741538D01*
X134063865Y-99594213D01*
X133877940Y-99517200D01*
X134063865Y-99440187D01*
X134284353Y-99292862D01*
X134471862Y-99105353D01*
X134619187Y-98884865D01*
X134697169Y-98696600D01*
X134746658Y-98832480D01*
X134802017Y-98936048D01*
X135036927Y-98996868D01*
X135786595Y-98247200D01*
X135772453Y-98233058D01*
X135952058Y-98053453D01*
X135966200Y-98067595D01*
X135980343Y-98053453D01*
X136159948Y-98233058D01*
X136159948Y-98233058D01*
G37*
X136159948Y-98233058D02*
X136145805Y-98247200D01*
X136895473Y-98996868D01*
X137130383Y-98936048D01*
X137238406Y-98704266D01*
X137313213Y-98884865D01*
X137460538Y-99105353D01*
X137464800Y-99109615D01*
X137464801Y-99532477D01*
X137440506Y-99545463D01*
X137343815Y-99624815D01*
X137264463Y-99721506D01*
X137205498Y-99831820D01*
X137169188Y-99951518D01*
X137156928Y-100076000D01*
X137156928Y-100146154D01*
X137011862Y-99929047D01*
X136824353Y-99741538D01*
X136603865Y-99594213D01*
X136415600Y-99516231D01*
X136551480Y-99466742D01*
X136655048Y-99411383D01*
X136715868Y-99176473D01*
X135966200Y-98426805D01*
X135216532Y-99176473D01*
X135277352Y-99411383D01*
X135509134Y-99519406D01*
X135328535Y-99594213D01*
X135108047Y-99741538D01*
X134920538Y-99929047D01*
X134773213Y-100149535D01*
X134696200Y-100335460D01*
X134619187Y-100149535D01*
X134471862Y-99929047D01*
X134284353Y-99741538D01*
X134063865Y-99594213D01*
X133877940Y-99517200D01*
X134063865Y-99440187D01*
X134284353Y-99292862D01*
X134471862Y-99105353D01*
X134619187Y-98884865D01*
X134697169Y-98696600D01*
X134746658Y-98832480D01*
X134802017Y-98936048D01*
X135036927Y-98996868D01*
X135786595Y-98247200D01*
X135772453Y-98233058D01*
X135952058Y-98053453D01*
X135966200Y-98067595D01*
X135980343Y-98053453D01*
X136159948Y-98233058D01*
G36*
X134265992Y-85307746D02*
G01*
X134248928Y-85481000D01*
X134248928Y-86731000D01*
X134265992Y-86904254D01*
X134316528Y-87070850D01*
X134398595Y-87224386D01*
X134509038Y-87358962D01*
X134643614Y-87469405D01*
X134797150Y-87551472D01*
X134963746Y-87602008D01*
X135137000Y-87619072D01*
X135864601Y-87619072D01*
X135864601Y-88011112D01*
X135738891Y-87966519D01*
X135509000Y-88087186D01*
X135509000Y-89281000D01*
X135529000Y-89281000D01*
X135529000Y-89535000D01*
X135509000Y-89535000D01*
X135509000Y-91821000D01*
X135529000Y-91821000D01*
X135529000Y-92075000D01*
X135509000Y-92075000D01*
X135509000Y-93268814D01*
X135738891Y-93389481D01*
X136013252Y-93292157D01*
X136263355Y-93143178D01*
X136459502Y-92966374D01*
X136482498Y-93042180D01*
X136541463Y-93152494D01*
X136620815Y-93249185D01*
X136717506Y-93328537D01*
X136827820Y-93387502D01*
X136947518Y-93423812D01*
X137072000Y-93436072D01*
X138296520Y-93436072D01*
X138510248Y-93649800D01*
X135316222Y-93649800D01*
X135286247Y-93619825D01*
X135108540Y-93501085D01*
X134911083Y-93419296D01*
X134701463Y-93377600D01*
X134487737Y-93377600D01*
X134278117Y-93419296D01*
X134080660Y-93501085D01*
X133902953Y-93619825D01*
X133848401Y-93674377D01*
X133848401Y-92304890D01*
X133940524Y-92304890D01*
X133985175Y-92452099D01*
X134110359Y-92714920D01*
X134284412Y-92948269D01*
X134500645Y-93143178D01*
X134750748Y-93292157D01*
X135025109Y-93389481D01*
X135255000Y-93268814D01*
X135255000Y-92075000D01*
X134061845Y-92075000D01*
X133940524Y-92304890D01*
X133848401Y-92304890D01*
X133848401Y-89764890D01*
X133940524Y-89764890D01*
X133985175Y-89912099D01*
X134110359Y-90174920D01*
X134284412Y-90408269D01*
X134500645Y-90603178D01*
X134626255Y-90678000D01*
X134500645Y-90752822D01*
X134284412Y-90947731D01*
X134110359Y-91181080D01*
X133985175Y-91443901D01*
X133940524Y-91591110D01*
X134061845Y-91821000D01*
X135255000Y-91821000D01*
X135255000Y-89535000D01*
X134061845Y-89535000D01*
X133940524Y-89764890D01*
X133848401Y-89764890D01*
X133848401Y-89051110D01*
X133940524Y-89051110D01*
X134061845Y-89281000D01*
X135255000Y-89281000D01*
X135255000Y-88087186D01*
X135025109Y-87966519D01*
X134750748Y-88063843D01*
X134500645Y-88212822D01*
X134284412Y-88407731D01*
X134110359Y-88641080D01*
X133985175Y-88903901D01*
X133940524Y-89051110D01*
X133848401Y-89051110D01*
X133848401Y-87181364D01*
X133907472Y-87070850D01*
X133958008Y-86904254D01*
X133975072Y-86731000D01*
X133975072Y-85481000D01*
X133958008Y-85307746D01*
X133922654Y-85191200D01*
X134301346Y-85191200D01*
X134265992Y-85307746D01*
X134265992Y-85307746D01*
G37*
X134265992Y-85307746D02*
X134248928Y-85481000D01*
X134248928Y-86731000D01*
X134265992Y-86904254D01*
X134316528Y-87070850D01*
X134398595Y-87224386D01*
X134509038Y-87358962D01*
X134643614Y-87469405D01*
X134797150Y-87551472D01*
X134963746Y-87602008D01*
X135137000Y-87619072D01*
X135864601Y-87619072D01*
X135864601Y-88011112D01*
X135738891Y-87966519D01*
X135509000Y-88087186D01*
X135509000Y-89281000D01*
X135529000Y-89281000D01*
X135529000Y-89535000D01*
X135509000Y-89535000D01*
X135509000Y-91821000D01*
X135529000Y-91821000D01*
X135529000Y-92075000D01*
X135509000Y-92075000D01*
X135509000Y-93268814D01*
X135738891Y-93389481D01*
X136013252Y-93292157D01*
X136263355Y-93143178D01*
X136459502Y-92966374D01*
X136482498Y-93042180D01*
X136541463Y-93152494D01*
X136620815Y-93249185D01*
X136717506Y-93328537D01*
X136827820Y-93387502D01*
X136947518Y-93423812D01*
X137072000Y-93436072D01*
X138296520Y-93436072D01*
X138510248Y-93649800D01*
X135316222Y-93649800D01*
X135286247Y-93619825D01*
X135108540Y-93501085D01*
X134911083Y-93419296D01*
X134701463Y-93377600D01*
X134487737Y-93377600D01*
X134278117Y-93419296D01*
X134080660Y-93501085D01*
X133902953Y-93619825D01*
X133848401Y-93674377D01*
X133848401Y-92304890D01*
X133940524Y-92304890D01*
X133985175Y-92452099D01*
X134110359Y-92714920D01*
X134284412Y-92948269D01*
X134500645Y-93143178D01*
X134750748Y-93292157D01*
X135025109Y-93389481D01*
X135255000Y-93268814D01*
X135255000Y-92075000D01*
X134061845Y-92075000D01*
X133940524Y-92304890D01*
X133848401Y-92304890D01*
X133848401Y-89764890D01*
X133940524Y-89764890D01*
X133985175Y-89912099D01*
X134110359Y-90174920D01*
X134284412Y-90408269D01*
X134500645Y-90603178D01*
X134626255Y-90678000D01*
X134500645Y-90752822D01*
X134284412Y-90947731D01*
X134110359Y-91181080D01*
X133985175Y-91443901D01*
X133940524Y-91591110D01*
X134061845Y-91821000D01*
X135255000Y-91821000D01*
X135255000Y-89535000D01*
X134061845Y-89535000D01*
X133940524Y-89764890D01*
X133848401Y-89764890D01*
X133848401Y-89051110D01*
X133940524Y-89051110D01*
X134061845Y-89281000D01*
X135255000Y-89281000D01*
X135255000Y-88087186D01*
X135025109Y-87966519D01*
X134750748Y-88063843D01*
X134500645Y-88212822D01*
X134284412Y-88407731D01*
X134110359Y-88641080D01*
X133985175Y-88903901D01*
X133940524Y-89051110D01*
X133848401Y-89051110D01*
X133848401Y-87181364D01*
X133907472Y-87070850D01*
X133958008Y-86904254D01*
X133975072Y-86731000D01*
X133975072Y-85481000D01*
X133958008Y-85307746D01*
X133922654Y-85191200D01*
X134301346Y-85191200D01*
X134265992Y-85307746D01*
G36*
X139599992Y-85307746D02*
G01*
X139582928Y-85481000D01*
X139582928Y-86731000D01*
X139599992Y-86904254D01*
X139650528Y-87070850D01*
X139732595Y-87224386D01*
X139843038Y-87358962D01*
X139977614Y-87469405D01*
X140131150Y-87551472D01*
X140297746Y-87602008D01*
X140471000Y-87619072D01*
X141396000Y-87619072D01*
X141569254Y-87602008D01*
X141735850Y-87551472D01*
X141889386Y-87469405D01*
X142023962Y-87358962D01*
X142134405Y-87224386D01*
X142216472Y-87070850D01*
X142247186Y-86969600D01*
X143506928Y-86969600D01*
X143506928Y-87528400D01*
X143519188Y-87652882D01*
X143555498Y-87772580D01*
X143614463Y-87882894D01*
X143693815Y-87979585D01*
X143790506Y-88058937D01*
X143900820Y-88117902D01*
X144020518Y-88154212D01*
X144145000Y-88166472D01*
X144215154Y-88166472D01*
X143998047Y-88311538D01*
X143810538Y-88499047D01*
X143663213Y-88719535D01*
X143561733Y-88964528D01*
X143510000Y-89224611D01*
X143510000Y-89489789D01*
X143561733Y-89749872D01*
X143663213Y-89994865D01*
X143810538Y-90215353D01*
X143998047Y-90402862D01*
X144218535Y-90550187D01*
X144404460Y-90627200D01*
X144218535Y-90704213D01*
X143998047Y-90851538D01*
X143810538Y-91039047D01*
X143663213Y-91259535D01*
X143561733Y-91504528D01*
X143510000Y-91764611D01*
X143510000Y-92029789D01*
X143561733Y-92289872D01*
X143588462Y-92354400D01*
X139441952Y-92354400D01*
X139410072Y-92322520D01*
X139410072Y-91098000D01*
X139397812Y-90973518D01*
X139361502Y-90853820D01*
X139302537Y-90743506D01*
X139223185Y-90646815D01*
X139126494Y-90567463D01*
X139016180Y-90508498D01*
X138947313Y-90487607D01*
X138977134Y-90463134D01*
X139162706Y-90237014D01*
X139300599Y-89979034D01*
X139385513Y-89699111D01*
X139414185Y-89408000D01*
X139385513Y-89116889D01*
X139300599Y-88836966D01*
X139162706Y-88578986D01*
X138977134Y-88352866D01*
X138751014Y-88167294D01*
X138745900Y-88164561D01*
X138745900Y-87556007D01*
X138760850Y-87551472D01*
X138914386Y-87469405D01*
X139048962Y-87358962D01*
X139159405Y-87224386D01*
X139241472Y-87070850D01*
X139292008Y-86904254D01*
X139309072Y-86731000D01*
X139309072Y-85481000D01*
X139292008Y-85307746D01*
X139256654Y-85191200D01*
X139635346Y-85191200D01*
X139599992Y-85307746D01*
X139599992Y-85307746D01*
G37*
X139599992Y-85307746D02*
X139582928Y-85481000D01*
X139582928Y-86731000D01*
X139599992Y-86904254D01*
X139650528Y-87070850D01*
X139732595Y-87224386D01*
X139843038Y-87358962D01*
X139977614Y-87469405D01*
X140131150Y-87551472D01*
X140297746Y-87602008D01*
X140471000Y-87619072D01*
X141396000Y-87619072D01*
X141569254Y-87602008D01*
X141735850Y-87551472D01*
X141889386Y-87469405D01*
X142023962Y-87358962D01*
X142134405Y-87224386D01*
X142216472Y-87070850D01*
X142247186Y-86969600D01*
X143506928Y-86969600D01*
X143506928Y-87528400D01*
X143519188Y-87652882D01*
X143555498Y-87772580D01*
X143614463Y-87882894D01*
X143693815Y-87979585D01*
X143790506Y-88058937D01*
X143900820Y-88117902D01*
X144020518Y-88154212D01*
X144145000Y-88166472D01*
X144215154Y-88166472D01*
X143998047Y-88311538D01*
X143810538Y-88499047D01*
X143663213Y-88719535D01*
X143561733Y-88964528D01*
X143510000Y-89224611D01*
X143510000Y-89489789D01*
X143561733Y-89749872D01*
X143663213Y-89994865D01*
X143810538Y-90215353D01*
X143998047Y-90402862D01*
X144218535Y-90550187D01*
X144404460Y-90627200D01*
X144218535Y-90704213D01*
X143998047Y-90851538D01*
X143810538Y-91039047D01*
X143663213Y-91259535D01*
X143561733Y-91504528D01*
X143510000Y-91764611D01*
X143510000Y-92029789D01*
X143561733Y-92289872D01*
X143588462Y-92354400D01*
X139441952Y-92354400D01*
X139410072Y-92322520D01*
X139410072Y-91098000D01*
X139397812Y-90973518D01*
X139361502Y-90853820D01*
X139302537Y-90743506D01*
X139223185Y-90646815D01*
X139126494Y-90567463D01*
X139016180Y-90508498D01*
X138947313Y-90487607D01*
X138977134Y-90463134D01*
X139162706Y-90237014D01*
X139300599Y-89979034D01*
X139385513Y-89699111D01*
X139414185Y-89408000D01*
X139385513Y-89116889D01*
X139300599Y-88836966D01*
X139162706Y-88578986D01*
X138977134Y-88352866D01*
X138751014Y-88167294D01*
X138745900Y-88164561D01*
X138745900Y-87556007D01*
X138760850Y-87551472D01*
X138914386Y-87469405D01*
X139048962Y-87358962D01*
X139159405Y-87224386D01*
X139241472Y-87070850D01*
X139292008Y-86904254D01*
X139309072Y-86731000D01*
X139309072Y-85481000D01*
X139292008Y-85307746D01*
X139256654Y-85191200D01*
X139635346Y-85191200D01*
X139599992Y-85307746D01*
M02*
