G04 #@! TF.GenerationSoftware,KiCad,Pcbnew,(5.1.0)-1*
G04 #@! TF.CreationDate,2021-03-18T21:34:57+01:00*
G04 #@! TF.ProjectId,Atari OSS Cartridge internal,41746172-6920-44f5-9353-204361727472,rev?*
G04 #@! TF.SameCoordinates,Original*
G04 #@! TF.FileFunction,Soldermask,Top*
G04 #@! TF.FilePolarity,Negative*
%FSLAX46Y46*%
G04 Gerber Fmt 4.6, Leading zero omitted, Abs format (unit mm)*
G04 Created by KiCad (PCBNEW (5.1.0)-1) date 2021-03-18 21:34:57*
%MOMM*%
%LPD*%
G04 APERTURE LIST*
%ADD10C,0.100000*%
G04 APERTURE END LIST*
D10*
G36*
X145078525Y-114024290D02*
G01*
X145217238Y-114081747D01*
X145342072Y-114165158D01*
X145448242Y-114271328D01*
X145531653Y-114396162D01*
X145589110Y-114534875D01*
X145618400Y-114682129D01*
X145618400Y-114832271D01*
X145589110Y-114979525D01*
X145531653Y-115118238D01*
X145448242Y-115243072D01*
X145342072Y-115349242D01*
X145217238Y-115432653D01*
X145078525Y-115490110D01*
X144931271Y-115519400D01*
X144781129Y-115519400D01*
X144633875Y-115490110D01*
X144495162Y-115432653D01*
X144370328Y-115349242D01*
X144264158Y-115243072D01*
X144180747Y-115118238D01*
X144123290Y-114979525D01*
X144094000Y-114832271D01*
X144094000Y-114682129D01*
X144123290Y-114534875D01*
X144180747Y-114396162D01*
X144264158Y-114271328D01*
X144370328Y-114165158D01*
X144495162Y-114081747D01*
X144633875Y-114024290D01*
X144781129Y-113995000D01*
X144931271Y-113995000D01*
X145078525Y-114024290D01*
X145078525Y-114024290D01*
G37*
G36*
X129838525Y-114024290D02*
G01*
X129977238Y-114081747D01*
X130102072Y-114165158D01*
X130208242Y-114271328D01*
X130291653Y-114396162D01*
X130349110Y-114534875D01*
X130378400Y-114682129D01*
X130378400Y-114832271D01*
X130349110Y-114979525D01*
X130291653Y-115118238D01*
X130208242Y-115243072D01*
X130102072Y-115349242D01*
X129977238Y-115432653D01*
X129838525Y-115490110D01*
X129691271Y-115519400D01*
X129541129Y-115519400D01*
X129393875Y-115490110D01*
X129255162Y-115432653D01*
X129130328Y-115349242D01*
X129024158Y-115243072D01*
X128940747Y-115118238D01*
X128883290Y-114979525D01*
X128854000Y-114832271D01*
X128854000Y-114682129D01*
X128883290Y-114534875D01*
X128940747Y-114396162D01*
X129024158Y-114271328D01*
X129130328Y-114165158D01*
X129255162Y-114081747D01*
X129393875Y-114024290D01*
X129541129Y-113995000D01*
X129691271Y-113995000D01*
X129838525Y-114024290D01*
X129838525Y-114024290D01*
G37*
G36*
X136188525Y-112754290D02*
G01*
X136327238Y-112811747D01*
X136452072Y-112895158D01*
X136558242Y-113001328D01*
X136641653Y-113126162D01*
X136699110Y-113264875D01*
X136728400Y-113412129D01*
X136728400Y-113562271D01*
X136699110Y-113709525D01*
X136641653Y-113848238D01*
X136558242Y-113973072D01*
X136452072Y-114079242D01*
X136327238Y-114162653D01*
X136188525Y-114220110D01*
X136041271Y-114249400D01*
X135891129Y-114249400D01*
X135743875Y-114220110D01*
X135605162Y-114162653D01*
X135480328Y-114079242D01*
X135374158Y-113973072D01*
X135290747Y-113848238D01*
X135233290Y-113709525D01*
X135204000Y-113562271D01*
X135204000Y-113412129D01*
X135233290Y-113264875D01*
X135290747Y-113126162D01*
X135374158Y-113001328D01*
X135480328Y-112895158D01*
X135605162Y-112811747D01*
X135743875Y-112754290D01*
X135891129Y-112725000D01*
X136041271Y-112725000D01*
X136188525Y-112754290D01*
X136188525Y-112754290D01*
G37*
G36*
X133648525Y-112754290D02*
G01*
X133787238Y-112811747D01*
X133912072Y-112895158D01*
X134018242Y-113001328D01*
X134101653Y-113126162D01*
X134159110Y-113264875D01*
X134188400Y-113412129D01*
X134188400Y-113562271D01*
X134159110Y-113709525D01*
X134101653Y-113848238D01*
X134018242Y-113973072D01*
X133912072Y-114079242D01*
X133787238Y-114162653D01*
X133648525Y-114220110D01*
X133501271Y-114249400D01*
X133351129Y-114249400D01*
X133203875Y-114220110D01*
X133065162Y-114162653D01*
X132940328Y-114079242D01*
X132834158Y-113973072D01*
X132750747Y-113848238D01*
X132693290Y-113709525D01*
X132664000Y-113562271D01*
X132664000Y-113412129D01*
X132693290Y-113264875D01*
X132750747Y-113126162D01*
X132834158Y-113001328D01*
X132940328Y-112895158D01*
X133065162Y-112811747D01*
X133203875Y-112754290D01*
X133351129Y-112725000D01*
X133501271Y-112725000D01*
X133648525Y-112754290D01*
X133648525Y-112754290D01*
G37*
G36*
X141268525Y-112754290D02*
G01*
X141407238Y-112811747D01*
X141532072Y-112895158D01*
X141638242Y-113001328D01*
X141721653Y-113126162D01*
X141779110Y-113264875D01*
X141808400Y-113412129D01*
X141808400Y-113562271D01*
X141779110Y-113709525D01*
X141721653Y-113848238D01*
X141638242Y-113973072D01*
X141532072Y-114079242D01*
X141407238Y-114162653D01*
X141268525Y-114220110D01*
X141121271Y-114249400D01*
X140971129Y-114249400D01*
X140823875Y-114220110D01*
X140685162Y-114162653D01*
X140560328Y-114079242D01*
X140454158Y-113973072D01*
X140370747Y-113848238D01*
X140313290Y-113709525D01*
X140284000Y-113562271D01*
X140284000Y-113412129D01*
X140313290Y-113264875D01*
X140370747Y-113126162D01*
X140454158Y-113001328D01*
X140560328Y-112895158D01*
X140685162Y-112811747D01*
X140823875Y-112754290D01*
X140971129Y-112725000D01*
X141121271Y-112725000D01*
X141268525Y-112754290D01*
X141268525Y-112754290D01*
G37*
G36*
X138728525Y-112754290D02*
G01*
X138867238Y-112811747D01*
X138992072Y-112895158D01*
X139098242Y-113001328D01*
X139181653Y-113126162D01*
X139239110Y-113264875D01*
X139268400Y-113412129D01*
X139268400Y-113562271D01*
X139239110Y-113709525D01*
X139181653Y-113848238D01*
X139098242Y-113973072D01*
X138992072Y-114079242D01*
X138867238Y-114162653D01*
X138728525Y-114220110D01*
X138581271Y-114249400D01*
X138431129Y-114249400D01*
X138283875Y-114220110D01*
X138145162Y-114162653D01*
X138020328Y-114079242D01*
X137914158Y-113973072D01*
X137830747Y-113848238D01*
X137773290Y-113709525D01*
X137744000Y-113562271D01*
X137744000Y-113412129D01*
X137773290Y-113264875D01*
X137830747Y-113126162D01*
X137914158Y-113001328D01*
X138020328Y-112895158D01*
X138145162Y-112811747D01*
X138283875Y-112754290D01*
X138431129Y-112725000D01*
X138581271Y-112725000D01*
X138728525Y-112754290D01*
X138728525Y-112754290D01*
G37*
G36*
X129838525Y-111484290D02*
G01*
X129977238Y-111541747D01*
X130102072Y-111625158D01*
X130208242Y-111731328D01*
X130291653Y-111856162D01*
X130349110Y-111994875D01*
X130378400Y-112142129D01*
X130378400Y-112292271D01*
X130349110Y-112439525D01*
X130291653Y-112578238D01*
X130208242Y-112703072D01*
X130102072Y-112809242D01*
X129977238Y-112892653D01*
X129838525Y-112950110D01*
X129691271Y-112979400D01*
X129541129Y-112979400D01*
X129393875Y-112950110D01*
X129255162Y-112892653D01*
X129130328Y-112809242D01*
X129024158Y-112703072D01*
X128940747Y-112578238D01*
X128883290Y-112439525D01*
X128854000Y-112292271D01*
X128854000Y-112142129D01*
X128883290Y-111994875D01*
X128940747Y-111856162D01*
X129024158Y-111731328D01*
X129130328Y-111625158D01*
X129255162Y-111541747D01*
X129393875Y-111484290D01*
X129541129Y-111455000D01*
X129691271Y-111455000D01*
X129838525Y-111484290D01*
X129838525Y-111484290D01*
G37*
G36*
X145078525Y-111484290D02*
G01*
X145217238Y-111541747D01*
X145342072Y-111625158D01*
X145448242Y-111731328D01*
X145531653Y-111856162D01*
X145589110Y-111994875D01*
X145618400Y-112142129D01*
X145618400Y-112292271D01*
X145589110Y-112439525D01*
X145531653Y-112578238D01*
X145448242Y-112703072D01*
X145342072Y-112809242D01*
X145217238Y-112892653D01*
X145078525Y-112950110D01*
X144931271Y-112979400D01*
X144781129Y-112979400D01*
X144633875Y-112950110D01*
X144495162Y-112892653D01*
X144370328Y-112809242D01*
X144264158Y-112703072D01*
X144180747Y-112578238D01*
X144123290Y-112439525D01*
X144094000Y-112292271D01*
X144094000Y-112142129D01*
X144123290Y-111994875D01*
X144180747Y-111856162D01*
X144264158Y-111731328D01*
X144370328Y-111625158D01*
X144495162Y-111541747D01*
X144633875Y-111484290D01*
X144781129Y-111455000D01*
X144931271Y-111455000D01*
X145078525Y-111484290D01*
X145078525Y-111484290D01*
G37*
G36*
X121932000Y-112584800D02*
G01*
X120130000Y-112584800D01*
X120130000Y-110782800D01*
X121932000Y-110782800D01*
X121932000Y-112584800D01*
X121932000Y-112584800D01*
G37*
G36*
X111791400Y-112161800D02*
G01*
X110189400Y-112161800D01*
X110189400Y-111459800D01*
X111791400Y-111459800D01*
X111791400Y-112161800D01*
X111791400Y-112161800D01*
G37*
G36*
X117191400Y-112161800D02*
G01*
X115589400Y-112161800D01*
X115589400Y-111459800D01*
X117191400Y-111459800D01*
X117191400Y-112161800D01*
X117191400Y-112161800D01*
G37*
G36*
X138728525Y-110214290D02*
G01*
X138867238Y-110271747D01*
X138992072Y-110355158D01*
X139098242Y-110461328D01*
X139181653Y-110586162D01*
X139239110Y-110724875D01*
X139268400Y-110872129D01*
X139268400Y-111022271D01*
X139239110Y-111169525D01*
X139181653Y-111308238D01*
X139098242Y-111433072D01*
X138992072Y-111539242D01*
X138867238Y-111622653D01*
X138728525Y-111680110D01*
X138581271Y-111709400D01*
X138431129Y-111709400D01*
X138283875Y-111680110D01*
X138145162Y-111622653D01*
X138020328Y-111539242D01*
X137914158Y-111433072D01*
X137830747Y-111308238D01*
X137773290Y-111169525D01*
X137744000Y-111022271D01*
X137744000Y-110872129D01*
X137773290Y-110724875D01*
X137830747Y-110586162D01*
X137914158Y-110461328D01*
X138020328Y-110355158D01*
X138145162Y-110271747D01*
X138283875Y-110214290D01*
X138431129Y-110185000D01*
X138581271Y-110185000D01*
X138728525Y-110214290D01*
X138728525Y-110214290D01*
G37*
G36*
X143808525Y-110214290D02*
G01*
X143947238Y-110271747D01*
X144072072Y-110355158D01*
X144178242Y-110461328D01*
X144261653Y-110586162D01*
X144319110Y-110724875D01*
X144348400Y-110872129D01*
X144348400Y-111022271D01*
X144319110Y-111169525D01*
X144261653Y-111308238D01*
X144178242Y-111433072D01*
X144072072Y-111539242D01*
X143947238Y-111622653D01*
X143808525Y-111680110D01*
X143661271Y-111709400D01*
X143511129Y-111709400D01*
X143363875Y-111680110D01*
X143225162Y-111622653D01*
X143100328Y-111539242D01*
X142994158Y-111433072D01*
X142910747Y-111308238D01*
X142853290Y-111169525D01*
X142824000Y-111022271D01*
X142824000Y-110872129D01*
X142853290Y-110724875D01*
X142910747Y-110586162D01*
X142994158Y-110461328D01*
X143100328Y-110355158D01*
X143225162Y-110271747D01*
X143363875Y-110214290D01*
X143511129Y-110185000D01*
X143661271Y-110185000D01*
X143808525Y-110214290D01*
X143808525Y-110214290D01*
G37*
G36*
X136188525Y-110214290D02*
G01*
X136327238Y-110271747D01*
X136452072Y-110355158D01*
X136558242Y-110461328D01*
X136641653Y-110586162D01*
X136699110Y-110724875D01*
X136728400Y-110872129D01*
X136728400Y-111022271D01*
X136699110Y-111169525D01*
X136641653Y-111308238D01*
X136558242Y-111433072D01*
X136452072Y-111539242D01*
X136327238Y-111622653D01*
X136188525Y-111680110D01*
X136041271Y-111709400D01*
X135891129Y-111709400D01*
X135743875Y-111680110D01*
X135605162Y-111622653D01*
X135480328Y-111539242D01*
X135374158Y-111433072D01*
X135290747Y-111308238D01*
X135233290Y-111169525D01*
X135204000Y-111022271D01*
X135204000Y-110872129D01*
X135233290Y-110724875D01*
X135290747Y-110586162D01*
X135374158Y-110461328D01*
X135480328Y-110355158D01*
X135605162Y-110271747D01*
X135743875Y-110214290D01*
X135891129Y-110185000D01*
X136041271Y-110185000D01*
X136188525Y-110214290D01*
X136188525Y-110214290D01*
G37*
G36*
X141268525Y-110214290D02*
G01*
X141407238Y-110271747D01*
X141532072Y-110355158D01*
X141638242Y-110461328D01*
X141721653Y-110586162D01*
X141779110Y-110724875D01*
X141808400Y-110872129D01*
X141808400Y-111022271D01*
X141779110Y-111169525D01*
X141721653Y-111308238D01*
X141638242Y-111433072D01*
X141532072Y-111539242D01*
X141407238Y-111622653D01*
X141268525Y-111680110D01*
X141121271Y-111709400D01*
X140971129Y-111709400D01*
X140823875Y-111680110D01*
X140685162Y-111622653D01*
X140560328Y-111539242D01*
X140454158Y-111433072D01*
X140370747Y-111308238D01*
X140313290Y-111169525D01*
X140284000Y-111022271D01*
X140284000Y-110872129D01*
X140313290Y-110724875D01*
X140370747Y-110586162D01*
X140454158Y-110461328D01*
X140560328Y-110355158D01*
X140685162Y-110271747D01*
X140823875Y-110214290D01*
X140971129Y-110185000D01*
X141121271Y-110185000D01*
X141268525Y-110214290D01*
X141268525Y-110214290D01*
G37*
G36*
X133648525Y-110214290D02*
G01*
X133787238Y-110271747D01*
X133912072Y-110355158D01*
X134018242Y-110461328D01*
X134101653Y-110586162D01*
X134159110Y-110724875D01*
X134188400Y-110872129D01*
X134188400Y-111022271D01*
X134159110Y-111169525D01*
X134101653Y-111308238D01*
X134018242Y-111433072D01*
X133912072Y-111539242D01*
X133787238Y-111622653D01*
X133648525Y-111680110D01*
X133501271Y-111709400D01*
X133351129Y-111709400D01*
X133203875Y-111680110D01*
X133065162Y-111622653D01*
X132940328Y-111539242D01*
X132834158Y-111433072D01*
X132750747Y-111308238D01*
X132693290Y-111169525D01*
X132664000Y-111022271D01*
X132664000Y-110872129D01*
X132693290Y-110724875D01*
X132750747Y-110586162D01*
X132834158Y-110461328D01*
X132940328Y-110355158D01*
X133065162Y-110271747D01*
X133203875Y-110214290D01*
X133351129Y-110185000D01*
X133501271Y-110185000D01*
X133648525Y-110214290D01*
X133648525Y-110214290D01*
G37*
G36*
X131108525Y-110214290D02*
G01*
X131247238Y-110271747D01*
X131372072Y-110355158D01*
X131478242Y-110461328D01*
X131561653Y-110586162D01*
X131619110Y-110724875D01*
X131648400Y-110872129D01*
X131648400Y-111022271D01*
X131619110Y-111169525D01*
X131561653Y-111308238D01*
X131478242Y-111433072D01*
X131372072Y-111539242D01*
X131247238Y-111622653D01*
X131108525Y-111680110D01*
X130961271Y-111709400D01*
X130811129Y-111709400D01*
X130663875Y-111680110D01*
X130525162Y-111622653D01*
X130400328Y-111539242D01*
X130294158Y-111433072D01*
X130210747Y-111308238D01*
X130153290Y-111169525D01*
X130124000Y-111022271D01*
X130124000Y-110872129D01*
X130153290Y-110724875D01*
X130210747Y-110586162D01*
X130294158Y-110461328D01*
X130400328Y-110355158D01*
X130525162Y-110271747D01*
X130663875Y-110214290D01*
X130811129Y-110185000D01*
X130961271Y-110185000D01*
X131108525Y-110214290D01*
X131108525Y-110214290D01*
G37*
G36*
X111791400Y-110891800D02*
G01*
X110189400Y-110891800D01*
X110189400Y-110189800D01*
X111791400Y-110189800D01*
X111791400Y-110891800D01*
X111791400Y-110891800D01*
G37*
G36*
X117191400Y-110891800D02*
G01*
X115589400Y-110891800D01*
X115589400Y-110189800D01*
X117191400Y-110189800D01*
X117191400Y-110891800D01*
X117191400Y-110891800D01*
G37*
G36*
X145078525Y-108944290D02*
G01*
X145217238Y-109001747D01*
X145342072Y-109085158D01*
X145448242Y-109191328D01*
X145531653Y-109316162D01*
X145589110Y-109454875D01*
X145618400Y-109602129D01*
X145618400Y-109752271D01*
X145589110Y-109899525D01*
X145531653Y-110038238D01*
X145448242Y-110163072D01*
X145342072Y-110269242D01*
X145217238Y-110352653D01*
X145078525Y-110410110D01*
X144931271Y-110439400D01*
X144781129Y-110439400D01*
X144633875Y-110410110D01*
X144495162Y-110352653D01*
X144370328Y-110269242D01*
X144264158Y-110163072D01*
X144180747Y-110038238D01*
X144123290Y-109899525D01*
X144094000Y-109752271D01*
X144094000Y-109602129D01*
X144123290Y-109454875D01*
X144180747Y-109316162D01*
X144264158Y-109191328D01*
X144370328Y-109085158D01*
X144495162Y-109001747D01*
X144633875Y-108944290D01*
X144781129Y-108915000D01*
X144931271Y-108915000D01*
X145078525Y-108944290D01*
X145078525Y-108944290D01*
G37*
G36*
X129838525Y-108944290D02*
G01*
X129977238Y-109001747D01*
X130102072Y-109085158D01*
X130208242Y-109191328D01*
X130291653Y-109316162D01*
X130349110Y-109454875D01*
X130378400Y-109602129D01*
X130378400Y-109752271D01*
X130349110Y-109899525D01*
X130291653Y-110038238D01*
X130208242Y-110163072D01*
X130102072Y-110269242D01*
X129977238Y-110352653D01*
X129838525Y-110410110D01*
X129691271Y-110439400D01*
X129541129Y-110439400D01*
X129393875Y-110410110D01*
X129255162Y-110352653D01*
X129130328Y-110269242D01*
X129024158Y-110163072D01*
X128940747Y-110038238D01*
X128883290Y-109899525D01*
X128854000Y-109752271D01*
X128854000Y-109602129D01*
X128883290Y-109454875D01*
X128940747Y-109316162D01*
X129024158Y-109191328D01*
X129130328Y-109085158D01*
X129255162Y-109001747D01*
X129393875Y-108944290D01*
X129541129Y-108915000D01*
X129691271Y-108915000D01*
X129838525Y-108944290D01*
X129838525Y-108944290D01*
G37*
G36*
X121141443Y-108249319D02*
G01*
X121207627Y-108255837D01*
X121377466Y-108307357D01*
X121533991Y-108391022D01*
X121569729Y-108420352D01*
X121671186Y-108503614D01*
X121754448Y-108605071D01*
X121783778Y-108640809D01*
X121867443Y-108797334D01*
X121918963Y-108967173D01*
X121936359Y-109143800D01*
X121918963Y-109320427D01*
X121867443Y-109490266D01*
X121783778Y-109646791D01*
X121754448Y-109682529D01*
X121671186Y-109783986D01*
X121569729Y-109867248D01*
X121533991Y-109896578D01*
X121377466Y-109980243D01*
X121207627Y-110031763D01*
X121141894Y-110038237D01*
X121075260Y-110044800D01*
X120986740Y-110044800D01*
X120920106Y-110038237D01*
X120854373Y-110031763D01*
X120684534Y-109980243D01*
X120528009Y-109896578D01*
X120492271Y-109867248D01*
X120390814Y-109783986D01*
X120307552Y-109682529D01*
X120278222Y-109646791D01*
X120194557Y-109490266D01*
X120143037Y-109320427D01*
X120125641Y-109143800D01*
X120143037Y-108967173D01*
X120194557Y-108797334D01*
X120278222Y-108640809D01*
X120307552Y-108605071D01*
X120390814Y-108503614D01*
X120492271Y-108420352D01*
X120528009Y-108391022D01*
X120684534Y-108307357D01*
X120854373Y-108255837D01*
X120920557Y-108249319D01*
X120986740Y-108242800D01*
X121075260Y-108242800D01*
X121141443Y-108249319D01*
X121141443Y-108249319D01*
G37*
G36*
X117191400Y-109621800D02*
G01*
X115589400Y-109621800D01*
X115589400Y-108919800D01*
X117191400Y-108919800D01*
X117191400Y-109621800D01*
X117191400Y-109621800D01*
G37*
G36*
X111791400Y-109621800D02*
G01*
X110189400Y-109621800D01*
X110189400Y-108919800D01*
X111791400Y-108919800D01*
X111791400Y-109621800D01*
X111791400Y-109621800D01*
G37*
G36*
X143808525Y-107674290D02*
G01*
X143947238Y-107731747D01*
X144072072Y-107815158D01*
X144178242Y-107921328D01*
X144261653Y-108046162D01*
X144319110Y-108184875D01*
X144348400Y-108332129D01*
X144348400Y-108482271D01*
X144319110Y-108629525D01*
X144261653Y-108768238D01*
X144178242Y-108893072D01*
X144072072Y-108999242D01*
X143947238Y-109082653D01*
X143808525Y-109140110D01*
X143661271Y-109169400D01*
X143511129Y-109169400D01*
X143363875Y-109140110D01*
X143225162Y-109082653D01*
X143100328Y-108999242D01*
X142994158Y-108893072D01*
X142910747Y-108768238D01*
X142853290Y-108629525D01*
X142824000Y-108482271D01*
X142824000Y-108332129D01*
X142853290Y-108184875D01*
X142910747Y-108046162D01*
X142994158Y-107921328D01*
X143100328Y-107815158D01*
X143225162Y-107731747D01*
X143363875Y-107674290D01*
X143511129Y-107645000D01*
X143661271Y-107645000D01*
X143808525Y-107674290D01*
X143808525Y-107674290D01*
G37*
G36*
X131108525Y-107674290D02*
G01*
X131247238Y-107731747D01*
X131372072Y-107815158D01*
X131478242Y-107921328D01*
X131561653Y-108046162D01*
X131619110Y-108184875D01*
X131648400Y-108332129D01*
X131648400Y-108482271D01*
X131619110Y-108629525D01*
X131561653Y-108768238D01*
X131478242Y-108893072D01*
X131372072Y-108999242D01*
X131247238Y-109082653D01*
X131108525Y-109140110D01*
X130961271Y-109169400D01*
X130811129Y-109169400D01*
X130663875Y-109140110D01*
X130525162Y-109082653D01*
X130400328Y-108999242D01*
X130294158Y-108893072D01*
X130210747Y-108768238D01*
X130153290Y-108629525D01*
X130124000Y-108482271D01*
X130124000Y-108332129D01*
X130153290Y-108184875D01*
X130210747Y-108046162D01*
X130294158Y-107921328D01*
X130400328Y-107815158D01*
X130525162Y-107731747D01*
X130663875Y-107674290D01*
X130811129Y-107645000D01*
X130961271Y-107645000D01*
X131108525Y-107674290D01*
X131108525Y-107674290D01*
G37*
G36*
X133648525Y-107674290D02*
G01*
X133787238Y-107731747D01*
X133912072Y-107815158D01*
X134018242Y-107921328D01*
X134101653Y-108046162D01*
X134159110Y-108184875D01*
X134188400Y-108332129D01*
X134188400Y-108482271D01*
X134159110Y-108629525D01*
X134101653Y-108768238D01*
X134018242Y-108893072D01*
X133912072Y-108999242D01*
X133787238Y-109082653D01*
X133648525Y-109140110D01*
X133501271Y-109169400D01*
X133351129Y-109169400D01*
X133203875Y-109140110D01*
X133065162Y-109082653D01*
X132940328Y-108999242D01*
X132834158Y-108893072D01*
X132750747Y-108768238D01*
X132693290Y-108629525D01*
X132664000Y-108482271D01*
X132664000Y-108332129D01*
X132693290Y-108184875D01*
X132750747Y-108046162D01*
X132834158Y-107921328D01*
X132940328Y-107815158D01*
X133065162Y-107731747D01*
X133203875Y-107674290D01*
X133351129Y-107645000D01*
X133501271Y-107645000D01*
X133648525Y-107674290D01*
X133648525Y-107674290D01*
G37*
G36*
X141268525Y-107674290D02*
G01*
X141407238Y-107731747D01*
X141532072Y-107815158D01*
X141638242Y-107921328D01*
X141721653Y-108046162D01*
X141779110Y-108184875D01*
X141808400Y-108332129D01*
X141808400Y-108482271D01*
X141779110Y-108629525D01*
X141721653Y-108768238D01*
X141638242Y-108893072D01*
X141532072Y-108999242D01*
X141407238Y-109082653D01*
X141268525Y-109140110D01*
X141121271Y-109169400D01*
X140971129Y-109169400D01*
X140823875Y-109140110D01*
X140685162Y-109082653D01*
X140560328Y-108999242D01*
X140454158Y-108893072D01*
X140370747Y-108768238D01*
X140313290Y-108629525D01*
X140284000Y-108482271D01*
X140284000Y-108332129D01*
X140313290Y-108184875D01*
X140370747Y-108046162D01*
X140454158Y-107921328D01*
X140560328Y-107815158D01*
X140685162Y-107731747D01*
X140823875Y-107674290D01*
X140971129Y-107645000D01*
X141121271Y-107645000D01*
X141268525Y-107674290D01*
X141268525Y-107674290D01*
G37*
G36*
X117191400Y-108351800D02*
G01*
X115589400Y-108351800D01*
X115589400Y-107649800D01*
X117191400Y-107649800D01*
X117191400Y-108351800D01*
X117191400Y-108351800D01*
G37*
G36*
X111791400Y-108351800D02*
G01*
X110189400Y-108351800D01*
X110189400Y-107649800D01*
X111791400Y-107649800D01*
X111791400Y-108351800D01*
X111791400Y-108351800D01*
G37*
G36*
X145078525Y-106404290D02*
G01*
X145217238Y-106461747D01*
X145342072Y-106545158D01*
X145448242Y-106651328D01*
X145531653Y-106776162D01*
X145589110Y-106914875D01*
X145618400Y-107062129D01*
X145618400Y-107212271D01*
X145589110Y-107359525D01*
X145531653Y-107498238D01*
X145448242Y-107623072D01*
X145342072Y-107729242D01*
X145217238Y-107812653D01*
X145078525Y-107870110D01*
X144931271Y-107899400D01*
X144781129Y-107899400D01*
X144633875Y-107870110D01*
X144495162Y-107812653D01*
X144370328Y-107729242D01*
X144264158Y-107623072D01*
X144180747Y-107498238D01*
X144123290Y-107359525D01*
X144094000Y-107212271D01*
X144094000Y-107062129D01*
X144123290Y-106914875D01*
X144180747Y-106776162D01*
X144264158Y-106651328D01*
X144370328Y-106545158D01*
X144495162Y-106461747D01*
X144633875Y-106404290D01*
X144781129Y-106375000D01*
X144931271Y-106375000D01*
X145078525Y-106404290D01*
X145078525Y-106404290D01*
G37*
G36*
X129838525Y-106404290D02*
G01*
X129977238Y-106461747D01*
X130102072Y-106545158D01*
X130208242Y-106651328D01*
X130291653Y-106776162D01*
X130349110Y-106914875D01*
X130378400Y-107062129D01*
X130378400Y-107212271D01*
X130349110Y-107359525D01*
X130291653Y-107498238D01*
X130208242Y-107623072D01*
X130102072Y-107729242D01*
X129977238Y-107812653D01*
X129838525Y-107870110D01*
X129691271Y-107899400D01*
X129541129Y-107899400D01*
X129393875Y-107870110D01*
X129255162Y-107812653D01*
X129130328Y-107729242D01*
X129024158Y-107623072D01*
X128940747Y-107498238D01*
X128883290Y-107359525D01*
X128854000Y-107212271D01*
X128854000Y-107062129D01*
X128883290Y-106914875D01*
X128940747Y-106776162D01*
X129024158Y-106651328D01*
X129130328Y-106545158D01*
X129255162Y-106461747D01*
X129393875Y-106404290D01*
X129541129Y-106375000D01*
X129691271Y-106375000D01*
X129838525Y-106404290D01*
X129838525Y-106404290D01*
G37*
G36*
X121141442Y-105709318D02*
G01*
X121207627Y-105715837D01*
X121377466Y-105767357D01*
X121533991Y-105851022D01*
X121569729Y-105880352D01*
X121671186Y-105963614D01*
X121754448Y-106065071D01*
X121783778Y-106100809D01*
X121867443Y-106257334D01*
X121918963Y-106427173D01*
X121936359Y-106603800D01*
X121918963Y-106780427D01*
X121867443Y-106950266D01*
X121783778Y-107106791D01*
X121754448Y-107142529D01*
X121671186Y-107243986D01*
X121569729Y-107327248D01*
X121533991Y-107356578D01*
X121377466Y-107440243D01*
X121207627Y-107491763D01*
X121141894Y-107498237D01*
X121075260Y-107504800D01*
X120986740Y-107504800D01*
X120920106Y-107498237D01*
X120854373Y-107491763D01*
X120684534Y-107440243D01*
X120528009Y-107356578D01*
X120492271Y-107327248D01*
X120390814Y-107243986D01*
X120307552Y-107142529D01*
X120278222Y-107106791D01*
X120194557Y-106950266D01*
X120143037Y-106780427D01*
X120125641Y-106603800D01*
X120143037Y-106427173D01*
X120194557Y-106257334D01*
X120278222Y-106100809D01*
X120307552Y-106065071D01*
X120390814Y-105963614D01*
X120492271Y-105880352D01*
X120528009Y-105851022D01*
X120684534Y-105767357D01*
X120854373Y-105715837D01*
X120920558Y-105709318D01*
X120986740Y-105702800D01*
X121075260Y-105702800D01*
X121141442Y-105709318D01*
X121141442Y-105709318D01*
G37*
G36*
X117191400Y-107081800D02*
G01*
X115589400Y-107081800D01*
X115589400Y-106379800D01*
X117191400Y-106379800D01*
X117191400Y-107081800D01*
X117191400Y-107081800D01*
G37*
G36*
X111791400Y-107081800D02*
G01*
X110189400Y-107081800D01*
X110189400Y-106379800D01*
X111791400Y-106379800D01*
X111791400Y-107081800D01*
X111791400Y-107081800D01*
G37*
G36*
X143808525Y-105134290D02*
G01*
X143947238Y-105191747D01*
X144072072Y-105275158D01*
X144178242Y-105381328D01*
X144261653Y-105506162D01*
X144319110Y-105644875D01*
X144348400Y-105792129D01*
X144348400Y-105942271D01*
X144319110Y-106089525D01*
X144261653Y-106228238D01*
X144178242Y-106353072D01*
X144072072Y-106459242D01*
X143947238Y-106542653D01*
X143808525Y-106600110D01*
X143661271Y-106629400D01*
X143511129Y-106629400D01*
X143363875Y-106600110D01*
X143225162Y-106542653D01*
X143100328Y-106459242D01*
X142994158Y-106353072D01*
X142910747Y-106228238D01*
X142853290Y-106089525D01*
X142824000Y-105942271D01*
X142824000Y-105792129D01*
X142853290Y-105644875D01*
X142910747Y-105506162D01*
X142994158Y-105381328D01*
X143100328Y-105275158D01*
X143225162Y-105191747D01*
X143363875Y-105134290D01*
X143511129Y-105105000D01*
X143661271Y-105105000D01*
X143808525Y-105134290D01*
X143808525Y-105134290D01*
G37*
G36*
X141268525Y-105134290D02*
G01*
X141407238Y-105191747D01*
X141532072Y-105275158D01*
X141638242Y-105381328D01*
X141721653Y-105506162D01*
X141779110Y-105644875D01*
X141808400Y-105792129D01*
X141808400Y-105942271D01*
X141779110Y-106089525D01*
X141721653Y-106228238D01*
X141638242Y-106353072D01*
X141532072Y-106459242D01*
X141407238Y-106542653D01*
X141268525Y-106600110D01*
X141121271Y-106629400D01*
X140971129Y-106629400D01*
X140823875Y-106600110D01*
X140685162Y-106542653D01*
X140560328Y-106459242D01*
X140454158Y-106353072D01*
X140370747Y-106228238D01*
X140313290Y-106089525D01*
X140284000Y-105942271D01*
X140284000Y-105792129D01*
X140313290Y-105644875D01*
X140370747Y-105506162D01*
X140454158Y-105381328D01*
X140560328Y-105275158D01*
X140685162Y-105191747D01*
X140823875Y-105134290D01*
X140971129Y-105105000D01*
X141121271Y-105105000D01*
X141268525Y-105134290D01*
X141268525Y-105134290D01*
G37*
G36*
X133648525Y-105134290D02*
G01*
X133787238Y-105191747D01*
X133912072Y-105275158D01*
X134018242Y-105381328D01*
X134101653Y-105506162D01*
X134159110Y-105644875D01*
X134188400Y-105792129D01*
X134188400Y-105942271D01*
X134159110Y-106089525D01*
X134101653Y-106228238D01*
X134018242Y-106353072D01*
X133912072Y-106459242D01*
X133787238Y-106542653D01*
X133648525Y-106600110D01*
X133501271Y-106629400D01*
X133351129Y-106629400D01*
X133203875Y-106600110D01*
X133065162Y-106542653D01*
X132940328Y-106459242D01*
X132834158Y-106353072D01*
X132750747Y-106228238D01*
X132693290Y-106089525D01*
X132664000Y-105942271D01*
X132664000Y-105792129D01*
X132693290Y-105644875D01*
X132750747Y-105506162D01*
X132834158Y-105381328D01*
X132940328Y-105275158D01*
X133065162Y-105191747D01*
X133203875Y-105134290D01*
X133351129Y-105105000D01*
X133501271Y-105105000D01*
X133648525Y-105134290D01*
X133648525Y-105134290D01*
G37*
G36*
X131108525Y-105134290D02*
G01*
X131247238Y-105191747D01*
X131372072Y-105275158D01*
X131478242Y-105381328D01*
X131561653Y-105506162D01*
X131619110Y-105644875D01*
X131648400Y-105792129D01*
X131648400Y-105942271D01*
X131619110Y-106089525D01*
X131561653Y-106228238D01*
X131478242Y-106353072D01*
X131372072Y-106459242D01*
X131247238Y-106542653D01*
X131108525Y-106600110D01*
X130961271Y-106629400D01*
X130811129Y-106629400D01*
X130663875Y-106600110D01*
X130525162Y-106542653D01*
X130400328Y-106459242D01*
X130294158Y-106353072D01*
X130210747Y-106228238D01*
X130153290Y-106089525D01*
X130124000Y-105942271D01*
X130124000Y-105792129D01*
X130153290Y-105644875D01*
X130210747Y-105506162D01*
X130294158Y-105381328D01*
X130400328Y-105275158D01*
X130525162Y-105191747D01*
X130663875Y-105134290D01*
X130811129Y-105105000D01*
X130961271Y-105105000D01*
X131108525Y-105134290D01*
X131108525Y-105134290D01*
G37*
G36*
X111791400Y-105811800D02*
G01*
X110189400Y-105811800D01*
X110189400Y-105109800D01*
X111791400Y-105109800D01*
X111791400Y-105811800D01*
X111791400Y-105811800D01*
G37*
G36*
X117191400Y-105811800D02*
G01*
X115589400Y-105811800D01*
X115589400Y-105109800D01*
X117191400Y-105109800D01*
X117191400Y-105811800D01*
X117191400Y-105811800D01*
G37*
G36*
X129838525Y-103864290D02*
G01*
X129977238Y-103921747D01*
X130102072Y-104005158D01*
X130208242Y-104111328D01*
X130291653Y-104236162D01*
X130349110Y-104374875D01*
X130378400Y-104522129D01*
X130378400Y-104672271D01*
X130349110Y-104819525D01*
X130291653Y-104958238D01*
X130208242Y-105083072D01*
X130102072Y-105189242D01*
X129977238Y-105272653D01*
X129838525Y-105330110D01*
X129691271Y-105359400D01*
X129541129Y-105359400D01*
X129393875Y-105330110D01*
X129255162Y-105272653D01*
X129130328Y-105189242D01*
X129024158Y-105083072D01*
X128940747Y-104958238D01*
X128883290Y-104819525D01*
X128854000Y-104672271D01*
X128854000Y-104522129D01*
X128883290Y-104374875D01*
X128940747Y-104236162D01*
X129024158Y-104111328D01*
X129130328Y-104005158D01*
X129255162Y-103921747D01*
X129393875Y-103864290D01*
X129541129Y-103835000D01*
X129691271Y-103835000D01*
X129838525Y-103864290D01*
X129838525Y-103864290D01*
G37*
G36*
X145078525Y-103864290D02*
G01*
X145217238Y-103921747D01*
X145342072Y-104005158D01*
X145448242Y-104111328D01*
X145531653Y-104236162D01*
X145589110Y-104374875D01*
X145618400Y-104522129D01*
X145618400Y-104672271D01*
X145589110Y-104819525D01*
X145531653Y-104958238D01*
X145448242Y-105083072D01*
X145342072Y-105189242D01*
X145217238Y-105272653D01*
X145078525Y-105330110D01*
X144931271Y-105359400D01*
X144781129Y-105359400D01*
X144633875Y-105330110D01*
X144495162Y-105272653D01*
X144370328Y-105189242D01*
X144264158Y-105083072D01*
X144180747Y-104958238D01*
X144123290Y-104819525D01*
X144094000Y-104672271D01*
X144094000Y-104522129D01*
X144123290Y-104374875D01*
X144180747Y-104236162D01*
X144264158Y-104111328D01*
X144370328Y-104005158D01*
X144495162Y-103921747D01*
X144633875Y-103864290D01*
X144781129Y-103835000D01*
X144931271Y-103835000D01*
X145078525Y-103864290D01*
X145078525Y-103864290D01*
G37*
G36*
X121141442Y-103169318D02*
G01*
X121207627Y-103175837D01*
X121377466Y-103227357D01*
X121533991Y-103311022D01*
X121569729Y-103340352D01*
X121671186Y-103423614D01*
X121754448Y-103525071D01*
X121783778Y-103560809D01*
X121867443Y-103717334D01*
X121918963Y-103887173D01*
X121936359Y-104063800D01*
X121918963Y-104240427D01*
X121867443Y-104410266D01*
X121783778Y-104566791D01*
X121754448Y-104602529D01*
X121671186Y-104703986D01*
X121569729Y-104787248D01*
X121533991Y-104816578D01*
X121377466Y-104900243D01*
X121207627Y-104951763D01*
X121141894Y-104958237D01*
X121075260Y-104964800D01*
X120986740Y-104964800D01*
X120920106Y-104958237D01*
X120854373Y-104951763D01*
X120684534Y-104900243D01*
X120528009Y-104816578D01*
X120492271Y-104787248D01*
X120390814Y-104703986D01*
X120307552Y-104602529D01*
X120278222Y-104566791D01*
X120194557Y-104410266D01*
X120143037Y-104240427D01*
X120125641Y-104063800D01*
X120143037Y-103887173D01*
X120194557Y-103717334D01*
X120278222Y-103560809D01*
X120307552Y-103525071D01*
X120390814Y-103423614D01*
X120492271Y-103340352D01*
X120528009Y-103311022D01*
X120684534Y-103227357D01*
X120854373Y-103175837D01*
X120920557Y-103169319D01*
X120986740Y-103162800D01*
X121075260Y-103162800D01*
X121141442Y-103169318D01*
X121141442Y-103169318D01*
G37*
G36*
X117191400Y-104541800D02*
G01*
X115589400Y-104541800D01*
X115589400Y-103839800D01*
X117191400Y-103839800D01*
X117191400Y-104541800D01*
X117191400Y-104541800D01*
G37*
G36*
X111791400Y-104541800D02*
G01*
X110189400Y-104541800D01*
X110189400Y-103839800D01*
X111791400Y-103839800D01*
X111791400Y-104541800D01*
X111791400Y-104541800D01*
G37*
G36*
X133648525Y-102594290D02*
G01*
X133787238Y-102651747D01*
X133912072Y-102735158D01*
X134018242Y-102841328D01*
X134101653Y-102966162D01*
X134159110Y-103104875D01*
X134188400Y-103252129D01*
X134188400Y-103402271D01*
X134159110Y-103549525D01*
X134101653Y-103688238D01*
X134018242Y-103813072D01*
X133912072Y-103919242D01*
X133787238Y-104002653D01*
X133648525Y-104060110D01*
X133501271Y-104089400D01*
X133351129Y-104089400D01*
X133203875Y-104060110D01*
X133065162Y-104002653D01*
X132940328Y-103919242D01*
X132834158Y-103813072D01*
X132750747Y-103688238D01*
X132693290Y-103549525D01*
X132664000Y-103402271D01*
X132664000Y-103252129D01*
X132693290Y-103104875D01*
X132750747Y-102966162D01*
X132834158Y-102841328D01*
X132940328Y-102735158D01*
X133065162Y-102651747D01*
X133203875Y-102594290D01*
X133351129Y-102565000D01*
X133501271Y-102565000D01*
X133648525Y-102594290D01*
X133648525Y-102594290D01*
G37*
G36*
X143808525Y-102594290D02*
G01*
X143947238Y-102651747D01*
X144072072Y-102735158D01*
X144178242Y-102841328D01*
X144261653Y-102966162D01*
X144319110Y-103104875D01*
X144348400Y-103252129D01*
X144348400Y-103402271D01*
X144319110Y-103549525D01*
X144261653Y-103688238D01*
X144178242Y-103813072D01*
X144072072Y-103919242D01*
X143947238Y-104002653D01*
X143808525Y-104060110D01*
X143661271Y-104089400D01*
X143511129Y-104089400D01*
X143363875Y-104060110D01*
X143225162Y-104002653D01*
X143100328Y-103919242D01*
X142994158Y-103813072D01*
X142910747Y-103688238D01*
X142853290Y-103549525D01*
X142824000Y-103402271D01*
X142824000Y-103252129D01*
X142853290Y-103104875D01*
X142910747Y-102966162D01*
X142994158Y-102841328D01*
X143100328Y-102735158D01*
X143225162Y-102651747D01*
X143363875Y-102594290D01*
X143511129Y-102565000D01*
X143661271Y-102565000D01*
X143808525Y-102594290D01*
X143808525Y-102594290D01*
G37*
G36*
X141268525Y-102594290D02*
G01*
X141407238Y-102651747D01*
X141532072Y-102735158D01*
X141638242Y-102841328D01*
X141721653Y-102966162D01*
X141779110Y-103104875D01*
X141808400Y-103252129D01*
X141808400Y-103402271D01*
X141779110Y-103549525D01*
X141721653Y-103688238D01*
X141638242Y-103813072D01*
X141532072Y-103919242D01*
X141407238Y-104002653D01*
X141268525Y-104060110D01*
X141121271Y-104089400D01*
X140971129Y-104089400D01*
X140823875Y-104060110D01*
X140685162Y-104002653D01*
X140560328Y-103919242D01*
X140454158Y-103813072D01*
X140370747Y-103688238D01*
X140313290Y-103549525D01*
X140284000Y-103402271D01*
X140284000Y-103252129D01*
X140313290Y-103104875D01*
X140370747Y-102966162D01*
X140454158Y-102841328D01*
X140560328Y-102735158D01*
X140685162Y-102651747D01*
X140823875Y-102594290D01*
X140971129Y-102565000D01*
X141121271Y-102565000D01*
X141268525Y-102594290D01*
X141268525Y-102594290D01*
G37*
G36*
X131108525Y-102594290D02*
G01*
X131247238Y-102651747D01*
X131372072Y-102735158D01*
X131478242Y-102841328D01*
X131561653Y-102966162D01*
X131619110Y-103104875D01*
X131648400Y-103252129D01*
X131648400Y-103402271D01*
X131619110Y-103549525D01*
X131561653Y-103688238D01*
X131478242Y-103813072D01*
X131372072Y-103919242D01*
X131247238Y-104002653D01*
X131108525Y-104060110D01*
X130961271Y-104089400D01*
X130811129Y-104089400D01*
X130663875Y-104060110D01*
X130525162Y-104002653D01*
X130400328Y-103919242D01*
X130294158Y-103813072D01*
X130210747Y-103688238D01*
X130153290Y-103549525D01*
X130124000Y-103402271D01*
X130124000Y-103252129D01*
X130153290Y-103104875D01*
X130210747Y-102966162D01*
X130294158Y-102841328D01*
X130400328Y-102735158D01*
X130525162Y-102651747D01*
X130663875Y-102594290D01*
X130811129Y-102565000D01*
X130961271Y-102565000D01*
X131108525Y-102594290D01*
X131108525Y-102594290D01*
G37*
G36*
X115287299Y-101942045D02*
G01*
X115324795Y-101953420D01*
X115359354Y-101971892D01*
X115389647Y-101996753D01*
X115414508Y-102027046D01*
X115432980Y-102061605D01*
X115444355Y-102099101D01*
X115448800Y-102144238D01*
X115448800Y-102782962D01*
X115444355Y-102828099D01*
X115432980Y-102865595D01*
X115414508Y-102900154D01*
X115389647Y-102930447D01*
X115359354Y-102955308D01*
X115324795Y-102973780D01*
X115287299Y-102985155D01*
X115242162Y-102989600D01*
X114503438Y-102989600D01*
X114458301Y-102985155D01*
X114420805Y-102973780D01*
X114386246Y-102955308D01*
X114355953Y-102930447D01*
X114331092Y-102900154D01*
X114312620Y-102865595D01*
X114301245Y-102828099D01*
X114296800Y-102782962D01*
X114296800Y-102144238D01*
X114301245Y-102099101D01*
X114312620Y-102061605D01*
X114331092Y-102027046D01*
X114355953Y-101996753D01*
X114386246Y-101971892D01*
X114420805Y-101953420D01*
X114458301Y-101942045D01*
X114503438Y-101937600D01*
X115242162Y-101937600D01*
X115287299Y-101942045D01*
X115287299Y-101942045D01*
G37*
G36*
X117037299Y-101942045D02*
G01*
X117074795Y-101953420D01*
X117109354Y-101971892D01*
X117139647Y-101996753D01*
X117164508Y-102027046D01*
X117182980Y-102061605D01*
X117194355Y-102099101D01*
X117198800Y-102144238D01*
X117198800Y-102782962D01*
X117194355Y-102828099D01*
X117182980Y-102865595D01*
X117164508Y-102900154D01*
X117139647Y-102930447D01*
X117109354Y-102955308D01*
X117074795Y-102973780D01*
X117037299Y-102985155D01*
X116992162Y-102989600D01*
X116253438Y-102989600D01*
X116208301Y-102985155D01*
X116170805Y-102973780D01*
X116136246Y-102955308D01*
X116105953Y-102930447D01*
X116081092Y-102900154D01*
X116062620Y-102865595D01*
X116051245Y-102828099D01*
X116046800Y-102782962D01*
X116046800Y-102144238D01*
X116051245Y-102099101D01*
X116062620Y-102061605D01*
X116081092Y-102027046D01*
X116105953Y-101996753D01*
X116136246Y-101971892D01*
X116170805Y-101953420D01*
X116208301Y-101942045D01*
X116253438Y-101937600D01*
X116992162Y-101937600D01*
X117037299Y-101942045D01*
X117037299Y-101942045D01*
G37*
G36*
X129838525Y-101324290D02*
G01*
X129977238Y-101381747D01*
X130102072Y-101465158D01*
X130208242Y-101571328D01*
X130291653Y-101696162D01*
X130349110Y-101834875D01*
X130378400Y-101982129D01*
X130378400Y-102132271D01*
X130349110Y-102279525D01*
X130291653Y-102418238D01*
X130208242Y-102543072D01*
X130102072Y-102649242D01*
X129977238Y-102732653D01*
X129838525Y-102790110D01*
X129691271Y-102819400D01*
X129541129Y-102819400D01*
X129393875Y-102790110D01*
X129255162Y-102732653D01*
X129130328Y-102649242D01*
X129024158Y-102543072D01*
X128940747Y-102418238D01*
X128883290Y-102279525D01*
X128854000Y-102132271D01*
X128854000Y-101982129D01*
X128883290Y-101834875D01*
X128940747Y-101696162D01*
X129024158Y-101571328D01*
X129130328Y-101465158D01*
X129255162Y-101381747D01*
X129393875Y-101324290D01*
X129541129Y-101295000D01*
X129691271Y-101295000D01*
X129838525Y-101324290D01*
X129838525Y-101324290D01*
G37*
G36*
X145078525Y-101324290D02*
G01*
X145217238Y-101381747D01*
X145342072Y-101465158D01*
X145448242Y-101571328D01*
X145531653Y-101696162D01*
X145589110Y-101834875D01*
X145618400Y-101982129D01*
X145618400Y-102132271D01*
X145589110Y-102279525D01*
X145531653Y-102418238D01*
X145448242Y-102543072D01*
X145342072Y-102649242D01*
X145217238Y-102732653D01*
X145078525Y-102790110D01*
X144931271Y-102819400D01*
X144781129Y-102819400D01*
X144633875Y-102790110D01*
X144495162Y-102732653D01*
X144370328Y-102649242D01*
X144264158Y-102543072D01*
X144180747Y-102418238D01*
X144123290Y-102279525D01*
X144094000Y-102132271D01*
X144094000Y-101982129D01*
X144123290Y-101834875D01*
X144180747Y-101696162D01*
X144264158Y-101571328D01*
X144370328Y-101465158D01*
X144495162Y-101381747D01*
X144633875Y-101324290D01*
X144781129Y-101295000D01*
X144931271Y-101295000D01*
X145078525Y-101324290D01*
X145078525Y-101324290D01*
G37*
G36*
X133648525Y-100054290D02*
G01*
X133787238Y-100111747D01*
X133912072Y-100195158D01*
X134018242Y-100301328D01*
X134101653Y-100426162D01*
X134159110Y-100564875D01*
X134188400Y-100712129D01*
X134188400Y-100862271D01*
X134159110Y-101009525D01*
X134101653Y-101148238D01*
X134018242Y-101273072D01*
X133912072Y-101379242D01*
X133787238Y-101462653D01*
X133648525Y-101520110D01*
X133501271Y-101549400D01*
X133351129Y-101549400D01*
X133203875Y-101520110D01*
X133065162Y-101462653D01*
X132940328Y-101379242D01*
X132834158Y-101273072D01*
X132750747Y-101148238D01*
X132693290Y-101009525D01*
X132664000Y-100862271D01*
X132664000Y-100712129D01*
X132693290Y-100564875D01*
X132750747Y-100426162D01*
X132834158Y-100301328D01*
X132940328Y-100195158D01*
X133065162Y-100111747D01*
X133203875Y-100054290D01*
X133351129Y-100025000D01*
X133501271Y-100025000D01*
X133648525Y-100054290D01*
X133648525Y-100054290D01*
G37*
G36*
X139268400Y-101549400D02*
G01*
X137744000Y-101549400D01*
X137744000Y-100025000D01*
X139268400Y-100025000D01*
X139268400Y-101549400D01*
X139268400Y-101549400D01*
G37*
G36*
X136188525Y-100054290D02*
G01*
X136327238Y-100111747D01*
X136452072Y-100195158D01*
X136558242Y-100301328D01*
X136641653Y-100426162D01*
X136699110Y-100564875D01*
X136728400Y-100712129D01*
X136728400Y-100862271D01*
X136699110Y-101009525D01*
X136641653Y-101148238D01*
X136558242Y-101273072D01*
X136452072Y-101379242D01*
X136327238Y-101462653D01*
X136188525Y-101520110D01*
X136041271Y-101549400D01*
X135891129Y-101549400D01*
X135743875Y-101520110D01*
X135605162Y-101462653D01*
X135480328Y-101379242D01*
X135374158Y-101273072D01*
X135290747Y-101148238D01*
X135233290Y-101009525D01*
X135204000Y-100862271D01*
X135204000Y-100712129D01*
X135233290Y-100564875D01*
X135290747Y-100426162D01*
X135374158Y-100301328D01*
X135480328Y-100195158D01*
X135605162Y-100111747D01*
X135743875Y-100054290D01*
X135891129Y-100025000D01*
X136041271Y-100025000D01*
X136188525Y-100054290D01*
X136188525Y-100054290D01*
G37*
G36*
X131108525Y-100054290D02*
G01*
X131247238Y-100111747D01*
X131372072Y-100195158D01*
X131478242Y-100301328D01*
X131561653Y-100426162D01*
X131619110Y-100564875D01*
X131648400Y-100712129D01*
X131648400Y-100862271D01*
X131619110Y-101009525D01*
X131561653Y-101148238D01*
X131478242Y-101273072D01*
X131372072Y-101379242D01*
X131247238Y-101462653D01*
X131108525Y-101520110D01*
X130961271Y-101549400D01*
X130811129Y-101549400D01*
X130663875Y-101520110D01*
X130525162Y-101462653D01*
X130400328Y-101379242D01*
X130294158Y-101273072D01*
X130210747Y-101148238D01*
X130153290Y-101009525D01*
X130124000Y-100862271D01*
X130124000Y-100712129D01*
X130153290Y-100564875D01*
X130210747Y-100426162D01*
X130294158Y-100301328D01*
X130400328Y-100195158D01*
X130525162Y-100111747D01*
X130663875Y-100054290D01*
X130811129Y-100025000D01*
X130961271Y-100025000D01*
X131108525Y-100054290D01*
X131108525Y-100054290D01*
G37*
G36*
X143808525Y-100054290D02*
G01*
X143947238Y-100111747D01*
X144072072Y-100195158D01*
X144178242Y-100301328D01*
X144261653Y-100426162D01*
X144319110Y-100564875D01*
X144348400Y-100712129D01*
X144348400Y-100862271D01*
X144319110Y-101009525D01*
X144261653Y-101148238D01*
X144178242Y-101273072D01*
X144072072Y-101379242D01*
X143947238Y-101462653D01*
X143808525Y-101520110D01*
X143661271Y-101549400D01*
X143511129Y-101549400D01*
X143363875Y-101520110D01*
X143225162Y-101462653D01*
X143100328Y-101379242D01*
X142994158Y-101273072D01*
X142910747Y-101148238D01*
X142853290Y-101009525D01*
X142824000Y-100862271D01*
X142824000Y-100712129D01*
X142853290Y-100564875D01*
X142910747Y-100426162D01*
X142994158Y-100301328D01*
X143100328Y-100195158D01*
X143225162Y-100111747D01*
X143363875Y-100054290D01*
X143511129Y-100025000D01*
X143661271Y-100025000D01*
X143808525Y-100054290D01*
X143808525Y-100054290D01*
G37*
G36*
X141268525Y-100054290D02*
G01*
X141407238Y-100111747D01*
X141532072Y-100195158D01*
X141638242Y-100301328D01*
X141721653Y-100426162D01*
X141779110Y-100564875D01*
X141808400Y-100712129D01*
X141808400Y-100862271D01*
X141779110Y-101009525D01*
X141721653Y-101148238D01*
X141638242Y-101273072D01*
X141532072Y-101379242D01*
X141407238Y-101462653D01*
X141268525Y-101520110D01*
X141121271Y-101549400D01*
X140971129Y-101549400D01*
X140823875Y-101520110D01*
X140685162Y-101462653D01*
X140560328Y-101379242D01*
X140454158Y-101273072D01*
X140370747Y-101148238D01*
X140313290Y-101009525D01*
X140284000Y-100862271D01*
X140284000Y-100712129D01*
X140313290Y-100564875D01*
X140370747Y-100426162D01*
X140454158Y-100301328D01*
X140560328Y-100195158D01*
X140685162Y-100111747D01*
X140823875Y-100054290D01*
X140971129Y-100025000D01*
X141121271Y-100025000D01*
X141268525Y-100054290D01*
X141268525Y-100054290D01*
G37*
G36*
X145078525Y-98784290D02*
G01*
X145217238Y-98841747D01*
X145342072Y-98925158D01*
X145448242Y-99031328D01*
X145531653Y-99156162D01*
X145589110Y-99294875D01*
X145618400Y-99442129D01*
X145618400Y-99592271D01*
X145589110Y-99739525D01*
X145531653Y-99878238D01*
X145448242Y-100003072D01*
X145342072Y-100109242D01*
X145217238Y-100192653D01*
X145078525Y-100250110D01*
X144931271Y-100279400D01*
X144781129Y-100279400D01*
X144633875Y-100250110D01*
X144495162Y-100192653D01*
X144370328Y-100109242D01*
X144264158Y-100003072D01*
X144180747Y-99878238D01*
X144123290Y-99739525D01*
X144094000Y-99592271D01*
X144094000Y-99442129D01*
X144123290Y-99294875D01*
X144180747Y-99156162D01*
X144264158Y-99031328D01*
X144370328Y-98925158D01*
X144495162Y-98841747D01*
X144633875Y-98784290D01*
X144781129Y-98755000D01*
X144931271Y-98755000D01*
X145078525Y-98784290D01*
X145078525Y-98784290D01*
G37*
G36*
X129838525Y-98784290D02*
G01*
X129977238Y-98841747D01*
X130102072Y-98925158D01*
X130208242Y-99031328D01*
X130291653Y-99156162D01*
X130349110Y-99294875D01*
X130378400Y-99442129D01*
X130378400Y-99592271D01*
X130349110Y-99739525D01*
X130291653Y-99878238D01*
X130208242Y-100003072D01*
X130102072Y-100109242D01*
X129977238Y-100192653D01*
X129838525Y-100250110D01*
X129691271Y-100279400D01*
X129541129Y-100279400D01*
X129393875Y-100250110D01*
X129255162Y-100192653D01*
X129130328Y-100109242D01*
X129024158Y-100003072D01*
X128940747Y-99878238D01*
X128883290Y-99739525D01*
X128854000Y-99592271D01*
X128854000Y-99442129D01*
X128883290Y-99294875D01*
X128940747Y-99156162D01*
X129024158Y-99031328D01*
X129130328Y-98925158D01*
X129255162Y-98841747D01*
X129393875Y-98784290D01*
X129541129Y-98755000D01*
X129691271Y-98755000D01*
X129838525Y-98784290D01*
X129838525Y-98784290D01*
G37*
G36*
X126437000Y-100223800D02*
G01*
X124835000Y-100223800D01*
X124835000Y-99521800D01*
X126437000Y-99521800D01*
X126437000Y-100223800D01*
X126437000Y-100223800D01*
G37*
G36*
X111791400Y-100223800D02*
G01*
X110189400Y-100223800D01*
X110189400Y-99521800D01*
X111791400Y-99521800D01*
X111791400Y-100223800D01*
X111791400Y-100223800D01*
G37*
G36*
X121037000Y-100223800D02*
G01*
X119435000Y-100223800D01*
X119435000Y-99521800D01*
X121037000Y-99521800D01*
X121037000Y-100223800D01*
X121037000Y-100223800D01*
G37*
G36*
X117191400Y-100223800D02*
G01*
X115589400Y-100223800D01*
X115589400Y-99521800D01*
X117191400Y-99521800D01*
X117191400Y-100223800D01*
X117191400Y-100223800D01*
G37*
G36*
X133648525Y-97514290D02*
G01*
X133787238Y-97571747D01*
X133912072Y-97655158D01*
X134018242Y-97761328D01*
X134101653Y-97886162D01*
X134159110Y-98024875D01*
X134188400Y-98172129D01*
X134188400Y-98322271D01*
X134159110Y-98469525D01*
X134101653Y-98608238D01*
X134018242Y-98733072D01*
X133912072Y-98839242D01*
X133787238Y-98922653D01*
X133648525Y-98980110D01*
X133501271Y-99009400D01*
X133351129Y-99009400D01*
X133203875Y-98980110D01*
X133065162Y-98922653D01*
X132940328Y-98839242D01*
X132834158Y-98733072D01*
X132750747Y-98608238D01*
X132693290Y-98469525D01*
X132664000Y-98322271D01*
X132664000Y-98172129D01*
X132693290Y-98024875D01*
X132750747Y-97886162D01*
X132834158Y-97761328D01*
X132940328Y-97655158D01*
X133065162Y-97571747D01*
X133203875Y-97514290D01*
X133351129Y-97485000D01*
X133501271Y-97485000D01*
X133648525Y-97514290D01*
X133648525Y-97514290D01*
G37*
G36*
X138728525Y-97514290D02*
G01*
X138867238Y-97571747D01*
X138992072Y-97655158D01*
X139098242Y-97761328D01*
X139181653Y-97886162D01*
X139239110Y-98024875D01*
X139268400Y-98172129D01*
X139268400Y-98322271D01*
X139239110Y-98469525D01*
X139181653Y-98608238D01*
X139098242Y-98733072D01*
X138992072Y-98839242D01*
X138867238Y-98922653D01*
X138728525Y-98980110D01*
X138581271Y-99009400D01*
X138431129Y-99009400D01*
X138283875Y-98980110D01*
X138145162Y-98922653D01*
X138020328Y-98839242D01*
X137914158Y-98733072D01*
X137830747Y-98608238D01*
X137773290Y-98469525D01*
X137744000Y-98322271D01*
X137744000Y-98172129D01*
X137773290Y-98024875D01*
X137830747Y-97886162D01*
X137914158Y-97761328D01*
X138020328Y-97655158D01*
X138145162Y-97571747D01*
X138283875Y-97514290D01*
X138431129Y-97485000D01*
X138581271Y-97485000D01*
X138728525Y-97514290D01*
X138728525Y-97514290D01*
G37*
G36*
X141268525Y-97514290D02*
G01*
X141407238Y-97571747D01*
X141532072Y-97655158D01*
X141638242Y-97761328D01*
X141721653Y-97886162D01*
X141779110Y-98024875D01*
X141808400Y-98172129D01*
X141808400Y-98322271D01*
X141779110Y-98469525D01*
X141721653Y-98608238D01*
X141638242Y-98733072D01*
X141532072Y-98839242D01*
X141407238Y-98922653D01*
X141268525Y-98980110D01*
X141121271Y-99009400D01*
X140971129Y-99009400D01*
X140823875Y-98980110D01*
X140685162Y-98922653D01*
X140560328Y-98839242D01*
X140454158Y-98733072D01*
X140370747Y-98608238D01*
X140313290Y-98469525D01*
X140284000Y-98322271D01*
X140284000Y-98172129D01*
X140313290Y-98024875D01*
X140370747Y-97886162D01*
X140454158Y-97761328D01*
X140560328Y-97655158D01*
X140685162Y-97571747D01*
X140823875Y-97514290D01*
X140971129Y-97485000D01*
X141121271Y-97485000D01*
X141268525Y-97514290D01*
X141268525Y-97514290D01*
G37*
G36*
X136188525Y-97514290D02*
G01*
X136327238Y-97571747D01*
X136452072Y-97655158D01*
X136558242Y-97761328D01*
X136641653Y-97886162D01*
X136699110Y-98024875D01*
X136728400Y-98172129D01*
X136728400Y-98322271D01*
X136699110Y-98469525D01*
X136641653Y-98608238D01*
X136558242Y-98733072D01*
X136452072Y-98839242D01*
X136327238Y-98922653D01*
X136188525Y-98980110D01*
X136041271Y-99009400D01*
X135891129Y-99009400D01*
X135743875Y-98980110D01*
X135605162Y-98922653D01*
X135480328Y-98839242D01*
X135374158Y-98733072D01*
X135290747Y-98608238D01*
X135233290Y-98469525D01*
X135204000Y-98322271D01*
X135204000Y-98172129D01*
X135233290Y-98024875D01*
X135290747Y-97886162D01*
X135374158Y-97761328D01*
X135480328Y-97655158D01*
X135605162Y-97571747D01*
X135743875Y-97514290D01*
X135891129Y-97485000D01*
X136041271Y-97485000D01*
X136188525Y-97514290D01*
X136188525Y-97514290D01*
G37*
G36*
X111791400Y-98953800D02*
G01*
X110189400Y-98953800D01*
X110189400Y-98251800D01*
X111791400Y-98251800D01*
X111791400Y-98953800D01*
X111791400Y-98953800D01*
G37*
G36*
X117191400Y-98953800D02*
G01*
X115589400Y-98953800D01*
X115589400Y-98251800D01*
X117191400Y-98251800D01*
X117191400Y-98953800D01*
X117191400Y-98953800D01*
G37*
G36*
X121037000Y-98953800D02*
G01*
X119435000Y-98953800D01*
X119435000Y-98251800D01*
X121037000Y-98251800D01*
X121037000Y-98953800D01*
X121037000Y-98953800D01*
G37*
G36*
X126437000Y-98953800D02*
G01*
X124835000Y-98953800D01*
X124835000Y-98251800D01*
X126437000Y-98251800D01*
X126437000Y-98953800D01*
X126437000Y-98953800D01*
G37*
G36*
X129838525Y-96244290D02*
G01*
X129977238Y-96301747D01*
X130102072Y-96385158D01*
X130208242Y-96491328D01*
X130291653Y-96616162D01*
X130349110Y-96754875D01*
X130378400Y-96902129D01*
X130378400Y-97052271D01*
X130349110Y-97199525D01*
X130291653Y-97338238D01*
X130208242Y-97463072D01*
X130102072Y-97569242D01*
X129977238Y-97652653D01*
X129838525Y-97710110D01*
X129691271Y-97739400D01*
X129541129Y-97739400D01*
X129393875Y-97710110D01*
X129255162Y-97652653D01*
X129130328Y-97569242D01*
X129024158Y-97463072D01*
X128940747Y-97338238D01*
X128883290Y-97199525D01*
X128854000Y-97052271D01*
X128854000Y-96902129D01*
X128883290Y-96754875D01*
X128940747Y-96616162D01*
X129024158Y-96491328D01*
X129130328Y-96385158D01*
X129255162Y-96301747D01*
X129393875Y-96244290D01*
X129541129Y-96215000D01*
X129691271Y-96215000D01*
X129838525Y-96244290D01*
X129838525Y-96244290D01*
G37*
G36*
X145078525Y-96244290D02*
G01*
X145217238Y-96301747D01*
X145342072Y-96385158D01*
X145448242Y-96491328D01*
X145531653Y-96616162D01*
X145589110Y-96754875D01*
X145618400Y-96902129D01*
X145618400Y-97052271D01*
X145589110Y-97199525D01*
X145531653Y-97338238D01*
X145448242Y-97463072D01*
X145342072Y-97569242D01*
X145217238Y-97652653D01*
X145078525Y-97710110D01*
X144931271Y-97739400D01*
X144781129Y-97739400D01*
X144633875Y-97710110D01*
X144495162Y-97652653D01*
X144370328Y-97569242D01*
X144264158Y-97463072D01*
X144180747Y-97338238D01*
X144123290Y-97199525D01*
X144094000Y-97052271D01*
X144094000Y-96902129D01*
X144123290Y-96754875D01*
X144180747Y-96616162D01*
X144264158Y-96491328D01*
X144370328Y-96385158D01*
X144495162Y-96301747D01*
X144633875Y-96244290D01*
X144781129Y-96215000D01*
X144931271Y-96215000D01*
X145078525Y-96244290D01*
X145078525Y-96244290D01*
G37*
G36*
X117191400Y-97683800D02*
G01*
X115589400Y-97683800D01*
X115589400Y-96981800D01*
X117191400Y-96981800D01*
X117191400Y-97683800D01*
X117191400Y-97683800D01*
G37*
G36*
X111791400Y-97683800D02*
G01*
X110189400Y-97683800D01*
X110189400Y-96981800D01*
X111791400Y-96981800D01*
X111791400Y-97683800D01*
X111791400Y-97683800D01*
G37*
G36*
X121037000Y-97683800D02*
G01*
X119435000Y-97683800D01*
X119435000Y-96981800D01*
X121037000Y-96981800D01*
X121037000Y-97683800D01*
X121037000Y-97683800D01*
G37*
G36*
X126437000Y-97683800D02*
G01*
X124835000Y-97683800D01*
X124835000Y-96981800D01*
X126437000Y-96981800D01*
X126437000Y-97683800D01*
X126437000Y-97683800D01*
G37*
G36*
X111791400Y-96413800D02*
G01*
X110189400Y-96413800D01*
X110189400Y-95711800D01*
X111791400Y-95711800D01*
X111791400Y-96413800D01*
X111791400Y-96413800D01*
G37*
G36*
X117191400Y-96413800D02*
G01*
X115589400Y-96413800D01*
X115589400Y-95711800D01*
X117191400Y-95711800D01*
X117191400Y-96413800D01*
X117191400Y-96413800D01*
G37*
G36*
X121037000Y-96413800D02*
G01*
X119435000Y-96413800D01*
X119435000Y-95711800D01*
X121037000Y-95711800D01*
X121037000Y-96413800D01*
X121037000Y-96413800D01*
G37*
G36*
X126437000Y-96413800D02*
G01*
X124835000Y-96413800D01*
X124835000Y-95711800D01*
X126437000Y-95711800D01*
X126437000Y-96413800D01*
X126437000Y-96413800D01*
G37*
G36*
X129838525Y-93704290D02*
G01*
X129977238Y-93761747D01*
X130102072Y-93845158D01*
X130208242Y-93951328D01*
X130291653Y-94076162D01*
X130349110Y-94214875D01*
X130378400Y-94362129D01*
X130378400Y-94512271D01*
X130349110Y-94659525D01*
X130291653Y-94798238D01*
X130208242Y-94923072D01*
X130102072Y-95029242D01*
X129977238Y-95112653D01*
X129838525Y-95170110D01*
X129691271Y-95199400D01*
X129541129Y-95199400D01*
X129393875Y-95170110D01*
X129255162Y-95112653D01*
X129130328Y-95029242D01*
X129024158Y-94923072D01*
X128940747Y-94798238D01*
X128883290Y-94659525D01*
X128854000Y-94512271D01*
X128854000Y-94362129D01*
X128883290Y-94214875D01*
X128940747Y-94076162D01*
X129024158Y-93951328D01*
X129130328Y-93845158D01*
X129255162Y-93761747D01*
X129393875Y-93704290D01*
X129541129Y-93675000D01*
X129691271Y-93675000D01*
X129838525Y-93704290D01*
X129838525Y-93704290D01*
G37*
G36*
X145078525Y-93704290D02*
G01*
X145217238Y-93761747D01*
X145342072Y-93845158D01*
X145448242Y-93951328D01*
X145531653Y-94076162D01*
X145589110Y-94214875D01*
X145618400Y-94362129D01*
X145618400Y-94512271D01*
X145589110Y-94659525D01*
X145531653Y-94798238D01*
X145448242Y-94923072D01*
X145342072Y-95029242D01*
X145217238Y-95112653D01*
X145078525Y-95170110D01*
X144931271Y-95199400D01*
X144781129Y-95199400D01*
X144633875Y-95170110D01*
X144495162Y-95112653D01*
X144370328Y-95029242D01*
X144264158Y-94923072D01*
X144180747Y-94798238D01*
X144123290Y-94659525D01*
X144094000Y-94512271D01*
X144094000Y-94362129D01*
X144123290Y-94214875D01*
X144180747Y-94076162D01*
X144264158Y-93951328D01*
X144370328Y-93845158D01*
X144495162Y-93761747D01*
X144633875Y-93704290D01*
X144781129Y-93675000D01*
X144931271Y-93675000D01*
X145078525Y-93704290D01*
X145078525Y-93704290D01*
G37*
G36*
X126437000Y-95143800D02*
G01*
X124835000Y-95143800D01*
X124835000Y-94441800D01*
X126437000Y-94441800D01*
X126437000Y-95143800D01*
X126437000Y-95143800D01*
G37*
G36*
X121037000Y-95143800D02*
G01*
X119435000Y-95143800D01*
X119435000Y-94441800D01*
X121037000Y-94441800D01*
X121037000Y-95143800D01*
X121037000Y-95143800D01*
G37*
G36*
X117191400Y-95143800D02*
G01*
X115589400Y-95143800D01*
X115589400Y-94441800D01*
X117191400Y-94441800D01*
X117191400Y-95143800D01*
X117191400Y-95143800D01*
G37*
G36*
X111791400Y-95143800D02*
G01*
X110189400Y-95143800D01*
X110189400Y-94441800D01*
X111791400Y-94441800D01*
X111791400Y-95143800D01*
X111791400Y-95143800D01*
G37*
G36*
X111791400Y-93873800D02*
G01*
X110189400Y-93873800D01*
X110189400Y-93171800D01*
X111791400Y-93171800D01*
X111791400Y-93873800D01*
X111791400Y-93873800D01*
G37*
G36*
X121037000Y-93873800D02*
G01*
X119435000Y-93873800D01*
X119435000Y-93171800D01*
X121037000Y-93171800D01*
X121037000Y-93873800D01*
X121037000Y-93873800D01*
G37*
G36*
X126437000Y-93873800D02*
G01*
X124835000Y-93873800D01*
X124835000Y-93171800D01*
X126437000Y-93171800D01*
X126437000Y-93873800D01*
X126437000Y-93873800D01*
G37*
G36*
X117191400Y-93873800D02*
G01*
X115589400Y-93873800D01*
X115589400Y-93171800D01*
X117191400Y-93171800D01*
X117191400Y-93873800D01*
X117191400Y-93873800D01*
G37*
G36*
X135492442Y-91053518D02*
G01*
X135558627Y-91060037D01*
X135728466Y-91111557D01*
X135884991Y-91195222D01*
X135917312Y-91221747D01*
X136022186Y-91307814D01*
X136105448Y-91409271D01*
X136134778Y-91445009D01*
X136218443Y-91601534D01*
X136269963Y-91771373D01*
X136287359Y-91948000D01*
X136269963Y-92124627D01*
X136218443Y-92294466D01*
X136134778Y-92450991D01*
X136105448Y-92486729D01*
X136022186Y-92588186D01*
X135935410Y-92659400D01*
X135884991Y-92700778D01*
X135728466Y-92784443D01*
X135558627Y-92835963D01*
X135492442Y-92842482D01*
X135426260Y-92849000D01*
X135337740Y-92849000D01*
X135271558Y-92842482D01*
X135205373Y-92835963D01*
X135035534Y-92784443D01*
X134879009Y-92700778D01*
X134828590Y-92659400D01*
X134741814Y-92588186D01*
X134658552Y-92486729D01*
X134629222Y-92450991D01*
X134545557Y-92294466D01*
X134494037Y-92124627D01*
X134476641Y-91948000D01*
X134494037Y-91771373D01*
X134545557Y-91601534D01*
X134629222Y-91445009D01*
X134658552Y-91409271D01*
X134741814Y-91307814D01*
X134846688Y-91221747D01*
X134879009Y-91195222D01*
X135035534Y-91111557D01*
X135205373Y-91060037D01*
X135271558Y-91053518D01*
X135337740Y-91047000D01*
X135426260Y-91047000D01*
X135492442Y-91053518D01*
X135492442Y-91053518D01*
G37*
G36*
X138823000Y-92849000D02*
G01*
X137021000Y-92849000D01*
X137021000Y-91047000D01*
X138823000Y-91047000D01*
X138823000Y-92849000D01*
X138823000Y-92849000D01*
G37*
G36*
X129838525Y-91164290D02*
G01*
X129977238Y-91221747D01*
X130102072Y-91305158D01*
X130208242Y-91411328D01*
X130291653Y-91536162D01*
X130349110Y-91674875D01*
X130378400Y-91822129D01*
X130378400Y-91972271D01*
X130349110Y-92119525D01*
X130291653Y-92258238D01*
X130208242Y-92383072D01*
X130102072Y-92489242D01*
X129977238Y-92572653D01*
X129838525Y-92630110D01*
X129691271Y-92659400D01*
X129541129Y-92659400D01*
X129393875Y-92630110D01*
X129255162Y-92572653D01*
X129130328Y-92489242D01*
X129024158Y-92383072D01*
X128940747Y-92258238D01*
X128883290Y-92119525D01*
X128854000Y-91972271D01*
X128854000Y-91822129D01*
X128883290Y-91674875D01*
X128940747Y-91536162D01*
X129024158Y-91411328D01*
X129130328Y-91305158D01*
X129255162Y-91221747D01*
X129393875Y-91164290D01*
X129541129Y-91135000D01*
X129691271Y-91135000D01*
X129838525Y-91164290D01*
X129838525Y-91164290D01*
G37*
G36*
X145078525Y-91164290D02*
G01*
X145217238Y-91221747D01*
X145342072Y-91305158D01*
X145448242Y-91411328D01*
X145531653Y-91536162D01*
X145589110Y-91674875D01*
X145618400Y-91822129D01*
X145618400Y-91972271D01*
X145589110Y-92119525D01*
X145531653Y-92258238D01*
X145448242Y-92383072D01*
X145342072Y-92489242D01*
X145217238Y-92572653D01*
X145078525Y-92630110D01*
X144931271Y-92659400D01*
X144781129Y-92659400D01*
X144633875Y-92630110D01*
X144495162Y-92572653D01*
X144370328Y-92489242D01*
X144264158Y-92383072D01*
X144180747Y-92258238D01*
X144123290Y-92119525D01*
X144094000Y-91972271D01*
X144094000Y-91822129D01*
X144123290Y-91674875D01*
X144180747Y-91536162D01*
X144264158Y-91411328D01*
X144370328Y-91305158D01*
X144495162Y-91221747D01*
X144633875Y-91164290D01*
X144781129Y-91135000D01*
X144931271Y-91135000D01*
X145078525Y-91164290D01*
X145078525Y-91164290D01*
G37*
G36*
X126437000Y-92603800D02*
G01*
X124835000Y-92603800D01*
X124835000Y-91901800D01*
X126437000Y-91901800D01*
X126437000Y-92603800D01*
X126437000Y-92603800D01*
G37*
G36*
X111791400Y-92603800D02*
G01*
X110189400Y-92603800D01*
X110189400Y-91901800D01*
X111791400Y-91901800D01*
X111791400Y-92603800D01*
X111791400Y-92603800D01*
G37*
G36*
X121037000Y-92603800D02*
G01*
X119435000Y-92603800D01*
X119435000Y-91901800D01*
X121037000Y-91901800D01*
X121037000Y-92603800D01*
X121037000Y-92603800D01*
G37*
G36*
X117191400Y-92603800D02*
G01*
X115589400Y-92603800D01*
X115589400Y-91901800D01*
X117191400Y-91901800D01*
X117191400Y-92603800D01*
X117191400Y-92603800D01*
G37*
G36*
X112622148Y-89143922D02*
G01*
X112656487Y-89154339D01*
X112688136Y-89171256D01*
X112715878Y-89194022D01*
X112738644Y-89221764D01*
X112755561Y-89253413D01*
X112765978Y-89287752D01*
X112770100Y-89329607D01*
X112770100Y-90551993D01*
X112765978Y-90593848D01*
X112755561Y-90628187D01*
X112738644Y-90659836D01*
X112715878Y-90687578D01*
X112688136Y-90710344D01*
X112656487Y-90727261D01*
X112622148Y-90737678D01*
X112580293Y-90741800D01*
X110507907Y-90741800D01*
X110466052Y-90737678D01*
X110431713Y-90727261D01*
X110400064Y-90710344D01*
X110372322Y-90687578D01*
X110349556Y-90659836D01*
X110332639Y-90628187D01*
X110322222Y-90593848D01*
X110318100Y-90551993D01*
X110318100Y-89329607D01*
X110322222Y-89287752D01*
X110332639Y-89253413D01*
X110349556Y-89221764D01*
X110372322Y-89194022D01*
X110400064Y-89171256D01*
X110431713Y-89154339D01*
X110466052Y-89143922D01*
X110507907Y-89139800D01*
X112580293Y-89139800D01*
X112622148Y-89143922D01*
X112622148Y-89143922D01*
G37*
G36*
X116101948Y-89143922D02*
G01*
X116136287Y-89154339D01*
X116167936Y-89171256D01*
X116195678Y-89194022D01*
X116218444Y-89221764D01*
X116235361Y-89253413D01*
X116245778Y-89287752D01*
X116249900Y-89329607D01*
X116249900Y-90551993D01*
X116245778Y-90593848D01*
X116235361Y-90628187D01*
X116218444Y-90659836D01*
X116195678Y-90687578D01*
X116167936Y-90710344D01*
X116136287Y-90727261D01*
X116101948Y-90737678D01*
X116060093Y-90741800D01*
X113987707Y-90741800D01*
X113945852Y-90737678D01*
X113911513Y-90727261D01*
X113879864Y-90710344D01*
X113852122Y-90687578D01*
X113829356Y-90659836D01*
X113812439Y-90628187D01*
X113802022Y-90593848D01*
X113797900Y-90551993D01*
X113797900Y-89329607D01*
X113802022Y-89287752D01*
X113812439Y-89253413D01*
X113829356Y-89221764D01*
X113852122Y-89194022D01*
X113879864Y-89171256D01*
X113911513Y-89154339D01*
X113945852Y-89143922D01*
X113987707Y-89139800D01*
X116060093Y-89139800D01*
X116101948Y-89143922D01*
X116101948Y-89143922D01*
G37*
G36*
X118822062Y-89196381D02*
G01*
X118856981Y-89206974D01*
X118889163Y-89224176D01*
X118917373Y-89247327D01*
X118940524Y-89275537D01*
X118957726Y-89307719D01*
X118968319Y-89342638D01*
X118972500Y-89385095D01*
X118972500Y-90526305D01*
X118968319Y-90568762D01*
X118957726Y-90603681D01*
X118940524Y-90635863D01*
X118917373Y-90664073D01*
X118889163Y-90687224D01*
X118856981Y-90704426D01*
X118822062Y-90715019D01*
X118779605Y-90719200D01*
X117313395Y-90719200D01*
X117270938Y-90715019D01*
X117236019Y-90704426D01*
X117203837Y-90687224D01*
X117175627Y-90664073D01*
X117152476Y-90635863D01*
X117135274Y-90603681D01*
X117124681Y-90568762D01*
X117120500Y-90526305D01*
X117120500Y-89385095D01*
X117124681Y-89342638D01*
X117135274Y-89307719D01*
X117152476Y-89275537D01*
X117175627Y-89247327D01*
X117203837Y-89224176D01*
X117236019Y-89206974D01*
X117270938Y-89196381D01*
X117313395Y-89192200D01*
X118779605Y-89192200D01*
X118822062Y-89196381D01*
X118822062Y-89196381D01*
G37*
G36*
X123306162Y-88562381D02*
G01*
X123341081Y-88572974D01*
X123373263Y-88590176D01*
X123401473Y-88613327D01*
X123424624Y-88641537D01*
X123441826Y-88673719D01*
X123452419Y-88708638D01*
X123456600Y-88751095D01*
X123456600Y-90217305D01*
X123452419Y-90259762D01*
X123441826Y-90294681D01*
X123424624Y-90326863D01*
X123401473Y-90355073D01*
X123373263Y-90378224D01*
X123341081Y-90395426D01*
X123306162Y-90406019D01*
X123263705Y-90410200D01*
X122122495Y-90410200D01*
X122080038Y-90406019D01*
X122045119Y-90395426D01*
X122012937Y-90378224D01*
X121984727Y-90355073D01*
X121961576Y-90326863D01*
X121944374Y-90294681D01*
X121933781Y-90259762D01*
X121929600Y-90217305D01*
X121929600Y-88751095D01*
X121933781Y-88708638D01*
X121944374Y-88673719D01*
X121961576Y-88641537D01*
X121984727Y-88613327D01*
X122012937Y-88590176D01*
X122045119Y-88572974D01*
X122080038Y-88562381D01*
X122122495Y-88558200D01*
X123263705Y-88558200D01*
X123306162Y-88562381D01*
X123306162Y-88562381D01*
G37*
G36*
X126281162Y-88562381D02*
G01*
X126316081Y-88572974D01*
X126348263Y-88590176D01*
X126376473Y-88613327D01*
X126399624Y-88641537D01*
X126416826Y-88673719D01*
X126427419Y-88708638D01*
X126431600Y-88751095D01*
X126431600Y-90217305D01*
X126427419Y-90259762D01*
X126416826Y-90294681D01*
X126399624Y-90326863D01*
X126376473Y-90355073D01*
X126348263Y-90378224D01*
X126316081Y-90395426D01*
X126281162Y-90406019D01*
X126238705Y-90410200D01*
X125097495Y-90410200D01*
X125055038Y-90406019D01*
X125020119Y-90395426D01*
X124987937Y-90378224D01*
X124959727Y-90355073D01*
X124936576Y-90326863D01*
X124919374Y-90294681D01*
X124908781Y-90259762D01*
X124904600Y-90217305D01*
X124904600Y-88751095D01*
X124908781Y-88708638D01*
X124919374Y-88673719D01*
X124936576Y-88641537D01*
X124959727Y-88613327D01*
X124987937Y-88590176D01*
X125020119Y-88572974D01*
X125055038Y-88562381D01*
X125097495Y-88558200D01*
X126238705Y-88558200D01*
X126281162Y-88562381D01*
X126281162Y-88562381D01*
G37*
G36*
X135492443Y-88513519D02*
G01*
X135558627Y-88520037D01*
X135728466Y-88571557D01*
X135728468Y-88571558D01*
X135772324Y-88595000D01*
X135884991Y-88655222D01*
X135911845Y-88677261D01*
X136022186Y-88767814D01*
X136105448Y-88869271D01*
X136134778Y-88905009D01*
X136218443Y-89061534D01*
X136269963Y-89231373D01*
X136287359Y-89408000D01*
X136269963Y-89584627D01*
X136218443Y-89754466D01*
X136134778Y-89910991D01*
X136105448Y-89946729D01*
X136022186Y-90048186D01*
X135935410Y-90119400D01*
X135884991Y-90160778D01*
X135728466Y-90244443D01*
X135558627Y-90295963D01*
X135492443Y-90302481D01*
X135426260Y-90309000D01*
X135337740Y-90309000D01*
X135271557Y-90302481D01*
X135205373Y-90295963D01*
X135035534Y-90244443D01*
X134879009Y-90160778D01*
X134828590Y-90119400D01*
X134741814Y-90048186D01*
X134658552Y-89946729D01*
X134629222Y-89910991D01*
X134545557Y-89754466D01*
X134494037Y-89584627D01*
X134476641Y-89408000D01*
X134494037Y-89231373D01*
X134545557Y-89061534D01*
X134629222Y-88905009D01*
X134658552Y-88869271D01*
X134741814Y-88767814D01*
X134852155Y-88677261D01*
X134879009Y-88655222D01*
X134991676Y-88595000D01*
X135035532Y-88571558D01*
X135035534Y-88571557D01*
X135205373Y-88520037D01*
X135271557Y-88513519D01*
X135337740Y-88507000D01*
X135426260Y-88507000D01*
X135492443Y-88513519D01*
X135492443Y-88513519D01*
G37*
G36*
X138032443Y-88513519D02*
G01*
X138098627Y-88520037D01*
X138268466Y-88571557D01*
X138268468Y-88571558D01*
X138312324Y-88595000D01*
X138424991Y-88655222D01*
X138451845Y-88677261D01*
X138562186Y-88767814D01*
X138645448Y-88869271D01*
X138674778Y-88905009D01*
X138758443Y-89061534D01*
X138809963Y-89231373D01*
X138827359Y-89408000D01*
X138809963Y-89584627D01*
X138758443Y-89754466D01*
X138674778Y-89910991D01*
X138645448Y-89946729D01*
X138562186Y-90048186D01*
X138475410Y-90119400D01*
X138424991Y-90160778D01*
X138268466Y-90244443D01*
X138098627Y-90295963D01*
X138032443Y-90302481D01*
X137966260Y-90309000D01*
X137877740Y-90309000D01*
X137811557Y-90302481D01*
X137745373Y-90295963D01*
X137575534Y-90244443D01*
X137419009Y-90160778D01*
X137368590Y-90119400D01*
X137281814Y-90048186D01*
X137198552Y-89946729D01*
X137169222Y-89910991D01*
X137085557Y-89754466D01*
X137034037Y-89584627D01*
X137016641Y-89408000D01*
X137034037Y-89231373D01*
X137085557Y-89061534D01*
X137169222Y-88905009D01*
X137198552Y-88869271D01*
X137281814Y-88767814D01*
X137392155Y-88677261D01*
X137419009Y-88655222D01*
X137531676Y-88595000D01*
X137575532Y-88571558D01*
X137575534Y-88571557D01*
X137745373Y-88520037D01*
X137811557Y-88513519D01*
X137877740Y-88507000D01*
X137966260Y-88507000D01*
X138032443Y-88513519D01*
X138032443Y-88513519D01*
G37*
G36*
X129838525Y-88624290D02*
G01*
X129977238Y-88681747D01*
X130102072Y-88765158D01*
X130208242Y-88871328D01*
X130291653Y-88996162D01*
X130349110Y-89134875D01*
X130378400Y-89282129D01*
X130378400Y-89432271D01*
X130349110Y-89579525D01*
X130291653Y-89718238D01*
X130208242Y-89843072D01*
X130102072Y-89949242D01*
X129977238Y-90032653D01*
X129838525Y-90090110D01*
X129691271Y-90119400D01*
X129541129Y-90119400D01*
X129393875Y-90090110D01*
X129255162Y-90032653D01*
X129130328Y-89949242D01*
X129024158Y-89843072D01*
X128940747Y-89718238D01*
X128883290Y-89579525D01*
X128854000Y-89432271D01*
X128854000Y-89282129D01*
X128883290Y-89134875D01*
X128940747Y-88996162D01*
X129024158Y-88871328D01*
X129130328Y-88765158D01*
X129255162Y-88681747D01*
X129393875Y-88624290D01*
X129541129Y-88595000D01*
X129691271Y-88595000D01*
X129838525Y-88624290D01*
X129838525Y-88624290D01*
G37*
G36*
X145078525Y-88624290D02*
G01*
X145217238Y-88681747D01*
X145342072Y-88765158D01*
X145448242Y-88871328D01*
X145531653Y-88996162D01*
X145589110Y-89134875D01*
X145618400Y-89282129D01*
X145618400Y-89432271D01*
X145589110Y-89579525D01*
X145531653Y-89718238D01*
X145448242Y-89843072D01*
X145342072Y-89949242D01*
X145217238Y-90032653D01*
X145078525Y-90090110D01*
X144931271Y-90119400D01*
X144781129Y-90119400D01*
X144633875Y-90090110D01*
X144495162Y-90032653D01*
X144370328Y-89949242D01*
X144264158Y-89843072D01*
X144180747Y-89718238D01*
X144123290Y-89579525D01*
X144094000Y-89432271D01*
X144094000Y-89282129D01*
X144123290Y-89134875D01*
X144180747Y-88996162D01*
X144264158Y-88871328D01*
X144370328Y-88765158D01*
X144495162Y-88681747D01*
X144633875Y-88624290D01*
X144781129Y-88595000D01*
X144931271Y-88595000D01*
X145078525Y-88624290D01*
X145078525Y-88624290D01*
G37*
G36*
X126281162Y-86073181D02*
G01*
X126316081Y-86083774D01*
X126348263Y-86100976D01*
X126376473Y-86124127D01*
X126399624Y-86152337D01*
X126416826Y-86184519D01*
X126427419Y-86219438D01*
X126431600Y-86261895D01*
X126431600Y-87728105D01*
X126427419Y-87770562D01*
X126416826Y-87805481D01*
X126399624Y-87837663D01*
X126376473Y-87865873D01*
X126348263Y-87889024D01*
X126316081Y-87906226D01*
X126281162Y-87916819D01*
X126238705Y-87921000D01*
X125097495Y-87921000D01*
X125055038Y-87916819D01*
X125020119Y-87906226D01*
X124987937Y-87889024D01*
X124959727Y-87865873D01*
X124936576Y-87837663D01*
X124919374Y-87805481D01*
X124908781Y-87770562D01*
X124904600Y-87728105D01*
X124904600Y-86261895D01*
X124908781Y-86219438D01*
X124919374Y-86184519D01*
X124936576Y-86152337D01*
X124959727Y-86124127D01*
X124987937Y-86100976D01*
X125020119Y-86083774D01*
X125055038Y-86073181D01*
X125097495Y-86069000D01*
X126238705Y-86069000D01*
X126281162Y-86073181D01*
X126281162Y-86073181D01*
G37*
G36*
X123306162Y-86073181D02*
G01*
X123341081Y-86083774D01*
X123373263Y-86100976D01*
X123401473Y-86124127D01*
X123424624Y-86152337D01*
X123441826Y-86184519D01*
X123452419Y-86219438D01*
X123456600Y-86261895D01*
X123456600Y-87728105D01*
X123452419Y-87770562D01*
X123441826Y-87805481D01*
X123424624Y-87837663D01*
X123401473Y-87865873D01*
X123373263Y-87889024D01*
X123341081Y-87906226D01*
X123306162Y-87916819D01*
X123263705Y-87921000D01*
X122122495Y-87921000D01*
X122080038Y-87916819D01*
X122045119Y-87906226D01*
X122012937Y-87889024D01*
X121984727Y-87865873D01*
X121961576Y-87837663D01*
X121944374Y-87805481D01*
X121933781Y-87770562D01*
X121929600Y-87728105D01*
X121929600Y-86261895D01*
X121933781Y-86219438D01*
X121944374Y-86184519D01*
X121961576Y-86152337D01*
X121984727Y-86124127D01*
X122012937Y-86100976D01*
X122045119Y-86083774D01*
X122080038Y-86073181D01*
X122122495Y-86069000D01*
X123263705Y-86069000D01*
X123306162Y-86073181D01*
X123306162Y-86073181D01*
G37*
G36*
X118822062Y-86221381D02*
G01*
X118856981Y-86231974D01*
X118889163Y-86249176D01*
X118917373Y-86272327D01*
X118940524Y-86300537D01*
X118957726Y-86332719D01*
X118968319Y-86367638D01*
X118972500Y-86410095D01*
X118972500Y-87551305D01*
X118968319Y-87593762D01*
X118957726Y-87628681D01*
X118940524Y-87660863D01*
X118917373Y-87689073D01*
X118889163Y-87712224D01*
X118856981Y-87729426D01*
X118822062Y-87740019D01*
X118779605Y-87744200D01*
X117313395Y-87744200D01*
X117270938Y-87740019D01*
X117236019Y-87729426D01*
X117203837Y-87712224D01*
X117175627Y-87689073D01*
X117152476Y-87660863D01*
X117135274Y-87628681D01*
X117124681Y-87593762D01*
X117120500Y-87551305D01*
X117120500Y-86410095D01*
X117124681Y-86367638D01*
X117135274Y-86332719D01*
X117152476Y-86300537D01*
X117175627Y-86272327D01*
X117203837Y-86249176D01*
X117236019Y-86231974D01*
X117270938Y-86221381D01*
X117313395Y-86217200D01*
X118779605Y-86217200D01*
X118822062Y-86221381D01*
X118822062Y-86221381D01*
G37*
G36*
X130378400Y-87579400D02*
G01*
X128854000Y-87579400D01*
X128854000Y-86055000D01*
X130378400Y-86055000D01*
X130378400Y-87579400D01*
X130378400Y-87579400D01*
G37*
G36*
X145618400Y-87579400D02*
G01*
X144094000Y-87579400D01*
X144094000Y-86055000D01*
X145618400Y-86055000D01*
X145618400Y-87579400D01*
X145618400Y-87579400D01*
G37*
G36*
X112622148Y-85893922D02*
G01*
X112656487Y-85904339D01*
X112688136Y-85921256D01*
X112715878Y-85944022D01*
X112738644Y-85971764D01*
X112755561Y-86003413D01*
X112765978Y-86037752D01*
X112770100Y-86079607D01*
X112770100Y-87301993D01*
X112765978Y-87343848D01*
X112755561Y-87378187D01*
X112738644Y-87409836D01*
X112715878Y-87437578D01*
X112688136Y-87460344D01*
X112656487Y-87477261D01*
X112622148Y-87487678D01*
X112580293Y-87491800D01*
X110507907Y-87491800D01*
X110466052Y-87487678D01*
X110431713Y-87477261D01*
X110400064Y-87460344D01*
X110372322Y-87437578D01*
X110349556Y-87409836D01*
X110332639Y-87378187D01*
X110322222Y-87343848D01*
X110318100Y-87301993D01*
X110318100Y-86079607D01*
X110322222Y-86037752D01*
X110332639Y-86003413D01*
X110349556Y-85971764D01*
X110372322Y-85944022D01*
X110400064Y-85921256D01*
X110431713Y-85904339D01*
X110466052Y-85893922D01*
X110507907Y-85889800D01*
X112580293Y-85889800D01*
X112622148Y-85893922D01*
X112622148Y-85893922D01*
G37*
G36*
X116101948Y-85893922D02*
G01*
X116136287Y-85904339D01*
X116167936Y-85921256D01*
X116195678Y-85944022D01*
X116218444Y-85971764D01*
X116235361Y-86003413D01*
X116245778Y-86037752D01*
X116249900Y-86079607D01*
X116249900Y-87301993D01*
X116245778Y-87343848D01*
X116235361Y-87378187D01*
X116218444Y-87409836D01*
X116195678Y-87437578D01*
X116167936Y-87460344D01*
X116136287Y-87477261D01*
X116101948Y-87487678D01*
X116060093Y-87491800D01*
X113987707Y-87491800D01*
X113945852Y-87487678D01*
X113911513Y-87477261D01*
X113879864Y-87460344D01*
X113852122Y-87437578D01*
X113829356Y-87409836D01*
X113812439Y-87378187D01*
X113802022Y-87343848D01*
X113797900Y-87301993D01*
X113797900Y-86079607D01*
X113802022Y-86037752D01*
X113812439Y-86003413D01*
X113829356Y-85971764D01*
X113852122Y-85944022D01*
X113879864Y-85921256D01*
X113911513Y-85904339D01*
X113945852Y-85893922D01*
X113987707Y-85889800D01*
X116060093Y-85889800D01*
X116101948Y-85893922D01*
X116101948Y-85893922D01*
G37*
G36*
X133237562Y-85184181D02*
G01*
X133272481Y-85194774D01*
X133304663Y-85211976D01*
X133332873Y-85235127D01*
X133356024Y-85263337D01*
X133373226Y-85295519D01*
X133383819Y-85330438D01*
X133388000Y-85372895D01*
X133388000Y-86839105D01*
X133383819Y-86881562D01*
X133373226Y-86916481D01*
X133356024Y-86948663D01*
X133332873Y-86976873D01*
X133304663Y-87000024D01*
X133272481Y-87017226D01*
X133237562Y-87027819D01*
X133195105Y-87032000D01*
X132053895Y-87032000D01*
X132011438Y-87027819D01*
X131976519Y-87017226D01*
X131944337Y-87000024D01*
X131916127Y-86976873D01*
X131892976Y-86948663D01*
X131875774Y-86916481D01*
X131865181Y-86881562D01*
X131861000Y-86839105D01*
X131861000Y-85372895D01*
X131865181Y-85330438D01*
X131875774Y-85295519D01*
X131892976Y-85263337D01*
X131916127Y-85235127D01*
X131944337Y-85211976D01*
X131976519Y-85194774D01*
X132011438Y-85184181D01*
X132053895Y-85180000D01*
X133195105Y-85180000D01*
X133237562Y-85184181D01*
X133237562Y-85184181D01*
G37*
G36*
X136212562Y-85184181D02*
G01*
X136247481Y-85194774D01*
X136279663Y-85211976D01*
X136307873Y-85235127D01*
X136331024Y-85263337D01*
X136348226Y-85295519D01*
X136358819Y-85330438D01*
X136363000Y-85372895D01*
X136363000Y-86839105D01*
X136358819Y-86881562D01*
X136348226Y-86916481D01*
X136331024Y-86948663D01*
X136307873Y-86976873D01*
X136279663Y-87000024D01*
X136247481Y-87017226D01*
X136212562Y-87027819D01*
X136170105Y-87032000D01*
X135028895Y-87032000D01*
X134986438Y-87027819D01*
X134951519Y-87017226D01*
X134919337Y-87000024D01*
X134891127Y-86976873D01*
X134867976Y-86948663D01*
X134850774Y-86916481D01*
X134840181Y-86881562D01*
X134836000Y-86839105D01*
X134836000Y-85372895D01*
X134840181Y-85330438D01*
X134850774Y-85295519D01*
X134867976Y-85263337D01*
X134891127Y-85235127D01*
X134919337Y-85211976D01*
X134951519Y-85194774D01*
X134986438Y-85184181D01*
X135028895Y-85180000D01*
X136170105Y-85180000D01*
X136212562Y-85184181D01*
X136212562Y-85184181D01*
G37*
G36*
X141546562Y-85184181D02*
G01*
X141581481Y-85194774D01*
X141613663Y-85211976D01*
X141641873Y-85235127D01*
X141665024Y-85263337D01*
X141682226Y-85295519D01*
X141692819Y-85330438D01*
X141697000Y-85372895D01*
X141697000Y-86839105D01*
X141692819Y-86881562D01*
X141682226Y-86916481D01*
X141665024Y-86948663D01*
X141641873Y-86976873D01*
X141613663Y-87000024D01*
X141581481Y-87017226D01*
X141546562Y-87027819D01*
X141504105Y-87032000D01*
X140362895Y-87032000D01*
X140320438Y-87027819D01*
X140285519Y-87017226D01*
X140253337Y-87000024D01*
X140225127Y-86976873D01*
X140201976Y-86948663D01*
X140184774Y-86916481D01*
X140174181Y-86881562D01*
X140170000Y-86839105D01*
X140170000Y-85372895D01*
X140174181Y-85330438D01*
X140184774Y-85295519D01*
X140201976Y-85263337D01*
X140225127Y-85235127D01*
X140253337Y-85211976D01*
X140285519Y-85194774D01*
X140320438Y-85184181D01*
X140362895Y-85180000D01*
X141504105Y-85180000D01*
X141546562Y-85184181D01*
X141546562Y-85184181D01*
G37*
G36*
X138571562Y-85184181D02*
G01*
X138606481Y-85194774D01*
X138638663Y-85211976D01*
X138666873Y-85235127D01*
X138690024Y-85263337D01*
X138707226Y-85295519D01*
X138717819Y-85330438D01*
X138722000Y-85372895D01*
X138722000Y-86839105D01*
X138717819Y-86881562D01*
X138707226Y-86916481D01*
X138690024Y-86948663D01*
X138666873Y-86976873D01*
X138638663Y-87000024D01*
X138606481Y-87017226D01*
X138571562Y-87027819D01*
X138529105Y-87032000D01*
X137387895Y-87032000D01*
X137345438Y-87027819D01*
X137310519Y-87017226D01*
X137278337Y-87000024D01*
X137250127Y-86976873D01*
X137226976Y-86948663D01*
X137209774Y-86916481D01*
X137199181Y-86881562D01*
X137195000Y-86839105D01*
X137195000Y-85372895D01*
X137199181Y-85330438D01*
X137209774Y-85295519D01*
X137226976Y-85263337D01*
X137250127Y-85235127D01*
X137278337Y-85211976D01*
X137310519Y-85194774D01*
X137345438Y-85184181D01*
X137387895Y-85180000D01*
X138529105Y-85180000D01*
X138571562Y-85184181D01*
X138571562Y-85184181D01*
G37*
M02*
