M48
; DRILL file {KiCad (5.1.0)-1} date 07.03.2021 22:37:17
; FORMAT={-:-/ absolute / inch / decimal}
; #@! TF.CreationDate,2021-03-07T22:37:17+01:00
; #@! TF.GenerationSoftware,Kicad,Pcbnew,(5.1.0)-1
; #@! TF.FileFunction,Plated,1,2,PTH
FMAT,2
INCH
T1C0.0157
T2C0.0197
T3C0.0315
T4C0.0394
%
G90
G05
T1
X4.429Y-3.832
X4.429Y-4.302
X4.43Y-4.352
X4.433Y-3.682
X4.433Y-3.931
X4.452Y-4.102
X4.51Y-3.6325
X4.515Y-3.869
X4.523Y-3.732
X4.523Y-3.782
X4.524Y-4.152
X4.524Y-4.352
X4.667Y-3.632
X4.67Y-3.782
X4.671Y-3.832
X4.7425Y-3.4825
X4.7625Y-3.425
X4.798Y-3.758
X4.889Y-3.682
X5.003Y-4.469
X5.008Y-3.584
X5.057Y-3.568
X5.188Y-4.488
X5.503Y-4.423
T2
X4.3075Y-3.37
X4.31Y-3.4775
X4.31Y-3.5875
X4.31Y-4.51
X4.3125Y-4.015
X4.4Y-4.51
X4.46Y-3.4775
X4.49Y-4.51
X4.59Y-4.51
X4.66Y-3.98
X4.66Y-4.12
X4.66Y-4.204
X4.7425Y-3.5275
X4.83Y-4.51
X4.93Y-4.221
X4.93Y-4.303
X4.93Y-4.51
X5.188Y-3.518
X5.299Y-3.719
X5.299Y-3.813
X5.35Y-4.25
X5.352Y-4.071
X5.352Y-4.164
X5.44Y-4.163
X5.44Y-4.25
X5.442Y-4.071
X5.506Y-3.482
X5.506Y-3.572
X5.629Y-3.537
X5.63Y-3.611
T3
X5.153Y-3.968
X5.153Y-4.068
X5.153Y-4.168
X5.153Y-4.268
X5.153Y-4.368
X5.253Y-3.868
X5.253Y-3.968
X5.253Y-4.068
X5.253Y-4.168
X5.253Y-4.268
X5.253Y-4.368
X5.253Y-4.468
X5.353Y-3.868
X5.353Y-3.968
X5.353Y-4.368
X5.353Y-4.468
X5.453Y-3.868
X5.453Y-3.968
X5.453Y-4.368
X5.453Y-4.468
X5.553Y-3.868
X5.553Y-3.968
X5.553Y-4.068
X5.553Y-4.168
X5.553Y-4.268
X5.553Y-4.368
X5.553Y-4.468
X5.653Y-3.968
X5.653Y-4.068
X5.653Y-4.168
X5.653Y-4.268
X5.653Y-4.368
X5.703Y-3.418
X5.703Y-3.518
X5.703Y-3.618
X5.703Y-3.718
X5.703Y-3.818
X5.703Y-3.918
X5.703Y-4.018
X5.703Y-4.118
X5.703Y-4.218
X5.703Y-4.318
X5.703Y-4.418
X5.703Y-4.518
X5.103Y-3.418
X5.103Y-3.518
X5.103Y-3.618
X5.103Y-3.718
X5.103Y-3.818
X5.103Y-3.918
X5.103Y-4.018
X5.103Y-4.118
X5.103Y-4.218
X5.103Y-4.318
X5.103Y-4.418
X5.103Y-4.518
T4
X5.33Y-3.52
X5.33Y-3.62
X5.43Y-3.52
X5.43Y-3.62
X4.765Y-4.097
X4.765Y-4.197
X4.765Y-4.297
X4.765Y-4.397
T0
M30
