G04 #@! TF.GenerationSoftware,KiCad,Pcbnew,(5.1.0)-1*
G04 #@! TF.CreationDate,2021-03-18T21:34:57+01:00*
G04 #@! TF.ProjectId,Atari OSS Cartridge internal,41746172-6920-44f5-9353-204361727472,rev?*
G04 #@! TF.SameCoordinates,Original*
G04 #@! TF.FileFunction,Legend,Top*
G04 #@! TF.FilePolarity,Positive*
%FSLAX46Y46*%
G04 Gerber Fmt 4.6, Leading zero omitted, Abs format (unit mm)*
G04 Created by KiCad (PCBNEW (5.1.0)-1) date 2021-03-18 21:34:57*
%MOMM*%
%LPD*%
G04 APERTURE LIST*
%ADD10C,0.150000*%
%ADD11C,0.120000*%
%ADD12C,0.100000*%
%ADD13C,1.527000*%
%ADD14O,1.802000X1.802000*%
%ADD15R,1.802000X1.802000*%
%ADD16C,1.052000*%
%ADD17C,1.602000*%
%ADD18R,1.602000X0.702000*%
%ADD19C,1.524400*%
%ADD20R,1.524400X1.524400*%
G04 APERTURE END LIST*
D10*
X131389571Y-91844000D02*
X131818142Y-91844000D01*
X131303857Y-92101142D02*
X131603857Y-91201142D01*
X131903857Y-92101142D01*
X132675285Y-92101142D02*
X132161000Y-92101142D01*
X132418142Y-92101142D02*
X132418142Y-91201142D01*
X132332428Y-91329714D01*
X132246714Y-91415428D01*
X132161000Y-91458285D01*
X133446714Y-91501142D02*
X133446714Y-92101142D01*
X133232428Y-91158285D02*
X133018142Y-91801142D01*
X133575285Y-91801142D01*
X131338771Y-89024600D02*
X131767342Y-89024600D01*
X131253057Y-89281742D02*
X131553057Y-88381742D01*
X131853057Y-89281742D01*
X132624485Y-89281742D02*
X132110200Y-89281742D01*
X132367342Y-89281742D02*
X132367342Y-88381742D01*
X132281628Y-88510314D01*
X132195914Y-88596028D01*
X132110200Y-88638885D01*
X133438771Y-88381742D02*
X133010200Y-88381742D01*
X132967342Y-88810314D01*
X133010200Y-88767457D01*
X133095914Y-88724600D01*
X133310200Y-88724600D01*
X133395914Y-88767457D01*
X133438771Y-88810314D01*
X133481628Y-88896028D01*
X133481628Y-89110314D01*
X133438771Y-89196028D01*
X133395914Y-89238885D01*
X133310200Y-89281742D01*
X133095914Y-89281742D01*
X133010200Y-89238885D01*
X132967342Y-89196028D01*
X123915609Y-104497142D02*
X123867990Y-104544761D01*
X123725133Y-104592380D01*
X123629895Y-104592380D01*
X123487038Y-104544761D01*
X123391800Y-104449523D01*
X123344180Y-104354285D01*
X123296561Y-104163809D01*
X123296561Y-104020952D01*
X123344180Y-103830476D01*
X123391800Y-103735238D01*
X123487038Y-103640000D01*
X123629895Y-103592380D01*
X123725133Y-103592380D01*
X123867990Y-103640000D01*
X123915609Y-103687619D01*
X124915609Y-104497142D02*
X124867990Y-104544761D01*
X124725133Y-104592380D01*
X124629895Y-104592380D01*
X124487038Y-104544761D01*
X124391800Y-104449523D01*
X124344180Y-104354285D01*
X124296561Y-104163809D01*
X124296561Y-104020952D01*
X124344180Y-103830476D01*
X124391800Y-103735238D01*
X124487038Y-103640000D01*
X124629895Y-103592380D01*
X124725133Y-103592380D01*
X124867990Y-103640000D01*
X124915609Y-103687619D01*
X125201323Y-103592380D02*
X125772752Y-103592380D01*
X125487038Y-104592380D02*
X125487038Y-103592380D01*
X126582276Y-104592380D02*
X126106085Y-104592380D01*
X126106085Y-103592380D01*
X123583771Y-106132380D02*
X123774247Y-106132380D01*
X123869485Y-106180000D01*
X123964723Y-106275238D01*
X124012342Y-106465714D01*
X124012342Y-106799047D01*
X123964723Y-106989523D01*
X123869485Y-107084761D01*
X123774247Y-107132380D01*
X123583771Y-107132380D01*
X123488533Y-107084761D01*
X123393295Y-106989523D01*
X123345676Y-106799047D01*
X123345676Y-106465714D01*
X123393295Y-106275238D01*
X123488533Y-106180000D01*
X123583771Y-106132380D01*
X124393295Y-106227619D02*
X124440914Y-106180000D01*
X124536152Y-106132380D01*
X124774247Y-106132380D01*
X124869485Y-106180000D01*
X124917104Y-106227619D01*
X124964723Y-106322857D01*
X124964723Y-106418095D01*
X124917104Y-106560952D01*
X124345676Y-107132380D01*
X124964723Y-107132380D01*
X123996533Y-109723180D02*
X123663200Y-109246990D01*
X123425104Y-109723180D02*
X123425104Y-108723180D01*
X123806057Y-108723180D01*
X123901295Y-108770800D01*
X123948914Y-108818419D01*
X123996533Y-108913657D01*
X123996533Y-109056514D01*
X123948914Y-109151752D01*
X123901295Y-109199371D01*
X123806057Y-109246990D01*
X123425104Y-109246990D01*
X124425104Y-109723180D02*
X124425104Y-108723180D01*
X124663200Y-108723180D01*
X124806057Y-108770800D01*
X124901295Y-108866038D01*
X124948914Y-108961276D01*
X124996533Y-109151752D01*
X124996533Y-109294609D01*
X124948914Y-109485085D01*
X124901295Y-109580323D01*
X124806057Y-109675561D01*
X124663200Y-109723180D01*
X124425104Y-109723180D01*
X125901295Y-108723180D02*
X125425104Y-108723180D01*
X125377485Y-109199371D01*
X125425104Y-109151752D01*
X125520342Y-109104133D01*
X125758438Y-109104133D01*
X125853676Y-109151752D01*
X125901295Y-109199371D01*
X125948914Y-109294609D01*
X125948914Y-109532704D01*
X125901295Y-109627942D01*
X125853676Y-109675561D01*
X125758438Y-109723180D01*
X125520342Y-109723180D01*
X125425104Y-109675561D01*
X125377485Y-109627942D01*
X123469495Y-112164761D02*
X123612352Y-112212380D01*
X123850447Y-112212380D01*
X123945685Y-112164761D01*
X123993304Y-112117142D01*
X124040923Y-112021904D01*
X124040923Y-111926666D01*
X123993304Y-111831428D01*
X123945685Y-111783809D01*
X123850447Y-111736190D01*
X123659971Y-111688571D01*
X123564733Y-111640952D01*
X123517114Y-111593333D01*
X123469495Y-111498095D01*
X123469495Y-111402857D01*
X123517114Y-111307619D01*
X123564733Y-111260000D01*
X123659971Y-111212380D01*
X123898066Y-111212380D01*
X124040923Y-111260000D01*
X124945685Y-111212380D02*
X124469495Y-111212380D01*
X124421876Y-111688571D01*
X124469495Y-111640952D01*
X124564733Y-111593333D01*
X124802828Y-111593333D01*
X124898066Y-111640952D01*
X124945685Y-111688571D01*
X124993304Y-111783809D01*
X124993304Y-112021904D01*
X124945685Y-112117142D01*
X124898066Y-112164761D01*
X124802828Y-112212380D01*
X124564733Y-112212380D01*
X124469495Y-112164761D01*
X124421876Y-112117142D01*
X114006380Y-111129366D02*
X114006380Y-110462700D01*
X115006380Y-110891271D01*
X114339714Y-109653176D02*
X115006380Y-109653176D01*
X113958761Y-109891271D02*
X114673047Y-110129366D01*
X114673047Y-109510319D01*
X115006380Y-109129366D02*
X114006380Y-109129366D01*
X114482571Y-109129366D02*
X114482571Y-108557938D01*
X115006380Y-108557938D02*
X114006380Y-108557938D01*
X114911142Y-107510319D02*
X114958761Y-107557938D01*
X115006380Y-107700795D01*
X115006380Y-107796033D01*
X114958761Y-107938890D01*
X114863523Y-108034128D01*
X114768285Y-108081747D01*
X114577809Y-108129366D01*
X114434952Y-108129366D01*
X114244476Y-108081747D01*
X114149238Y-108034128D01*
X114054000Y-107938890D01*
X114006380Y-107796033D01*
X114006380Y-107700795D01*
X114054000Y-107557938D01*
X114101619Y-107510319D01*
X114006380Y-107224604D02*
X114006380Y-106653176D01*
X115006380Y-106938890D02*
X114006380Y-106938890D01*
X114006380Y-106129366D02*
X114006380Y-106034128D01*
X114054000Y-105938890D01*
X114101619Y-105891271D01*
X114196857Y-105843652D01*
X114387333Y-105796033D01*
X114625428Y-105796033D01*
X114815904Y-105843652D01*
X114911142Y-105891271D01*
X114958761Y-105938890D01*
X115006380Y-106034128D01*
X115006380Y-106129366D01*
X114958761Y-106224604D01*
X114911142Y-106272223D01*
X114815904Y-106319842D01*
X114625428Y-106367461D01*
X114387333Y-106367461D01*
X114196857Y-106319842D01*
X114101619Y-106272223D01*
X114054000Y-106224604D01*
X114006380Y-106129366D01*
X114101619Y-105415080D02*
X114054000Y-105367461D01*
X114006380Y-105272223D01*
X114006380Y-105034128D01*
X114054000Y-104938890D01*
X114101619Y-104891271D01*
X114196857Y-104843652D01*
X114292095Y-104843652D01*
X114434952Y-104891271D01*
X115006380Y-105462700D01*
X115006380Y-104843652D01*
X123277380Y-99267566D02*
X123277380Y-98600900D01*
X124277380Y-99029471D01*
X123610714Y-97791376D02*
X124277380Y-97791376D01*
X123229761Y-98029471D02*
X123944047Y-98267566D01*
X123944047Y-97648519D01*
X124277380Y-97267566D02*
X123277380Y-97267566D01*
X123753571Y-97267566D02*
X123753571Y-96696138D01*
X124277380Y-96696138D02*
X123277380Y-96696138D01*
X124182142Y-95648519D02*
X124229761Y-95696138D01*
X124277380Y-95838995D01*
X124277380Y-95934233D01*
X124229761Y-96077090D01*
X124134523Y-96172328D01*
X124039285Y-96219947D01*
X123848809Y-96267566D01*
X123705952Y-96267566D01*
X123515476Y-96219947D01*
X123420238Y-96172328D01*
X123325000Y-96077090D01*
X123277380Y-95934233D01*
X123277380Y-95838995D01*
X123325000Y-95696138D01*
X123372619Y-95648519D01*
X123277380Y-95362804D02*
X123277380Y-94791376D01*
X124277380Y-95077090D02*
X123277380Y-95077090D01*
X123277380Y-94267566D02*
X123277380Y-94172328D01*
X123325000Y-94077090D01*
X123372619Y-94029471D01*
X123467857Y-93981852D01*
X123658333Y-93934233D01*
X123896428Y-93934233D01*
X124086904Y-93981852D01*
X124182142Y-94029471D01*
X124229761Y-94077090D01*
X124277380Y-94172328D01*
X124277380Y-94267566D01*
X124229761Y-94362804D01*
X124182142Y-94410423D01*
X124086904Y-94458042D01*
X123896428Y-94505661D01*
X123658333Y-94505661D01*
X123467857Y-94458042D01*
X123372619Y-94410423D01*
X123325000Y-94362804D01*
X123277380Y-94267566D01*
X123372619Y-93553280D02*
X123325000Y-93505661D01*
X123277380Y-93410423D01*
X123277380Y-93172328D01*
X123325000Y-93077090D01*
X123372619Y-93029471D01*
X123467857Y-92981852D01*
X123563095Y-92981852D01*
X123705952Y-93029471D01*
X124277380Y-93600900D01*
X124277380Y-92981852D01*
X113879380Y-99394566D02*
X113879380Y-98727900D01*
X114879380Y-99156471D01*
X114212714Y-97918376D02*
X114879380Y-97918376D01*
X113831761Y-98156471D02*
X114546047Y-98394566D01*
X114546047Y-97775519D01*
X114879380Y-97394566D02*
X113879380Y-97394566D01*
X114355571Y-97394566D02*
X114355571Y-96823138D01*
X114879380Y-96823138D02*
X113879380Y-96823138D01*
X114784142Y-95775519D02*
X114831761Y-95823138D01*
X114879380Y-95965995D01*
X114879380Y-96061233D01*
X114831761Y-96204090D01*
X114736523Y-96299328D01*
X114641285Y-96346947D01*
X114450809Y-96394566D01*
X114307952Y-96394566D01*
X114117476Y-96346947D01*
X114022238Y-96299328D01*
X113927000Y-96204090D01*
X113879380Y-96061233D01*
X113879380Y-95965995D01*
X113927000Y-95823138D01*
X113974619Y-95775519D01*
X113879380Y-95489804D02*
X113879380Y-94918376D01*
X114879380Y-95204090D02*
X113879380Y-95204090D01*
X113879380Y-94680280D02*
X113879380Y-94013614D01*
X114879380Y-94442185D01*
X114212714Y-93204090D02*
X114879380Y-93204090D01*
X113831761Y-93442185D02*
X114546047Y-93680280D01*
X114546047Y-93061233D01*
X134647323Y-106684819D02*
X134694942Y-106637200D01*
X134790180Y-106589580D01*
X135028276Y-106589580D01*
X135123514Y-106637200D01*
X135171133Y-106684819D01*
X135218752Y-106780057D01*
X135218752Y-106875295D01*
X135171133Y-107018152D01*
X134599704Y-107589580D01*
X135218752Y-107589580D01*
X135552085Y-106589580D02*
X136218752Y-106589580D01*
X135790180Y-107589580D01*
X137171133Y-107494342D02*
X137123514Y-107541961D01*
X136980657Y-107589580D01*
X136885419Y-107589580D01*
X136742561Y-107541961D01*
X136647323Y-107446723D01*
X136599704Y-107351485D01*
X136552085Y-107161009D01*
X136552085Y-107018152D01*
X136599704Y-106827676D01*
X136647323Y-106732438D01*
X136742561Y-106637200D01*
X136885419Y-106589580D01*
X136980657Y-106589580D01*
X137123514Y-106637200D01*
X137171133Y-106684819D01*
X137790180Y-106589580D02*
X137885419Y-106589580D01*
X137980657Y-106637200D01*
X138028276Y-106684819D01*
X138075895Y-106780057D01*
X138123514Y-106970533D01*
X138123514Y-107208628D01*
X138075895Y-107399104D01*
X138028276Y-107494342D01*
X137980657Y-107541961D01*
X137885419Y-107589580D01*
X137790180Y-107589580D01*
X137694942Y-107541961D01*
X137647323Y-107494342D01*
X137599704Y-107399104D01*
X137552085Y-107208628D01*
X137552085Y-106970533D01*
X137599704Y-106780057D01*
X137647323Y-106684819D01*
X137694942Y-106637200D01*
X137790180Y-106589580D01*
X139075895Y-107589580D02*
X138504466Y-107589580D01*
X138790180Y-107589580D02*
X138790180Y-106589580D01*
X138694942Y-106732438D01*
X138599704Y-106827676D01*
X138504466Y-106875295D01*
X139694942Y-106589580D02*
X139790180Y-106589580D01*
X139885419Y-106637200D01*
X139933038Y-106684819D01*
X139980657Y-106780057D01*
X140028276Y-106970533D01*
X140028276Y-107208628D01*
X139980657Y-107399104D01*
X139933038Y-107494342D01*
X139885419Y-107541961D01*
X139790180Y-107589580D01*
X139694942Y-107589580D01*
X139599704Y-107541961D01*
X139552085Y-107494342D01*
X139504466Y-107399104D01*
X139456847Y-107208628D01*
X139456847Y-106970533D01*
X139504466Y-106780057D01*
X139552085Y-106684819D01*
X139599704Y-106637200D01*
X139694942Y-106589580D01*
D11*
X140048064Y-85196000D02*
X138843936Y-85196000D01*
X140048064Y-87016000D02*
X138843936Y-87016000D01*
X133509936Y-87016000D02*
X134714064Y-87016000D01*
X133509936Y-85196000D02*
X134714064Y-85196000D01*
X124782664Y-88574200D02*
X123578536Y-88574200D01*
X124782664Y-90394200D02*
X123578536Y-90394200D01*
X118956500Y-89070264D02*
X118956500Y-87866136D01*
X117136500Y-89070264D02*
X117136500Y-87866136D01*
X139252000Y-93278000D02*
X137922000Y-93278000D01*
X139252000Y-91948000D02*
X139252000Y-93278000D01*
X136652000Y-93278000D02*
X134052000Y-93278000D01*
X136652000Y-90678000D02*
X136652000Y-93278000D01*
X139252000Y-90678000D02*
X136652000Y-90678000D01*
X134052000Y-93278000D02*
X134052000Y-88078000D01*
X139252000Y-90678000D02*
X139252000Y-88078000D01*
X139252000Y-88078000D02*
X134052000Y-88078000D01*
X115919067Y-101953600D02*
X115576533Y-101953600D01*
X115919067Y-102973600D02*
X115576533Y-102973600D01*
X116533900Y-90950800D02*
X116533900Y-86565800D01*
X113513900Y-90950800D02*
X116533900Y-90950800D01*
X113513900Y-86565800D02*
X113513900Y-90950800D01*
D10*
X120861000Y-91637800D02*
X119486000Y-91637800D01*
X120861000Y-100512800D02*
X125011000Y-100512800D01*
X120861000Y-91612800D02*
X125011000Y-91612800D01*
X120861000Y-100512800D02*
X120861000Y-100397800D01*
X125011000Y-100512800D02*
X125011000Y-100397800D01*
X125011000Y-91612800D02*
X125011000Y-91727800D01*
X120861000Y-91612800D02*
X120861000Y-91637800D01*
X111615400Y-103575800D02*
X110240400Y-103575800D01*
X111615400Y-112450800D02*
X115765400Y-112450800D01*
X111615400Y-103550800D02*
X115765400Y-103550800D01*
X111615400Y-112450800D02*
X111615400Y-112335800D01*
X115765400Y-112450800D02*
X115765400Y-112335800D01*
X115765400Y-103550800D02*
X115765400Y-103665800D01*
X111615400Y-103550800D02*
X111615400Y-103575800D01*
D11*
X145821400Y-96215200D02*
X139014200Y-96215200D01*
X145821400Y-115519200D02*
X145821400Y-96215200D01*
X128651000Y-115519200D02*
X145821400Y-115519200D01*
X128651000Y-97028000D02*
X128651000Y-115519200D01*
X129463800Y-96215200D02*
X137896600Y-96215200D01*
X128651000Y-97028000D02*
X129463800Y-96215200D01*
X122361000Y-113013800D02*
X121031000Y-113013800D01*
X122361000Y-111683800D02*
X122361000Y-113013800D01*
X122361000Y-110413800D02*
X119701000Y-110413800D01*
X119701000Y-110413800D02*
X119701000Y-102733800D01*
X122361000Y-110413800D02*
X122361000Y-102733800D01*
X122361000Y-102733800D02*
X119701000Y-102733800D01*
X113054100Y-90950800D02*
X113054100Y-86565800D01*
X110034100Y-90950800D02*
X113054100Y-90950800D01*
X110034100Y-86565800D02*
X110034100Y-90950800D01*
D10*
X111615400Y-91637800D02*
X110240400Y-91637800D01*
X111615400Y-100512800D02*
X115765400Y-100512800D01*
X111615400Y-91612800D02*
X115765400Y-91612800D01*
X111615400Y-100512800D02*
X111615400Y-100397800D01*
X115765400Y-100512800D02*
X115765400Y-100397800D01*
X115765400Y-91612800D02*
X115765400Y-91727800D01*
X111615400Y-91612800D02*
X111615400Y-91637800D01*
D11*
X124782664Y-86085000D02*
X123578536Y-86085000D01*
X124782664Y-87905000D02*
X123578536Y-87905000D01*
X128286200Y-85487200D02*
X129616200Y-85487200D01*
X128286200Y-86817200D02*
X128286200Y-85487200D01*
X128286200Y-88087200D02*
X130946200Y-88087200D01*
X130946200Y-88087200D02*
X130946200Y-116087200D01*
X128286200Y-88087200D02*
X128286200Y-116087200D01*
X128286200Y-116087200D02*
X130946200Y-116087200D01*
X143526200Y-85487200D02*
X144856200Y-85487200D01*
X143526200Y-86817200D02*
X143526200Y-85487200D01*
X143526200Y-88087200D02*
X146186200Y-88087200D01*
X146186200Y-88087200D02*
X146186200Y-116087200D01*
X143526200Y-88087200D02*
X143526200Y-116087200D01*
X143526200Y-116087200D02*
X146186200Y-116087200D01*
D10*
X141311333Y-89860380D02*
X140978000Y-89384190D01*
X140739904Y-89860380D02*
X140739904Y-88860380D01*
X141120857Y-88860380D01*
X141216095Y-88908000D01*
X141263714Y-88955619D01*
X141311333Y-89050857D01*
X141311333Y-89193714D01*
X141263714Y-89288952D01*
X141216095Y-89336571D01*
X141120857Y-89384190D01*
X140739904Y-89384190D01*
X141644666Y-88860380D02*
X142263714Y-88860380D01*
X141930380Y-89241333D01*
X142073238Y-89241333D01*
X142168476Y-89288952D01*
X142216095Y-89336571D01*
X142263714Y-89431809D01*
X142263714Y-89669904D01*
X142216095Y-89765142D01*
X142168476Y-89812761D01*
X142073238Y-89860380D01*
X141787523Y-89860380D01*
X141692285Y-89812761D01*
X141644666Y-89765142D01*
X141311333Y-88336380D02*
X140978000Y-87860190D01*
X140739904Y-88336380D02*
X140739904Y-87336380D01*
X141120857Y-87336380D01*
X141216095Y-87384000D01*
X141263714Y-87431619D01*
X141311333Y-87526857D01*
X141311333Y-87669714D01*
X141263714Y-87764952D01*
X141216095Y-87812571D01*
X141120857Y-87860190D01*
X140739904Y-87860190D01*
X141692285Y-87431619D02*
X141739904Y-87384000D01*
X141835142Y-87336380D01*
X142073238Y-87336380D01*
X142168476Y-87384000D01*
X142216095Y-87431619D01*
X142263714Y-87526857D01*
X142263714Y-87622095D01*
X142216095Y-87764952D01*
X141644666Y-88336380D01*
X142263714Y-88336380D01*
X120508733Y-89993742D02*
X120461114Y-90041361D01*
X120318257Y-90088980D01*
X120223019Y-90088980D01*
X120080161Y-90041361D01*
X119984923Y-89946123D01*
X119937304Y-89850885D01*
X119889685Y-89660409D01*
X119889685Y-89517552D01*
X119937304Y-89327076D01*
X119984923Y-89231838D01*
X120080161Y-89136600D01*
X120223019Y-89088980D01*
X120318257Y-89088980D01*
X120461114Y-89136600D01*
X120508733Y-89184219D01*
X120842066Y-89088980D02*
X121508733Y-89088980D01*
X121080161Y-90088980D01*
X120089633Y-86132942D02*
X120042014Y-86180561D01*
X119899157Y-86228180D01*
X119803919Y-86228180D01*
X119661061Y-86180561D01*
X119565823Y-86085323D01*
X119518204Y-85990085D01*
X119470585Y-85799609D01*
X119470585Y-85656752D01*
X119518204Y-85466276D01*
X119565823Y-85371038D01*
X119661061Y-85275800D01*
X119803919Y-85228180D01*
X119899157Y-85228180D01*
X120042014Y-85275800D01*
X120089633Y-85323419D01*
X121042014Y-86228180D02*
X120470585Y-86228180D01*
X120756300Y-86228180D02*
X120756300Y-85228180D01*
X120661061Y-85371038D01*
X120565823Y-85466276D01*
X120470585Y-85513895D01*
X136318666Y-93730380D02*
X136318666Y-94444666D01*
X136271047Y-94587523D01*
X136175809Y-94682761D01*
X136032952Y-94730380D01*
X135937714Y-94730380D01*
X136699619Y-93730380D02*
X137318666Y-93730380D01*
X136985333Y-94111333D01*
X137128190Y-94111333D01*
X137223428Y-94158952D01*
X137271047Y-94206571D01*
X137318666Y-94301809D01*
X137318666Y-94539904D01*
X137271047Y-94635142D01*
X137223428Y-94682761D01*
X137128190Y-94730380D01*
X136842476Y-94730380D01*
X136747238Y-94682761D01*
X136699619Y-94635142D01*
X113260142Y-102477866D02*
X113307761Y-102525485D01*
X113355380Y-102668342D01*
X113355380Y-102763580D01*
X113307761Y-102906438D01*
X113212523Y-103001676D01*
X113117285Y-103049295D01*
X112926809Y-103096914D01*
X112783952Y-103096914D01*
X112593476Y-103049295D01*
X112498238Y-103001676D01*
X112403000Y-102906438D01*
X112355380Y-102763580D01*
X112355380Y-102668342D01*
X112403000Y-102525485D01*
X112450619Y-102477866D01*
X112450619Y-102096914D02*
X112403000Y-102049295D01*
X112355380Y-101954057D01*
X112355380Y-101715961D01*
X112403000Y-101620723D01*
X112450619Y-101573104D01*
X112545857Y-101525485D01*
X112641095Y-101525485D01*
X112783952Y-101573104D01*
X113355380Y-102144533D01*
X113355380Y-101525485D01*
X114933433Y-88622142D02*
X114885814Y-88669761D01*
X114742957Y-88717380D01*
X114647719Y-88717380D01*
X114504861Y-88669761D01*
X114409623Y-88574523D01*
X114362004Y-88479285D01*
X114314385Y-88288809D01*
X114314385Y-88145952D01*
X114362004Y-87955476D01*
X114409623Y-87860238D01*
X114504861Y-87765000D01*
X114647719Y-87717380D01*
X114742957Y-87717380D01*
X114885814Y-87765000D01*
X114933433Y-87812619D01*
X115838195Y-87717380D02*
X115362004Y-87717380D01*
X115314385Y-88193571D01*
X115362004Y-88145952D01*
X115457242Y-88098333D01*
X115695338Y-88098333D01*
X115790576Y-88145952D01*
X115838195Y-88193571D01*
X115885814Y-88288809D01*
X115885814Y-88526904D01*
X115838195Y-88622142D01*
X115790576Y-88669761D01*
X115695338Y-88717380D01*
X115457242Y-88717380D01*
X115362004Y-88669761D01*
X115314385Y-88622142D01*
X121753380Y-96735804D02*
X122562904Y-96735804D01*
X122658142Y-96688185D01*
X122705761Y-96640566D01*
X122753380Y-96545328D01*
X122753380Y-96354852D01*
X122705761Y-96259614D01*
X122658142Y-96211995D01*
X122562904Y-96164376D01*
X121753380Y-96164376D01*
X121753380Y-95783423D02*
X121753380Y-95164376D01*
X122134333Y-95497709D01*
X122134333Y-95354852D01*
X122181952Y-95259614D01*
X122229571Y-95211995D01*
X122324809Y-95164376D01*
X122562904Y-95164376D01*
X122658142Y-95211995D01*
X122705761Y-95259614D01*
X122753380Y-95354852D01*
X122753380Y-95640566D01*
X122705761Y-95735804D01*
X122658142Y-95783423D01*
X112482380Y-108788104D02*
X113291904Y-108788104D01*
X113387142Y-108740485D01*
X113434761Y-108692866D01*
X113482380Y-108597628D01*
X113482380Y-108407152D01*
X113434761Y-108311914D01*
X113387142Y-108264295D01*
X113291904Y-108216676D01*
X112482380Y-108216676D01*
X112815714Y-107311914D02*
X113482380Y-107311914D01*
X112434761Y-107550009D02*
X113149047Y-107788104D01*
X113149047Y-107169057D01*
X136347295Y-103897180D02*
X136347295Y-104706704D01*
X136394914Y-104801942D01*
X136442533Y-104849561D01*
X136537771Y-104897180D01*
X136728247Y-104897180D01*
X136823485Y-104849561D01*
X136871104Y-104801942D01*
X136918723Y-104706704D01*
X136918723Y-103897180D01*
X137918723Y-104897180D02*
X137347295Y-104897180D01*
X137633009Y-104897180D02*
X137633009Y-103897180D01*
X137537771Y-104040038D01*
X137442533Y-104135276D01*
X137347295Y-104182895D01*
X120773866Y-101382580D02*
X120773866Y-102096866D01*
X120726247Y-102239723D01*
X120631009Y-102334961D01*
X120488152Y-102382580D01*
X120392914Y-102382580D01*
X121678628Y-101382580D02*
X121488152Y-101382580D01*
X121392914Y-101430200D01*
X121345295Y-101477819D01*
X121250057Y-101620676D01*
X121202438Y-101811152D01*
X121202438Y-102192104D01*
X121250057Y-102287342D01*
X121297676Y-102334961D01*
X121392914Y-102382580D01*
X121583390Y-102382580D01*
X121678628Y-102334961D01*
X121726247Y-102287342D01*
X121773866Y-102192104D01*
X121773866Y-101954009D01*
X121726247Y-101858771D01*
X121678628Y-101811152D01*
X121583390Y-101763533D01*
X121392914Y-101763533D01*
X121297676Y-101811152D01*
X121250057Y-101858771D01*
X121202438Y-101954009D01*
X111352033Y-88622142D02*
X111304414Y-88669761D01*
X111161557Y-88717380D01*
X111066319Y-88717380D01*
X110923461Y-88669761D01*
X110828223Y-88574523D01*
X110780604Y-88479285D01*
X110732985Y-88288809D01*
X110732985Y-88145952D01*
X110780604Y-87955476D01*
X110828223Y-87860238D01*
X110923461Y-87765000D01*
X111066319Y-87717380D01*
X111161557Y-87717380D01*
X111304414Y-87765000D01*
X111352033Y-87812619D01*
X112209176Y-87717380D02*
X112018700Y-87717380D01*
X111923461Y-87765000D01*
X111875842Y-87812619D01*
X111780604Y-87955476D01*
X111732985Y-88145952D01*
X111732985Y-88526904D01*
X111780604Y-88622142D01*
X111828223Y-88669761D01*
X111923461Y-88717380D01*
X112113938Y-88717380D01*
X112209176Y-88669761D01*
X112256795Y-88622142D01*
X112304414Y-88526904D01*
X112304414Y-88288809D01*
X112256795Y-88193571D01*
X112209176Y-88145952D01*
X112113938Y-88098333D01*
X111923461Y-88098333D01*
X111828223Y-88145952D01*
X111780604Y-88193571D01*
X111732985Y-88288809D01*
X112355380Y-96608804D02*
X113164904Y-96608804D01*
X113260142Y-96561185D01*
X113307761Y-96513566D01*
X113355380Y-96418328D01*
X113355380Y-96227852D01*
X113307761Y-96132614D01*
X113260142Y-96084995D01*
X113164904Y-96037376D01*
X112355380Y-96037376D01*
X112450619Y-95608804D02*
X112403000Y-95561185D01*
X112355380Y-95465947D01*
X112355380Y-95227852D01*
X112403000Y-95132614D01*
X112450619Y-95084995D01*
X112545857Y-95037376D01*
X112641095Y-95037376D01*
X112783952Y-95084995D01*
X113355380Y-95656423D01*
X113355380Y-95037376D01*
X120584933Y-87472780D02*
X120251600Y-86996590D01*
X120013504Y-87472780D02*
X120013504Y-86472780D01*
X120394457Y-86472780D01*
X120489695Y-86520400D01*
X120537314Y-86568019D01*
X120584933Y-86663257D01*
X120584933Y-86806114D01*
X120537314Y-86901352D01*
X120489695Y-86948971D01*
X120394457Y-86996590D01*
X120013504Y-86996590D01*
X121537314Y-87472780D02*
X120965885Y-87472780D01*
X121251600Y-87472780D02*
X121251600Y-86472780D01*
X121156361Y-86615638D01*
X121061123Y-86710876D01*
X120965885Y-86758495D01*
X131278380Y-94922933D02*
X131992666Y-94922933D01*
X132135523Y-94970552D01*
X132230761Y-95065790D01*
X132278380Y-95208647D01*
X132278380Y-95303885D01*
X132278380Y-93922933D02*
X132278380Y-94494361D01*
X132278380Y-94208647D02*
X131278380Y-94208647D01*
X131421238Y-94303885D01*
X131516476Y-94399123D01*
X131564095Y-94494361D01*
X142276580Y-94973733D02*
X142990866Y-94973733D01*
X143133723Y-95021352D01*
X143228961Y-95116590D01*
X143276580Y-95259447D01*
X143276580Y-95354685D01*
X142371819Y-94545161D02*
X142324200Y-94497542D01*
X142276580Y-94402304D01*
X142276580Y-94164209D01*
X142324200Y-94068971D01*
X142371819Y-94021352D01*
X142467057Y-93973733D01*
X142562295Y-93973733D01*
X142705152Y-94021352D01*
X143276580Y-94592780D01*
X143276580Y-93973733D01*
%LPC*%
D12*
G36*
X138480363Y-85181290D02*
G01*
X138506369Y-85185148D01*
X138531871Y-85191535D01*
X138556624Y-85200392D01*
X138580390Y-85211633D01*
X138602939Y-85225148D01*
X138624056Y-85240809D01*
X138643535Y-85258465D01*
X138661191Y-85277944D01*
X138676852Y-85299061D01*
X138690367Y-85321610D01*
X138701608Y-85345376D01*
X138710465Y-85370129D01*
X138716852Y-85395631D01*
X138720710Y-85421637D01*
X138722000Y-85447895D01*
X138722000Y-86764105D01*
X138720710Y-86790363D01*
X138716852Y-86816369D01*
X138710465Y-86841871D01*
X138701608Y-86866624D01*
X138690367Y-86890390D01*
X138676852Y-86912939D01*
X138661191Y-86934056D01*
X138643535Y-86953535D01*
X138624056Y-86971191D01*
X138602939Y-86986852D01*
X138580390Y-87000367D01*
X138556624Y-87011608D01*
X138531871Y-87020465D01*
X138506369Y-87026852D01*
X138480363Y-87030710D01*
X138454105Y-87032000D01*
X137462895Y-87032000D01*
X137436637Y-87030710D01*
X137410631Y-87026852D01*
X137385129Y-87020465D01*
X137360376Y-87011608D01*
X137336610Y-87000367D01*
X137314061Y-86986852D01*
X137292944Y-86971191D01*
X137273465Y-86953535D01*
X137255809Y-86934056D01*
X137240148Y-86912939D01*
X137226633Y-86890390D01*
X137215392Y-86866624D01*
X137206535Y-86841871D01*
X137200148Y-86816369D01*
X137196290Y-86790363D01*
X137195000Y-86764105D01*
X137195000Y-85447895D01*
X137196290Y-85421637D01*
X137200148Y-85395631D01*
X137206535Y-85370129D01*
X137215392Y-85345376D01*
X137226633Y-85321610D01*
X137240148Y-85299061D01*
X137255809Y-85277944D01*
X137273465Y-85258465D01*
X137292944Y-85240809D01*
X137314061Y-85225148D01*
X137336610Y-85211633D01*
X137360376Y-85200392D01*
X137385129Y-85191535D01*
X137410631Y-85185148D01*
X137436637Y-85181290D01*
X137462895Y-85180000D01*
X138454105Y-85180000D01*
X138480363Y-85181290D01*
X138480363Y-85181290D01*
G37*
D13*
X137958500Y-86106000D03*
D12*
G36*
X141455363Y-85181290D02*
G01*
X141481369Y-85185148D01*
X141506871Y-85191535D01*
X141531624Y-85200392D01*
X141555390Y-85211633D01*
X141577939Y-85225148D01*
X141599056Y-85240809D01*
X141618535Y-85258465D01*
X141636191Y-85277944D01*
X141651852Y-85299061D01*
X141665367Y-85321610D01*
X141676608Y-85345376D01*
X141685465Y-85370129D01*
X141691852Y-85395631D01*
X141695710Y-85421637D01*
X141697000Y-85447895D01*
X141697000Y-86764105D01*
X141695710Y-86790363D01*
X141691852Y-86816369D01*
X141685465Y-86841871D01*
X141676608Y-86866624D01*
X141665367Y-86890390D01*
X141651852Y-86912939D01*
X141636191Y-86934056D01*
X141618535Y-86953535D01*
X141599056Y-86971191D01*
X141577939Y-86986852D01*
X141555390Y-87000367D01*
X141531624Y-87011608D01*
X141506871Y-87020465D01*
X141481369Y-87026852D01*
X141455363Y-87030710D01*
X141429105Y-87032000D01*
X140437895Y-87032000D01*
X140411637Y-87030710D01*
X140385631Y-87026852D01*
X140360129Y-87020465D01*
X140335376Y-87011608D01*
X140311610Y-87000367D01*
X140289061Y-86986852D01*
X140267944Y-86971191D01*
X140248465Y-86953535D01*
X140230809Y-86934056D01*
X140215148Y-86912939D01*
X140201633Y-86890390D01*
X140190392Y-86866624D01*
X140181535Y-86841871D01*
X140175148Y-86816369D01*
X140171290Y-86790363D01*
X140170000Y-86764105D01*
X140170000Y-85447895D01*
X140171290Y-85421637D01*
X140175148Y-85395631D01*
X140181535Y-85370129D01*
X140190392Y-85345376D01*
X140201633Y-85321610D01*
X140215148Y-85299061D01*
X140230809Y-85277944D01*
X140248465Y-85258465D01*
X140267944Y-85240809D01*
X140289061Y-85225148D01*
X140311610Y-85211633D01*
X140335376Y-85200392D01*
X140360129Y-85191535D01*
X140385631Y-85185148D01*
X140411637Y-85181290D01*
X140437895Y-85180000D01*
X141429105Y-85180000D01*
X141455363Y-85181290D01*
X141455363Y-85181290D01*
G37*
D13*
X140933500Y-86106000D03*
D12*
G36*
X136121363Y-85181290D02*
G01*
X136147369Y-85185148D01*
X136172871Y-85191535D01*
X136197624Y-85200392D01*
X136221390Y-85211633D01*
X136243939Y-85225148D01*
X136265056Y-85240809D01*
X136284535Y-85258465D01*
X136302191Y-85277944D01*
X136317852Y-85299061D01*
X136331367Y-85321610D01*
X136342608Y-85345376D01*
X136351465Y-85370129D01*
X136357852Y-85395631D01*
X136361710Y-85421637D01*
X136363000Y-85447895D01*
X136363000Y-86764105D01*
X136361710Y-86790363D01*
X136357852Y-86816369D01*
X136351465Y-86841871D01*
X136342608Y-86866624D01*
X136331367Y-86890390D01*
X136317852Y-86912939D01*
X136302191Y-86934056D01*
X136284535Y-86953535D01*
X136265056Y-86971191D01*
X136243939Y-86986852D01*
X136221390Y-87000367D01*
X136197624Y-87011608D01*
X136172871Y-87020465D01*
X136147369Y-87026852D01*
X136121363Y-87030710D01*
X136095105Y-87032000D01*
X135103895Y-87032000D01*
X135077637Y-87030710D01*
X135051631Y-87026852D01*
X135026129Y-87020465D01*
X135001376Y-87011608D01*
X134977610Y-87000367D01*
X134955061Y-86986852D01*
X134933944Y-86971191D01*
X134914465Y-86953535D01*
X134896809Y-86934056D01*
X134881148Y-86912939D01*
X134867633Y-86890390D01*
X134856392Y-86866624D01*
X134847535Y-86841871D01*
X134841148Y-86816369D01*
X134837290Y-86790363D01*
X134836000Y-86764105D01*
X134836000Y-85447895D01*
X134837290Y-85421637D01*
X134841148Y-85395631D01*
X134847535Y-85370129D01*
X134856392Y-85345376D01*
X134867633Y-85321610D01*
X134881148Y-85299061D01*
X134896809Y-85277944D01*
X134914465Y-85258465D01*
X134933944Y-85240809D01*
X134955061Y-85225148D01*
X134977610Y-85211633D01*
X135001376Y-85200392D01*
X135026129Y-85191535D01*
X135051631Y-85185148D01*
X135077637Y-85181290D01*
X135103895Y-85180000D01*
X136095105Y-85180000D01*
X136121363Y-85181290D01*
X136121363Y-85181290D01*
G37*
D13*
X135599500Y-86106000D03*
D12*
G36*
X133146363Y-85181290D02*
G01*
X133172369Y-85185148D01*
X133197871Y-85191535D01*
X133222624Y-85200392D01*
X133246390Y-85211633D01*
X133268939Y-85225148D01*
X133290056Y-85240809D01*
X133309535Y-85258465D01*
X133327191Y-85277944D01*
X133342852Y-85299061D01*
X133356367Y-85321610D01*
X133367608Y-85345376D01*
X133376465Y-85370129D01*
X133382852Y-85395631D01*
X133386710Y-85421637D01*
X133388000Y-85447895D01*
X133388000Y-86764105D01*
X133386710Y-86790363D01*
X133382852Y-86816369D01*
X133376465Y-86841871D01*
X133367608Y-86866624D01*
X133356367Y-86890390D01*
X133342852Y-86912939D01*
X133327191Y-86934056D01*
X133309535Y-86953535D01*
X133290056Y-86971191D01*
X133268939Y-86986852D01*
X133246390Y-87000367D01*
X133222624Y-87011608D01*
X133197871Y-87020465D01*
X133172369Y-87026852D01*
X133146363Y-87030710D01*
X133120105Y-87032000D01*
X132128895Y-87032000D01*
X132102637Y-87030710D01*
X132076631Y-87026852D01*
X132051129Y-87020465D01*
X132026376Y-87011608D01*
X132002610Y-87000367D01*
X131980061Y-86986852D01*
X131958944Y-86971191D01*
X131939465Y-86953535D01*
X131921809Y-86934056D01*
X131906148Y-86912939D01*
X131892633Y-86890390D01*
X131881392Y-86866624D01*
X131872535Y-86841871D01*
X131866148Y-86816369D01*
X131862290Y-86790363D01*
X131861000Y-86764105D01*
X131861000Y-85447895D01*
X131862290Y-85421637D01*
X131866148Y-85395631D01*
X131872535Y-85370129D01*
X131881392Y-85345376D01*
X131892633Y-85321610D01*
X131906148Y-85299061D01*
X131921809Y-85277944D01*
X131939465Y-85258465D01*
X131958944Y-85240809D01*
X131980061Y-85225148D01*
X132002610Y-85211633D01*
X132026376Y-85200392D01*
X132051129Y-85191535D01*
X132076631Y-85185148D01*
X132102637Y-85181290D01*
X132128895Y-85180000D01*
X133120105Y-85180000D01*
X133146363Y-85181290D01*
X133146363Y-85181290D01*
G37*
D13*
X132624500Y-86106000D03*
D12*
G36*
X123214963Y-88559490D02*
G01*
X123240969Y-88563348D01*
X123266471Y-88569735D01*
X123291224Y-88578592D01*
X123314990Y-88589833D01*
X123337539Y-88603348D01*
X123358656Y-88619009D01*
X123378135Y-88636665D01*
X123395791Y-88656144D01*
X123411452Y-88677261D01*
X123424967Y-88699810D01*
X123436208Y-88723576D01*
X123445065Y-88748329D01*
X123451452Y-88773831D01*
X123455310Y-88799837D01*
X123456600Y-88826095D01*
X123456600Y-90142305D01*
X123455310Y-90168563D01*
X123451452Y-90194569D01*
X123445065Y-90220071D01*
X123436208Y-90244824D01*
X123424967Y-90268590D01*
X123411452Y-90291139D01*
X123395791Y-90312256D01*
X123378135Y-90331735D01*
X123358656Y-90349391D01*
X123337539Y-90365052D01*
X123314990Y-90378567D01*
X123291224Y-90389808D01*
X123266471Y-90398665D01*
X123240969Y-90405052D01*
X123214963Y-90408910D01*
X123188705Y-90410200D01*
X122197495Y-90410200D01*
X122171237Y-90408910D01*
X122145231Y-90405052D01*
X122119729Y-90398665D01*
X122094976Y-90389808D01*
X122071210Y-90378567D01*
X122048661Y-90365052D01*
X122027544Y-90349391D01*
X122008065Y-90331735D01*
X121990409Y-90312256D01*
X121974748Y-90291139D01*
X121961233Y-90268590D01*
X121949992Y-90244824D01*
X121941135Y-90220071D01*
X121934748Y-90194569D01*
X121930890Y-90168563D01*
X121929600Y-90142305D01*
X121929600Y-88826095D01*
X121930890Y-88799837D01*
X121934748Y-88773831D01*
X121941135Y-88748329D01*
X121949992Y-88723576D01*
X121961233Y-88699810D01*
X121974748Y-88677261D01*
X121990409Y-88656144D01*
X122008065Y-88636665D01*
X122027544Y-88619009D01*
X122048661Y-88603348D01*
X122071210Y-88589833D01*
X122094976Y-88578592D01*
X122119729Y-88569735D01*
X122145231Y-88563348D01*
X122171237Y-88559490D01*
X122197495Y-88558200D01*
X123188705Y-88558200D01*
X123214963Y-88559490D01*
X123214963Y-88559490D01*
G37*
D13*
X122693100Y-89484200D03*
D12*
G36*
X126189963Y-88559490D02*
G01*
X126215969Y-88563348D01*
X126241471Y-88569735D01*
X126266224Y-88578592D01*
X126289990Y-88589833D01*
X126312539Y-88603348D01*
X126333656Y-88619009D01*
X126353135Y-88636665D01*
X126370791Y-88656144D01*
X126386452Y-88677261D01*
X126399967Y-88699810D01*
X126411208Y-88723576D01*
X126420065Y-88748329D01*
X126426452Y-88773831D01*
X126430310Y-88799837D01*
X126431600Y-88826095D01*
X126431600Y-90142305D01*
X126430310Y-90168563D01*
X126426452Y-90194569D01*
X126420065Y-90220071D01*
X126411208Y-90244824D01*
X126399967Y-90268590D01*
X126386452Y-90291139D01*
X126370791Y-90312256D01*
X126353135Y-90331735D01*
X126333656Y-90349391D01*
X126312539Y-90365052D01*
X126289990Y-90378567D01*
X126266224Y-90389808D01*
X126241471Y-90398665D01*
X126215969Y-90405052D01*
X126189963Y-90408910D01*
X126163705Y-90410200D01*
X125172495Y-90410200D01*
X125146237Y-90408910D01*
X125120231Y-90405052D01*
X125094729Y-90398665D01*
X125069976Y-90389808D01*
X125046210Y-90378567D01*
X125023661Y-90365052D01*
X125002544Y-90349391D01*
X124983065Y-90331735D01*
X124965409Y-90312256D01*
X124949748Y-90291139D01*
X124936233Y-90268590D01*
X124924992Y-90244824D01*
X124916135Y-90220071D01*
X124909748Y-90194569D01*
X124905890Y-90168563D01*
X124904600Y-90142305D01*
X124904600Y-88826095D01*
X124905890Y-88799837D01*
X124909748Y-88773831D01*
X124916135Y-88748329D01*
X124924992Y-88723576D01*
X124936233Y-88699810D01*
X124949748Y-88677261D01*
X124965409Y-88656144D01*
X124983065Y-88636665D01*
X125002544Y-88619009D01*
X125023661Y-88603348D01*
X125046210Y-88589833D01*
X125069976Y-88578592D01*
X125094729Y-88569735D01*
X125120231Y-88563348D01*
X125146237Y-88559490D01*
X125172495Y-88558200D01*
X126163705Y-88558200D01*
X126189963Y-88559490D01*
X126189963Y-88559490D01*
G37*
D13*
X125668100Y-89484200D03*
D12*
G36*
X118730863Y-86218490D02*
G01*
X118756869Y-86222348D01*
X118782371Y-86228735D01*
X118807124Y-86237592D01*
X118830890Y-86248833D01*
X118853439Y-86262348D01*
X118874556Y-86278009D01*
X118894035Y-86295665D01*
X118911691Y-86315144D01*
X118927352Y-86336261D01*
X118940867Y-86358810D01*
X118952108Y-86382576D01*
X118960965Y-86407329D01*
X118967352Y-86432831D01*
X118971210Y-86458837D01*
X118972500Y-86485095D01*
X118972500Y-87476305D01*
X118971210Y-87502563D01*
X118967352Y-87528569D01*
X118960965Y-87554071D01*
X118952108Y-87578824D01*
X118940867Y-87602590D01*
X118927352Y-87625139D01*
X118911691Y-87646256D01*
X118894035Y-87665735D01*
X118874556Y-87683391D01*
X118853439Y-87699052D01*
X118830890Y-87712567D01*
X118807124Y-87723808D01*
X118782371Y-87732665D01*
X118756869Y-87739052D01*
X118730863Y-87742910D01*
X118704605Y-87744200D01*
X117388395Y-87744200D01*
X117362137Y-87742910D01*
X117336131Y-87739052D01*
X117310629Y-87732665D01*
X117285876Y-87723808D01*
X117262110Y-87712567D01*
X117239561Y-87699052D01*
X117218444Y-87683391D01*
X117198965Y-87665735D01*
X117181309Y-87646256D01*
X117165648Y-87625139D01*
X117152133Y-87602590D01*
X117140892Y-87578824D01*
X117132035Y-87554071D01*
X117125648Y-87528569D01*
X117121790Y-87502563D01*
X117120500Y-87476305D01*
X117120500Y-86485095D01*
X117121790Y-86458837D01*
X117125648Y-86432831D01*
X117132035Y-86407329D01*
X117140892Y-86382576D01*
X117152133Y-86358810D01*
X117165648Y-86336261D01*
X117181309Y-86315144D01*
X117198965Y-86295665D01*
X117218444Y-86278009D01*
X117239561Y-86262348D01*
X117262110Y-86248833D01*
X117285876Y-86237592D01*
X117310629Y-86228735D01*
X117336131Y-86222348D01*
X117362137Y-86218490D01*
X117388395Y-86217200D01*
X118704605Y-86217200D01*
X118730863Y-86218490D01*
X118730863Y-86218490D01*
G37*
D13*
X118046500Y-86980700D03*
D12*
G36*
X118730863Y-89193490D02*
G01*
X118756869Y-89197348D01*
X118782371Y-89203735D01*
X118807124Y-89212592D01*
X118830890Y-89223833D01*
X118853439Y-89237348D01*
X118874556Y-89253009D01*
X118894035Y-89270665D01*
X118911691Y-89290144D01*
X118927352Y-89311261D01*
X118940867Y-89333810D01*
X118952108Y-89357576D01*
X118960965Y-89382329D01*
X118967352Y-89407831D01*
X118971210Y-89433837D01*
X118972500Y-89460095D01*
X118972500Y-90451305D01*
X118971210Y-90477563D01*
X118967352Y-90503569D01*
X118960965Y-90529071D01*
X118952108Y-90553824D01*
X118940867Y-90577590D01*
X118927352Y-90600139D01*
X118911691Y-90621256D01*
X118894035Y-90640735D01*
X118874556Y-90658391D01*
X118853439Y-90674052D01*
X118830890Y-90687567D01*
X118807124Y-90698808D01*
X118782371Y-90707665D01*
X118756869Y-90714052D01*
X118730863Y-90717910D01*
X118704605Y-90719200D01*
X117388395Y-90719200D01*
X117362137Y-90717910D01*
X117336131Y-90714052D01*
X117310629Y-90707665D01*
X117285876Y-90698808D01*
X117262110Y-90687567D01*
X117239561Y-90674052D01*
X117218444Y-90658391D01*
X117198965Y-90640735D01*
X117181309Y-90621256D01*
X117165648Y-90600139D01*
X117152133Y-90577590D01*
X117140892Y-90553824D01*
X117132035Y-90529071D01*
X117125648Y-90503569D01*
X117121790Y-90477563D01*
X117120500Y-90451305D01*
X117120500Y-89460095D01*
X117121790Y-89433837D01*
X117125648Y-89407831D01*
X117132035Y-89382329D01*
X117140892Y-89357576D01*
X117152133Y-89333810D01*
X117165648Y-89311261D01*
X117181309Y-89290144D01*
X117198965Y-89270665D01*
X117218444Y-89253009D01*
X117239561Y-89237348D01*
X117262110Y-89223833D01*
X117285876Y-89212592D01*
X117310629Y-89203735D01*
X117336131Y-89197348D01*
X117362137Y-89193490D01*
X117388395Y-89192200D01*
X118704605Y-89192200D01*
X118730863Y-89193490D01*
X118730863Y-89193490D01*
G37*
D13*
X118046500Y-89955700D03*
D14*
X135382000Y-89408000D03*
X137922000Y-89408000D03*
X135382000Y-91948000D03*
D15*
X137922000Y-91948000D03*
D12*
G36*
X115211579Y-101938866D02*
G01*
X115237109Y-101942653D01*
X115262145Y-101948925D01*
X115286446Y-101957620D01*
X115309777Y-101968655D01*
X115331915Y-101981923D01*
X115352645Y-101997298D01*
X115371769Y-102014631D01*
X115389102Y-102033755D01*
X115404477Y-102054485D01*
X115417745Y-102076623D01*
X115428780Y-102099954D01*
X115437475Y-102124255D01*
X115443747Y-102149291D01*
X115447534Y-102174821D01*
X115448800Y-102200600D01*
X115448800Y-102726600D01*
X115447534Y-102752379D01*
X115443747Y-102777909D01*
X115437475Y-102802945D01*
X115428780Y-102827246D01*
X115417745Y-102850577D01*
X115404477Y-102872715D01*
X115389102Y-102893445D01*
X115371769Y-102912569D01*
X115352645Y-102929902D01*
X115331915Y-102945277D01*
X115309777Y-102958545D01*
X115286446Y-102969580D01*
X115262145Y-102978275D01*
X115237109Y-102984547D01*
X115211579Y-102988334D01*
X115185800Y-102989600D01*
X114559800Y-102989600D01*
X114534021Y-102988334D01*
X114508491Y-102984547D01*
X114483455Y-102978275D01*
X114459154Y-102969580D01*
X114435823Y-102958545D01*
X114413685Y-102945277D01*
X114392955Y-102929902D01*
X114373831Y-102912569D01*
X114356498Y-102893445D01*
X114341123Y-102872715D01*
X114327855Y-102850577D01*
X114316820Y-102827246D01*
X114308125Y-102802945D01*
X114301853Y-102777909D01*
X114298066Y-102752379D01*
X114296800Y-102726600D01*
X114296800Y-102200600D01*
X114298066Y-102174821D01*
X114301853Y-102149291D01*
X114308125Y-102124255D01*
X114316820Y-102099954D01*
X114327855Y-102076623D01*
X114341123Y-102054485D01*
X114356498Y-102033755D01*
X114373831Y-102014631D01*
X114392955Y-101997298D01*
X114413685Y-101981923D01*
X114435823Y-101968655D01*
X114459154Y-101957620D01*
X114483455Y-101948925D01*
X114508491Y-101942653D01*
X114534021Y-101938866D01*
X114559800Y-101937600D01*
X115185800Y-101937600D01*
X115211579Y-101938866D01*
X115211579Y-101938866D01*
G37*
D16*
X114872800Y-102463600D03*
D12*
G36*
X116961579Y-101938866D02*
G01*
X116987109Y-101942653D01*
X117012145Y-101948925D01*
X117036446Y-101957620D01*
X117059777Y-101968655D01*
X117081915Y-101981923D01*
X117102645Y-101997298D01*
X117121769Y-102014631D01*
X117139102Y-102033755D01*
X117154477Y-102054485D01*
X117167745Y-102076623D01*
X117178780Y-102099954D01*
X117187475Y-102124255D01*
X117193747Y-102149291D01*
X117197534Y-102174821D01*
X117198800Y-102200600D01*
X117198800Y-102726600D01*
X117197534Y-102752379D01*
X117193747Y-102777909D01*
X117187475Y-102802945D01*
X117178780Y-102827246D01*
X117167745Y-102850577D01*
X117154477Y-102872715D01*
X117139102Y-102893445D01*
X117121769Y-102912569D01*
X117102645Y-102929902D01*
X117081915Y-102945277D01*
X117059777Y-102958545D01*
X117036446Y-102969580D01*
X117012145Y-102978275D01*
X116987109Y-102984547D01*
X116961579Y-102988334D01*
X116935800Y-102989600D01*
X116309800Y-102989600D01*
X116284021Y-102988334D01*
X116258491Y-102984547D01*
X116233455Y-102978275D01*
X116209154Y-102969580D01*
X116185823Y-102958545D01*
X116163685Y-102945277D01*
X116142955Y-102929902D01*
X116123831Y-102912569D01*
X116106498Y-102893445D01*
X116091123Y-102872715D01*
X116077855Y-102850577D01*
X116066820Y-102827246D01*
X116058125Y-102802945D01*
X116051853Y-102777909D01*
X116048066Y-102752379D01*
X116046800Y-102726600D01*
X116046800Y-102200600D01*
X116048066Y-102174821D01*
X116051853Y-102149291D01*
X116058125Y-102124255D01*
X116066820Y-102099954D01*
X116077855Y-102076623D01*
X116091123Y-102054485D01*
X116106498Y-102033755D01*
X116123831Y-102014631D01*
X116142955Y-101997298D01*
X116163685Y-101981923D01*
X116185823Y-101968655D01*
X116209154Y-101957620D01*
X116233455Y-101948925D01*
X116258491Y-101942653D01*
X116284021Y-101938866D01*
X116309800Y-101937600D01*
X116935800Y-101937600D01*
X116961579Y-101938866D01*
X116961579Y-101938866D01*
G37*
D16*
X116622800Y-102463600D03*
D12*
G36*
X116009071Y-85891086D02*
G01*
X116034989Y-85894930D01*
X116060406Y-85901297D01*
X116085076Y-85910124D01*
X116108763Y-85921327D01*
X116131237Y-85934798D01*
X116152283Y-85950406D01*
X116171698Y-85968002D01*
X116189294Y-85987417D01*
X116204902Y-86008463D01*
X116218373Y-86030937D01*
X116229576Y-86054624D01*
X116238403Y-86079294D01*
X116244770Y-86104711D01*
X116248614Y-86130629D01*
X116249900Y-86156800D01*
X116249900Y-87224800D01*
X116248614Y-87250971D01*
X116244770Y-87276889D01*
X116238403Y-87302306D01*
X116229576Y-87326976D01*
X116218373Y-87350663D01*
X116204902Y-87373137D01*
X116189294Y-87394183D01*
X116171698Y-87413598D01*
X116152283Y-87431194D01*
X116131237Y-87446802D01*
X116108763Y-87460273D01*
X116085076Y-87471476D01*
X116060406Y-87480303D01*
X116034989Y-87486670D01*
X116009071Y-87490514D01*
X115982900Y-87491800D01*
X114064900Y-87491800D01*
X114038729Y-87490514D01*
X114012811Y-87486670D01*
X113987394Y-87480303D01*
X113962724Y-87471476D01*
X113939037Y-87460273D01*
X113916563Y-87446802D01*
X113895517Y-87431194D01*
X113876102Y-87413598D01*
X113858506Y-87394183D01*
X113842898Y-87373137D01*
X113829427Y-87350663D01*
X113818224Y-87326976D01*
X113809397Y-87302306D01*
X113803030Y-87276889D01*
X113799186Y-87250971D01*
X113797900Y-87224800D01*
X113797900Y-86156800D01*
X113799186Y-86130629D01*
X113803030Y-86104711D01*
X113809397Y-86079294D01*
X113818224Y-86054624D01*
X113829427Y-86030937D01*
X113842898Y-86008463D01*
X113858506Y-85987417D01*
X113876102Y-85968002D01*
X113895517Y-85950406D01*
X113916563Y-85934798D01*
X113939037Y-85921327D01*
X113962724Y-85910124D01*
X113987394Y-85901297D01*
X114012811Y-85894930D01*
X114038729Y-85891086D01*
X114064900Y-85889800D01*
X115982900Y-85889800D01*
X116009071Y-85891086D01*
X116009071Y-85891086D01*
G37*
D17*
X115023900Y-86690800D03*
D12*
G36*
X116009071Y-89141086D02*
G01*
X116034989Y-89144930D01*
X116060406Y-89151297D01*
X116085076Y-89160124D01*
X116108763Y-89171327D01*
X116131237Y-89184798D01*
X116152283Y-89200406D01*
X116171698Y-89218002D01*
X116189294Y-89237417D01*
X116204902Y-89258463D01*
X116218373Y-89280937D01*
X116229576Y-89304624D01*
X116238403Y-89329294D01*
X116244770Y-89354711D01*
X116248614Y-89380629D01*
X116249900Y-89406800D01*
X116249900Y-90474800D01*
X116248614Y-90500971D01*
X116244770Y-90526889D01*
X116238403Y-90552306D01*
X116229576Y-90576976D01*
X116218373Y-90600663D01*
X116204902Y-90623137D01*
X116189294Y-90644183D01*
X116171698Y-90663598D01*
X116152283Y-90681194D01*
X116131237Y-90696802D01*
X116108763Y-90710273D01*
X116085076Y-90721476D01*
X116060406Y-90730303D01*
X116034989Y-90736670D01*
X116009071Y-90740514D01*
X115982900Y-90741800D01*
X114064900Y-90741800D01*
X114038729Y-90740514D01*
X114012811Y-90736670D01*
X113987394Y-90730303D01*
X113962724Y-90721476D01*
X113939037Y-90710273D01*
X113916563Y-90696802D01*
X113895517Y-90681194D01*
X113876102Y-90663598D01*
X113858506Y-90644183D01*
X113842898Y-90623137D01*
X113829427Y-90600663D01*
X113818224Y-90576976D01*
X113809397Y-90552306D01*
X113803030Y-90526889D01*
X113799186Y-90500971D01*
X113797900Y-90474800D01*
X113797900Y-89406800D01*
X113799186Y-89380629D01*
X113803030Y-89354711D01*
X113809397Y-89329294D01*
X113818224Y-89304624D01*
X113829427Y-89280937D01*
X113842898Y-89258463D01*
X113858506Y-89237417D01*
X113876102Y-89218002D01*
X113895517Y-89200406D01*
X113916563Y-89184798D01*
X113939037Y-89171327D01*
X113962724Y-89160124D01*
X113987394Y-89151297D01*
X114012811Y-89144930D01*
X114038729Y-89141086D01*
X114064900Y-89139800D01*
X115982900Y-89139800D01*
X116009071Y-89141086D01*
X116009071Y-89141086D01*
G37*
D17*
X115023900Y-89940800D03*
D18*
X125636000Y-92252800D03*
X125636000Y-93522800D03*
X125636000Y-94792800D03*
X125636000Y-96062800D03*
X125636000Y-97332800D03*
X125636000Y-98602800D03*
X125636000Y-99872800D03*
X120236000Y-99872800D03*
X120236000Y-98602800D03*
X120236000Y-97332800D03*
X120236000Y-96062800D03*
X120236000Y-94792800D03*
X120236000Y-93522800D03*
X120236000Y-92252800D03*
X116390400Y-104190800D03*
X116390400Y-105460800D03*
X116390400Y-106730800D03*
X116390400Y-108000800D03*
X116390400Y-109270800D03*
X116390400Y-110540800D03*
X116390400Y-111810800D03*
X110990400Y-111810800D03*
X110990400Y-110540800D03*
X110990400Y-109270800D03*
X110990400Y-108000800D03*
X110990400Y-106730800D03*
X110990400Y-105460800D03*
X110990400Y-104190800D03*
D19*
X141046200Y-103327200D03*
X141046200Y-105867200D03*
X141046200Y-108407200D03*
X141046200Y-110947200D03*
X143586200Y-103327200D03*
X143586200Y-105867200D03*
X143586200Y-108407200D03*
X143586200Y-110947200D03*
X138506200Y-110947200D03*
X135966200Y-110947200D03*
X141046200Y-113487200D03*
X138506200Y-113487200D03*
X135966200Y-113487200D03*
X133426200Y-113487200D03*
X133426200Y-110947200D03*
X133426200Y-108407200D03*
X133426200Y-105867200D03*
X133426200Y-103327200D03*
X130886200Y-110947200D03*
X130886200Y-108407200D03*
X130886200Y-105867200D03*
X130886200Y-103327200D03*
X130886200Y-100787200D03*
X141046200Y-98247200D03*
X138506200Y-98247200D03*
X133426200Y-98247200D03*
X135966200Y-98247200D03*
X143586200Y-100787200D03*
X141046200Y-100787200D03*
X133426200Y-100787200D03*
X135966200Y-100787200D03*
D20*
X138506200Y-100787200D03*
D14*
X121031000Y-104063800D03*
X121031000Y-106603800D03*
X121031000Y-109143800D03*
D15*
X121031000Y-111683800D03*
D12*
G36*
X112529271Y-85891086D02*
G01*
X112555189Y-85894930D01*
X112580606Y-85901297D01*
X112605276Y-85910124D01*
X112628963Y-85921327D01*
X112651437Y-85934798D01*
X112672483Y-85950406D01*
X112691898Y-85968002D01*
X112709494Y-85987417D01*
X112725102Y-86008463D01*
X112738573Y-86030937D01*
X112749776Y-86054624D01*
X112758603Y-86079294D01*
X112764970Y-86104711D01*
X112768814Y-86130629D01*
X112770100Y-86156800D01*
X112770100Y-87224800D01*
X112768814Y-87250971D01*
X112764970Y-87276889D01*
X112758603Y-87302306D01*
X112749776Y-87326976D01*
X112738573Y-87350663D01*
X112725102Y-87373137D01*
X112709494Y-87394183D01*
X112691898Y-87413598D01*
X112672483Y-87431194D01*
X112651437Y-87446802D01*
X112628963Y-87460273D01*
X112605276Y-87471476D01*
X112580606Y-87480303D01*
X112555189Y-87486670D01*
X112529271Y-87490514D01*
X112503100Y-87491800D01*
X110585100Y-87491800D01*
X110558929Y-87490514D01*
X110533011Y-87486670D01*
X110507594Y-87480303D01*
X110482924Y-87471476D01*
X110459237Y-87460273D01*
X110436763Y-87446802D01*
X110415717Y-87431194D01*
X110396302Y-87413598D01*
X110378706Y-87394183D01*
X110363098Y-87373137D01*
X110349627Y-87350663D01*
X110338424Y-87326976D01*
X110329597Y-87302306D01*
X110323230Y-87276889D01*
X110319386Y-87250971D01*
X110318100Y-87224800D01*
X110318100Y-86156800D01*
X110319386Y-86130629D01*
X110323230Y-86104711D01*
X110329597Y-86079294D01*
X110338424Y-86054624D01*
X110349627Y-86030937D01*
X110363098Y-86008463D01*
X110378706Y-85987417D01*
X110396302Y-85968002D01*
X110415717Y-85950406D01*
X110436763Y-85934798D01*
X110459237Y-85921327D01*
X110482924Y-85910124D01*
X110507594Y-85901297D01*
X110533011Y-85894930D01*
X110558929Y-85891086D01*
X110585100Y-85889800D01*
X112503100Y-85889800D01*
X112529271Y-85891086D01*
X112529271Y-85891086D01*
G37*
D17*
X111544100Y-86690800D03*
D12*
G36*
X112529271Y-89141086D02*
G01*
X112555189Y-89144930D01*
X112580606Y-89151297D01*
X112605276Y-89160124D01*
X112628963Y-89171327D01*
X112651437Y-89184798D01*
X112672483Y-89200406D01*
X112691898Y-89218002D01*
X112709494Y-89237417D01*
X112725102Y-89258463D01*
X112738573Y-89280937D01*
X112749776Y-89304624D01*
X112758603Y-89329294D01*
X112764970Y-89354711D01*
X112768814Y-89380629D01*
X112770100Y-89406800D01*
X112770100Y-90474800D01*
X112768814Y-90500971D01*
X112764970Y-90526889D01*
X112758603Y-90552306D01*
X112749776Y-90576976D01*
X112738573Y-90600663D01*
X112725102Y-90623137D01*
X112709494Y-90644183D01*
X112691898Y-90663598D01*
X112672483Y-90681194D01*
X112651437Y-90696802D01*
X112628963Y-90710273D01*
X112605276Y-90721476D01*
X112580606Y-90730303D01*
X112555189Y-90736670D01*
X112529271Y-90740514D01*
X112503100Y-90741800D01*
X110585100Y-90741800D01*
X110558929Y-90740514D01*
X110533011Y-90736670D01*
X110507594Y-90730303D01*
X110482924Y-90721476D01*
X110459237Y-90710273D01*
X110436763Y-90696802D01*
X110415717Y-90681194D01*
X110396302Y-90663598D01*
X110378706Y-90644183D01*
X110363098Y-90623137D01*
X110349627Y-90600663D01*
X110338424Y-90576976D01*
X110329597Y-90552306D01*
X110323230Y-90526889D01*
X110319386Y-90500971D01*
X110318100Y-90474800D01*
X110318100Y-89406800D01*
X110319386Y-89380629D01*
X110323230Y-89354711D01*
X110329597Y-89329294D01*
X110338424Y-89304624D01*
X110349627Y-89280937D01*
X110363098Y-89258463D01*
X110378706Y-89237417D01*
X110396302Y-89218002D01*
X110415717Y-89200406D01*
X110436763Y-89184798D01*
X110459237Y-89171327D01*
X110482924Y-89160124D01*
X110507594Y-89151297D01*
X110533011Y-89144930D01*
X110558929Y-89141086D01*
X110585100Y-89139800D01*
X112503100Y-89139800D01*
X112529271Y-89141086D01*
X112529271Y-89141086D01*
G37*
D17*
X111544100Y-89940800D03*
D18*
X116390400Y-92252800D03*
X116390400Y-93522800D03*
X116390400Y-94792800D03*
X116390400Y-96062800D03*
X116390400Y-97332800D03*
X116390400Y-98602800D03*
X116390400Y-99872800D03*
X110990400Y-99872800D03*
X110990400Y-98602800D03*
X110990400Y-97332800D03*
X110990400Y-96062800D03*
X110990400Y-94792800D03*
X110990400Y-93522800D03*
X110990400Y-92252800D03*
D12*
G36*
X123214963Y-86070290D02*
G01*
X123240969Y-86074148D01*
X123266471Y-86080535D01*
X123291224Y-86089392D01*
X123314990Y-86100633D01*
X123337539Y-86114148D01*
X123358656Y-86129809D01*
X123378135Y-86147465D01*
X123395791Y-86166944D01*
X123411452Y-86188061D01*
X123424967Y-86210610D01*
X123436208Y-86234376D01*
X123445065Y-86259129D01*
X123451452Y-86284631D01*
X123455310Y-86310637D01*
X123456600Y-86336895D01*
X123456600Y-87653105D01*
X123455310Y-87679363D01*
X123451452Y-87705369D01*
X123445065Y-87730871D01*
X123436208Y-87755624D01*
X123424967Y-87779390D01*
X123411452Y-87801939D01*
X123395791Y-87823056D01*
X123378135Y-87842535D01*
X123358656Y-87860191D01*
X123337539Y-87875852D01*
X123314990Y-87889367D01*
X123291224Y-87900608D01*
X123266471Y-87909465D01*
X123240969Y-87915852D01*
X123214963Y-87919710D01*
X123188705Y-87921000D01*
X122197495Y-87921000D01*
X122171237Y-87919710D01*
X122145231Y-87915852D01*
X122119729Y-87909465D01*
X122094976Y-87900608D01*
X122071210Y-87889367D01*
X122048661Y-87875852D01*
X122027544Y-87860191D01*
X122008065Y-87842535D01*
X121990409Y-87823056D01*
X121974748Y-87801939D01*
X121961233Y-87779390D01*
X121949992Y-87755624D01*
X121941135Y-87730871D01*
X121934748Y-87705369D01*
X121930890Y-87679363D01*
X121929600Y-87653105D01*
X121929600Y-86336895D01*
X121930890Y-86310637D01*
X121934748Y-86284631D01*
X121941135Y-86259129D01*
X121949992Y-86234376D01*
X121961233Y-86210610D01*
X121974748Y-86188061D01*
X121990409Y-86166944D01*
X122008065Y-86147465D01*
X122027544Y-86129809D01*
X122048661Y-86114148D01*
X122071210Y-86100633D01*
X122094976Y-86089392D01*
X122119729Y-86080535D01*
X122145231Y-86074148D01*
X122171237Y-86070290D01*
X122197495Y-86069000D01*
X123188705Y-86069000D01*
X123214963Y-86070290D01*
X123214963Y-86070290D01*
G37*
D13*
X122693100Y-86995000D03*
D12*
G36*
X126189963Y-86070290D02*
G01*
X126215969Y-86074148D01*
X126241471Y-86080535D01*
X126266224Y-86089392D01*
X126289990Y-86100633D01*
X126312539Y-86114148D01*
X126333656Y-86129809D01*
X126353135Y-86147465D01*
X126370791Y-86166944D01*
X126386452Y-86188061D01*
X126399967Y-86210610D01*
X126411208Y-86234376D01*
X126420065Y-86259129D01*
X126426452Y-86284631D01*
X126430310Y-86310637D01*
X126431600Y-86336895D01*
X126431600Y-87653105D01*
X126430310Y-87679363D01*
X126426452Y-87705369D01*
X126420065Y-87730871D01*
X126411208Y-87755624D01*
X126399967Y-87779390D01*
X126386452Y-87801939D01*
X126370791Y-87823056D01*
X126353135Y-87842535D01*
X126333656Y-87860191D01*
X126312539Y-87875852D01*
X126289990Y-87889367D01*
X126266224Y-87900608D01*
X126241471Y-87909465D01*
X126215969Y-87915852D01*
X126189963Y-87919710D01*
X126163705Y-87921000D01*
X125172495Y-87921000D01*
X125146237Y-87919710D01*
X125120231Y-87915852D01*
X125094729Y-87909465D01*
X125069976Y-87900608D01*
X125046210Y-87889367D01*
X125023661Y-87875852D01*
X125002544Y-87860191D01*
X124983065Y-87842535D01*
X124965409Y-87823056D01*
X124949748Y-87801939D01*
X124936233Y-87779390D01*
X124924992Y-87755624D01*
X124916135Y-87730871D01*
X124909748Y-87705369D01*
X124905890Y-87679363D01*
X124904600Y-87653105D01*
X124904600Y-86336895D01*
X124905890Y-86310637D01*
X124909748Y-86284631D01*
X124916135Y-86259129D01*
X124924992Y-86234376D01*
X124936233Y-86210610D01*
X124949748Y-86188061D01*
X124965409Y-86166944D01*
X124983065Y-86147465D01*
X125002544Y-86129809D01*
X125023661Y-86114148D01*
X125046210Y-86100633D01*
X125069976Y-86089392D01*
X125094729Y-86080535D01*
X125120231Y-86074148D01*
X125146237Y-86070290D01*
X125172495Y-86069000D01*
X126163705Y-86069000D01*
X126189963Y-86070290D01*
X126189963Y-86070290D01*
G37*
D13*
X125668100Y-86995000D03*
D19*
X129616200Y-114757200D03*
X129616200Y-112217200D03*
X129616200Y-109677200D03*
X129616200Y-107137200D03*
X129616200Y-104597200D03*
X129616200Y-102057200D03*
X129616200Y-99517200D03*
X129616200Y-96977200D03*
X129616200Y-94437200D03*
X129616200Y-91897200D03*
X129616200Y-89357200D03*
D20*
X129616200Y-86817200D03*
D19*
X144856200Y-114757200D03*
X144856200Y-112217200D03*
X144856200Y-109677200D03*
X144856200Y-107137200D03*
X144856200Y-104597200D03*
X144856200Y-102057200D03*
X144856200Y-99517200D03*
X144856200Y-96977200D03*
X144856200Y-94437200D03*
X144856200Y-91897200D03*
X144856200Y-89357200D03*
D20*
X144856200Y-86817200D03*
M02*
