G04 #@! TF.GenerationSoftware,KiCad,Pcbnew,(5.1.0)-1*
G04 #@! TF.CreationDate,2021-03-07T22:37:12+01:00*
G04 #@! TF.ProjectId,Atari OSS Cartridge internal,41746172-6920-44f5-9353-204361727472,rev?*
G04 #@! TF.SameCoordinates,Original*
G04 #@! TF.FileFunction,Soldermask,Bot*
G04 #@! TF.FilePolarity,Negative*
%FSLAX46Y46*%
G04 Gerber Fmt 4.6, Leading zero omitted, Abs format (unit mm)*
G04 Created by KiCad (PCBNEW (5.1.0)-1) date 2021-03-07 22:37:12*
%MOMM*%
%LPD*%
G04 APERTURE LIST*
%ADD10C,0.100000*%
G04 APERTURE END LIST*
D10*
G36*
X145078525Y-114024290D02*
G01*
X145217238Y-114081747D01*
X145342072Y-114165158D01*
X145448242Y-114271328D01*
X145531653Y-114396162D01*
X145589110Y-114534875D01*
X145618400Y-114682129D01*
X145618400Y-114832271D01*
X145589110Y-114979525D01*
X145531653Y-115118238D01*
X145448242Y-115243072D01*
X145342072Y-115349242D01*
X145217238Y-115432653D01*
X145078525Y-115490110D01*
X144931271Y-115519400D01*
X144781129Y-115519400D01*
X144633875Y-115490110D01*
X144495162Y-115432653D01*
X144370328Y-115349242D01*
X144264158Y-115243072D01*
X144180747Y-115118238D01*
X144123290Y-114979525D01*
X144094000Y-114832271D01*
X144094000Y-114682129D01*
X144123290Y-114534875D01*
X144180747Y-114396162D01*
X144264158Y-114271328D01*
X144370328Y-114165158D01*
X144495162Y-114081747D01*
X144633875Y-114024290D01*
X144781129Y-113995000D01*
X144931271Y-113995000D01*
X145078525Y-114024290D01*
X145078525Y-114024290D01*
G37*
G36*
X129838525Y-114024290D02*
G01*
X129977238Y-114081747D01*
X130102072Y-114165158D01*
X130208242Y-114271328D01*
X130291653Y-114396162D01*
X130349110Y-114534875D01*
X130378400Y-114682129D01*
X130378400Y-114832271D01*
X130349110Y-114979525D01*
X130291653Y-115118238D01*
X130208242Y-115243072D01*
X130102072Y-115349242D01*
X129977238Y-115432653D01*
X129838525Y-115490110D01*
X129691271Y-115519400D01*
X129541129Y-115519400D01*
X129393875Y-115490110D01*
X129255162Y-115432653D01*
X129130328Y-115349242D01*
X129024158Y-115243072D01*
X128940747Y-115118238D01*
X128883290Y-114979525D01*
X128854000Y-114832271D01*
X128854000Y-114682129D01*
X128883290Y-114534875D01*
X128940747Y-114396162D01*
X129024158Y-114271328D01*
X129130328Y-114165158D01*
X129255162Y-114081747D01*
X129393875Y-114024290D01*
X129541129Y-113995000D01*
X129691271Y-113995000D01*
X129838525Y-114024290D01*
X129838525Y-114024290D01*
G37*
G36*
X138728525Y-112754290D02*
G01*
X138867238Y-112811747D01*
X138992072Y-112895158D01*
X139098242Y-113001328D01*
X139181653Y-113126162D01*
X139239110Y-113264875D01*
X139268400Y-113412129D01*
X139268400Y-113562271D01*
X139239110Y-113709525D01*
X139181653Y-113848238D01*
X139098242Y-113973072D01*
X138992072Y-114079242D01*
X138867238Y-114162653D01*
X138728525Y-114220110D01*
X138581271Y-114249400D01*
X138431129Y-114249400D01*
X138283875Y-114220110D01*
X138145162Y-114162653D01*
X138020328Y-114079242D01*
X137914158Y-113973072D01*
X137830747Y-113848238D01*
X137773290Y-113709525D01*
X137744000Y-113562271D01*
X137744000Y-113412129D01*
X137773290Y-113264875D01*
X137830747Y-113126162D01*
X137914158Y-113001328D01*
X138020328Y-112895158D01*
X138145162Y-112811747D01*
X138283875Y-112754290D01*
X138431129Y-112725000D01*
X138581271Y-112725000D01*
X138728525Y-112754290D01*
X138728525Y-112754290D01*
G37*
G36*
X141268525Y-112754290D02*
G01*
X141407238Y-112811747D01*
X141532072Y-112895158D01*
X141638242Y-113001328D01*
X141721653Y-113126162D01*
X141779110Y-113264875D01*
X141808400Y-113412129D01*
X141808400Y-113562271D01*
X141779110Y-113709525D01*
X141721653Y-113848238D01*
X141638242Y-113973072D01*
X141532072Y-114079242D01*
X141407238Y-114162653D01*
X141268525Y-114220110D01*
X141121271Y-114249400D01*
X140971129Y-114249400D01*
X140823875Y-114220110D01*
X140685162Y-114162653D01*
X140560328Y-114079242D01*
X140454158Y-113973072D01*
X140370747Y-113848238D01*
X140313290Y-113709525D01*
X140284000Y-113562271D01*
X140284000Y-113412129D01*
X140313290Y-113264875D01*
X140370747Y-113126162D01*
X140454158Y-113001328D01*
X140560328Y-112895158D01*
X140685162Y-112811747D01*
X140823875Y-112754290D01*
X140971129Y-112725000D01*
X141121271Y-112725000D01*
X141268525Y-112754290D01*
X141268525Y-112754290D01*
G37*
G36*
X136188525Y-112754290D02*
G01*
X136327238Y-112811747D01*
X136452072Y-112895158D01*
X136558242Y-113001328D01*
X136641653Y-113126162D01*
X136699110Y-113264875D01*
X136728400Y-113412129D01*
X136728400Y-113562271D01*
X136699110Y-113709525D01*
X136641653Y-113848238D01*
X136558242Y-113973072D01*
X136452072Y-114079242D01*
X136327238Y-114162653D01*
X136188525Y-114220110D01*
X136041271Y-114249400D01*
X135891129Y-114249400D01*
X135743875Y-114220110D01*
X135605162Y-114162653D01*
X135480328Y-114079242D01*
X135374158Y-113973072D01*
X135290747Y-113848238D01*
X135233290Y-113709525D01*
X135204000Y-113562271D01*
X135204000Y-113412129D01*
X135233290Y-113264875D01*
X135290747Y-113126162D01*
X135374158Y-113001328D01*
X135480328Y-112895158D01*
X135605162Y-112811747D01*
X135743875Y-112754290D01*
X135891129Y-112725000D01*
X136041271Y-112725000D01*
X136188525Y-112754290D01*
X136188525Y-112754290D01*
G37*
G36*
X133648525Y-112754290D02*
G01*
X133787238Y-112811747D01*
X133912072Y-112895158D01*
X134018242Y-113001328D01*
X134101653Y-113126162D01*
X134159110Y-113264875D01*
X134188400Y-113412129D01*
X134188400Y-113562271D01*
X134159110Y-113709525D01*
X134101653Y-113848238D01*
X134018242Y-113973072D01*
X133912072Y-114079242D01*
X133787238Y-114162653D01*
X133648525Y-114220110D01*
X133501271Y-114249400D01*
X133351129Y-114249400D01*
X133203875Y-114220110D01*
X133065162Y-114162653D01*
X132940328Y-114079242D01*
X132834158Y-113973072D01*
X132750747Y-113848238D01*
X132693290Y-113709525D01*
X132664000Y-113562271D01*
X132664000Y-113412129D01*
X132693290Y-113264875D01*
X132750747Y-113126162D01*
X132834158Y-113001328D01*
X132940328Y-112895158D01*
X133065162Y-112811747D01*
X133203875Y-112754290D01*
X133351129Y-112725000D01*
X133501271Y-112725000D01*
X133648525Y-112754290D01*
X133648525Y-112754290D01*
G37*
G36*
X129838525Y-111484290D02*
G01*
X129977238Y-111541747D01*
X130102072Y-111625158D01*
X130208242Y-111731328D01*
X130291653Y-111856162D01*
X130349110Y-111994875D01*
X130378400Y-112142129D01*
X130378400Y-112292271D01*
X130349110Y-112439525D01*
X130291653Y-112578238D01*
X130208242Y-112703072D01*
X130102072Y-112809242D01*
X129977238Y-112892653D01*
X129838525Y-112950110D01*
X129691271Y-112979400D01*
X129541129Y-112979400D01*
X129393875Y-112950110D01*
X129255162Y-112892653D01*
X129130328Y-112809242D01*
X129024158Y-112703072D01*
X128940747Y-112578238D01*
X128883290Y-112439525D01*
X128854000Y-112292271D01*
X128854000Y-112142129D01*
X128883290Y-111994875D01*
X128940747Y-111856162D01*
X129024158Y-111731328D01*
X129130328Y-111625158D01*
X129255162Y-111541747D01*
X129393875Y-111484290D01*
X129541129Y-111455000D01*
X129691271Y-111455000D01*
X129838525Y-111484290D01*
X129838525Y-111484290D01*
G37*
G36*
X145078525Y-111484290D02*
G01*
X145217238Y-111541747D01*
X145342072Y-111625158D01*
X145448242Y-111731328D01*
X145531653Y-111856162D01*
X145589110Y-111994875D01*
X145618400Y-112142129D01*
X145618400Y-112292271D01*
X145589110Y-112439525D01*
X145531653Y-112578238D01*
X145448242Y-112703072D01*
X145342072Y-112809242D01*
X145217238Y-112892653D01*
X145078525Y-112950110D01*
X144931271Y-112979400D01*
X144781129Y-112979400D01*
X144633875Y-112950110D01*
X144495162Y-112892653D01*
X144370328Y-112809242D01*
X144264158Y-112703072D01*
X144180747Y-112578238D01*
X144123290Y-112439525D01*
X144094000Y-112292271D01*
X144094000Y-112142129D01*
X144123290Y-111994875D01*
X144180747Y-111856162D01*
X144264158Y-111731328D01*
X144370328Y-111625158D01*
X144495162Y-111541747D01*
X144633875Y-111484290D01*
X144781129Y-111455000D01*
X144931271Y-111455000D01*
X145078525Y-111484290D01*
X145078525Y-111484290D01*
G37*
G36*
X121932000Y-112584800D02*
G01*
X120130000Y-112584800D01*
X120130000Y-110782800D01*
X121932000Y-110782800D01*
X121932000Y-112584800D01*
X121932000Y-112584800D01*
G37*
G36*
X138728525Y-110214290D02*
G01*
X138867238Y-110271747D01*
X138992072Y-110355158D01*
X139098242Y-110461328D01*
X139181653Y-110586162D01*
X139239110Y-110724875D01*
X139268400Y-110872129D01*
X139268400Y-111022271D01*
X139239110Y-111169525D01*
X139181653Y-111308238D01*
X139098242Y-111433072D01*
X138992072Y-111539242D01*
X138867238Y-111622653D01*
X138728525Y-111680110D01*
X138581271Y-111709400D01*
X138431129Y-111709400D01*
X138283875Y-111680110D01*
X138145162Y-111622653D01*
X138020328Y-111539242D01*
X137914158Y-111433072D01*
X137830747Y-111308238D01*
X137773290Y-111169525D01*
X137744000Y-111022271D01*
X137744000Y-110872129D01*
X137773290Y-110724875D01*
X137830747Y-110586162D01*
X137914158Y-110461328D01*
X138020328Y-110355158D01*
X138145162Y-110271747D01*
X138283875Y-110214290D01*
X138431129Y-110185000D01*
X138581271Y-110185000D01*
X138728525Y-110214290D01*
X138728525Y-110214290D01*
G37*
G36*
X131108525Y-110214290D02*
G01*
X131247238Y-110271747D01*
X131372072Y-110355158D01*
X131478242Y-110461328D01*
X131561653Y-110586162D01*
X131619110Y-110724875D01*
X131648400Y-110872129D01*
X131648400Y-111022271D01*
X131619110Y-111169525D01*
X131561653Y-111308238D01*
X131478242Y-111433072D01*
X131372072Y-111539242D01*
X131247238Y-111622653D01*
X131108525Y-111680110D01*
X130961271Y-111709400D01*
X130811129Y-111709400D01*
X130663875Y-111680110D01*
X130525162Y-111622653D01*
X130400328Y-111539242D01*
X130294158Y-111433072D01*
X130210747Y-111308238D01*
X130153290Y-111169525D01*
X130124000Y-111022271D01*
X130124000Y-110872129D01*
X130153290Y-110724875D01*
X130210747Y-110586162D01*
X130294158Y-110461328D01*
X130400328Y-110355158D01*
X130525162Y-110271747D01*
X130663875Y-110214290D01*
X130811129Y-110185000D01*
X130961271Y-110185000D01*
X131108525Y-110214290D01*
X131108525Y-110214290D01*
G37*
G36*
X136188525Y-110214290D02*
G01*
X136327238Y-110271747D01*
X136452072Y-110355158D01*
X136558242Y-110461328D01*
X136641653Y-110586162D01*
X136699110Y-110724875D01*
X136728400Y-110872129D01*
X136728400Y-111022271D01*
X136699110Y-111169525D01*
X136641653Y-111308238D01*
X136558242Y-111433072D01*
X136452072Y-111539242D01*
X136327238Y-111622653D01*
X136188525Y-111680110D01*
X136041271Y-111709400D01*
X135891129Y-111709400D01*
X135743875Y-111680110D01*
X135605162Y-111622653D01*
X135480328Y-111539242D01*
X135374158Y-111433072D01*
X135290747Y-111308238D01*
X135233290Y-111169525D01*
X135204000Y-111022271D01*
X135204000Y-110872129D01*
X135233290Y-110724875D01*
X135290747Y-110586162D01*
X135374158Y-110461328D01*
X135480328Y-110355158D01*
X135605162Y-110271747D01*
X135743875Y-110214290D01*
X135891129Y-110185000D01*
X136041271Y-110185000D01*
X136188525Y-110214290D01*
X136188525Y-110214290D01*
G37*
G36*
X133648525Y-110214290D02*
G01*
X133787238Y-110271747D01*
X133912072Y-110355158D01*
X134018242Y-110461328D01*
X134101653Y-110586162D01*
X134159110Y-110724875D01*
X134188400Y-110872129D01*
X134188400Y-111022271D01*
X134159110Y-111169525D01*
X134101653Y-111308238D01*
X134018242Y-111433072D01*
X133912072Y-111539242D01*
X133787238Y-111622653D01*
X133648525Y-111680110D01*
X133501271Y-111709400D01*
X133351129Y-111709400D01*
X133203875Y-111680110D01*
X133065162Y-111622653D01*
X132940328Y-111539242D01*
X132834158Y-111433072D01*
X132750747Y-111308238D01*
X132693290Y-111169525D01*
X132664000Y-111022271D01*
X132664000Y-110872129D01*
X132693290Y-110724875D01*
X132750747Y-110586162D01*
X132834158Y-110461328D01*
X132940328Y-110355158D01*
X133065162Y-110271747D01*
X133203875Y-110214290D01*
X133351129Y-110185000D01*
X133501271Y-110185000D01*
X133648525Y-110214290D01*
X133648525Y-110214290D01*
G37*
G36*
X143808525Y-110214290D02*
G01*
X143947238Y-110271747D01*
X144072072Y-110355158D01*
X144178242Y-110461328D01*
X144261653Y-110586162D01*
X144319110Y-110724875D01*
X144348400Y-110872129D01*
X144348400Y-111022271D01*
X144319110Y-111169525D01*
X144261653Y-111308238D01*
X144178242Y-111433072D01*
X144072072Y-111539242D01*
X143947238Y-111622653D01*
X143808525Y-111680110D01*
X143661271Y-111709400D01*
X143511129Y-111709400D01*
X143363875Y-111680110D01*
X143225162Y-111622653D01*
X143100328Y-111539242D01*
X142994158Y-111433072D01*
X142910747Y-111308238D01*
X142853290Y-111169525D01*
X142824000Y-111022271D01*
X142824000Y-110872129D01*
X142853290Y-110724875D01*
X142910747Y-110586162D01*
X142994158Y-110461328D01*
X143100328Y-110355158D01*
X143225162Y-110271747D01*
X143363875Y-110214290D01*
X143511129Y-110185000D01*
X143661271Y-110185000D01*
X143808525Y-110214290D01*
X143808525Y-110214290D01*
G37*
G36*
X141268525Y-110214290D02*
G01*
X141407238Y-110271747D01*
X141532072Y-110355158D01*
X141638242Y-110461328D01*
X141721653Y-110586162D01*
X141779110Y-110724875D01*
X141808400Y-110872129D01*
X141808400Y-111022271D01*
X141779110Y-111169525D01*
X141721653Y-111308238D01*
X141638242Y-111433072D01*
X141532072Y-111539242D01*
X141407238Y-111622653D01*
X141268525Y-111680110D01*
X141121271Y-111709400D01*
X140971129Y-111709400D01*
X140823875Y-111680110D01*
X140685162Y-111622653D01*
X140560328Y-111539242D01*
X140454158Y-111433072D01*
X140370747Y-111308238D01*
X140313290Y-111169525D01*
X140284000Y-111022271D01*
X140284000Y-110872129D01*
X140313290Y-110724875D01*
X140370747Y-110586162D01*
X140454158Y-110461328D01*
X140560328Y-110355158D01*
X140685162Y-110271747D01*
X140823875Y-110214290D01*
X140971129Y-110185000D01*
X141121271Y-110185000D01*
X141268525Y-110214290D01*
X141268525Y-110214290D01*
G37*
G36*
X145078525Y-108944290D02*
G01*
X145217238Y-109001747D01*
X145342072Y-109085158D01*
X145448242Y-109191328D01*
X145531653Y-109316162D01*
X145589110Y-109454875D01*
X145618400Y-109602129D01*
X145618400Y-109752271D01*
X145589110Y-109899525D01*
X145531653Y-110038238D01*
X145448242Y-110163072D01*
X145342072Y-110269242D01*
X145217238Y-110352653D01*
X145078525Y-110410110D01*
X144931271Y-110439400D01*
X144781129Y-110439400D01*
X144633875Y-110410110D01*
X144495162Y-110352653D01*
X144370328Y-110269242D01*
X144264158Y-110163072D01*
X144180747Y-110038238D01*
X144123290Y-109899525D01*
X144094000Y-109752271D01*
X144094000Y-109602129D01*
X144123290Y-109454875D01*
X144180747Y-109316162D01*
X144264158Y-109191328D01*
X144370328Y-109085158D01*
X144495162Y-109001747D01*
X144633875Y-108944290D01*
X144781129Y-108915000D01*
X144931271Y-108915000D01*
X145078525Y-108944290D01*
X145078525Y-108944290D01*
G37*
G36*
X129838525Y-108944290D02*
G01*
X129977238Y-109001747D01*
X130102072Y-109085158D01*
X130208242Y-109191328D01*
X130291653Y-109316162D01*
X130349110Y-109454875D01*
X130378400Y-109602129D01*
X130378400Y-109752271D01*
X130349110Y-109899525D01*
X130291653Y-110038238D01*
X130208242Y-110163072D01*
X130102072Y-110269242D01*
X129977238Y-110352653D01*
X129838525Y-110410110D01*
X129691271Y-110439400D01*
X129541129Y-110439400D01*
X129393875Y-110410110D01*
X129255162Y-110352653D01*
X129130328Y-110269242D01*
X129024158Y-110163072D01*
X128940747Y-110038238D01*
X128883290Y-109899525D01*
X128854000Y-109752271D01*
X128854000Y-109602129D01*
X128883290Y-109454875D01*
X128940747Y-109316162D01*
X129024158Y-109191328D01*
X129130328Y-109085158D01*
X129255162Y-109001747D01*
X129393875Y-108944290D01*
X129541129Y-108915000D01*
X129691271Y-108915000D01*
X129838525Y-108944290D01*
X129838525Y-108944290D01*
G37*
G36*
X121141443Y-108249319D02*
G01*
X121207627Y-108255837D01*
X121377466Y-108307357D01*
X121533991Y-108391022D01*
X121569729Y-108420352D01*
X121671186Y-108503614D01*
X121754448Y-108605071D01*
X121783778Y-108640809D01*
X121867443Y-108797334D01*
X121918963Y-108967173D01*
X121936359Y-109143800D01*
X121918963Y-109320427D01*
X121867443Y-109490266D01*
X121783778Y-109646791D01*
X121754448Y-109682529D01*
X121671186Y-109783986D01*
X121569729Y-109867248D01*
X121533991Y-109896578D01*
X121377466Y-109980243D01*
X121207627Y-110031763D01*
X121141894Y-110038237D01*
X121075260Y-110044800D01*
X120986740Y-110044800D01*
X120920106Y-110038237D01*
X120854373Y-110031763D01*
X120684534Y-109980243D01*
X120528009Y-109896578D01*
X120492271Y-109867248D01*
X120390814Y-109783986D01*
X120307552Y-109682529D01*
X120278222Y-109646791D01*
X120194557Y-109490266D01*
X120143037Y-109320427D01*
X120125641Y-109143800D01*
X120143037Y-108967173D01*
X120194557Y-108797334D01*
X120278222Y-108640809D01*
X120307552Y-108605071D01*
X120390814Y-108503614D01*
X120492271Y-108420352D01*
X120528009Y-108391022D01*
X120684534Y-108307357D01*
X120854373Y-108255837D01*
X120920557Y-108249319D01*
X120986740Y-108242800D01*
X121075260Y-108242800D01*
X121141443Y-108249319D01*
X121141443Y-108249319D01*
G37*
G36*
X133648525Y-107674290D02*
G01*
X133787238Y-107731747D01*
X133912072Y-107815158D01*
X134018242Y-107921328D01*
X134101653Y-108046162D01*
X134159110Y-108184875D01*
X134188400Y-108332129D01*
X134188400Y-108482271D01*
X134159110Y-108629525D01*
X134101653Y-108768238D01*
X134018242Y-108893072D01*
X133912072Y-108999242D01*
X133787238Y-109082653D01*
X133648525Y-109140110D01*
X133501271Y-109169400D01*
X133351129Y-109169400D01*
X133203875Y-109140110D01*
X133065162Y-109082653D01*
X132940328Y-108999242D01*
X132834158Y-108893072D01*
X132750747Y-108768238D01*
X132693290Y-108629525D01*
X132664000Y-108482271D01*
X132664000Y-108332129D01*
X132693290Y-108184875D01*
X132750747Y-108046162D01*
X132834158Y-107921328D01*
X132940328Y-107815158D01*
X133065162Y-107731747D01*
X133203875Y-107674290D01*
X133351129Y-107645000D01*
X133501271Y-107645000D01*
X133648525Y-107674290D01*
X133648525Y-107674290D01*
G37*
G36*
X143808525Y-107674290D02*
G01*
X143947238Y-107731747D01*
X144072072Y-107815158D01*
X144178242Y-107921328D01*
X144261653Y-108046162D01*
X144319110Y-108184875D01*
X144348400Y-108332129D01*
X144348400Y-108482271D01*
X144319110Y-108629525D01*
X144261653Y-108768238D01*
X144178242Y-108893072D01*
X144072072Y-108999242D01*
X143947238Y-109082653D01*
X143808525Y-109140110D01*
X143661271Y-109169400D01*
X143511129Y-109169400D01*
X143363875Y-109140110D01*
X143225162Y-109082653D01*
X143100328Y-108999242D01*
X142994158Y-108893072D01*
X142910747Y-108768238D01*
X142853290Y-108629525D01*
X142824000Y-108482271D01*
X142824000Y-108332129D01*
X142853290Y-108184875D01*
X142910747Y-108046162D01*
X142994158Y-107921328D01*
X143100328Y-107815158D01*
X143225162Y-107731747D01*
X143363875Y-107674290D01*
X143511129Y-107645000D01*
X143661271Y-107645000D01*
X143808525Y-107674290D01*
X143808525Y-107674290D01*
G37*
G36*
X141268525Y-107674290D02*
G01*
X141407238Y-107731747D01*
X141532072Y-107815158D01*
X141638242Y-107921328D01*
X141721653Y-108046162D01*
X141779110Y-108184875D01*
X141808400Y-108332129D01*
X141808400Y-108482271D01*
X141779110Y-108629525D01*
X141721653Y-108768238D01*
X141638242Y-108893072D01*
X141532072Y-108999242D01*
X141407238Y-109082653D01*
X141268525Y-109140110D01*
X141121271Y-109169400D01*
X140971129Y-109169400D01*
X140823875Y-109140110D01*
X140685162Y-109082653D01*
X140560328Y-108999242D01*
X140454158Y-108893072D01*
X140370747Y-108768238D01*
X140313290Y-108629525D01*
X140284000Y-108482271D01*
X140284000Y-108332129D01*
X140313290Y-108184875D01*
X140370747Y-108046162D01*
X140454158Y-107921328D01*
X140560328Y-107815158D01*
X140685162Y-107731747D01*
X140823875Y-107674290D01*
X140971129Y-107645000D01*
X141121271Y-107645000D01*
X141268525Y-107674290D01*
X141268525Y-107674290D01*
G37*
G36*
X131108525Y-107674290D02*
G01*
X131247238Y-107731747D01*
X131372072Y-107815158D01*
X131478242Y-107921328D01*
X131561653Y-108046162D01*
X131619110Y-108184875D01*
X131648400Y-108332129D01*
X131648400Y-108482271D01*
X131619110Y-108629525D01*
X131561653Y-108768238D01*
X131478242Y-108893072D01*
X131372072Y-108999242D01*
X131247238Y-109082653D01*
X131108525Y-109140110D01*
X130961271Y-109169400D01*
X130811129Y-109169400D01*
X130663875Y-109140110D01*
X130525162Y-109082653D01*
X130400328Y-108999242D01*
X130294158Y-108893072D01*
X130210747Y-108768238D01*
X130153290Y-108629525D01*
X130124000Y-108482271D01*
X130124000Y-108332129D01*
X130153290Y-108184875D01*
X130210747Y-108046162D01*
X130294158Y-107921328D01*
X130400328Y-107815158D01*
X130525162Y-107731747D01*
X130663875Y-107674290D01*
X130811129Y-107645000D01*
X130961271Y-107645000D01*
X131108525Y-107674290D01*
X131108525Y-107674290D01*
G37*
G36*
X129838525Y-106404290D02*
G01*
X129977238Y-106461747D01*
X130102072Y-106545158D01*
X130208242Y-106651328D01*
X130291653Y-106776162D01*
X130349110Y-106914875D01*
X130378400Y-107062129D01*
X130378400Y-107212271D01*
X130349110Y-107359525D01*
X130291653Y-107498238D01*
X130208242Y-107623072D01*
X130102072Y-107729242D01*
X129977238Y-107812653D01*
X129838525Y-107870110D01*
X129691271Y-107899400D01*
X129541129Y-107899400D01*
X129393875Y-107870110D01*
X129255162Y-107812653D01*
X129130328Y-107729242D01*
X129024158Y-107623072D01*
X128940747Y-107498238D01*
X128883290Y-107359525D01*
X128854000Y-107212271D01*
X128854000Y-107062129D01*
X128883290Y-106914875D01*
X128940747Y-106776162D01*
X129024158Y-106651328D01*
X129130328Y-106545158D01*
X129255162Y-106461747D01*
X129393875Y-106404290D01*
X129541129Y-106375000D01*
X129691271Y-106375000D01*
X129838525Y-106404290D01*
X129838525Y-106404290D01*
G37*
G36*
X145078525Y-106404290D02*
G01*
X145217238Y-106461747D01*
X145342072Y-106545158D01*
X145448242Y-106651328D01*
X145531653Y-106776162D01*
X145589110Y-106914875D01*
X145618400Y-107062129D01*
X145618400Y-107212271D01*
X145589110Y-107359525D01*
X145531653Y-107498238D01*
X145448242Y-107623072D01*
X145342072Y-107729242D01*
X145217238Y-107812653D01*
X145078525Y-107870110D01*
X144931271Y-107899400D01*
X144781129Y-107899400D01*
X144633875Y-107870110D01*
X144495162Y-107812653D01*
X144370328Y-107729242D01*
X144264158Y-107623072D01*
X144180747Y-107498238D01*
X144123290Y-107359525D01*
X144094000Y-107212271D01*
X144094000Y-107062129D01*
X144123290Y-106914875D01*
X144180747Y-106776162D01*
X144264158Y-106651328D01*
X144370328Y-106545158D01*
X144495162Y-106461747D01*
X144633875Y-106404290D01*
X144781129Y-106375000D01*
X144931271Y-106375000D01*
X145078525Y-106404290D01*
X145078525Y-106404290D01*
G37*
G36*
X121141442Y-105709318D02*
G01*
X121207627Y-105715837D01*
X121377466Y-105767357D01*
X121533991Y-105851022D01*
X121569729Y-105880352D01*
X121671186Y-105963614D01*
X121754448Y-106065071D01*
X121783778Y-106100809D01*
X121867443Y-106257334D01*
X121918963Y-106427173D01*
X121936359Y-106603800D01*
X121918963Y-106780427D01*
X121867443Y-106950266D01*
X121783778Y-107106791D01*
X121754448Y-107142529D01*
X121671186Y-107243986D01*
X121569729Y-107327248D01*
X121533991Y-107356578D01*
X121377466Y-107440243D01*
X121207627Y-107491763D01*
X121141894Y-107498237D01*
X121075260Y-107504800D01*
X120986740Y-107504800D01*
X120920106Y-107498237D01*
X120854373Y-107491763D01*
X120684534Y-107440243D01*
X120528009Y-107356578D01*
X120492271Y-107327248D01*
X120390814Y-107243986D01*
X120307552Y-107142529D01*
X120278222Y-107106791D01*
X120194557Y-106950266D01*
X120143037Y-106780427D01*
X120125641Y-106603800D01*
X120143037Y-106427173D01*
X120194557Y-106257334D01*
X120278222Y-106100809D01*
X120307552Y-106065071D01*
X120390814Y-105963614D01*
X120492271Y-105880352D01*
X120528009Y-105851022D01*
X120684534Y-105767357D01*
X120854373Y-105715837D01*
X120920558Y-105709318D01*
X120986740Y-105702800D01*
X121075260Y-105702800D01*
X121141442Y-105709318D01*
X121141442Y-105709318D01*
G37*
G36*
X133648525Y-105134290D02*
G01*
X133787238Y-105191747D01*
X133912072Y-105275158D01*
X134018242Y-105381328D01*
X134101653Y-105506162D01*
X134159110Y-105644875D01*
X134188400Y-105792129D01*
X134188400Y-105942271D01*
X134159110Y-106089525D01*
X134101653Y-106228238D01*
X134018242Y-106353072D01*
X133912072Y-106459242D01*
X133787238Y-106542653D01*
X133648525Y-106600110D01*
X133501271Y-106629400D01*
X133351129Y-106629400D01*
X133203875Y-106600110D01*
X133065162Y-106542653D01*
X132940328Y-106459242D01*
X132834158Y-106353072D01*
X132750747Y-106228238D01*
X132693290Y-106089525D01*
X132664000Y-105942271D01*
X132664000Y-105792129D01*
X132693290Y-105644875D01*
X132750747Y-105506162D01*
X132834158Y-105381328D01*
X132940328Y-105275158D01*
X133065162Y-105191747D01*
X133203875Y-105134290D01*
X133351129Y-105105000D01*
X133501271Y-105105000D01*
X133648525Y-105134290D01*
X133648525Y-105134290D01*
G37*
G36*
X131108525Y-105134290D02*
G01*
X131247238Y-105191747D01*
X131372072Y-105275158D01*
X131478242Y-105381328D01*
X131561653Y-105506162D01*
X131619110Y-105644875D01*
X131648400Y-105792129D01*
X131648400Y-105942271D01*
X131619110Y-106089525D01*
X131561653Y-106228238D01*
X131478242Y-106353072D01*
X131372072Y-106459242D01*
X131247238Y-106542653D01*
X131108525Y-106600110D01*
X130961271Y-106629400D01*
X130811129Y-106629400D01*
X130663875Y-106600110D01*
X130525162Y-106542653D01*
X130400328Y-106459242D01*
X130294158Y-106353072D01*
X130210747Y-106228238D01*
X130153290Y-106089525D01*
X130124000Y-105942271D01*
X130124000Y-105792129D01*
X130153290Y-105644875D01*
X130210747Y-105506162D01*
X130294158Y-105381328D01*
X130400328Y-105275158D01*
X130525162Y-105191747D01*
X130663875Y-105134290D01*
X130811129Y-105105000D01*
X130961271Y-105105000D01*
X131108525Y-105134290D01*
X131108525Y-105134290D01*
G37*
G36*
X141268525Y-105134290D02*
G01*
X141407238Y-105191747D01*
X141532072Y-105275158D01*
X141638242Y-105381328D01*
X141721653Y-105506162D01*
X141779110Y-105644875D01*
X141808400Y-105792129D01*
X141808400Y-105942271D01*
X141779110Y-106089525D01*
X141721653Y-106228238D01*
X141638242Y-106353072D01*
X141532072Y-106459242D01*
X141407238Y-106542653D01*
X141268525Y-106600110D01*
X141121271Y-106629400D01*
X140971129Y-106629400D01*
X140823875Y-106600110D01*
X140685162Y-106542653D01*
X140560328Y-106459242D01*
X140454158Y-106353072D01*
X140370747Y-106228238D01*
X140313290Y-106089525D01*
X140284000Y-105942271D01*
X140284000Y-105792129D01*
X140313290Y-105644875D01*
X140370747Y-105506162D01*
X140454158Y-105381328D01*
X140560328Y-105275158D01*
X140685162Y-105191747D01*
X140823875Y-105134290D01*
X140971129Y-105105000D01*
X141121271Y-105105000D01*
X141268525Y-105134290D01*
X141268525Y-105134290D01*
G37*
G36*
X143808525Y-105134290D02*
G01*
X143947238Y-105191747D01*
X144072072Y-105275158D01*
X144178242Y-105381328D01*
X144261653Y-105506162D01*
X144319110Y-105644875D01*
X144348400Y-105792129D01*
X144348400Y-105942271D01*
X144319110Y-106089525D01*
X144261653Y-106228238D01*
X144178242Y-106353072D01*
X144072072Y-106459242D01*
X143947238Y-106542653D01*
X143808525Y-106600110D01*
X143661271Y-106629400D01*
X143511129Y-106629400D01*
X143363875Y-106600110D01*
X143225162Y-106542653D01*
X143100328Y-106459242D01*
X142994158Y-106353072D01*
X142910747Y-106228238D01*
X142853290Y-106089525D01*
X142824000Y-105942271D01*
X142824000Y-105792129D01*
X142853290Y-105644875D01*
X142910747Y-105506162D01*
X142994158Y-105381328D01*
X143100328Y-105275158D01*
X143225162Y-105191747D01*
X143363875Y-105134290D01*
X143511129Y-105105000D01*
X143661271Y-105105000D01*
X143808525Y-105134290D01*
X143808525Y-105134290D01*
G37*
G36*
X145078525Y-103864290D02*
G01*
X145217238Y-103921747D01*
X145342072Y-104005158D01*
X145448242Y-104111328D01*
X145531653Y-104236162D01*
X145589110Y-104374875D01*
X145618400Y-104522129D01*
X145618400Y-104672271D01*
X145589110Y-104819525D01*
X145531653Y-104958238D01*
X145448242Y-105083072D01*
X145342072Y-105189242D01*
X145217238Y-105272653D01*
X145078525Y-105330110D01*
X144931271Y-105359400D01*
X144781129Y-105359400D01*
X144633875Y-105330110D01*
X144495162Y-105272653D01*
X144370328Y-105189242D01*
X144264158Y-105083072D01*
X144180747Y-104958238D01*
X144123290Y-104819525D01*
X144094000Y-104672271D01*
X144094000Y-104522129D01*
X144123290Y-104374875D01*
X144180747Y-104236162D01*
X144264158Y-104111328D01*
X144370328Y-104005158D01*
X144495162Y-103921747D01*
X144633875Y-103864290D01*
X144781129Y-103835000D01*
X144931271Y-103835000D01*
X145078525Y-103864290D01*
X145078525Y-103864290D01*
G37*
G36*
X129838525Y-103864290D02*
G01*
X129977238Y-103921747D01*
X130102072Y-104005158D01*
X130208242Y-104111328D01*
X130291653Y-104236162D01*
X130349110Y-104374875D01*
X130378400Y-104522129D01*
X130378400Y-104672271D01*
X130349110Y-104819525D01*
X130291653Y-104958238D01*
X130208242Y-105083072D01*
X130102072Y-105189242D01*
X129977238Y-105272653D01*
X129838525Y-105330110D01*
X129691271Y-105359400D01*
X129541129Y-105359400D01*
X129393875Y-105330110D01*
X129255162Y-105272653D01*
X129130328Y-105189242D01*
X129024158Y-105083072D01*
X128940747Y-104958238D01*
X128883290Y-104819525D01*
X128854000Y-104672271D01*
X128854000Y-104522129D01*
X128883290Y-104374875D01*
X128940747Y-104236162D01*
X129024158Y-104111328D01*
X129130328Y-104005158D01*
X129255162Y-103921747D01*
X129393875Y-103864290D01*
X129541129Y-103835000D01*
X129691271Y-103835000D01*
X129838525Y-103864290D01*
X129838525Y-103864290D01*
G37*
G36*
X121141442Y-103169318D02*
G01*
X121207627Y-103175837D01*
X121377466Y-103227357D01*
X121533991Y-103311022D01*
X121569729Y-103340352D01*
X121671186Y-103423614D01*
X121754448Y-103525071D01*
X121783778Y-103560809D01*
X121867443Y-103717334D01*
X121918963Y-103887173D01*
X121936359Y-104063800D01*
X121918963Y-104240427D01*
X121867443Y-104410266D01*
X121783778Y-104566791D01*
X121754448Y-104602529D01*
X121671186Y-104703986D01*
X121569729Y-104787248D01*
X121533991Y-104816578D01*
X121377466Y-104900243D01*
X121207627Y-104951763D01*
X121141894Y-104958237D01*
X121075260Y-104964800D01*
X120986740Y-104964800D01*
X120920106Y-104958237D01*
X120854373Y-104951763D01*
X120684534Y-104900243D01*
X120528009Y-104816578D01*
X120492271Y-104787248D01*
X120390814Y-104703986D01*
X120307552Y-104602529D01*
X120278222Y-104566791D01*
X120194557Y-104410266D01*
X120143037Y-104240427D01*
X120125641Y-104063800D01*
X120143037Y-103887173D01*
X120194557Y-103717334D01*
X120278222Y-103560809D01*
X120307552Y-103525071D01*
X120390814Y-103423614D01*
X120492271Y-103340352D01*
X120528009Y-103311022D01*
X120684534Y-103227357D01*
X120854373Y-103175837D01*
X120920557Y-103169319D01*
X120986740Y-103162800D01*
X121075260Y-103162800D01*
X121141442Y-103169318D01*
X121141442Y-103169318D01*
G37*
G36*
X131108525Y-102594290D02*
G01*
X131247238Y-102651747D01*
X131372072Y-102735158D01*
X131478242Y-102841328D01*
X131561653Y-102966162D01*
X131619110Y-103104875D01*
X131648400Y-103252129D01*
X131648400Y-103402271D01*
X131619110Y-103549525D01*
X131561653Y-103688238D01*
X131478242Y-103813072D01*
X131372072Y-103919242D01*
X131247238Y-104002653D01*
X131108525Y-104060110D01*
X130961271Y-104089400D01*
X130811129Y-104089400D01*
X130663875Y-104060110D01*
X130525162Y-104002653D01*
X130400328Y-103919242D01*
X130294158Y-103813072D01*
X130210747Y-103688238D01*
X130153290Y-103549525D01*
X130124000Y-103402271D01*
X130124000Y-103252129D01*
X130153290Y-103104875D01*
X130210747Y-102966162D01*
X130294158Y-102841328D01*
X130400328Y-102735158D01*
X130525162Y-102651747D01*
X130663875Y-102594290D01*
X130811129Y-102565000D01*
X130961271Y-102565000D01*
X131108525Y-102594290D01*
X131108525Y-102594290D01*
G37*
G36*
X133648525Y-102594290D02*
G01*
X133787238Y-102651747D01*
X133912072Y-102735158D01*
X134018242Y-102841328D01*
X134101653Y-102966162D01*
X134159110Y-103104875D01*
X134188400Y-103252129D01*
X134188400Y-103402271D01*
X134159110Y-103549525D01*
X134101653Y-103688238D01*
X134018242Y-103813072D01*
X133912072Y-103919242D01*
X133787238Y-104002653D01*
X133648525Y-104060110D01*
X133501271Y-104089400D01*
X133351129Y-104089400D01*
X133203875Y-104060110D01*
X133065162Y-104002653D01*
X132940328Y-103919242D01*
X132834158Y-103813072D01*
X132750747Y-103688238D01*
X132693290Y-103549525D01*
X132664000Y-103402271D01*
X132664000Y-103252129D01*
X132693290Y-103104875D01*
X132750747Y-102966162D01*
X132834158Y-102841328D01*
X132940328Y-102735158D01*
X133065162Y-102651747D01*
X133203875Y-102594290D01*
X133351129Y-102565000D01*
X133501271Y-102565000D01*
X133648525Y-102594290D01*
X133648525Y-102594290D01*
G37*
G36*
X143808525Y-102594290D02*
G01*
X143947238Y-102651747D01*
X144072072Y-102735158D01*
X144178242Y-102841328D01*
X144261653Y-102966162D01*
X144319110Y-103104875D01*
X144348400Y-103252129D01*
X144348400Y-103402271D01*
X144319110Y-103549525D01*
X144261653Y-103688238D01*
X144178242Y-103813072D01*
X144072072Y-103919242D01*
X143947238Y-104002653D01*
X143808525Y-104060110D01*
X143661271Y-104089400D01*
X143511129Y-104089400D01*
X143363875Y-104060110D01*
X143225162Y-104002653D01*
X143100328Y-103919242D01*
X142994158Y-103813072D01*
X142910747Y-103688238D01*
X142853290Y-103549525D01*
X142824000Y-103402271D01*
X142824000Y-103252129D01*
X142853290Y-103104875D01*
X142910747Y-102966162D01*
X142994158Y-102841328D01*
X143100328Y-102735158D01*
X143225162Y-102651747D01*
X143363875Y-102594290D01*
X143511129Y-102565000D01*
X143661271Y-102565000D01*
X143808525Y-102594290D01*
X143808525Y-102594290D01*
G37*
G36*
X141268525Y-102594290D02*
G01*
X141407238Y-102651747D01*
X141532072Y-102735158D01*
X141638242Y-102841328D01*
X141721653Y-102966162D01*
X141779110Y-103104875D01*
X141808400Y-103252129D01*
X141808400Y-103402271D01*
X141779110Y-103549525D01*
X141721653Y-103688238D01*
X141638242Y-103813072D01*
X141532072Y-103919242D01*
X141407238Y-104002653D01*
X141268525Y-104060110D01*
X141121271Y-104089400D01*
X140971129Y-104089400D01*
X140823875Y-104060110D01*
X140685162Y-104002653D01*
X140560328Y-103919242D01*
X140454158Y-103813072D01*
X140370747Y-103688238D01*
X140313290Y-103549525D01*
X140284000Y-103402271D01*
X140284000Y-103252129D01*
X140313290Y-103104875D01*
X140370747Y-102966162D01*
X140454158Y-102841328D01*
X140560328Y-102735158D01*
X140685162Y-102651747D01*
X140823875Y-102594290D01*
X140971129Y-102565000D01*
X141121271Y-102565000D01*
X141268525Y-102594290D01*
X141268525Y-102594290D01*
G37*
G36*
X145078525Y-101324290D02*
G01*
X145217238Y-101381747D01*
X145342072Y-101465158D01*
X145448242Y-101571328D01*
X145531653Y-101696162D01*
X145589110Y-101834875D01*
X145618400Y-101982129D01*
X145618400Y-102132271D01*
X145589110Y-102279525D01*
X145531653Y-102418238D01*
X145448242Y-102543072D01*
X145342072Y-102649242D01*
X145217238Y-102732653D01*
X145078525Y-102790110D01*
X144931271Y-102819400D01*
X144781129Y-102819400D01*
X144633875Y-102790110D01*
X144495162Y-102732653D01*
X144370328Y-102649242D01*
X144264158Y-102543072D01*
X144180747Y-102418238D01*
X144123290Y-102279525D01*
X144094000Y-102132271D01*
X144094000Y-101982129D01*
X144123290Y-101834875D01*
X144180747Y-101696162D01*
X144264158Y-101571328D01*
X144370328Y-101465158D01*
X144495162Y-101381747D01*
X144633875Y-101324290D01*
X144781129Y-101295000D01*
X144931271Y-101295000D01*
X145078525Y-101324290D01*
X145078525Y-101324290D01*
G37*
G36*
X129838525Y-101324290D02*
G01*
X129977238Y-101381747D01*
X130102072Y-101465158D01*
X130208242Y-101571328D01*
X130291653Y-101696162D01*
X130349110Y-101834875D01*
X130378400Y-101982129D01*
X130378400Y-102132271D01*
X130349110Y-102279525D01*
X130291653Y-102418238D01*
X130208242Y-102543072D01*
X130102072Y-102649242D01*
X129977238Y-102732653D01*
X129838525Y-102790110D01*
X129691271Y-102819400D01*
X129541129Y-102819400D01*
X129393875Y-102790110D01*
X129255162Y-102732653D01*
X129130328Y-102649242D01*
X129024158Y-102543072D01*
X128940747Y-102418238D01*
X128883290Y-102279525D01*
X128854000Y-102132271D01*
X128854000Y-101982129D01*
X128883290Y-101834875D01*
X128940747Y-101696162D01*
X129024158Y-101571328D01*
X129130328Y-101465158D01*
X129255162Y-101381747D01*
X129393875Y-101324290D01*
X129541129Y-101295000D01*
X129691271Y-101295000D01*
X129838525Y-101324290D01*
X129838525Y-101324290D01*
G37*
G36*
X131108525Y-100054290D02*
G01*
X131247238Y-100111747D01*
X131372072Y-100195158D01*
X131478242Y-100301328D01*
X131561653Y-100426162D01*
X131619110Y-100564875D01*
X131648400Y-100712129D01*
X131648400Y-100862271D01*
X131619110Y-101009525D01*
X131561653Y-101148238D01*
X131478242Y-101273072D01*
X131372072Y-101379242D01*
X131247238Y-101462653D01*
X131108525Y-101520110D01*
X130961271Y-101549400D01*
X130811129Y-101549400D01*
X130663875Y-101520110D01*
X130525162Y-101462653D01*
X130400328Y-101379242D01*
X130294158Y-101273072D01*
X130210747Y-101148238D01*
X130153290Y-101009525D01*
X130124000Y-100862271D01*
X130124000Y-100712129D01*
X130153290Y-100564875D01*
X130210747Y-100426162D01*
X130294158Y-100301328D01*
X130400328Y-100195158D01*
X130525162Y-100111747D01*
X130663875Y-100054290D01*
X130811129Y-100025000D01*
X130961271Y-100025000D01*
X131108525Y-100054290D01*
X131108525Y-100054290D01*
G37*
G36*
X143808525Y-100054290D02*
G01*
X143947238Y-100111747D01*
X144072072Y-100195158D01*
X144178242Y-100301328D01*
X144261653Y-100426162D01*
X144319110Y-100564875D01*
X144348400Y-100712129D01*
X144348400Y-100862271D01*
X144319110Y-101009525D01*
X144261653Y-101148238D01*
X144178242Y-101273072D01*
X144072072Y-101379242D01*
X143947238Y-101462653D01*
X143808525Y-101520110D01*
X143661271Y-101549400D01*
X143511129Y-101549400D01*
X143363875Y-101520110D01*
X143225162Y-101462653D01*
X143100328Y-101379242D01*
X142994158Y-101273072D01*
X142910747Y-101148238D01*
X142853290Y-101009525D01*
X142824000Y-100862271D01*
X142824000Y-100712129D01*
X142853290Y-100564875D01*
X142910747Y-100426162D01*
X142994158Y-100301328D01*
X143100328Y-100195158D01*
X143225162Y-100111747D01*
X143363875Y-100054290D01*
X143511129Y-100025000D01*
X143661271Y-100025000D01*
X143808525Y-100054290D01*
X143808525Y-100054290D01*
G37*
G36*
X141268525Y-100054290D02*
G01*
X141407238Y-100111747D01*
X141532072Y-100195158D01*
X141638242Y-100301328D01*
X141721653Y-100426162D01*
X141779110Y-100564875D01*
X141808400Y-100712129D01*
X141808400Y-100862271D01*
X141779110Y-101009525D01*
X141721653Y-101148238D01*
X141638242Y-101273072D01*
X141532072Y-101379242D01*
X141407238Y-101462653D01*
X141268525Y-101520110D01*
X141121271Y-101549400D01*
X140971129Y-101549400D01*
X140823875Y-101520110D01*
X140685162Y-101462653D01*
X140560328Y-101379242D01*
X140454158Y-101273072D01*
X140370747Y-101148238D01*
X140313290Y-101009525D01*
X140284000Y-100862271D01*
X140284000Y-100712129D01*
X140313290Y-100564875D01*
X140370747Y-100426162D01*
X140454158Y-100301328D01*
X140560328Y-100195158D01*
X140685162Y-100111747D01*
X140823875Y-100054290D01*
X140971129Y-100025000D01*
X141121271Y-100025000D01*
X141268525Y-100054290D01*
X141268525Y-100054290D01*
G37*
G36*
X133648525Y-100054290D02*
G01*
X133787238Y-100111747D01*
X133912072Y-100195158D01*
X134018242Y-100301328D01*
X134101653Y-100426162D01*
X134159110Y-100564875D01*
X134188400Y-100712129D01*
X134188400Y-100862271D01*
X134159110Y-101009525D01*
X134101653Y-101148238D01*
X134018242Y-101273072D01*
X133912072Y-101379242D01*
X133787238Y-101462653D01*
X133648525Y-101520110D01*
X133501271Y-101549400D01*
X133351129Y-101549400D01*
X133203875Y-101520110D01*
X133065162Y-101462653D01*
X132940328Y-101379242D01*
X132834158Y-101273072D01*
X132750747Y-101148238D01*
X132693290Y-101009525D01*
X132664000Y-100862271D01*
X132664000Y-100712129D01*
X132693290Y-100564875D01*
X132750747Y-100426162D01*
X132834158Y-100301328D01*
X132940328Y-100195158D01*
X133065162Y-100111747D01*
X133203875Y-100054290D01*
X133351129Y-100025000D01*
X133501271Y-100025000D01*
X133648525Y-100054290D01*
X133648525Y-100054290D01*
G37*
G36*
X136188525Y-100054290D02*
G01*
X136327238Y-100111747D01*
X136452072Y-100195158D01*
X136558242Y-100301328D01*
X136641653Y-100426162D01*
X136699110Y-100564875D01*
X136728400Y-100712129D01*
X136728400Y-100862271D01*
X136699110Y-101009525D01*
X136641653Y-101148238D01*
X136558242Y-101273072D01*
X136452072Y-101379242D01*
X136327238Y-101462653D01*
X136188525Y-101520110D01*
X136041271Y-101549400D01*
X135891129Y-101549400D01*
X135743875Y-101520110D01*
X135605162Y-101462653D01*
X135480328Y-101379242D01*
X135374158Y-101273072D01*
X135290747Y-101148238D01*
X135233290Y-101009525D01*
X135204000Y-100862271D01*
X135204000Y-100712129D01*
X135233290Y-100564875D01*
X135290747Y-100426162D01*
X135374158Y-100301328D01*
X135480328Y-100195158D01*
X135605162Y-100111747D01*
X135743875Y-100054290D01*
X135891129Y-100025000D01*
X136041271Y-100025000D01*
X136188525Y-100054290D01*
X136188525Y-100054290D01*
G37*
G36*
X139268400Y-101549400D02*
G01*
X137744000Y-101549400D01*
X137744000Y-100025000D01*
X139268400Y-100025000D01*
X139268400Y-101549400D01*
X139268400Y-101549400D01*
G37*
G36*
X129838525Y-98784290D02*
G01*
X129977238Y-98841747D01*
X130102072Y-98925158D01*
X130208242Y-99031328D01*
X130291653Y-99156162D01*
X130349110Y-99294875D01*
X130378400Y-99442129D01*
X130378400Y-99592271D01*
X130349110Y-99739525D01*
X130291653Y-99878238D01*
X130208242Y-100003072D01*
X130102072Y-100109242D01*
X129977238Y-100192653D01*
X129838525Y-100250110D01*
X129691271Y-100279400D01*
X129541129Y-100279400D01*
X129393875Y-100250110D01*
X129255162Y-100192653D01*
X129130328Y-100109242D01*
X129024158Y-100003072D01*
X128940747Y-99878238D01*
X128883290Y-99739525D01*
X128854000Y-99592271D01*
X128854000Y-99442129D01*
X128883290Y-99294875D01*
X128940747Y-99156162D01*
X129024158Y-99031328D01*
X129130328Y-98925158D01*
X129255162Y-98841747D01*
X129393875Y-98784290D01*
X129541129Y-98755000D01*
X129691271Y-98755000D01*
X129838525Y-98784290D01*
X129838525Y-98784290D01*
G37*
G36*
X145078525Y-98784290D02*
G01*
X145217238Y-98841747D01*
X145342072Y-98925158D01*
X145448242Y-99031328D01*
X145531653Y-99156162D01*
X145589110Y-99294875D01*
X145618400Y-99442129D01*
X145618400Y-99592271D01*
X145589110Y-99739525D01*
X145531653Y-99878238D01*
X145448242Y-100003072D01*
X145342072Y-100109242D01*
X145217238Y-100192653D01*
X145078525Y-100250110D01*
X144931271Y-100279400D01*
X144781129Y-100279400D01*
X144633875Y-100250110D01*
X144495162Y-100192653D01*
X144370328Y-100109242D01*
X144264158Y-100003072D01*
X144180747Y-99878238D01*
X144123290Y-99739525D01*
X144094000Y-99592271D01*
X144094000Y-99442129D01*
X144123290Y-99294875D01*
X144180747Y-99156162D01*
X144264158Y-99031328D01*
X144370328Y-98925158D01*
X144495162Y-98841747D01*
X144633875Y-98784290D01*
X144781129Y-98755000D01*
X144931271Y-98755000D01*
X145078525Y-98784290D01*
X145078525Y-98784290D01*
G37*
G36*
X141268525Y-97514290D02*
G01*
X141407238Y-97571747D01*
X141532072Y-97655158D01*
X141638242Y-97761328D01*
X141721653Y-97886162D01*
X141779110Y-98024875D01*
X141808400Y-98172129D01*
X141808400Y-98322271D01*
X141779110Y-98469525D01*
X141721653Y-98608238D01*
X141638242Y-98733072D01*
X141532072Y-98839242D01*
X141407238Y-98922653D01*
X141268525Y-98980110D01*
X141121271Y-99009400D01*
X140971129Y-99009400D01*
X140823875Y-98980110D01*
X140685162Y-98922653D01*
X140560328Y-98839242D01*
X140454158Y-98733072D01*
X140370747Y-98608238D01*
X140313290Y-98469525D01*
X140284000Y-98322271D01*
X140284000Y-98172129D01*
X140313290Y-98024875D01*
X140370747Y-97886162D01*
X140454158Y-97761328D01*
X140560328Y-97655158D01*
X140685162Y-97571747D01*
X140823875Y-97514290D01*
X140971129Y-97485000D01*
X141121271Y-97485000D01*
X141268525Y-97514290D01*
X141268525Y-97514290D01*
G37*
G36*
X138728525Y-97514290D02*
G01*
X138867238Y-97571747D01*
X138992072Y-97655158D01*
X139098242Y-97761328D01*
X139181653Y-97886162D01*
X139239110Y-98024875D01*
X139268400Y-98172129D01*
X139268400Y-98322271D01*
X139239110Y-98469525D01*
X139181653Y-98608238D01*
X139098242Y-98733072D01*
X138992072Y-98839242D01*
X138867238Y-98922653D01*
X138728525Y-98980110D01*
X138581271Y-99009400D01*
X138431129Y-99009400D01*
X138283875Y-98980110D01*
X138145162Y-98922653D01*
X138020328Y-98839242D01*
X137914158Y-98733072D01*
X137830747Y-98608238D01*
X137773290Y-98469525D01*
X137744000Y-98322271D01*
X137744000Y-98172129D01*
X137773290Y-98024875D01*
X137830747Y-97886162D01*
X137914158Y-97761328D01*
X138020328Y-97655158D01*
X138145162Y-97571747D01*
X138283875Y-97514290D01*
X138431129Y-97485000D01*
X138581271Y-97485000D01*
X138728525Y-97514290D01*
X138728525Y-97514290D01*
G37*
G36*
X133648525Y-97514290D02*
G01*
X133787238Y-97571747D01*
X133912072Y-97655158D01*
X134018242Y-97761328D01*
X134101653Y-97886162D01*
X134159110Y-98024875D01*
X134188400Y-98172129D01*
X134188400Y-98322271D01*
X134159110Y-98469525D01*
X134101653Y-98608238D01*
X134018242Y-98733072D01*
X133912072Y-98839242D01*
X133787238Y-98922653D01*
X133648525Y-98980110D01*
X133501271Y-99009400D01*
X133351129Y-99009400D01*
X133203875Y-98980110D01*
X133065162Y-98922653D01*
X132940328Y-98839242D01*
X132834158Y-98733072D01*
X132750747Y-98608238D01*
X132693290Y-98469525D01*
X132664000Y-98322271D01*
X132664000Y-98172129D01*
X132693290Y-98024875D01*
X132750747Y-97886162D01*
X132834158Y-97761328D01*
X132940328Y-97655158D01*
X133065162Y-97571747D01*
X133203875Y-97514290D01*
X133351129Y-97485000D01*
X133501271Y-97485000D01*
X133648525Y-97514290D01*
X133648525Y-97514290D01*
G37*
G36*
X136188525Y-97514290D02*
G01*
X136327238Y-97571747D01*
X136452072Y-97655158D01*
X136558242Y-97761328D01*
X136641653Y-97886162D01*
X136699110Y-98024875D01*
X136728400Y-98172129D01*
X136728400Y-98322271D01*
X136699110Y-98469525D01*
X136641653Y-98608238D01*
X136558242Y-98733072D01*
X136452072Y-98839242D01*
X136327238Y-98922653D01*
X136188525Y-98980110D01*
X136041271Y-99009400D01*
X135891129Y-99009400D01*
X135743875Y-98980110D01*
X135605162Y-98922653D01*
X135480328Y-98839242D01*
X135374158Y-98733072D01*
X135290747Y-98608238D01*
X135233290Y-98469525D01*
X135204000Y-98322271D01*
X135204000Y-98172129D01*
X135233290Y-98024875D01*
X135290747Y-97886162D01*
X135374158Y-97761328D01*
X135480328Y-97655158D01*
X135605162Y-97571747D01*
X135743875Y-97514290D01*
X135891129Y-97485000D01*
X136041271Y-97485000D01*
X136188525Y-97514290D01*
X136188525Y-97514290D01*
G37*
G36*
X129838525Y-96244290D02*
G01*
X129977238Y-96301747D01*
X130102072Y-96385158D01*
X130208242Y-96491328D01*
X130291653Y-96616162D01*
X130349110Y-96754875D01*
X130378400Y-96902129D01*
X130378400Y-97052271D01*
X130349110Y-97199525D01*
X130291653Y-97338238D01*
X130208242Y-97463072D01*
X130102072Y-97569242D01*
X129977238Y-97652653D01*
X129838525Y-97710110D01*
X129691271Y-97739400D01*
X129541129Y-97739400D01*
X129393875Y-97710110D01*
X129255162Y-97652653D01*
X129130328Y-97569242D01*
X129024158Y-97463072D01*
X128940747Y-97338238D01*
X128883290Y-97199525D01*
X128854000Y-97052271D01*
X128854000Y-96902129D01*
X128883290Y-96754875D01*
X128940747Y-96616162D01*
X129024158Y-96491328D01*
X129130328Y-96385158D01*
X129255162Y-96301747D01*
X129393875Y-96244290D01*
X129541129Y-96215000D01*
X129691271Y-96215000D01*
X129838525Y-96244290D01*
X129838525Y-96244290D01*
G37*
G36*
X145078525Y-96244290D02*
G01*
X145217238Y-96301747D01*
X145342072Y-96385158D01*
X145448242Y-96491328D01*
X145531653Y-96616162D01*
X145589110Y-96754875D01*
X145618400Y-96902129D01*
X145618400Y-97052271D01*
X145589110Y-97199525D01*
X145531653Y-97338238D01*
X145448242Y-97463072D01*
X145342072Y-97569242D01*
X145217238Y-97652653D01*
X145078525Y-97710110D01*
X144931271Y-97739400D01*
X144781129Y-97739400D01*
X144633875Y-97710110D01*
X144495162Y-97652653D01*
X144370328Y-97569242D01*
X144264158Y-97463072D01*
X144180747Y-97338238D01*
X144123290Y-97199525D01*
X144094000Y-97052271D01*
X144094000Y-96902129D01*
X144123290Y-96754875D01*
X144180747Y-96616162D01*
X144264158Y-96491328D01*
X144370328Y-96385158D01*
X144495162Y-96301747D01*
X144633875Y-96244290D01*
X144781129Y-96215000D01*
X144931271Y-96215000D01*
X145078525Y-96244290D01*
X145078525Y-96244290D01*
G37*
G36*
X141014899Y-95642845D02*
G01*
X141052395Y-95654220D01*
X141086954Y-95672692D01*
X141117247Y-95697553D01*
X141142108Y-95727846D01*
X141160580Y-95762405D01*
X141171955Y-95799901D01*
X141176400Y-95845038D01*
X141176400Y-96483762D01*
X141171955Y-96528899D01*
X141160580Y-96566395D01*
X141142108Y-96600954D01*
X141117247Y-96631247D01*
X141086954Y-96656108D01*
X141052395Y-96674580D01*
X141014899Y-96685955D01*
X140969762Y-96690400D01*
X140231038Y-96690400D01*
X140185901Y-96685955D01*
X140148405Y-96674580D01*
X140113846Y-96656108D01*
X140083553Y-96631247D01*
X140058692Y-96600954D01*
X140040220Y-96566395D01*
X140028845Y-96528899D01*
X140024400Y-96483762D01*
X140024400Y-95845038D01*
X140028845Y-95799901D01*
X140040220Y-95762405D01*
X140058692Y-95727846D01*
X140083553Y-95697553D01*
X140113846Y-95672692D01*
X140148405Y-95654220D01*
X140185901Y-95642845D01*
X140231038Y-95638400D01*
X140969762Y-95638400D01*
X141014899Y-95642845D01*
X141014899Y-95642845D01*
G37*
G36*
X139264899Y-95642845D02*
G01*
X139302395Y-95654220D01*
X139336954Y-95672692D01*
X139367247Y-95697553D01*
X139392108Y-95727846D01*
X139410580Y-95762405D01*
X139421955Y-95799901D01*
X139426400Y-95845038D01*
X139426400Y-96483762D01*
X139421955Y-96528899D01*
X139410580Y-96566395D01*
X139392108Y-96600954D01*
X139367247Y-96631247D01*
X139336954Y-96656108D01*
X139302395Y-96674580D01*
X139264899Y-96685955D01*
X139219762Y-96690400D01*
X138481038Y-96690400D01*
X138435901Y-96685955D01*
X138398405Y-96674580D01*
X138363846Y-96656108D01*
X138333553Y-96631247D01*
X138308692Y-96600954D01*
X138290220Y-96566395D01*
X138278845Y-96528899D01*
X138274400Y-96483762D01*
X138274400Y-95845038D01*
X138278845Y-95799901D01*
X138290220Y-95762405D01*
X138308692Y-95727846D01*
X138333553Y-95697553D01*
X138363846Y-95672692D01*
X138398405Y-95654220D01*
X138435901Y-95642845D01*
X138481038Y-95638400D01*
X139219762Y-95638400D01*
X139264899Y-95642845D01*
X139264899Y-95642845D01*
G37*
G36*
X145078525Y-93704290D02*
G01*
X145217238Y-93761747D01*
X145342072Y-93845158D01*
X145448242Y-93951328D01*
X145531653Y-94076162D01*
X145589110Y-94214875D01*
X145618400Y-94362129D01*
X145618400Y-94512271D01*
X145589110Y-94659525D01*
X145531653Y-94798238D01*
X145448242Y-94923072D01*
X145342072Y-95029242D01*
X145217238Y-95112653D01*
X145078525Y-95170110D01*
X144931271Y-95199400D01*
X144781129Y-95199400D01*
X144633875Y-95170110D01*
X144495162Y-95112653D01*
X144370328Y-95029242D01*
X144264158Y-94923072D01*
X144180747Y-94798238D01*
X144123290Y-94659525D01*
X144094000Y-94512271D01*
X144094000Y-94362129D01*
X144123290Y-94214875D01*
X144180747Y-94076162D01*
X144264158Y-93951328D01*
X144370328Y-93845158D01*
X144495162Y-93761747D01*
X144633875Y-93704290D01*
X144781129Y-93675000D01*
X144931271Y-93675000D01*
X145078525Y-93704290D01*
X145078525Y-93704290D01*
G37*
G36*
X129838525Y-93704290D02*
G01*
X129977238Y-93761747D01*
X130102072Y-93845158D01*
X130208242Y-93951328D01*
X130291653Y-94076162D01*
X130349110Y-94214875D01*
X130378400Y-94362129D01*
X130378400Y-94512271D01*
X130349110Y-94659525D01*
X130291653Y-94798238D01*
X130208242Y-94923072D01*
X130102072Y-95029242D01*
X129977238Y-95112653D01*
X129838525Y-95170110D01*
X129691271Y-95199400D01*
X129541129Y-95199400D01*
X129393875Y-95170110D01*
X129255162Y-95112653D01*
X129130328Y-95029242D01*
X129024158Y-94923072D01*
X128940747Y-94798238D01*
X128883290Y-94659525D01*
X128854000Y-94512271D01*
X128854000Y-94362129D01*
X128883290Y-94214875D01*
X128940747Y-94076162D01*
X129024158Y-93951328D01*
X129130328Y-93845158D01*
X129255162Y-93761747D01*
X129393875Y-93704290D01*
X129541129Y-93675000D01*
X129691271Y-93675000D01*
X129838525Y-93704290D01*
X129838525Y-93704290D01*
G37*
G36*
X135492442Y-91053518D02*
G01*
X135558627Y-91060037D01*
X135728466Y-91111557D01*
X135884991Y-91195222D01*
X135917312Y-91221747D01*
X136022186Y-91307814D01*
X136105448Y-91409271D01*
X136134778Y-91445009D01*
X136218443Y-91601534D01*
X136269963Y-91771373D01*
X136287359Y-91948000D01*
X136269963Y-92124627D01*
X136218443Y-92294466D01*
X136134778Y-92450991D01*
X136105448Y-92486729D01*
X136022186Y-92588186D01*
X135935410Y-92659400D01*
X135884991Y-92700778D01*
X135728466Y-92784443D01*
X135558627Y-92835963D01*
X135492442Y-92842482D01*
X135426260Y-92849000D01*
X135337740Y-92849000D01*
X135271558Y-92842482D01*
X135205373Y-92835963D01*
X135035534Y-92784443D01*
X134879009Y-92700778D01*
X134828590Y-92659400D01*
X134741814Y-92588186D01*
X134658552Y-92486729D01*
X134629222Y-92450991D01*
X134545557Y-92294466D01*
X134494037Y-92124627D01*
X134476641Y-91948000D01*
X134494037Y-91771373D01*
X134545557Y-91601534D01*
X134629222Y-91445009D01*
X134658552Y-91409271D01*
X134741814Y-91307814D01*
X134846688Y-91221747D01*
X134879009Y-91195222D01*
X135035534Y-91111557D01*
X135205373Y-91060037D01*
X135271558Y-91053518D01*
X135337740Y-91047000D01*
X135426260Y-91047000D01*
X135492442Y-91053518D01*
X135492442Y-91053518D01*
G37*
G36*
X138823000Y-92849000D02*
G01*
X137021000Y-92849000D01*
X137021000Y-91047000D01*
X138823000Y-91047000D01*
X138823000Y-92849000D01*
X138823000Y-92849000D01*
G37*
G36*
X145078525Y-91164290D02*
G01*
X145217238Y-91221747D01*
X145342072Y-91305158D01*
X145448242Y-91411328D01*
X145531653Y-91536162D01*
X145589110Y-91674875D01*
X145618400Y-91822129D01*
X145618400Y-91972271D01*
X145589110Y-92119525D01*
X145531653Y-92258238D01*
X145448242Y-92383072D01*
X145342072Y-92489242D01*
X145217238Y-92572653D01*
X145078525Y-92630110D01*
X144931271Y-92659400D01*
X144781129Y-92659400D01*
X144633875Y-92630110D01*
X144495162Y-92572653D01*
X144370328Y-92489242D01*
X144264158Y-92383072D01*
X144180747Y-92258238D01*
X144123290Y-92119525D01*
X144094000Y-91972271D01*
X144094000Y-91822129D01*
X144123290Y-91674875D01*
X144180747Y-91536162D01*
X144264158Y-91411328D01*
X144370328Y-91305158D01*
X144495162Y-91221747D01*
X144633875Y-91164290D01*
X144781129Y-91135000D01*
X144931271Y-91135000D01*
X145078525Y-91164290D01*
X145078525Y-91164290D01*
G37*
G36*
X129838525Y-91164290D02*
G01*
X129977238Y-91221747D01*
X130102072Y-91305158D01*
X130208242Y-91411328D01*
X130291653Y-91536162D01*
X130349110Y-91674875D01*
X130378400Y-91822129D01*
X130378400Y-91972271D01*
X130349110Y-92119525D01*
X130291653Y-92258238D01*
X130208242Y-92383072D01*
X130102072Y-92489242D01*
X129977238Y-92572653D01*
X129838525Y-92630110D01*
X129691271Y-92659400D01*
X129541129Y-92659400D01*
X129393875Y-92630110D01*
X129255162Y-92572653D01*
X129130328Y-92489242D01*
X129024158Y-92383072D01*
X128940747Y-92258238D01*
X128883290Y-92119525D01*
X128854000Y-91972271D01*
X128854000Y-91822129D01*
X128883290Y-91674875D01*
X128940747Y-91536162D01*
X129024158Y-91411328D01*
X129130328Y-91305158D01*
X129255162Y-91221747D01*
X129393875Y-91164290D01*
X129541129Y-91135000D01*
X129691271Y-91135000D01*
X129838525Y-91164290D01*
X129838525Y-91164290D01*
G37*
G36*
X135492443Y-88513519D02*
G01*
X135558627Y-88520037D01*
X135728466Y-88571557D01*
X135884991Y-88655222D01*
X135917312Y-88681747D01*
X136022186Y-88767814D01*
X136105448Y-88869271D01*
X136134778Y-88905009D01*
X136218443Y-89061534D01*
X136269963Y-89231373D01*
X136287359Y-89408000D01*
X136269963Y-89584627D01*
X136218443Y-89754466D01*
X136134778Y-89910991D01*
X136105448Y-89946729D01*
X136022186Y-90048186D01*
X135935410Y-90119400D01*
X135884991Y-90160778D01*
X135728466Y-90244443D01*
X135558627Y-90295963D01*
X135492443Y-90302481D01*
X135426260Y-90309000D01*
X135337740Y-90309000D01*
X135271557Y-90302481D01*
X135205373Y-90295963D01*
X135035534Y-90244443D01*
X134879009Y-90160778D01*
X134828590Y-90119400D01*
X134741814Y-90048186D01*
X134658552Y-89946729D01*
X134629222Y-89910991D01*
X134545557Y-89754466D01*
X134494037Y-89584627D01*
X134476641Y-89408000D01*
X134494037Y-89231373D01*
X134545557Y-89061534D01*
X134629222Y-88905009D01*
X134658552Y-88869271D01*
X134741814Y-88767814D01*
X134846688Y-88681747D01*
X134879009Y-88655222D01*
X135035534Y-88571557D01*
X135205373Y-88520037D01*
X135271557Y-88513519D01*
X135337740Y-88507000D01*
X135426260Y-88507000D01*
X135492443Y-88513519D01*
X135492443Y-88513519D01*
G37*
G36*
X138032443Y-88513519D02*
G01*
X138098627Y-88520037D01*
X138268466Y-88571557D01*
X138424991Y-88655222D01*
X138457312Y-88681747D01*
X138562186Y-88767814D01*
X138645448Y-88869271D01*
X138674778Y-88905009D01*
X138758443Y-89061534D01*
X138809963Y-89231373D01*
X138827359Y-89408000D01*
X138809963Y-89584627D01*
X138758443Y-89754466D01*
X138674778Y-89910991D01*
X138645448Y-89946729D01*
X138562186Y-90048186D01*
X138475410Y-90119400D01*
X138424991Y-90160778D01*
X138268466Y-90244443D01*
X138098627Y-90295963D01*
X138032443Y-90302481D01*
X137966260Y-90309000D01*
X137877740Y-90309000D01*
X137811557Y-90302481D01*
X137745373Y-90295963D01*
X137575534Y-90244443D01*
X137419009Y-90160778D01*
X137368590Y-90119400D01*
X137281814Y-90048186D01*
X137198552Y-89946729D01*
X137169222Y-89910991D01*
X137085557Y-89754466D01*
X137034037Y-89584627D01*
X137016641Y-89408000D01*
X137034037Y-89231373D01*
X137085557Y-89061534D01*
X137169222Y-88905009D01*
X137198552Y-88869271D01*
X137281814Y-88767814D01*
X137386688Y-88681747D01*
X137419009Y-88655222D01*
X137575534Y-88571557D01*
X137745373Y-88520037D01*
X137811557Y-88513519D01*
X137877740Y-88507000D01*
X137966260Y-88507000D01*
X138032443Y-88513519D01*
X138032443Y-88513519D01*
G37*
G36*
X129838525Y-88624290D02*
G01*
X129977238Y-88681747D01*
X130102072Y-88765158D01*
X130208242Y-88871328D01*
X130291653Y-88996162D01*
X130349110Y-89134875D01*
X130378400Y-89282129D01*
X130378400Y-89432271D01*
X130349110Y-89579525D01*
X130291653Y-89718238D01*
X130208242Y-89843072D01*
X130102072Y-89949242D01*
X129977238Y-90032653D01*
X129838525Y-90090110D01*
X129691271Y-90119400D01*
X129541129Y-90119400D01*
X129393875Y-90090110D01*
X129255162Y-90032653D01*
X129130328Y-89949242D01*
X129024158Y-89843072D01*
X128940747Y-89718238D01*
X128883290Y-89579525D01*
X128854000Y-89432271D01*
X128854000Y-89282129D01*
X128883290Y-89134875D01*
X128940747Y-88996162D01*
X129024158Y-88871328D01*
X129130328Y-88765158D01*
X129255162Y-88681747D01*
X129393875Y-88624290D01*
X129541129Y-88595000D01*
X129691271Y-88595000D01*
X129838525Y-88624290D01*
X129838525Y-88624290D01*
G37*
G36*
X145078525Y-88624290D02*
G01*
X145217238Y-88681747D01*
X145342072Y-88765158D01*
X145448242Y-88871328D01*
X145531653Y-88996162D01*
X145589110Y-89134875D01*
X145618400Y-89282129D01*
X145618400Y-89432271D01*
X145589110Y-89579525D01*
X145531653Y-89718238D01*
X145448242Y-89843072D01*
X145342072Y-89949242D01*
X145217238Y-90032653D01*
X145078525Y-90090110D01*
X144931271Y-90119400D01*
X144781129Y-90119400D01*
X144633875Y-90090110D01*
X144495162Y-90032653D01*
X144370328Y-89949242D01*
X144264158Y-89843072D01*
X144180747Y-89718238D01*
X144123290Y-89579525D01*
X144094000Y-89432271D01*
X144094000Y-89282129D01*
X144123290Y-89134875D01*
X144180747Y-88996162D01*
X144264158Y-88871328D01*
X144370328Y-88765158D01*
X144495162Y-88681747D01*
X144633875Y-88624290D01*
X144781129Y-88595000D01*
X144931271Y-88595000D01*
X145078525Y-88624290D01*
X145078525Y-88624290D01*
G37*
G36*
X130378400Y-87579400D02*
G01*
X128854000Y-87579400D01*
X128854000Y-86055000D01*
X130378400Y-86055000D01*
X130378400Y-87579400D01*
X130378400Y-87579400D01*
G37*
G36*
X145618400Y-87579400D02*
G01*
X144094000Y-87579400D01*
X144094000Y-86055000D01*
X145618400Y-86055000D01*
X145618400Y-87579400D01*
X145618400Y-87579400D01*
G37*
M02*
