G04 #@! TF.GenerationSoftware,KiCad,Pcbnew,(5.1.0)-1*
G04 #@! TF.CreationDate,2021-03-07T22:37:12+01:00*
G04 #@! TF.ProjectId,Atari OSS Cartridge internal,41746172-6920-44f5-9353-204361727472,rev?*
G04 #@! TF.SameCoordinates,Original*
G04 #@! TF.FileFunction,Legend,Bot*
G04 #@! TF.FilePolarity,Positive*
%FSLAX46Y46*%
G04 Gerber Fmt 4.6, Leading zero omitted, Abs format (unit mm)*
G04 Created by KiCad (PCBNEW (5.1.0)-1) date 2021-03-07 22:37:12*
%MOMM*%
%LPD*%
G04 APERTURE LIST*
%ADD10C,0.120000*%
%ADD11C,0.150000*%
%ADD12O,1.802000X1.802000*%
%ADD13R,1.802000X1.802000*%
%ADD14C,1.524400*%
%ADD15R,1.524400X1.524400*%
%ADD16C,0.100000*%
%ADD17C,1.052000*%
G04 APERTURE END LIST*
D10*
X139554133Y-95654400D02*
X139896667Y-95654400D01*
X139554133Y-96674400D02*
X139896667Y-96674400D01*
D11*
X139168166Y-95162642D02*
X139215785Y-95210261D01*
X139358642Y-95257880D01*
X139453880Y-95257880D01*
X139596738Y-95210261D01*
X139691976Y-95115023D01*
X139739595Y-95019785D01*
X139787214Y-94829309D01*
X139787214Y-94686452D01*
X139739595Y-94495976D01*
X139691976Y-94400738D01*
X139596738Y-94305500D01*
X139453880Y-94257880D01*
X139358642Y-94257880D01*
X139215785Y-94305500D01*
X139168166Y-94353119D01*
X138834833Y-94257880D02*
X138215785Y-94257880D01*
X138549119Y-94638833D01*
X138406261Y-94638833D01*
X138311023Y-94686452D01*
X138263404Y-94734071D01*
X138215785Y-94829309D01*
X138215785Y-95067404D01*
X138263404Y-95162642D01*
X138311023Y-95210261D01*
X138406261Y-95257880D01*
X138691976Y-95257880D01*
X138787214Y-95210261D01*
X138834833Y-95162642D01*
%LPC*%
D12*
X135382000Y-89408000D03*
X137922000Y-89408000D03*
X135382000Y-91948000D03*
D13*
X137922000Y-91948000D03*
D14*
X141046200Y-103327200D03*
X141046200Y-105867200D03*
X141046200Y-108407200D03*
X141046200Y-110947200D03*
X143586200Y-103327200D03*
X143586200Y-105867200D03*
X143586200Y-108407200D03*
X143586200Y-110947200D03*
X138506200Y-110947200D03*
X135966200Y-110947200D03*
X141046200Y-113487200D03*
X138506200Y-113487200D03*
X135966200Y-113487200D03*
X133426200Y-113487200D03*
X133426200Y-110947200D03*
X133426200Y-108407200D03*
X133426200Y-105867200D03*
X133426200Y-103327200D03*
X130886200Y-110947200D03*
X130886200Y-108407200D03*
X130886200Y-105867200D03*
X130886200Y-103327200D03*
X130886200Y-100787200D03*
X141046200Y-98247200D03*
X138506200Y-98247200D03*
X133426200Y-98247200D03*
X135966200Y-98247200D03*
X143586200Y-100787200D03*
X141046200Y-100787200D03*
X133426200Y-100787200D03*
X135966200Y-100787200D03*
D15*
X138506200Y-100787200D03*
D12*
X121031000Y-104063800D03*
X121031000Y-106603800D03*
X121031000Y-109143800D03*
D13*
X121031000Y-111683800D03*
D16*
G36*
X140939179Y-95639666D02*
G01*
X140964709Y-95643453D01*
X140989745Y-95649725D01*
X141014046Y-95658420D01*
X141037377Y-95669455D01*
X141059515Y-95682723D01*
X141080245Y-95698098D01*
X141099369Y-95715431D01*
X141116702Y-95734555D01*
X141132077Y-95755285D01*
X141145345Y-95777423D01*
X141156380Y-95800754D01*
X141165075Y-95825055D01*
X141171347Y-95850091D01*
X141175134Y-95875621D01*
X141176400Y-95901400D01*
X141176400Y-96427400D01*
X141175134Y-96453179D01*
X141171347Y-96478709D01*
X141165075Y-96503745D01*
X141156380Y-96528046D01*
X141145345Y-96551377D01*
X141132077Y-96573515D01*
X141116702Y-96594245D01*
X141099369Y-96613369D01*
X141080245Y-96630702D01*
X141059515Y-96646077D01*
X141037377Y-96659345D01*
X141014046Y-96670380D01*
X140989745Y-96679075D01*
X140964709Y-96685347D01*
X140939179Y-96689134D01*
X140913400Y-96690400D01*
X140287400Y-96690400D01*
X140261621Y-96689134D01*
X140236091Y-96685347D01*
X140211055Y-96679075D01*
X140186754Y-96670380D01*
X140163423Y-96659345D01*
X140141285Y-96646077D01*
X140120555Y-96630702D01*
X140101431Y-96613369D01*
X140084098Y-96594245D01*
X140068723Y-96573515D01*
X140055455Y-96551377D01*
X140044420Y-96528046D01*
X140035725Y-96503745D01*
X140029453Y-96478709D01*
X140025666Y-96453179D01*
X140024400Y-96427400D01*
X140024400Y-95901400D01*
X140025666Y-95875621D01*
X140029453Y-95850091D01*
X140035725Y-95825055D01*
X140044420Y-95800754D01*
X140055455Y-95777423D01*
X140068723Y-95755285D01*
X140084098Y-95734555D01*
X140101431Y-95715431D01*
X140120555Y-95698098D01*
X140141285Y-95682723D01*
X140163423Y-95669455D01*
X140186754Y-95658420D01*
X140211055Y-95649725D01*
X140236091Y-95643453D01*
X140261621Y-95639666D01*
X140287400Y-95638400D01*
X140913400Y-95638400D01*
X140939179Y-95639666D01*
X140939179Y-95639666D01*
G37*
D17*
X140600400Y-96164400D03*
D16*
G36*
X139189179Y-95639666D02*
G01*
X139214709Y-95643453D01*
X139239745Y-95649725D01*
X139264046Y-95658420D01*
X139287377Y-95669455D01*
X139309515Y-95682723D01*
X139330245Y-95698098D01*
X139349369Y-95715431D01*
X139366702Y-95734555D01*
X139382077Y-95755285D01*
X139395345Y-95777423D01*
X139406380Y-95800754D01*
X139415075Y-95825055D01*
X139421347Y-95850091D01*
X139425134Y-95875621D01*
X139426400Y-95901400D01*
X139426400Y-96427400D01*
X139425134Y-96453179D01*
X139421347Y-96478709D01*
X139415075Y-96503745D01*
X139406380Y-96528046D01*
X139395345Y-96551377D01*
X139382077Y-96573515D01*
X139366702Y-96594245D01*
X139349369Y-96613369D01*
X139330245Y-96630702D01*
X139309515Y-96646077D01*
X139287377Y-96659345D01*
X139264046Y-96670380D01*
X139239745Y-96679075D01*
X139214709Y-96685347D01*
X139189179Y-96689134D01*
X139163400Y-96690400D01*
X138537400Y-96690400D01*
X138511621Y-96689134D01*
X138486091Y-96685347D01*
X138461055Y-96679075D01*
X138436754Y-96670380D01*
X138413423Y-96659345D01*
X138391285Y-96646077D01*
X138370555Y-96630702D01*
X138351431Y-96613369D01*
X138334098Y-96594245D01*
X138318723Y-96573515D01*
X138305455Y-96551377D01*
X138294420Y-96528046D01*
X138285725Y-96503745D01*
X138279453Y-96478709D01*
X138275666Y-96453179D01*
X138274400Y-96427400D01*
X138274400Y-95901400D01*
X138275666Y-95875621D01*
X138279453Y-95850091D01*
X138285725Y-95825055D01*
X138294420Y-95800754D01*
X138305455Y-95777423D01*
X138318723Y-95755285D01*
X138334098Y-95734555D01*
X138351431Y-95715431D01*
X138370555Y-95698098D01*
X138391285Y-95682723D01*
X138413423Y-95669455D01*
X138436754Y-95658420D01*
X138461055Y-95649725D01*
X138486091Y-95643453D01*
X138511621Y-95639666D01*
X138537400Y-95638400D01*
X139163400Y-95638400D01*
X139189179Y-95639666D01*
X139189179Y-95639666D01*
G37*
D17*
X138850400Y-96164400D03*
D14*
X129616200Y-114757200D03*
X129616200Y-112217200D03*
X129616200Y-109677200D03*
X129616200Y-107137200D03*
X129616200Y-104597200D03*
X129616200Y-102057200D03*
X129616200Y-99517200D03*
X129616200Y-96977200D03*
X129616200Y-94437200D03*
X129616200Y-91897200D03*
X129616200Y-89357200D03*
D15*
X129616200Y-86817200D03*
D14*
X144856200Y-114757200D03*
X144856200Y-112217200D03*
X144856200Y-109677200D03*
X144856200Y-107137200D03*
X144856200Y-104597200D03*
X144856200Y-102057200D03*
X144856200Y-99517200D03*
X144856200Y-96977200D03*
X144856200Y-94437200D03*
X144856200Y-91897200D03*
X144856200Y-89357200D03*
D15*
X144856200Y-86817200D03*
M02*
